<?xml version="1.0" encoding="utf-8"?>
<!-- Generator: Adobe Illustrator 26.0.1, SVG Export Plug-In . SVG Version: 6.00 Build 0)  -->
<svg version="1.1" id="Layer_1" xmlns="http://www.w3.org/2000/svg" xmlns:xlink="http://www.w3.org/1999/xlink" x="0px" y="0px"
	 viewBox="0 0 1920 660" style="enable-background:new 0 0 1920 660;" xml:space="preserve">
<style type="text/css">
	.st0{fill:#333333;}
	.st1{fill:#5778C4;}
	.st2{fill:#E93131;}
	.st3{fill:#3BAB49;}
	.st4{fill:#F4B40B;}
	.st5{fill:#FAF9F9;}
	.st6{fill:#FAFAFA;}
	.st7{fill:#F9F9F9;}
	.st8{fill:#FCFCFC;}
	.st9{fill:#FDFDFD;}
	.st10{fill:#F4F4F4;}
	.st11{fill:#F3F3F3;}
	.st12{fill:#F5F5F5;}
	.st13{fill:#EDEDEC;}
	.st14{fill:#F8F8F8;}
</style>
<g>
	<path class="st0" d="M1809.37,652.16H110.63c-54.75,0-99.13-44.38-99.13-99.13V106.97c0-54.75,44.38-99.13,99.13-99.13h1698.74
		c54.75,0,99.13,44.38,99.13,99.13v446.06C1908.5,607.78,1864.12,652.16,1809.37,652.16z"/>
	<g>
		<path class="st1" d="M120.36,479.17c-0.57-4.67-1.63-9.34-1.63-14.01c-0.1-94.05-0.1-188.1,0-282.14
			c0.01-4.64,1.15-9.28,1.77-13.92c6.25,6.35,12.47,12.75,18.76,19.06c45.21,45.35,90.44,90.68,135.67,136.02
			C223.41,375.85,171.89,427.51,120.36,479.17z"/>
		<path class="st2" d="M120.36,479.17c51.53-51.66,103.05-103.33,154.58-154.99c0.48,0.05,0.97,0.07,1.46,0.07
			c26.28,26.52,52.55,53.04,78.83,79.55c-14.66,8.81-29.22,17.8-44.01,26.38c-42.66,24.73-85.31,49.48-128.17,73.85
			C156.61,519.06,126.83,506.99,120.36,479.17z"/>
		<path class="st3" d="M276.4,324.25c-0.49,0-0.98-0.02-1.46-0.07c-45.22-45.34-90.45-90.67-135.67-136.02
			c-6.29-6.31-12.51-12.7-18.76-19.06c5.23-26.76,35.3-40,60.7-25.93c28.39,15.73,56.26,32.41,84.36,48.67
			c28.37,16.42,56.76,32.82,85.11,49.28c1.6,0.93,2.93,2.33,4.38,3.51c-1.53,1.59-3.05,3.2-4.6,4.77
			C325.77,274.35,301.08,299.3,276.4,324.25z"/>
		<path class="st4" d="M276.4,324.25c24.69-24.95,49.38-49.9,74.06-74.85c1.55-1.57,3.07-3.18,4.6-4.77
			c27.21,15.67,55.24,30.11,81.39,47.38c22.31,14.74,22.48,49.9,0.22,64.63c-26.11,17.28-54.21,31.57-81.45,47.17
			C328.95,377.29,302.67,350.77,276.4,324.25z"/>
		<path class="st5" d="M732.66,306.57c-6.72,7.11-12.38,13.1-17.98,19.03c-31.92-23.08-63.52-24.23-89.95-3.54
			c-24.21,18.95-32.88,52.58-21.1,81.84c11.69,29.04,40.51,45.94,72.92,42.34c25.13-2.79,50.08-19.43,52.94-51.19
			c-20.51,0-40.98,0-61.94,0c0-9.15,0-17.28,0-26.07c28.84,0,57.71,0,88.11,0c3.46,28.64-0.65,55.45-21.87,77.13
			c-26.47,27.05-59.33,32.87-94.35,22.53c-36.45-10.75-59.62-36.06-67.77-73.31c-8.65-39.55,10.97-80.47,47.1-101.24
			c35.54-20.43,80.1-16.29,110.56,10.25C730.29,305.19,731.46,305.78,732.66,306.57z"/>
		<path class="st6" d="M1128.85,362.05c0.41-2.93,0.8-5.64,1.22-8.64c8.33,0,16.18,0,24.68,0c0.17,2.9,0.47,5.65,0.48,8.4
			c0.03,33.11,0.17,66.21-0.09,99.32c-0.06,8.22-0.63,16.62-2.42,24.61c-5.73,25.54-25.04,41.09-51.88,42.68
			c-26.18,1.55-48.97-12.54-58.43-36.65c7.19-3.04,14.41-6.1,22.42-9.48c10.16,18.58,25.34,26.51,46.01,19.09
			c13.78-4.95,19.76-19.35,18.02-41.49c-12.83,10.55-26.75,15.49-43.06,12.04c-16.14-3.42-28.67-11.96-37.98-25.25
			c-17.06-24.35-14.15-57.41,6.71-78.89C1075.39,346.29,1101.87,344.14,1128.85,362.05z M1131.24,411.08
			c-0.22-21.24-14.29-37.17-32.89-37.22c-19.33-0.05-34.86,17.1-34.51,38.1c0.35,20.79,15.6,36.76,34.91,36.54
			C1117.52,448.28,1131.46,432.23,1131.24,411.08z"/>
		<path class="st6" d="M1388.11,288.2c24.4,0,48.7-1.68,72.66,0.41c31.72,2.77,52.44,28.45,50.99,59.33
			c-1.34,28.5-25.91,51.44-56.69,52.47c-13.31,0.45-26.65,0.07-40.48,0.07c0,23.16,0,45.37,0,68.21c-8.9,0-17.32,0-26.48,0
			C1388.11,409.09,1388.11,349.18,1388.11,288.2z M1414.92,374.25c15.83,0,30.86,1.26,45.56-0.36c14.06-1.56,23.93-14.96,24.29-28.9
			c0.38-14.54-8.96-28.62-23.47-30.42c-15.15-1.88-30.71-0.42-46.39-0.42C1414.92,334.22,1414.92,354.14,1414.92,374.25z"/>
		<path class="st6" d="M1674.93,468.73c-7.98,0-16.12,0-25.02,0c-0.21-4.1-0.41-8.02-0.69-13.42
			c-15.57,18.75-34.35,21.3-54.77,13.41c-15.12-5.85-24.37-17.34-25.26-33.95c-0.91-16.81,7.7-28.61,22.23-35.86
			c18.76-9.35,38.01-9.33,57.21-0.81c0.74-10.13-3.57-16.93-13.52-21.43c-14.12-6.38-27.12-3.21-39.52,9.85
			c-2.8-1.09-5.76-2.18-8.66-3.41c-4.67-1.97-9.3-4.04-13.93-6.06c8.41-19.61,31.2-30.77,55.85-27.59
			c30.63,3.96,47.07,22.44,47.16,53.23c0.06,21.32-0.07,42.63-0.16,63.95C1675.84,467.2,1675.38,467.75,1674.93,468.73z
			 M1649.49,420.65c-14.3-8.41-33.65-9.6-44.53-1.43c-4.21,3.16-8.47,9.85-8.07,14.52c0.4,4.58,5.88,10.52,10.58,12.61
			C1624.92,454.1,1644,442.17,1649.49,420.65z"/>
		<path class="st6" d="M766.24,411.15c0.02-34.84,26.81-61.69,61.67-61.79c34.68-0.1,61.88,26.74,62.26,61.43
			c0.38,34.72-27.38,62.43-62.38,62.29C793.03,472.94,766.22,445.96,766.24,411.15z M793.28,410.91
			c-0.11,21.25,14.97,37.57,34.73,37.6c19.88,0.02,34.83-16.11,34.76-37.49c-0.08-20.94-14.74-36.89-34.16-37.16
			C808.81,373.58,793.4,389.75,793.28,410.91z"/>
		<path class="st6" d="M1025.26,410.93c0.1,34.83-26.61,61.9-61.34,62.15c-35.04,0.25-62.75-27.23-62.57-62.07
			c0.18-34.66,27.27-61.6,62-61.66C998.17,349.3,1025.17,376.16,1025.26,410.93z M928.77,409.87
			c-0.55,21.51,13.91,38.15,33.55,38.62c19.61,0.46,35.2-14.96,35.87-35.49c0.71-21.77-14.19-38.84-34.17-39.15
			C944.45,373.56,929.29,389.04,928.77,409.87z"/>
		<path class="st7" d="M1326.54,445.3c-16.57,24.75-46.72,34.06-73.93,23.56c-26.88-10.38-42.42-38.78-37.67-68.86
			c4.46-28.29,25.93-48.61,54.16-50.42c18.39-1.18,33.93,5.64,45.1,20.32c5.67,7.46,9.69,16.17,15.08,25.38
			c-28.61,11.88-55.76,23.16-82.91,34.43c10.71,24.01,37.86,25.15,60.02,2.36C1312.88,436.32,1319.47,440.66,1326.54,445.3z
			 M1295.8,386.62c-6.68-11.76-18.53-15.9-31.4-11.54c-15.06,5.1-24.05,18.55-22.06,33.77
			C1260.23,401.41,1277.97,394.03,1295.8,386.62z"/>
		<path class="st7" d="M1677.76,353.24c28.72-1.05,28.71-1.04,39.11,24.25c7.12,17.32,14.29,34.62,21.49,51.91
			c0.2,0.48,0.99,0.71,2.08,1.44c9.24-23.32,18.69-46.39,27.41-69.72c2.42-6.47,5.55-8.93,12.36-8.29
			c6.57,0.62,13.24,0.13,21.14,0.13c-4.29,9.91-8.15,18.86-12.04,27.8c-19.52,44.84-39.18,89.62-58.42,134.58
			c-2.86,6.68-5.86,10.5-13.82,9.33c-5.58-0.82-11.39-0.16-18.57-0.16c7.92-17.57,15.05-34.43,23.14-50.83
			c3.71-7.53,3.51-13.67,0.04-21.27C1706.79,419.81,1692.6,386.92,1677.76,353.24z"/>
		<path class="st8" d="M1527.57,288.02c8.71,0,16.93,0,25.79,0c0,60.15,0,120.15,0,180.74c-8.2,0-16.67,0-25.79,0
			C1527.57,408.96,1527.57,348.96,1527.57,288.02z"/>
		<path class="st9" d="M1200.58,469.06c-8.92,0-17.14,0-25.92,0c0-60.27,0-120.27,0-180.78c8.42,0,16.89,0,25.92,0
			C1200.58,348.25,1200.58,408.26,1200.58,469.06z"/>
		<path class="st10" d="M653.69,146.44c-3.57,3.26-6.6,6.02-9.66,8.81c-16.54-12.05-31.29-13.2-44.18-3.3
			c-11.45,8.8-15.74,25.47-10.22,39.72c5.46,14.08,18.14,21.46,34.33,19.98c13.83-1.26,22.4-9.18,25.07-23.77
			c-9.89,0-19.66,0-30.07,0c0-4.67,0-8.63,0-13.17c14.51,0,29,0,43.47,0c5.17,20.28-5.18,40.35-24.63,47.99
			c-22.5,8.84-47.89-0.21-59.37-21.17c-11.47-20.93-5.47-47.37,13.92-61.34C611.16,126.65,637.78,129.11,653.69,146.44z"/>
		<path class="st11" d="M1084.31,160.3c0,10.46,0,20.92,0,31.38c0,10.44,0,20.87,0,31.82c-4.82,0-8.85,0-13.64,0
			c0-29.69,0-59.4,0-89.31c9.65-2.7,16.25-0.65,21.64,8.94c10.04,17.89,21.55,34.96,33.72,54.4c0-22.55,0-42.7,0-63.51
			c4.63,0,8.59,0,13.4,0c0,29.27,0,59,0,89.14c-8.37,2.83-13.99,0.49-18.86-7.96c-10.89-18.89-22.91-37.12-34.47-55.62
			C1085.5,159.81,1084.91,160.05,1084.31,160.3z"/>
		<path class="st12" d="M964.71,179.12c-0.26-26.45,19.65-47.21,45.7-47.65c25.76-0.43,46.74,20.22,47.12,46.38
			c0.38,26.95-19.86,47.94-46.3,48.02C985.03,225.94,964.97,205.79,964.71,179.12z M1042.87,178.51
			c-0.09-19.17-13.54-33.25-31.78-33.25c-18.57,0-32.24,14.59-31.98,34.14c0.26,19.09,13.83,32.74,32.37,32.57
			C1029.91,211.8,1042.95,197.9,1042.87,178.51z"/>
		<path class="st13" d="M677.04,223.32c0-30,0-59.26,0-89.27c17.61,0,35,0,53.23,0c0,3.74,0,7.94,0,13.01c-12.62,0-25.25,0-38.34,0
			c0,8.37,0,15.9,0,24.36c11.25,0,22.55,0,34.52,0c0,4.88,0,8.84,0,13.7c-11.25,0-22.6,0-34.47,0c0,8.37,0,15.91,0,24.36
			c12.35,0,24.94,0,38.32,0c0,5.11,0,9.32,0,13.84C712.48,223.32,694.85,223.32,677.04,223.32z"/>
		<path class="st14" d="M906.94,223.64c-5.29,0-9.02,0-13.91,0c0-25.21,0-50.4,0-76.3c-8.66,0-16.2,0-24.36,0c0-4.63,0-8.58,0-13.25
			c20.2,0,40.68,0,61.84,0c0,3.92,0,8.14,0,13.06c-7.62,0-15.19,0-23.57,0C906.94,172.78,906.94,197.75,906.94,223.64z"/>
		<path class="st14" d="M778.32,223.49c-5.39,0-9.38,0-14.22,0c0-25.44,0-50.41,0-76.13c-8.38,0-15.91,0-23.98,0
			c0-4.75,0-8.73,0-13.36c20.33,0,40.82,0,61.96,0c0,3.89,0,7.83,0,12.76c-7.55,0-15.34,0-23.77,0
			C778.32,172.7,778.32,197.72,778.32,223.49z"/>
		<path class="st6" d="M856.05,223.62c-4.16,0-7.89,0-12.38,0c0-29.67,0-59.31,0-89.6c3.65,0,7.61,0,12.38,0
			C856.05,163.33,856.05,192.99,856.05,223.62z"/>
	</g>
</g>
</svg>
