<?xml version="1.0" encoding="utf-8"?>
<!-- Generator: Adobe Illustrator 26.0.1, SVG Export Plug-In . SVG Version: 6.00 Build 0)  -->
<svg version="1.1" xmlns="http://www.w3.org/2000/svg" xmlns:xlink="http://www.w3.org/1999/xlink" x="0px" y="0px"
	 viewBox="0 0 560.5 500" style="enable-background:new 0 0 560.5 500;" xml:space="preserve">
<style type="text/css">
	.st0{fill:#FFF174;}
	.st1{opacity:0.17;}
	.st2{fill:#434343;}
	.st3{opacity:0.3;}
	.st4{fill:#F2940C;}
	.st5{clip-path:url(#SVGID_00000127019555674087737830000017528659104898754948_);}
	.st6{opacity:0.45;fill:none;stroke:#EF9506;stroke-width:2.4638;stroke-linejoin:round;stroke-miterlimit:10;}
	.st7{fill:#FFC41F;}
	.st8{fill:#F79F11;}
	.st9{opacity:0.45;fill:#EF9506;}
	.st10{clip-path:url(#SVGID_00000003104641315933136360000015897669787087650478_);}
	.st11{clip-path:url(#SVGID_00000098901853108923959430000002568563876406880916_);}
	.st12{clip-path:url(#SVGID_00000116958157680156642780000002771651460842173095_);}
	.st13{clip-path:url(#SVGID_00000142857665392128188820000002659055784491236481_);}
	.st14{clip-path:url(#SVGID_00000014602915513059700520000015520617416168724156_);}
	.st15{clip-path:url(#SVGID_00000181769788141239992230000008491888758191803036_);}
	.st16{clip-path:url(#SVGID_00000132088005569796598030000001476693317676147086_);}
	.st17{clip-path:url(#SVGID_00000103241478376388276600000006468197191601248135_);}
	.st18{clip-path:url(#SVGID_00000100370773752370734700000009309764138115125666_);}
	.st19{clip-path:url(#SVGID_00000079474109117419313870000016643670486191911574_);}
	.st20{clip-path:url(#SVGID_00000098205697768932708310000007265849756974076572_);}
	.st21{fill:#FCAF15;}
	.st22{clip-path:url(#SVGID_00000049180926974944383820000001075707231680362167_);}
	.st23{fill:#FFD522;}
	.st24{opacity:0.45;}
	.st25{fill:#EF9506;}
	.st26{fill:#FFCBBD;}
	.st27{fill:#182270;}
	.st28{fill:none;stroke:#23378C;stroke-width:1.2319;stroke-linejoin:round;stroke-miterlimit:10;}
	.st29{fill:#212237;}
	.st30{fill:none;stroke:#E88872;stroke-width:1.2319;stroke-linejoin:round;stroke-miterlimit:10;}
	.st31{fill:#F2B0A0;}
	.st32{fill:#F22C22;}
	.st33{fill:#FFFFFF;}
	.st34{fill:#C97D00;}
	.st35{fill:#FF7B39;}
	.st36{fill:none;stroke:#2944B7;stroke-width:1.2319;stroke-linejoin:round;stroke-miterlimit:10;}
	.st37{fill:#C99900;}
	.st38{fill:none;stroke:#0B0B3A;stroke-width:1.2319;stroke-linejoin:round;stroke-miterlimit:10;}
	.st39{fill:none;stroke:#0B0B3A;stroke-width:2.4638;stroke-linejoin:round;stroke-miterlimit:10;}
	.st40{fill:#0B0B3A;}
	.st41{fill:#DAFF35;}
</style>
<g id="OBJECTS">
	<g>
		<g>
			<line class="st0" x1="517.7" y1="173.2" x2="517.7" y2="180.6"/>
			<line class="st0" x1="521.4" y1="176.9" x2="514" y2="176.9"/>
		</g>
		<g>
			<line class="st0" x1="59" y1="110" x2="59" y2="117.4"/>
			<line class="st0" x1="62.7" y1="113.7" x2="55.3" y2="113.7"/>
		</g>
		<g>
			<line class="st0" x1="17.5" y1="327" x2="17.5" y2="334.4"/>
			<line class="st0" x1="21.2" y1="330.7" x2="13.8" y2="330.7"/>
		</g>
		<g>
			<line class="st0" x1="322.4" y1="244.1" x2="322.4" y2="251.5"/>
			<line class="st0" x1="326.1" y1="247.8" x2="318.7" y2="247.8"/>
		</g>
		<path class="st0" d="M496.9,226.9c0,1.4-1.2,2.6-2.6,2.6c-1.4,0-2.6-1.2-2.6-2.6c0-1.4,1.2-2.6,2.6-2.6
			C495.8,224.3,496.9,225.4,496.9,226.9z"/>
		<path class="st0" d="M398.4,106.3c0,1.4-1.2,2.6-2.6,2.6c-1.4,0-2.6-1.2-2.6-2.6c0-1.4,1.2-2.6,2.6-2.6
			C397.3,103.7,398.4,104.8,398.4,106.3z"/>
		<path class="st0" d="M365.4,351.1c0,1.4-1.2,2.6-2.6,2.6c-1.4,0-2.6-1.2-2.6-2.6c0-1.4,1.2-2.6,2.6-2.6
			C364.3,348.5,365.4,349.6,365.4,351.1z"/>
		<g>
			<circle class="st0" cx="352.1" cy="239.8" r="15.1"/>
			<g>
				<path class="st0" d="M354,232.4c0.6,0.2,1.2,0.4,1.8,0.7c0.5,0.3,1,0.6,1.3,1c0.4,0.4,0.7,0.7,0.9,1.1c0.2,0.4,0.3,0.8,0.3,1.2
					c0,0.1,0,0.2-0.1,0.3c-0.1,0.1-0.2,0.1-0.3,0.1h-2.8c-0.2,0-0.4,0-0.5-0.1c-0.1-0.1-0.2-0.1-0.4-0.3c0,0-0.1-0.1-0.2-0.2
					c-0.1-0.1-0.2-0.2-0.4-0.3c-0.2-0.1-0.4-0.2-0.6-0.3c-0.3-0.1-0.6-0.1-0.9-0.1c-0.3,0-0.5,0-0.8,0.1c-0.3,0-0.5,0.1-0.7,0.2
					c-0.2,0.1-0.4,0.2-0.5,0.3c-0.1,0.1-0.2,0.3-0.2,0.5c0,0.2,0.1,0.4,0.2,0.5c0.1,0.1,0.4,0.3,0.7,0.4c0.3,0.1,0.7,0.2,1.3,0.4
					c0.5,0.1,1.2,0.3,2,0.4c0.8,0.2,1.5,0.4,2.1,0.6c0.6,0.2,1.1,0.5,1.5,0.9c0.4,0.4,0.7,0.8,0.9,1.3c0.2,0.5,0.3,1.1,0.3,1.8
					c0,0.6-0.1,1.2-0.3,1.7c-0.2,0.5-0.6,0.9-1,1.3c-0.4,0.4-0.9,0.7-1.5,1c-0.6,0.3-1.2,0.4-1.9,0.6v1.5c0,0.2-0.1,0.3-0.2,0.4
					c-0.1,0.1-0.3,0.2-0.4,0.2h-2.8c-0.2,0-0.3-0.1-0.4-0.2c-0.1-0.1-0.2-0.3-0.2-0.4v-1.6c-0.7-0.2-1.3-0.4-1.9-0.7
					c-0.6-0.3-1-0.6-1.4-1c-0.4-0.4-0.7-0.8-0.9-1.2c-0.2-0.4-0.3-0.9-0.3-1.3c0-0.1,0-0.2,0.1-0.3c0.1-0.1,0.2-0.1,0.3-0.1h2.8
					c0.2,0,0.4,0,0.5,0.1c0.1,0.1,0.2,0.1,0.3,0.2c0.1,0.1,0.1,0.2,0.3,0.3c0.1,0.1,0.3,0.3,0.5,0.4c0.2,0.1,0.4,0.3,0.7,0.4
					c0.3,0.1,0.7,0.2,1.1,0.2c0.8,0,1.4-0.1,1.9-0.2c0.5-0.2,0.8-0.5,0.8-0.9c0-0.2-0.1-0.4-0.3-0.5c-0.2-0.1-0.5-0.3-0.8-0.4
					c-0.4-0.1-0.8-0.2-1.4-0.4c-0.6-0.1-1.3-0.3-2.1-0.4c-1.5-0.3-2.6-0.8-3.2-1.6c-0.7-0.7-1-1.7-1-3c0-0.5,0.1-1,0.3-1.5
					c0.2-0.5,0.5-0.9,0.8-1.3c0.4-0.4,0.8-0.7,1.3-1c0.5-0.3,1.1-0.5,1.7-0.7v-1.6c0-0.2,0.1-0.3,0.2-0.4c0.1-0.1,0.3-0.2,0.4-0.2
					h2.8c0.2,0,0.3,0.1,0.4,0.2c0.1,0.1,0.2,0.3,0.2,0.4V232.4z"/>
			</g>
		</g>
		<g class="st1">
			<g>
				<line class="st2" x1="190.8" y1="61.2" x2="190.8" y2="68.6"/>
				<line class="st2" x1="194.5" y1="64.9" x2="187.1" y2="64.9"/>
			</g>
			<path class="st2" d="M110.4,128.2c0,1.4-1.2,2.6-2.6,2.6c-1.4,0-2.6-1.2-2.6-2.6c0-1.4,1.2-2.6,2.6-2.6
				C109.2,125.6,110.4,126.8,110.4,128.2z"/>
			<g>
				<polygon class="st2" points="329,91.2 271,95.4 287.7,112 217.6,182.1 257,182.1 307.3,131.7 324.9,149.2 				"/>
				<polygon class="st2" points="256.8,182.1 211,136.3 171.7,136.3 217.5,182.1 				"/>
				<polygon class="st2" points="171.5,136.3 95.3,212.4 134.7,212.4 210.8,136.3 				"/>
			</g>
			<g>
				<path class="st2" d="M182.5,67.4c0.1,3.2,0.6,6.4,1.5,9.6c0.9,3,2.1,5.7,3.6,8.3l6.3-2.7c1.8,3.1,4,5.9,6.6,8.2l-4,5.7
					c2.3,2.2,4.9,4.1,7.9,5.7c1.1,0.6,2.3,1.2,3.5,1.7c0.3,0.1,0.6,0.3,0.9,0.4c1.3,0.5,2.7,0.9,4,1.3l2.6-6.4
					c0.4,0.1,0.8,0.2,1.2,0.3c0.4,0.1,0.9,0.2,1.3,0.3c2.6,0.5,5.3,0.7,8,0.6l1.2,6.8c3.2-0.1,6.4-0.6,9.6-1.5
					c3-0.9,5.7-2.1,8.3-3.6l-2.7-6.3c3.1-1.8,5.9-4,8.3-6.6l5.7,3.9c2.2-2.3,4.1-4.9,5.7-7.9c1.5-2.7,2.6-5.5,3.3-8.4l-6.4-2.6
					c0.9-3.4,1.3-6.9,1.2-10.5l6.8-1.2c-0.1-3.2-0.6-6.4-1.5-9.6c-0.9-3-2.1-5.7-3.6-8.3l-6.3,2.7c-1.8-3.1-4-5.9-6.6-8.3l3.9-5.6
					c-2.3-2.2-4.9-4.1-7.9-5.7c-2.7-1.5-5.5-2.6-8.4-3.3l-2.6,6.3c-3.4-0.9-6.9-1.4-10.5-1.2l-1.2-6.7c-3.2,0.1-6.4,0.6-9.6,1.5
					c-3,0.9-5.7,2.1-8.3,3.6l2.6,6.3c-3.1,1.8-5.9,4-8.3,6.6l-5.6-3.9c-2.2,2.3-4.1,4.9-5.7,7.9c-1.5,2.7-2.6,5.5-3.3,8.4l6.3,2.6
					c-0.9,3.4-1.3,6.9-1.2,10.5L182.5,67.4z M202.4,70.7c-3.1-11.7,3.5-23.9,15-27.7c12.6-4.2,26.2,3.1,29.6,16
					c3.1,11.7-3.5,23.9-15,27.7C219.3,90.9,205.8,83.6,202.4,70.7z"/>
				<g>
					<path class="st2" d="M228,51.6c1.1,0.3,2.2,0.7,3.1,1.2c0.9,0.5,1.7,1.1,2.4,1.8c0.7,0.6,1.2,1.3,1.6,2
						c0.4,0.7,0.6,1.4,0.6,2.1c0,0.2-0.1,0.4-0.2,0.6c-0.2,0.2-0.3,0.2-0.6,0.2h-5c-0.4,0-0.6-0.1-0.9-0.2c-0.2-0.1-0.4-0.3-0.7-0.5
						c-0.1-0.1-0.2-0.2-0.4-0.4c-0.2-0.2-0.4-0.4-0.7-0.6c-0.3-0.2-0.7-0.4-1.1-0.5c-0.5-0.1-1-0.2-1.7-0.2c-0.5,0-0.9,0-1.4,0.1
						c-0.4,0.1-0.8,0.2-1.2,0.3c-0.3,0.1-0.6,0.3-0.8,0.6c-0.2,0.3-0.3,0.6-0.3,1c0,0.4,0.1,0.7,0.4,1c0.2,0.3,0.6,0.5,1.2,0.7
						c0.6,0.2,1.3,0.4,2.3,0.6c0.9,0.2,2.1,0.4,3.5,0.7c1.4,0.3,2.6,0.6,3.7,1.1c1,0.4,1.9,1,2.6,1.6c0.7,0.6,1.2,1.4,1.6,2.3
						c0.3,0.9,0.5,1.9,0.5,3.1c0,1.1-0.2,2-0.6,2.9c-0.4,0.9-1,1.7-1.7,2.4c-0.7,0.7-1.6,1.3-2.7,1.7c-1,0.5-2.2,0.8-3.4,1v2.7
						c0,0.3-0.1,0.5-0.3,0.7c-0.2,0.2-0.4,0.3-0.7,0.3h-5c-0.3,0-0.5-0.1-0.7-0.3c-0.2-0.2-0.3-0.4-0.3-0.7v-2.8
						c-1.2-0.3-2.3-0.7-3.3-1.2c-1-0.5-1.8-1.1-2.5-1.8c-0.7-0.7-1.2-1.4-1.6-2.2c-0.4-0.8-0.6-1.6-0.6-2.3c0-0.2,0.1-0.4,0.2-0.6
						c0.2-0.2,0.3-0.2,0.6-0.2h5c0.4,0,0.6,0,0.8,0.1c0.2,0.1,0.4,0.2,0.6,0.4c0.1,0.1,0.3,0.3,0.5,0.5c0.2,0.2,0.5,0.5,0.8,0.7
						c0.3,0.2,0.8,0.5,1.3,0.6c0.5,0.2,1.2,0.3,1.9,0.3c1.3,0,2.5-0.1,3.4-0.4c0.9-0.3,1.4-0.8,1.4-1.6c0-0.4-0.2-0.7-0.5-1
						c-0.3-0.3-0.8-0.5-1.5-0.7c-0.7-0.2-1.5-0.4-2.5-0.6c-1-0.2-2.2-0.5-3.6-0.8c-2.6-0.6-4.5-1.5-5.7-2.8
						c-1.2-1.3-1.8-3.1-1.8-5.2c0-0.9,0.2-1.7,0.5-2.6c0.3-0.8,0.8-1.6,1.4-2.3c0.6-0.7,1.4-1.3,2.3-1.8c0.9-0.5,1.9-0.9,3.1-1.2
						v-2.8c0-0.3,0.1-0.5,0.3-0.7c0.2-0.2,0.4-0.3,0.7-0.3h5c0.3,0,0.5,0.1,0.7,0.3c0.2,0.2,0.3,0.4,0.3,0.7V51.6z"/>
				</g>
			</g>
			<path class="st2" d="M65.2,90.3c-13.3,0-24.1,10.8-24.1,24.1c0,13.3,10.8,24.1,24.1,24.1c13.3,0,24.1-10.8,24.1-24.1
				C89.3,101.1,78.5,90.3,65.2,90.3z M75.2,121.9c-0.4,0.8-0.9,1.5-1.5,2.1c-0.7,0.6-1.5,1.1-2.4,1.5c-0.9,0.4-2,0.7-3.1,0.9v2.4
				c0,0.3-0.1,0.5-0.3,0.7c-0.2,0.2-0.4,0.3-0.7,0.3h-4.5c-0.3,0-0.5-0.1-0.7-0.3c-0.2-0.2-0.3-0.4-0.3-0.7v-2.5
				c-1.1-0.3-2.1-0.6-3-1.1c-0.9-0.5-1.6-1-2.3-1.6c-0.6-0.6-1.1-1.2-1.5-1.9c-0.3-0.7-0.5-1.4-0.6-2.1c0-0.2,0.1-0.4,0.2-0.5
				c0.1-0.1,0.3-0.2,0.5-0.2h4.5c0.3,0,0.6,0,0.8,0.1c0.2,0.1,0.4,0.2,0.5,0.4c0.1,0.1,0.2,0.2,0.4,0.4c0.2,0.2,0.4,0.4,0.7,0.6
				c0.3,0.2,0.7,0.4,1.2,0.6c0.5,0.2,1,0.2,1.7,0.2c1.2,0,2.2-0.1,3-0.4c0.8-0.3,1.2-0.7,1.2-1.4c0-0.3-0.1-0.6-0.4-0.9
				c-0.3-0.2-0.7-0.4-1.3-0.6c-0.6-0.2-1.4-0.4-2.3-0.6c-0.9-0.2-2-0.4-3.3-0.7c-2.4-0.5-4.1-1.3-5.2-2.5c-1.1-1.2-1.6-2.8-1.6-4.7
				c0-0.8,0.1-1.6,0.4-2.3c0.3-0.7,0.7-1.4,1.3-2c0.6-0.6,1.2-1.2,2.1-1.6c0.8-0.5,1.7-0.8,2.8-1.1v-2.5c0-0.3,0.1-0.5,0.3-0.7
				c0.2-0.2,0.4-0.3,0.7-0.3h4.5c0.3,0,0.5,0.1,0.7,0.3c0.2,0.2,0.3,0.4,0.3,0.7l0,2.6c1,0.3,2,0.6,2.8,1.1c0.8,0.5,1.6,1,2.2,1.6
				c0.6,0.6,1.1,1.2,1.4,1.8c0.3,0.6,0.5,1.3,0.6,1.9c0,0.2-0.1,0.4-0.2,0.5c-0.1,0.1-0.3,0.2-0.5,0.2h-4.5c-0.3,0-0.6,0-0.8-0.1
				c-0.2-0.1-0.4-0.2-0.6-0.4c-0.1-0.1-0.2-0.2-0.3-0.3c-0.1-0.2-0.4-0.3-0.6-0.5c-0.3-0.2-0.6-0.3-1-0.4c-0.4-0.1-0.9-0.2-1.5-0.2
				c-0.4,0-0.9,0-1.3,0.1c-0.4,0.1-0.8,0.1-1.1,0.3c-0.3,0.1-0.6,0.3-0.8,0.5c-0.2,0.2-0.3,0.5-0.3,0.9c0,0.3,0.1,0.6,0.3,0.9
				c0.2,0.2,0.6,0.4,1.1,0.6c0.5,0.2,1.2,0.4,2,0.6c0.8,0.2,1.9,0.4,3.2,0.7c1.3,0.3,2.4,0.6,3.3,1c0.9,0.4,1.7,0.9,2.4,1.5
				c0.6,0.6,1.1,1.3,1.4,2.1c0.3,0.8,0.5,1.7,0.5,2.8C75.8,120.2,75.6,121.1,75.2,121.9z"/>
			<path class="st2" d="M122.1,107.1c0.3,2,0.9,4,1.7,5.9c0.8,1.8,1.8,3.5,2.9,4.9l3.8-2.2c1.4,1.8,3,3.4,4.8,4.7l-2.1,3.9
				c1.6,1.2,3.4,2.2,5.4,3c0.8,0.3,1.5,0.6,2.3,0.8c0.2,0.1,0.4,0.1,0.6,0.2c0.9,0.2,1.8,0.4,2.6,0.5l1.1-4.3c0.3,0,0.5,0.1,0.8,0.1
				c0.3,0,0.6,0.1,0.9,0.1c1.7,0.1,3.4,0.1,5.1-0.2l1.3,4.2c2-0.3,4-0.9,5.9-1.7c1.8-0.8,3.5-1.8,5-2.9l-2.2-3.8
				c1.8-1.4,3.4-3,4.7-4.8l3.9,2c1.2-1.6,2.2-3.4,3-5.4c0.7-1.8,1.2-3.7,1.4-5.6l-4.2-1.1c0.3-2.2,0.3-4.5,0-6.7l4.2-1.3
				c-0.3-2-0.9-4-1.7-5.9c-0.8-1.8-1.8-3.5-2.9-5l-3.8,2.2c-1.4-1.8-3-3.4-4.8-4.7l2-3.9c-1.6-1.2-3.4-2.2-5.4-3
				c-1.8-0.7-3.7-1.2-5.6-1.4l-1.1,4.2c-2.2-0.3-4.5-0.3-6.7,0l-1.3-4.1c-2,0.3-4,0.9-5.9,1.7c-1.8,0.8-3.5,1.8-4.9,2.9l2.2,3.7
				c-1.8,1.4-3.4,3-4.7,4.8l-3.8-2c-1.2,1.6-2.2,3.4-3,5.4c-0.7,1.8-1.2,3.7-1.4,5.6l4.2,1.1c-0.3,2.2-0.3,4.5,0.1,6.7L122.1,107.1z
				 M137.8,106.6c-2.3-5.6,0.3-12.1,5.8-14.7c6.1-2.9,13.3,0,15.7,6.2c2.2,5.6-0.3,12.1-5.8,14.7
				C147.4,115.6,140.2,112.8,137.8,106.6z"/>
		</g>
		<g>
			<path class="st3" d="M344,430c0,6.1-22.5,11-50.2,11c-27.7,0-50.2-4.9-50.2-11c0-6.1,22.5-11,50.2-11
				C321.5,419,344,423.9,344,430z"/>
			<g>
				<g>
					<path class="st4" d="M254.3,427.9c0,4,17.4,7.2,38.9,7.2c21.5,0,38.9-3.2,38.9-7.2c0-1.3,0-12.6,0-12.6h-77.7
						C254.3,415.3,254.3,423.9,254.3,427.9z"/>
					<g>
						<defs>
							<path id="SVGID_1_" d="M254.3,427.9c0,4,17.4,7.2,38.9,7.2c21.5,0,38.9-3.2,38.9-7.2c0-1.3,0-12.6,0-12.6h-77.7
								C254.3,415.3,254.3,423.9,254.3,427.9z"/>
						</defs>
						<clipPath id="SVGID_00000078727795007657758460000015289393572522411952_">
							<use xlink:href="#SVGID_1_"  style="overflow:visible;"/>
						</clipPath>
						<g style="clip-path:url(#SVGID_00000078727795007657758460000015289393572522411952_);">
							<line class="st6" x1="326.3" y1="415.8" x2="326.3" y2="437.3"/>
							<line class="st6" x1="317.3" y1="417.9" x2="317.3" y2="439.4"/>
							<line class="st6" x1="305.9" y1="417.9" x2="305.9" y2="439.4"/>
							<line class="st6" x1="259.9" y1="415.8" x2="259.9" y2="437.3"/>
							<line class="st6" x1="269" y1="417.9" x2="269" y2="439.4"/>
							<line class="st6" x1="280.3" y1="417.9" x2="280.3" y2="439.4"/>
							<line class="st6" x1="293.1" y1="417.4" x2="293.1" y2="438.9"/>
						</g>
					</g>
					<ellipse class="st7" cx="293.1" cy="415.8" rx="38.9" ry="7.2"/>
					<ellipse class="st8" cx="293.1" cy="414.6" rx="30.1" ry="3.3"/>
					<path class="st9" d="M321.4,415.7c-4.2-1.3-15.3-2.2-28.3-2.2c-13,0-24,0.9-28.3,2.2c-1.2-0.4-1.9-0.7-1.9-1.1
						c0-1.8,13.5-3.3,30.1-3.3c16.6,0,30.1,1.5,30.1,3.3C323.2,415,322.6,415.4,321.4,415.7z"/>
				</g>
				<g>
					<path class="st4" d="M258.2,414.6c0,4,17.4,7.2,38.9,7.2c21.5,0,38.9-3.2,38.9-7.2c0-1.3,0-12.6,0-12.6h-77.7
						C258.2,402,258.2,410.6,258.2,414.6z"/>
					<g>
						<defs>
							<path id="SVGID_00000157265893501462418640000018100736775983260299_" d="M258.2,414.6c0,4,17.4,7.2,38.9,7.2
								c21.5,0,38.9-3.2,38.9-7.2c0-1.3,0-12.6,0-12.6h-77.7C258.2,402,258.2,410.6,258.2,414.6z"/>
						</defs>
						<clipPath id="SVGID_00000164484602385892681860000005562221121383997324_">
							<use xlink:href="#SVGID_00000157265893501462418640000018100736775983260299_"  style="overflow:visible;"/>
						</clipPath>
						<g style="clip-path:url(#SVGID_00000164484602385892681860000005562221121383997324_);">
							<line class="st6" x1="330.2" y1="402.5" x2="330.2" y2="424"/>
							<line class="st6" x1="321.2" y1="404.6" x2="321.2" y2="426.1"/>
							<line class="st6" x1="309.8" y1="404.6" x2="309.8" y2="426.1"/>
							<line class="st6" x1="263.8" y1="402.5" x2="263.8" y2="424"/>
							<line class="st6" x1="272.9" y1="404.6" x2="272.9" y2="426.1"/>
							<line class="st6" x1="284.2" y1="404.6" x2="284.2" y2="426.1"/>
							<line class="st6" x1="297" y1="404.1" x2="297" y2="425.6"/>
						</g>
					</g>
					<path class="st7" d="M258.2,402.5c0,4,17.4,7.2,38.9,7.2c21.5,0,38.9-3.2,38.9-7.2c0-4-17.4-7.2-38.9-7.2
						C275.6,395.3,258.2,398.5,258.2,402.5z"/>
					<ellipse class="st8" cx="297" cy="401.3" rx="30.1" ry="3.3"/>
					<path class="st9" d="M325.3,402.5c-4.2-1.3-15.3-2.2-28.3-2.2c-13,0-24,0.9-28.3,2.2c-1.2-0.4-1.9-0.7-1.9-1.1
						c0-1.8,13.5-3.3,30.1-3.3c16.6,0,30.1,1.5,30.1,3.3C327.1,401.7,326.5,402.1,325.3,402.5z"/>
				</g>
				<g>
					<path class="st4" d="M254.3,401.3c0,4,17.4,7.2,38.9,7.2c21.5,0,38.9-3.2,38.9-7.2c0-1.3,0-12.6,0-12.6h-77.7
						C254.3,388.7,254.3,397.4,254.3,401.3z"/>
					<g>
						<defs>
							<path id="SVGID_00000044178213765395977450000006597958441413019523_" d="M254.3,401.3c0,4,17.4,7.2,38.9,7.2
								c21.5,0,38.9-3.2,38.9-7.2c0-1.3,0-12.6,0-12.6h-77.7C254.3,388.7,254.3,397.4,254.3,401.3z"/>
						</defs>
						<clipPath id="SVGID_00000114773404616092687940000017634766606658027399_">
							<use xlink:href="#SVGID_00000044178213765395977450000006597958441413019523_"  style="overflow:visible;"/>
						</clipPath>
						<g style="clip-path:url(#SVGID_00000114773404616092687940000017634766606658027399_);">
							<line class="st6" x1="326.3" y1="389.2" x2="326.3" y2="410.7"/>
							<line class="st6" x1="317.3" y1="391.4" x2="317.3" y2="412.9"/>
							<line class="st6" x1="305.9" y1="391.4" x2="305.9" y2="412.9"/>
							<line class="st6" x1="259.9" y1="389.2" x2="259.9" y2="410.7"/>
							<line class="st6" x1="269" y1="391.4" x2="269" y2="412.9"/>
							<line class="st6" x1="280.3" y1="391.4" x2="280.3" y2="412.9"/>
							<line class="st6" x1="293.1" y1="390.9" x2="293.1" y2="412.4"/>
						</g>
					</g>
					<path class="st7" d="M254.3,389.2c0,4,17.4,7.2,38.9,7.2c21.5,0,38.9-3.2,38.9-7.2s-17.4-7.2-38.9-7.2
						C271.7,382,254.3,385.2,254.3,389.2z"/>
					<path class="st8" d="M263,388c0,1.8,13.5,3.3,30.1,3.3c16.6,0,30.1-1.5,30.1-3.3c0-1.8-13.5-3.3-30.1-3.3
						C276.5,384.7,263,386.2,263,388z"/>
					<path class="st9" d="M321.4,389.2c-4.2-1.3-15.3-2.2-28.3-2.2c-13,0-24,0.9-28.3,2.2c-1.2-0.4-1.9-0.7-1.9-1.1
						c0-1.8,13.5-3.3,30.1-3.3c16.6,0,30.1,1.5,30.1,3.3C323.2,388.4,322.6,388.8,321.4,389.2z"/>
				</g>
				<g>
					<path class="st4" d="M256.3,387.6c0,4,17.4,7.2,38.9,7.2s38.9-3.2,38.9-7.2c0-1.3,0-12.6,0-12.6h-77.7
						C256.3,374.9,256.3,383.6,256.3,387.6z"/>
					<g>
						<defs>
							<path id="SVGID_00000089540318605780768380000003589778507540618393_" d="M256.3,387.6c0,4,17.4,7.2,38.9,7.2
								s38.9-3.2,38.9-7.2c0-1.3,0-12.6,0-12.6h-77.7C256.3,374.9,256.3,383.6,256.3,387.6z"/>
						</defs>
						<clipPath id="SVGID_00000154403593500430816890000001602143253970100132_">
							<use xlink:href="#SVGID_00000089540318605780768380000003589778507540618393_"  style="overflow:visible;"/>
						</clipPath>
						<g style="clip-path:url(#SVGID_00000154403593500430816890000001602143253970100132_);">
							<line class="st6" x1="328.4" y1="375.4" x2="328.4" y2="396.9"/>
							<line class="st6" x1="319.3" y1="377.6" x2="319.3" y2="399.1"/>
							<line class="st6" x1="308" y1="377.6" x2="308" y2="399.1"/>
							<line class="st6" x1="262" y1="375.4" x2="262" y2="396.9"/>
							<line class="st6" x1="271" y1="377.6" x2="271" y2="399.1"/>
							<line class="st6" x1="282.4" y1="377.6" x2="282.4" y2="399.1"/>
							<line class="st6" x1="295.2" y1="377.1" x2="295.2" y2="398.6"/>
						</g>
					</g>
					<path class="st7" d="M256.3,375.4c0,4,17.4,7.2,38.9,7.2s38.9-3.2,38.9-7.2c0-4-17.4-7.2-38.9-7.2S256.3,371.4,256.3,375.4z"/>
					<path class="st8" d="M265.1,374.2c0,1.8,13.5,3.3,30.1,3.3c16.6,0,30.1-1.5,30.1-3.3c0-1.8-13.5-3.3-30.1-3.3
						C278.5,370.9,265.1,372.4,265.1,374.2z"/>
					<path class="st9" d="M323.4,375.4c-4.2-1.3-15.3-2.2-28.3-2.2c-13,0-24,0.9-28.3,2.2c-1.2-0.4-1.9-0.7-1.9-1.1
						c0-1.8,13.5-3.3,30.1-3.3c16.6,0,30.1,1.5,30.1,3.3C325.3,374.6,324.6,375,323.4,375.4z"/>
				</g>
				<g>
					<path class="st4" d="M253.1,373.5c0,4,17.4,7.2,38.9,7.2c21.5,0,38.9-3.2,38.9-7.2c0-1.3,0-12.6,0-12.6h-77.7
						C253.1,360.9,253.1,369.5,253.1,373.5z"/>
					<g>
						<defs>
							<path id="SVGID_00000024003257953723906820000005936319921420244127_" d="M253.1,373.5c0,4,17.4,7.2,38.9,7.2
								c21.5,0,38.9-3.2,38.9-7.2c0-1.3,0-12.6,0-12.6h-77.7C253.1,360.9,253.1,369.5,253.1,373.5z"/>
						</defs>
						<clipPath id="SVGID_00000089543667082219062180000017252926498381893046_">
							<use xlink:href="#SVGID_00000024003257953723906820000005936319921420244127_"  style="overflow:visible;"/>
						</clipPath>
						<g style="clip-path:url(#SVGID_00000089543667082219062180000017252926498381893046_);">
							<line class="st6" x1="325.1" y1="361.4" x2="325.1" y2="382.9"/>
							<line class="st6" x1="316.1" y1="363.5" x2="316.1" y2="385"/>
							<line class="st6" x1="304.7" y1="363.5" x2="304.7" y2="385"/>
							<line class="st6" x1="258.8" y1="361.4" x2="258.8" y2="382.9"/>
							<line class="st6" x1="267.8" y1="363.5" x2="267.8" y2="385"/>
							<line class="st6" x1="279.1" y1="363.5" x2="279.1" y2="385"/>
							<line class="st6" x1="291.9" y1="363" x2="291.9" y2="384.5"/>
						</g>
					</g>
					<path class="st7" d="M253.1,361.4c0,4,17.4,7.2,38.9,7.2c21.5,0,38.9-3.2,38.9-7.2c0-4-17.4-7.2-38.9-7.2
						C270.5,354.1,253.1,357.4,253.1,361.4z"/>
					<path class="st8" d="M261.8,360.2c0,1.8,13.5,3.3,30.1,3.3c16.6,0,30.1-1.5,30.1-3.3c0-1.8-13.5-3.3-30.1-3.3
						C275.3,356.9,261.8,358.3,261.8,360.2z"/>
					<path class="st9" d="M320.2,361.3c-4.2-1.3-15.3-2.2-28.3-2.2c-13,0-24,0.9-28.3,2.2c-1.2-0.4-1.9-0.7-1.9-1.1
						c0-1.8,13.5-3.3,30.1-3.3c16.6,0,30.1,1.5,30.1,3.3C322.1,360.6,321.4,361,320.2,361.3z"/>
				</g>
				<g>
					<path class="st4" d="M251.7,359c0,4,17.4,7.2,38.9,7.2c21.5,0,38.9-3.2,38.9-7.2c0-1.3,0-12.6,0-12.6h-77.7
						C251.7,346.3,251.7,355,251.7,359z"/>
					<g>
						<defs>
							<path id="SVGID_00000047022136059891486100000017749963214021059244_" d="M251.7,359c0,4,17.4,7.2,38.9,7.2
								c21.5,0,38.9-3.2,38.9-7.2c0-1.3,0-12.6,0-12.6h-77.7C251.7,346.3,251.7,355,251.7,359z"/>
						</defs>
						<clipPath id="SVGID_00000021117576716290499370000001966932776822734979_">
							<use xlink:href="#SVGID_00000047022136059891486100000017749963214021059244_"  style="overflow:visible;"/>
						</clipPath>
						<g style="clip-path:url(#SVGID_00000021117576716290499370000001966932776822734979_);">
							<line class="st6" x1="323.8" y1="346.8" x2="323.8" y2="368.3"/>
							<line class="st6" x1="314.7" y1="349" x2="314.7" y2="370.5"/>
							<line class="st6" x1="303.4" y1="349" x2="303.4" y2="370.5"/>
							<line class="st6" x1="257.4" y1="346.8" x2="257.4" y2="368.3"/>
							<line class="st6" x1="266.4" y1="349" x2="266.4" y2="370.5"/>
							<line class="st6" x1="277.8" y1="349" x2="277.8" y2="370.5"/>
							<line class="st6" x1="290.6" y1="348.5" x2="290.6" y2="370"/>
						</g>
					</g>
					<path class="st7" d="M251.7,346.8c0,4,17.4,7.2,38.9,7.2c21.5,0,38.9-3.2,38.9-7.2s-17.4-7.2-38.9-7.2
						C269.1,339.6,251.7,342.8,251.7,346.8z"/>
					<ellipse class="st8" cx="290.6" cy="345.6" rx="30.1" ry="3.3"/>
					<path class="st9" d="M318.8,346.8c-4.2-1.3-15.3-2.2-28.3-2.2c-13,0-24,0.9-28.3,2.2c-1.2-0.4-1.9-0.7-1.9-1.1
						c0-1.8,13.5-3.3,30.1-3.3c16.6,0,30.1,1.5,30.1,3.3C320.7,346,320,346.4,318.8,346.8z"/>
				</g>
			</g>
		</g>
		<g>
			<path class="st3" d="M420.9,420.8c-8.9-2.3-14.3-5.4-14.3-8.7c0-7.1,23.7-12.8,52.9-12.8c29.2,0,52.9,5.7,52.9,12.8
				c0,7.1-23.7,12.8-52.9,12.8c-2.1,0-4.2,0-6.2-0.1C445.1,429.3,429,437,413,437C401.3,437,409.8,428.8,420.9,420.8z"/>
			<g>
				<g>
					<path class="st4" d="M494.6,409.9c0,4-17.4,7.2-38.9,7.2c-21.5,0-38.9-3.2-38.9-7.2c0-1.3,0-12.6,0-12.6h77.7
						C494.6,397.2,494.6,405.9,494.6,409.9z"/>
					<g>
						<defs>
							<path id="SVGID_00000013161895318931740080000018234898875582752957_" d="M494.6,409.9c0,4-17.4,7.2-38.9,7.2
								c-21.5,0-38.9-3.2-38.9-7.2c0-1.3,0-12.6,0-12.6h77.7C494.6,397.2,494.6,405.9,494.6,409.9z"/>
						</defs>
						<clipPath id="SVGID_00000164499073496913268970000018242907895013051839_">
							<use xlink:href="#SVGID_00000013161895318931740080000018234898875582752957_"  style="overflow:visible;"/>
						</clipPath>
						<g style="clip-path:url(#SVGID_00000164499073496913268970000018242907895013051839_);">
							<line class="st6" x1="422.6" y1="397.7" x2="422.6" y2="419.2"/>
							<line class="st6" x1="431.6" y1="399.9" x2="431.6" y2="421.4"/>
							<line class="st6" x1="443" y1="399.9" x2="443" y2="421.4"/>
							<line class="st6" x1="489" y1="397.7" x2="489" y2="419.2"/>
							<line class="st6" x1="479.9" y1="399.9" x2="479.9" y2="421.4"/>
							<line class="st6" x1="468.6" y1="399.9" x2="468.6" y2="421.4"/>
							<line class="st6" x1="455.8" y1="399.4" x2="455.8" y2="420.9"/>
						</g>
					</g>
					<path class="st7" d="M494.6,397.7c0,4-17.4,7.2-38.9,7.2c-21.5,0-38.9-3.2-38.9-7.2c0-4,17.4-7.2,38.9-7.2
						C477.3,390.5,494.6,393.8,494.6,397.7z"/>
					<path class="st8" d="M485.9,396.6c0,1.8-13.5,3.3-30.1,3.3c-16.6,0-30.1-1.5-30.1-3.3c0-1.8,13.5-3.3,30.1-3.3
						C472.4,393.2,485.9,394.7,485.9,396.6z"/>
					<path class="st9" d="M427.5,397.7c4.2-1.3,15.3-2.2,28.3-2.2c13,0,24,0.9,28.3,2.2c1.2-0.4,1.9-0.7,1.9-1.1
						c0-1.8-13.5-3.3-30.1-3.3c-16.6,0-30.1,1.5-30.1,3.3C425.7,397,426.3,397.3,427.5,397.7z"/>
				</g>
				<g>
					<path class="st4" d="M499.5,396.6c0,4-17.4,7.2-38.9,7.2c-21.5,0-38.9-3.2-38.9-7.2c0-1.3,0-12.6,0-12.6h77.7
						C499.5,384,499.5,392.6,499.5,396.6z"/>
					<g>
						<defs>
							<path id="SVGID_00000127038528266263851940000003655126738740536969_" d="M499.5,396.6c0,4-17.4,7.2-38.9,7.2
								c-21.5,0-38.9-3.2-38.9-7.2c0-1.3,0-12.6,0-12.6h77.7C499.5,384,499.5,392.6,499.5,396.6z"/>
						</defs>
						<clipPath id="SVGID_00000154426242532693678520000015434929131673168560_">
							<use xlink:href="#SVGID_00000127038528266263851940000003655126738740536969_"  style="overflow:visible;"/>
						</clipPath>
						<g style="clip-path:url(#SVGID_00000154426242532693678520000015434929131673168560_);">
							<line class="st6" x1="427.5" y1="384.5" x2="427.5" y2="406"/>
							<line class="st6" x1="436.5" y1="386.6" x2="436.5" y2="408.1"/>
							<line class="st6" x1="447.8" y1="386.6" x2="447.8" y2="408.1"/>
							<line class="st6" x1="493.8" y1="384.5" x2="493.8" y2="406"/>
							<line class="st6" x1="484.8" y1="386.6" x2="484.8" y2="408.1"/>
							<line class="st6" x1="473.4" y1="386.6" x2="473.4" y2="408.1"/>
							<line class="st6" x1="460.6" y1="386.1" x2="460.6" y2="407.6"/>
						</g>
					</g>
					<path class="st7" d="M499.5,384.5c0,4-17.4,7.2-38.9,7.2c-21.5,0-38.9-3.2-38.9-7.2c0-4,17.4-7.2,38.9-7.2
						C482.1,377.2,499.5,380.5,499.5,384.5z"/>
					<path class="st8" d="M490.8,383.3c0,1.8-13.5,3.3-30.1,3.3c-16.6,0-30.1-1.5-30.1-3.3c0-1.8,13.5-3.3,30.1-3.3
						C477.3,380,490.8,381.4,490.8,383.3z"/>
					<path class="st9" d="M432.4,384.4c4.2-1.3,15.3-2.2,28.3-2.2c13,0,24,0.9,28.3,2.2c1.2-0.4,1.9-0.7,1.9-1.1
						c0-1.8-13.5-3.3-30.1-3.3c-16.6,0-30.1,1.5-30.1,3.3C430.5,383.7,431.2,384.1,432.4,384.4z"/>
				</g>
				<g>
					<path class="st4" d="M495.8,383.3c0,4-17.4,7.2-38.9,7.2c-21.5,0-38.9-3.2-38.9-7.2c0-1.3,0-12.6,0-12.6h77.7
						C495.8,370.7,495.8,379.3,495.8,383.3z"/>
					<g>
						<defs>
							<path id="SVGID_00000084521987741248103530000007967091338329653381_" d="M495.8,383.3c0,4-17.4,7.2-38.9,7.2
								c-21.5,0-38.9-3.2-38.9-7.2c0-1.3,0-12.6,0-12.6h77.7C495.8,370.7,495.8,379.3,495.8,383.3z"/>
						</defs>
						<clipPath id="SVGID_00000094592050034714012820000000763475816809029523_">
							<use xlink:href="#SVGID_00000084521987741248103530000007967091338329653381_"  style="overflow:visible;"/>
						</clipPath>
						<g style="clip-path:url(#SVGID_00000094592050034714012820000000763475816809029523_);">
							<line class="st6" x1="423.8" y1="371.2" x2="423.8" y2="392.7"/>
							<line class="st6" x1="432.8" y1="373.3" x2="432.8" y2="394.8"/>
							<line class="st6" x1="444.2" y1="373.3" x2="444.2" y2="394.8"/>
							<line class="st6" x1="490.1" y1="371.2" x2="490.1" y2="392.7"/>
							<line class="st6" x1="481.1" y1="373.3" x2="481.1" y2="394.8"/>
							<line class="st6" x1="469.8" y1="373.3" x2="469.8" y2="394.8"/>
							<line class="st6" x1="457" y1="372.8" x2="457" y2="394.3"/>
						</g>
					</g>
					<path class="st7" d="M495.8,371.2c0,4-17.4,7.2-38.9,7.2c-21.5,0-38.9-3.2-38.9-7.2c0-4,17.4-7.2,38.9-7.2
						C478.4,364,495.8,367.2,495.8,371.2z"/>
					<ellipse class="st8" cx="457" cy="370" rx="30.1" ry="3.3"/>
					<path class="st9" d="M428.7,371.1c4.2-1.3,15.3-2.2,28.3-2.2c13,0,24,0.9,28.3,2.2c1.2-0.4,1.9-0.7,1.9-1.1
						c0-1.8-13.5-3.3-30.1-3.3c-16.6,0-30.1,1.5-30.1,3.3C426.8,370.4,427.5,370.8,428.7,371.1z"/>
				</g>
				<g>
					<path class="st4" d="M490.8,369.5c0,4-17.4,7.2-38.9,7.2c-21.5,0-38.9-3.2-38.9-7.2c0-1.3,0-12.6,0-12.6h77.7
						C490.8,356.9,490.8,365.5,490.8,369.5z"/>
					<g>
						<defs>
							<path id="SVGID_00000171699015323251223730000009986470029020256150_" d="M490.8,369.5c0,4-17.4,7.2-38.9,7.2
								c-21.5,0-38.9-3.2-38.9-7.2c0-1.3,0-12.6,0-12.6h77.7C490.8,356.9,490.8,365.5,490.8,369.5z"/>
						</defs>
						<clipPath id="SVGID_00000031908628831557324750000001344627048165990532_">
							<use xlink:href="#SVGID_00000171699015323251223730000009986470029020256150_"  style="overflow:visible;"/>
						</clipPath>
						<g style="clip-path:url(#SVGID_00000031908628831557324750000001344627048165990532_);">
							<line class="st6" x1="418.7" y1="357.4" x2="418.7" y2="378.9"/>
							<line class="st6" x1="427.8" y1="359.5" x2="427.8" y2="381"/>
							<line class="st6" x1="439.1" y1="359.5" x2="439.1" y2="381"/>
							<line class="st6" x1="485.1" y1="357.4" x2="485.1" y2="378.9"/>
							<line class="st6" x1="476" y1="359.5" x2="476" y2="381"/>
							<line class="st6" x1="464.7" y1="359.5" x2="464.7" y2="381"/>
							<line class="st6" x1="451.9" y1="359" x2="451.9" y2="380.5"/>
						</g>
					</g>
					<path class="st7" d="M490.8,357.4c0,4-17.4,7.2-38.9,7.2c-21.5,0-38.9-3.2-38.9-7.2c0-4,17.4-7.2,38.9-7.2
						C473.4,350.2,490.8,353.4,490.8,357.4z"/>
					<path class="st8" d="M482,356.2c0,1.8-13.5,3.3-30.1,3.3c-16.6,0-30.1-1.5-30.1-3.3c0-1.8,13.5-3.3,30.1-3.3
						C468.5,352.9,482,354.4,482,356.2z"/>
					<path class="st9" d="M423.6,357.3c4.2-1.3,15.3-2.2,28.3-2.2c13,0,24,0.9,28.3,2.2c1.2-0.4,1.9-0.7,1.9-1.1
						c0-1.8-13.5-3.3-30.1-3.3c-16.6,0-30.1,1.5-30.1,3.3C421.8,356.6,422.4,357,423.6,357.3z"/>
				</g>
				<g>
					<path class="st4" d="M488.4,355.5c0,4-17.4,7.2-38.9,7.2c-21.5,0-38.9-3.2-38.9-7.2c0-1.3,0-12.6,0-12.6h77.7
						C488.4,342.8,488.4,351.5,488.4,355.5z"/>
					<g>
						<defs>
							<path id="SVGID_00000003799908990303774770000016346809734103768196_" d="M488.4,355.5c0,4-17.4,7.2-38.9,7.2
								c-21.5,0-38.9-3.2-38.9-7.2c0-1.3,0-12.6,0-12.6h77.7C488.4,342.8,488.4,351.5,488.4,355.5z"/>
						</defs>
						<clipPath id="SVGID_00000102529017006480978680000011971695916635859345_">
							<use xlink:href="#SVGID_00000003799908990303774770000016346809734103768196_"  style="overflow:visible;"/>
						</clipPath>
						<g style="clip-path:url(#SVGID_00000102529017006480978680000011971695916635859345_);">
							<line class="st6" x1="416.4" y1="343.3" x2="416.4" y2="364.8"/>
							<line class="st6" x1="425.4" y1="345.5" x2="425.4" y2="367"/>
							<line class="st6" x1="436.8" y1="345.5" x2="436.8" y2="367"/>
							<line class="st6" x1="482.8" y1="343.3" x2="482.8" y2="364.8"/>
							<line class="st6" x1="473.7" y1="345.5" x2="473.7" y2="367"/>
							<line class="st6" x1="462.4" y1="345.5" x2="462.4" y2="367"/>
							<line class="st6" x1="449.6" y1="345" x2="449.6" y2="366.5"/>
						</g>
					</g>
					<ellipse class="st7" cx="449.6" cy="343.3" rx="38.9" ry="7.2"/>
					<path class="st8" d="M479.7,342.1c0,1.8-13.5,3.3-30.1,3.3c-16.6,0-30.1-1.5-30.1-3.3c0-1.8,13.5-3.3,30.1-3.3
						C466.2,338.8,479.7,340.3,479.7,342.1z"/>
					<path class="st9" d="M421.3,343.3c4.2-1.3,15.3-2.2,28.3-2.2c13,0,24,0.9,28.3,2.2c1.2-0.4,1.9-0.7,1.9-1.1
						c0-1.8-13.5-3.3-30.1-3.3c-16.6,0-30.1,1.5-30.1,3.3C419.5,342.6,420.1,342.9,421.3,343.3z"/>
				</g>
				<g>
					<path class="st4" d="M492.2,340.9c0,4-17.4,7.2-38.9,7.2s-38.9-3.2-38.9-7.2c0-1.3,0-12.6,0-12.6h77.7
						C492.2,328.3,492.2,336.9,492.2,340.9z"/>
					<g>
						<defs>
							<path id="SVGID_00000012461305888818500140000010738683071134466488_" d="M492.2,340.9c0,4-17.4,7.2-38.9,7.2
								s-38.9-3.2-38.9-7.2c0-1.3,0-12.6,0-12.6h77.7C492.2,328.3,492.2,336.9,492.2,340.9z"/>
						</defs>
						<clipPath id="SVGID_00000117655166036468660150000017843292103489183879_">
							<use xlink:href="#SVGID_00000012461305888818500140000010738683071134466488_"  style="overflow:visible;"/>
						</clipPath>
						<g style="clip-path:url(#SVGID_00000117655166036468660150000017843292103489183879_);">
							<line class="st6" x1="420.1" y1="328.8" x2="420.1" y2="350.3"/>
							<line class="st6" x1="429.2" y1="330.9" x2="429.2" y2="352.4"/>
							<line class="st6" x1="440.5" y1="330.9" x2="440.5" y2="352.4"/>
							<line class="st6" x1="486.5" y1="328.8" x2="486.5" y2="350.3"/>
							<line class="st6" x1="477.5" y1="330.9" x2="477.5" y2="352.4"/>
							<line class="st6" x1="466.1" y1="330.9" x2="466.1" y2="352.4"/>
							<line class="st6" x1="453.3" y1="330.4" x2="453.3" y2="351.9"/>
						</g>
					</g>
					<ellipse class="st7" cx="453.3" cy="328.8" rx="38.9" ry="7.2"/>
					<path class="st8" d="M483.4,327.6c0,1.8-13.5,3.3-30.1,3.3c-16.6,0-30.1-1.5-30.1-3.3c0-1.8,13.5-3.3,30.1-3.3
						C470,324.3,483.4,325.8,483.4,327.6z"/>
					<path class="st9" d="M425.1,328.8c4.2-1.3,15.3-2.2,28.3-2.2s24,0.9,28.3,2.2c1.2-0.4,1.9-0.7,1.9-1.1c0-1.8-13.5-3.3-30.1-3.3
						c-16.6,0-30.1,1.5-30.1,3.3C423.2,328,423.9,328.4,425.1,328.8z"/>
				</g>
			</g>
			<g>
				<g>
					<path class="st21" d="M433.2,372.3c13.4,6.1,18,25,10.2,42.4c-7.8,17.3-25.1,26.5-38.5,20.4c-3.1-1.4-11-4.4-11-4.4
						s-5.2-24.7,0.8-38c6.2-13.7,27.2-24.7,27.2-24.7S430.3,371,433.2,372.3z"/>
				</g>
				<g>
					<defs>
						<path id="SVGID_00000175295714755904296400000018007272960821597363_" d="M433.2,372.3c13.4,6.1,18,25,10.2,42.4
							c-7.8,17.3-25.1,26.5-38.5,20.4c-3.1-1.4-11-4.4-11-4.4s-5.2-24.7,0.8-38c6.2-13.7,27.2-24.7,27.2-24.7S430.3,371,433.2,372.3
							z"/>
					</defs>
					<clipPath id="SVGID_00000183216011872984455720000002175273103499953027_">
						<use xlink:href="#SVGID_00000175295714755904296400000018007272960821597363_"  style="overflow:visible;"/>
					</clipPath>
					<g style="clip-path:url(#SVGID_00000183216011872984455720000002175273103499953027_);">
						<line class="st6" x1="384.1" y1="422.4" x2="429.7" y2="442.6"/>
						<line class="st6" x1="391.9" y1="417.1" x2="437.5" y2="437.3"/>
						<line class="st6" x1="396" y1="407.9" x2="441.6" y2="428.1"/>
						<line class="st6" x1="408" y1="368.7" x2="453.5" y2="388.8"/>
						<line class="st6" x1="409.3" y1="378" x2="454.8" y2="398.2"/>
						<line class="st6" x1="405.2" y1="387.2" x2="450.8" y2="407.4"/>
						<line class="st6" x1="399.6" y1="397.1" x2="445.1" y2="417.3"/>
					</g>
				</g>
				<g>
					<path class="st23" d="M424,368.9c13.4,6.1,18,25,10.2,42.4c-7.8,17.3-25.1,26.5-38.5,20.4c-13.4-6.1-18-25-10.2-42.4
						C393.4,372,410.6,362.9,424,368.9z"/>
				</g>
				<g>
					<path class="st8" d="M419.8,376.7c9.5,4.3,12.6,18.3,6.7,31.2c-5.8,12.9-18.3,19.9-27.8,15.6c-9.5-4.3-12.6-18.3-6.7-31.2
						C397.8,379.4,410.3,372.4,419.8,376.7z"/>
				</g>
				<path class="st9" d="M392,392.3c4.1-9,11.3-15.1,18.6-16.5c-6.4,2.2-12.4,7.9-16,15.8c-5.8,12.9-2.8,26.9,6.7,31.2
					c2.9,1.3,6.1,1.6,9.2,0.9c-4,1.4-8.1,1.4-11.8-0.2C389.2,419.1,386.2,405.2,392,392.3z"/>
				<g class="st24">
					<path class="st25" d="M417.2,389.1c0.9,0.7,1.6,1.6,2.1,2.4c0.6,0.9,1,1.8,1.3,2.7c0.3,0.9,0.4,1.8,0.4,2.6
						c0,0.8-0.1,1.6-0.4,2.2c-0.1,0.2-0.3,0.4-0.5,0.5c-0.2,0.1-0.4,0.1-0.6,0l-4.3-2.1c-0.3-0.1-0.5-0.3-0.7-0.5
						c-0.1-0.2-0.3-0.4-0.4-0.7c0-0.1-0.1-0.3-0.1-0.5c-0.1-0.2-0.2-0.5-0.4-0.8c-0.2-0.3-0.4-0.6-0.8-0.9c-0.3-0.3-0.8-0.6-1.4-0.9
						c-0.4-0.2-0.8-0.4-1.2-0.5c-0.4-0.1-0.8-0.2-1.2-0.2c-0.4,0-0.7,0.1-1,0.2c-0.3,0.2-0.5,0.4-0.7,0.8c-0.2,0.4-0.2,0.7-0.1,1.1
						c0.1,0.3,0.3,0.7,0.7,1.2c0.4,0.4,1,1,1.7,1.5c0.7,0.6,1.6,1.3,2.7,2.1c1.1,0.8,2,1.7,2.7,2.5c0.7,0.8,1.2,1.7,1.5,2.6
						c0.3,0.9,0.4,1.9,0.3,2.8c-0.1,1-0.4,2-1,3.2c-0.5,1-1.1,1.9-1.9,2.6c-0.8,0.7-1.6,1.2-2.6,1.5c-0.9,0.4-2,0.5-3.1,0.5
						c-1.1,0-2.2-0.2-3.4-0.5l-1.2,2.6c-0.1,0.3-0.3,0.5-0.6,0.6c-0.3,0.1-0.5,0.1-0.8,0l-4.3-2.1c-0.2-0.1-0.4-0.3-0.5-0.6
						c-0.1-0.3-0.1-0.6,0.1-0.8l1.3-2.7c-0.9-0.8-1.7-1.6-2.3-2.5c-0.6-0.9-1.1-1.8-1.4-2.7c-0.3-0.9-0.4-1.8-0.4-2.7
						c0-0.9,0.2-1.7,0.5-2.5c0.1-0.2,0.3-0.4,0.5-0.5c0.2-0.1,0.4-0.1,0.6,0l4.3,2.1c0.3,0.1,0.5,0.3,0.7,0.5
						c0.1,0.2,0.2,0.4,0.3,0.6c0,0.1,0.1,0.4,0.2,0.7c0.1,0.3,0.2,0.6,0.4,1c0.2,0.4,0.5,0.8,0.8,1.1c0.4,0.4,0.9,0.7,1.5,1.1
						c1.2,0.6,2.2,0.9,3.1,1c0.9,0.1,1.5-0.2,1.9-1c0.2-0.4,0.2-0.7,0-1.1c-0.2-0.4-0.5-0.8-1-1.3c-0.5-0.5-1.1-1-1.9-1.6
						c-0.8-0.6-1.7-1.4-2.8-2.2c-2-1.6-3.2-3.3-3.7-5c-0.4-1.8-0.2-3.7,0.8-5.8c0.4-0.8,0.9-1.6,1.6-2.3c0.7-0.7,1.4-1.2,2.3-1.6
						c0.9-0.4,1.8-0.7,2.8-0.8c1-0.1,2.1-0.1,3.2,0.1l1.3-2.7c0.1-0.3,0.3-0.5,0.6-0.6c0.3-0.1,0.5-0.1,0.8,0l4.3,2.1
						c0.2,0.1,0.4,0.3,0.5,0.6c0.1,0.3,0.1,0.6-0.1,0.8L417.2,389.1z"/>
				</g>
				<g>
					<path class="st23" d="M418.6,389.6c0.9,0.7,1.6,1.6,2.1,2.4c0.6,0.9,1,1.8,1.3,2.7c0.3,0.9,0.4,1.8,0.4,2.6
						c0,0.8-0.1,1.6-0.4,2.2c-0.1,0.2-0.3,0.4-0.5,0.5c-0.2,0.1-0.4,0.1-0.6,0l-4.3-2.1c-0.3-0.1-0.5-0.3-0.7-0.5
						c-0.1-0.2-0.3-0.4-0.4-0.7c0-0.1-0.1-0.3-0.1-0.5c-0.1-0.2-0.2-0.5-0.4-0.8c-0.2-0.3-0.4-0.6-0.8-0.9c-0.3-0.3-0.8-0.6-1.4-0.9
						c-0.4-0.2-0.8-0.4-1.2-0.5c-0.4-0.1-0.8-0.2-1.2-0.2c-0.4,0-0.7,0.1-1,0.2c-0.3,0.2-0.5,0.4-0.7,0.8c-0.2,0.4-0.2,0.7-0.1,1.1
						c0.1,0.3,0.3,0.7,0.7,1.2c0.4,0.4,1,1,1.7,1.5c0.7,0.6,1.6,1.3,2.7,2.1c1.1,0.8,2,1.7,2.7,2.5c0.7,0.8,1.2,1.7,1.5,2.6
						c0.3,0.9,0.4,1.9,0.3,2.8c-0.1,1-0.4,2-1,3.2c-0.5,1-1.1,1.9-1.9,2.6c-0.8,0.7-1.6,1.2-2.6,1.5c-0.9,0.4-2,0.5-3.1,0.5
						c-1.1,0-2.2-0.2-3.4-0.5l-1.2,2.6c-0.1,0.3-0.3,0.5-0.6,0.6c-0.3,0.1-0.5,0.1-0.8,0l-4.3-2.1c-0.2-0.1-0.4-0.3-0.5-0.6
						c-0.1-0.3-0.1-0.6,0.1-0.8l1.3-2.7c-0.9-0.8-1.7-1.6-2.3-2.5c-0.6-0.9-1.1-1.8-1.4-2.7c-0.3-0.9-0.4-1.8-0.4-2.7
						c0-0.9,0.2-1.7,0.5-2.5c0.1-0.2,0.3-0.4,0.5-0.5c0.2-0.1,0.4-0.1,0.6,0l4.3,2.1c0.3,0.1,0.5,0.3,0.7,0.5
						c0.1,0.2,0.3,0.4,0.3,0.6c0,0.1,0.1,0.4,0.2,0.7c0.1,0.3,0.2,0.6,0.4,1c0.2,0.4,0.5,0.8,0.8,1.1c0.4,0.4,0.9,0.7,1.5,1.1
						c1.2,0.6,2.2,0.9,3.1,1c0.9,0.1,1.5-0.2,1.9-1c0.2-0.4,0.2-0.7,0-1.1c-0.2-0.4-0.5-0.8-1-1.3c-0.5-0.5-1.1-1-1.9-1.6
						c-0.8-0.6-1.7-1.4-2.8-2.2c-2-1.6-3.2-3.3-3.7-5c-0.4-1.7-0.2-3.7,0.8-5.8c0.4-0.8,0.9-1.6,1.6-2.3c0.7-0.7,1.4-1.2,2.3-1.6
						c0.9-0.4,1.8-0.7,2.8-0.8c1-0.1,2.1-0.1,3.2,0.1l1.3-2.7c0.1-0.3,0.3-0.5,0.6-0.6c0.3-0.1,0.5-0.1,0.8,0l4.3,2.1
						c0.2,0.1,0.4,0.3,0.5,0.6c0.1,0.3,0.1,0.6-0.1,0.8L418.6,389.6z"/>
				</g>
			</g>
		</g>
		<ellipse class="st3" cx="399" cy="465.4" rx="147.7" ry="11.9"/>
		<g>
			<g>
				<g>
					<polyline class="st26" points="350,428.2 355.7,452.3 335.6,460.1 377.8,454.7 374.2,425.7 					"/>
					<path class="st27" d="M354.5,447.6c-1.3,0.4-0.3,1.3-2.5,3.9c-2.1,2.6-14.8,7.5-20.7,9.3c-5.8,1.7-4.5,6.7-2.6,6.7
						c0,0,28.7,0,31,0s3.9-1.8,5.7-1.8c0.5,0,1.5-0.3,1.7,0c0.4,0.5,0.4,1.8,0.4,1.8h10.5c1.2,0,1.9-0.8,1.8-1.6l-1.1-14.9
						c0,0-12.8,1.7-16.4,0.7c-1.5-0.4,0.1-1.5-0.5-2.2C361.1,448.8,355.8,447.1,354.5,447.6z"/>
				</g>
				<g>
					<polyline class="st26" points="298,427.3 296.8,452.3 276.7,460.1 318.9,454.7 320.9,425.7 					"/>
					<path class="st27" d="M295.6,447.6c-1.3,0.4-0.3,1.3-2.5,3.9c-2.1,2.6-14.8,7.5-20.7,9.3c-5.8,1.7-4.5,6.7-2.6,6.7
						c0,0,28.7,0,31,0c2.3,0,3.9-1.8,5.7-1.8c0.5,0,1.5-0.3,1.7,0c0.4,0.5,0.4,1.8,0.4,1.8h10.5c1.2,0,1.9-0.8,1.8-1.6l-1.1-14.9
						c0,0-12.8,1.7-16.4,0.7c-1.5-0.4,0.1-1.5-0.5-2.2C302.2,448.8,296.9,447.1,295.6,447.6z"/>
				</g>
				<g>
					<path class="st2" d="M297.2,285.8c0,0-3.8,54.9-3.8,81.2s-1.7,74-1.7,74h30.4c0,0,11.5-160.7,20.5-178.5l-29.5-8.8L297.2,285.8
						z"/>
					<path class="st2" d="M365.5,283.5c0,62.8,12.6,154.9,12.6,154.9h-30.2c0,0-21.2-68.3-23.8-109.3c-2.7-42-4.3-75.4-4.3-75.4"/>
					<path class="st28" d="M356.7,282.9c0,68,14.9,155.5,14.9,155.5"/>
					<path class="st28" d="M328.2,361.7c-7.6-34.4-6.8-91.5-6.1-100.8"/>
					<path class="st28" d="M324.9,342c-7.8,45.1-7.8,99-7.8,99"/>
				</g>
			</g>
			<g>
				<path class="st26" d="M326.5,149.4c0,0-5.8,15.1-1,20.2c2.5,2.6,10,3.2,13.2,0.8c2.4-1.8,6.2-13.5,4.9-15.6
					C338.6,146.8,326.5,149.4,326.5,149.4z"/>
				<path class="st26" d="M344.9,164.7l1,15.5c0,0-9.9,7.8-18-0.9l0-11.8L344.9,164.7z"/>
				<path class="st29" d="M349.3,161.1c0.6-3.2,1.4-5,1.1-8.7c-0.2-3.9-3.6-4.4-3.6-4.4s0.6,0.3-1.7-2.6c-2.2-2.8-7.5-1.6-10.8-1.5
					c-4.3,0.2-8.7-1.9-10.8,0.3c-0.9,0.9-2.2,7,1.6,8.2c2.2,0.7,5.3-0.6,7.6-0.7c4.3-0.2,7.6,0.5,8.7,3.1c0.6,1.4,0.4,2.8,0.2,4
					c-0.1,0.5-0.1,1-0.1,1.3l1.9,0.9c2.4,1-1.5,5.7-0.8,7.4c0.4,0.9,2.3,0.9,3.8-0.2C347.9,167.1,348.6,164.7,349.3,161.1z"/>
				<path class="st26" d="M342.3,161.3c1.5-2.3,2.9-2.1,3.8-1c1.2,1.5-0.6,5-1.4,5.6c-1.8,1.3-3.4,1.3-3.6-0.2"/>
				<path class="st30" d="M327.9,171.9c5.3,1.3,11.2-2,11.2-2"/>
			</g>
			<g>
				<g>
					<path class="st31" d="M250.4,261.5c-4.3,2.6-17.8,8.1-17.8,9.1c0,1,4.8-0.8,4.7,0c-0.1,0.8-7.3,4.2-7,5.2
						c0.4,1.4,7.6-2.5,7.6-2.5s-7.6,4.6-6.9,5.7c0.5,0.8,6.5-2.5,8.9-3.4c-2.5,1.4-6.3,4.1-5.8,4.8c0.5,0.8,4.7-1.3,7.9-2.8
						c-1.9,1.1-5.4,3.3-4.9,4c0.5,0.7,10.9-3.7,20.5-8.3"/>
				</g>
				<path class="st26" d="M365.2,301.7c0,0-1.8,6.5-5.6,9.5c-2,1.6-2.5,1-3.5,1.6c-1.7,1-2.6,0.7-3.3-0.2c-0.5-0.6-1.7-0.2-2.4-0.7
					c-1.1-0.8-0.3-1.9-1-2.2c-3.1-1.4,0.3-4.4,0.3-4.4s-1.8,1.5-3.1,0.8c-1.3-0.7,7.7-10.6,7.7-10.6"/>
				<path class="st32" d="M333.3,182.4l14.7-2l3.3,0.7c0,0-25.8,72.8-26.4,72.8c-0.6,0-9.6-1.5-9.6-1.5l6.7-71.8l3.1-1.3
					L333.3,182.4z"/>
				<g>
					<path class="st33" d="M332.1,186.2l-1.4,3.4c0,0-11.2,22-11.2,27.2c0,5.2-1.8,36.2-1.4,36.2s8,0.9,8,0.9l7.9-32.9l0.4-31.4"/>
					<path class="st33" d="M329.5,183c-0.5,0.5,0.5,6,1.1,6.6c0.6,0.6,3.2,0.6,3.8,0c0.6-0.6,3.4-5.7,2.5-6.6
						C336,182,330.4,182.1,329.5,183z"/>
				</g>
				<path class="st34" d="M321.3,246.1c11.5-38.2,30.1-64.9,30.1-64.9s14.9,4,22.7,8.9c0,0-3.8,36.2-5.2,56
					c-1.4,19.8,4.4,42.2,4.4,42.2s-28.8,4.8-46.4,4.8c0,0-5.6-15-5.6-30c0,0-2.1,17.8-7.3,28.7c0,0-12.9-1-18.2-3.1
					c0,0,7-38.9,7-51.4c0-10,1.4-37.4,1.9-47.9c0.1-2.5,1.8-4.6,4.2-5.2l13.2-3.3L321.3,246.1z"/>
				<polygon class="st33" points="353.9,293.1 351.9,297 366,304.2 369.1,299.3 				"/>
				<path class="st34" d="M368.2,187.1c8.6,1.1,25.4,25.7,28.3,50.1s-27.5,65-27.5,65l-17.7-8.3c0,0,20.5-32.5,20.5-46.2
					c0-13.8-11.7-29.2-11.7-29.2"/>
				<polygon class="st33" points="248.3,261.5 244,264 252,277.8 258.1,274.9 				"/>
				<path class="st34" d="M309.8,183.9c-6.7,0.7-11.7,10.7-18,24.6c-5.5,12.1-12.3,24.4-18.7,30.8c-15.8,15.8-27.2,21.5-27.2,21.5
					l10,17c0,0,46.2-22.2,53.1-49.1"/>
				<polygon class="st35" points="345.7,176.8 333.7,181.7 328.3,176.8 325.2,179.5 327.5,186.8 333.6,182.8 337.5,189 348,180.5 
									"/>
				<path class="st36" d="M355.1,182.3c-5.3,15-6.2,26.8-6.2,26.8h-6.6l3.6,5.7c0,0-14.1,14.8-22.7,36"/>
				<path class="st36" d="M318.1,181.8c-0.9,9.7-4.8,19.5-4.8,19.5l4.2,3l-5.2,2.9c0,0,7.4,30,5.9,42.6"/>
				<path class="st36" d="M369.1,236c-3.3-8.3-8.6-14.9-8.6-14.9"/>
				<path class="st36" d="M301.8,241.5c1.7-11.5,1.4-31.2,1.4-31.2"/>
			</g>
			<g>
				
					<rect x="320.5" y="316.1" transform="matrix(0.991 0.1339 -0.1339 0.991 48.5192 -43.9549)" class="st37" width="60.9" height="45.1"/>
				<polyline class="st38" points="322.5,321.9 351.4,335.7 382.5,330.1 				"/>
				<line class="st38" x1="346.8" y1="339.5" x2="354.5" y2="340.5"/>
				<path class="st39" d="M363.6,306.3c4.2,0.6,7.1,4.4,6.6,8.6l-0.5,3.5"/>
				<path class="st39" d="M337.9,314.1l0.5-3.5c0.6-4.2,4.4-7.1,8.6-6.6"/>
			</g>
		</g>
		<g>
			<ellipse class="st3" cx="129.1" cy="465.4" rx="106.6" ry="11.9"/>
			<g>
				<g>
					<g>
						<polyline class="st26" points="114.5,429.2 109.9,451.2 130,458.9 87.9,453.5 91.6,426.2 						"/>
						<path class="st40" d="M111.1,446.4c1.3,0.4,0.3,1.3,2.5,3.9c2.1,2.6,14.8,7.5,20.7,9.3c5.8,1.7,4.5,6.7,2.6,6.7
							c0,0-28.7,0-31,0c-2.3,0-3.9-1.8-5.7-1.8c-0.5,0-1.5-0.3-1.7,0c-0.4,0.5-0.4,1.8-0.4,1.8H87.6c-1.2,0-1.9-0.8-1.8-1.6
							l1.1-14.9c0,0,12.8,1.7,16.4,0.7c1.5-0.4-0.1-1.5,0.5-2.2S109.9,446,111.1,446.4z"/>
					</g>
					<g>
						<polyline class="st26" points="171.3,426.2 172.6,451.2 192.7,458.9 150.5,453.5 148.4,424.6 						"/>
						<path class="st40" d="M173.8,446.4c1.3,0.4,0.3,1.3,2.5,3.9c2.1,2.6,14.8,7.5,20.7,9.3c5.8,1.7,4.5,6.7,2.6,6.7
							c0,0-28.7,0-31,0c-2.3,0-3.9-1.8-5.7-1.8c-0.5,0-1.5-0.3-1.7,0c-0.4,0.5-0.4,1.8-0.4,1.8h-10.5c-1.2,0-1.9-0.8-1.8-1.6
							l1.1-14.9c0,0,12.8,1.7,16.4,0.7c1.5-0.4-0.1-1.5,0.5-2.2C167.2,447.7,172.5,446,173.8,446.4z"/>
					</g>
					<g>
						<path class="st34" d="M88.5,282.7c0,0,5.8,63,3.1,94.6c-2.7,31.6-6.2,62.6-6.2,62.6h34.4c0,0,17-98.4,18.2-127.3
							c1.2-28.9,0.9-62.6,0.9-62.6l-31.7,3.8L88.5,282.7z"/>
						<path class="st36" d="M101.9,298.6c3,75.3-8.9,141.3-8.9,141.3"/>
						<path class="st34" d="M168,273c0,0,5.4,34.2,7.4,83.2c1.1,25.6,3.3,83.7,3.3,83.7h-33.3c0,0-17.3-151.8-25.6-167.8l10.3-21.1
							L168,273z"/>
						<path class="st36" d="M134.8,349.8c4.1-27.9,6.1-80.1,6.1-80.1"/>
						<path class="st36" d="M137.4,326.8c11.1,42.4,15.2,113,15.2,113"/>
					</g>
				</g>
				<g>
					<path class="st26" d="M118.2,164.7l-0.9,14.1c0,0,9.9,7.8,18-0.9l-1.7-10.1L118.2,164.7z"/>
					<path class="st26" d="M136.1,149.3c0,0,5.5,14.2,1,19c-2.3,2.5-9.4,3-12.4,0.7c-2.3-1.7-5.8-12.7-4.6-14.6
						C124.7,146.8,136.1,149.3,136.1,149.3z"/>
					<g>
						<path class="st29" d="M122,159.4c0,0,0.9,3.3,2.6,5c1.5,1.5,5.5,0.1,8-0.1c2.5-0.2,5.4-0.7,6.3-1.1c0.8-0.4,0.5,5.1-1,6.6
							c-1.1,1.1-4.6,2.9-8.4,2.8c-3.8,0-5.5-1-6.3-2.4C122.3,168.8,118.3,157.4,122,159.4z"/>
						<path class="st29" d="M115.5,160.4c-0.6-3-2.1-4.7-1.9-8.2c0.2-3.7,3.3-4.2,3.3-4.2s0.4-1.4,3.4-3.2c5-2.9,15-0.1,20.2-1.2
							c1.2-0.3,0.4,7.3-3.2,8.5c-5.8,1.9-13.8-1.4-15.3,2.3c-0.5,1.3-0.4,2.7-0.2,3.7c0.1,0.5,0.1,0.9,0.1,1.3l-1.8,0.8
							c-2.3,1,1.4,5.3,0.7,6.9c-0.3,0.8-2.2,0.9-3.6-0.2C115.9,165.9,116.2,163.7,115.5,160.4z"/>
					</g>
					<path class="st26" d="M121.2,160.5c-1.4-2.2-2.7-2-3.6-0.9c-1.1,1.4,0.5,4.7,1.4,5.3c1.7,1.2,3.2,1.3,3.4-0.2"/>
					<path class="st33" d="M135.5,165.2l-5.4,0.8c0,0,0.7,3.6,3.8,2.6C135.9,168.1,135.5,165.2,135.5,165.2z"/>
				</g>
				<g>
					<g>
						<path class="st26" d="M223,260.5c4.5,2,18.7,5.7,18.8,6.8c0.1,1-4.9-0.2-4.7,0.6c0.2,0.8,7.8,3.2,7.6,4.3
							c-0.3,1.4-7.8-1.5-7.8-1.5s8.2,3.6,7.6,4.7c-0.4,0.8-6.8-1.6-9.3-2.3c2.7,1,6.8,3.2,6.4,4.1c-0.4,0.8-4.8-0.7-8.2-1.8
							c2.1,0.8,5.7,2.6,5.4,3.4c-0.4,0.8-11.2-2.3-21.4-5.6"/>
					</g>
					<polygon class="st33" points="223.7,258.7 229.2,261 222.5,276.6 216.6,273.5 					"/>
					<path class="st33" d="M113.8,177.3l-5.6,1.3c0,0,14.9,67.5,16,67.5s16.8,0,16.8,0l1.4-67l-4.5-1.7l-11,2.7L113.8,177.3z"/>
					<g>
						<path class="st32" d="M128.1,184.3l1.4,3.4c0,0,9.4,24,9.4,29.3s0.9,39.4,2.8,38.4c1.9-1-19.8-2.9-19.8-2.9l0.5-37l3.3-27.8"
							/>
						<path class="st32" d="M130.6,181.1c0.5,0.5-0.5,6-1.1,6.6c-0.6,0.6-3.2,0.6-3.8,0c-0.6-0.6-3.4-5.7-2.5-6.6
							C124.2,180.2,129.8,180.3,130.6,181.1z"/>
					</g>
					<path class="st2" d="M142.5,179.1c-7.2,26.6-7.7,67-7.7,67s-14.3-52.9-26.5-67.5c-0.4,0.1-4.9-0.2-15.4,3.3l-7.4,107.2
						c0,0,28.1,6.2,43.3,4.4c0,0,4.8-7.4,7.6-29c0,0,4.2,18,8.7,28.9c0,0,13-0.3,28.2-5.3c0,0-4.7-76.5-13.4-103.6
						C157,181,142.5,179.1,142.5,179.1z"/>
					<polygon class="st33" points="117.6,173.9 127.1,179.2 134.8,174.5 138,177.3 131.5,187.1 127.1,180.5 122.4,187.1 
						113.8,177.3 					"/>
					<path class="st2" d="M152.1,181c0,0,14.5,2.1,24.8,25.6c6,13.5,24,38.5,50.1,51l-7.5,20.2c0,0-33.6-16-46-28.4
						c-12.4-12.4-20.9-27.6-20.9-27.6"/>
					<polyline class="st38" points="138.3,177.5 132.2,187.7 127.1,180.5 122.4,188.2 113.2,177.5 					"/>
					<path class="st38" d="M96.8,259.8c-7.6-25,0.5-43.6,0.5-43.6"/>
					<path class="st38" d="M170.1,245.1c-1.7-19.3-4.4-39.8-4.4-39.8"/>
					<path class="st38" d="M104.3,179.1c2,9.1,0.5,23.2,0.5,23.2l9.1,1.2l-5.6,6.9c0,0,19.1,18.4,23.6,29.6"/>
					<path class="st38" d="M146.3,179.7c0,0,0.3,16,1.9,20.5l-7,1.4l7,4.5c0,0-11.4,18.8-12.8,33.8"/>
				</g>
				<g>
					<g>
						<polygon class="st41" points="65.9,287.2 91.1,315.9 129.9,282.1 104.6,253.4 						"/>
						<g>
							<path class="st41" d="M108.8,260.1l14.2,16.1l1.8-1.5c0.6-0.5,0.6-1.4,0.1-2l-12.4-14c-0.5-0.6-1.4-0.6-2-0.1L108.8,260.1z"
								/>
							<path class="st41" d="M117.9,262.1c-1.2,1.1-1.3,3.1-0.1,4.4c1.2,1.3,3.1,1.5,4.4,0.4c1.2-1.1,1.3-3.1,0.1-4.4
								C121.1,261.2,119.1,261,117.9,262.1z M119,263.4c0.6-0.5,1.5-0.4,2.1,0.2c0.6,0.6,0.5,1.6-0.1,2.1c-0.6,0.5-1.5,0.4-2.1-0.2
								C118.4,264.8,118.4,263.9,119,263.4z"/>
						</g>
					</g>
					<g>
						<path class="st2" d="M99.6,286.2l5.1,5.8c0,0,4.3,0.5,6.5,2.7c1.1,1.1,2.4,2.1,2.4,2.1l2.4-1.9c0,0,1.3,3.8,0.6,4.8
							c-0.2,0.4-0.9,0.7-2.1,1c0.6,1.1-0.3,2.4-1.6,2.2c1.2,1.3-0.4,3-2.2,1.8c0.5,1.6-1,2.5-2.7,2.4c-1.8-0.1-4.9-0.9-6.4-2.5
							c-1.5-1.6-3.5-4-3.5-4L93,295"/>
						<path class="st2" d="M113.4,296.9c0,0,1.9,1.4,1.6,1.9c-1.2,2.4-4.3-0.4-5.6-1.2"/>
					</g>
					<polygon class="st2" points="103.1,285.4 107.1,290.1 94.2,301.1 88.6,294.3 					"/>
					<path class="st2" d="M101.9,179.3c-7.8,2.2-17.5,5.4-25.1,14.3c-8.8,10.2-15,27.2-12.7,47.4c4.4,37.8,25.8,59.8,25.8,59.8
						l17.2-14.8c0,0-14.3-22.3-14.3-46.4s3.9-24.1,3.9-24.1"/>
				</g>
			</g>
		</g>
	</g>
</g>
<g id="DESIGNED_BY_FREEPIK">
</g>
</svg>
