<?xml version="1.0" encoding="utf-8"?>
<!-- Generator: Adobe Illustrator 26.0.1, SVG Export Plug-In . SVG Version: 6.00 Build 0)  -->
<svg version="1.1" id="Layer_1" xmlns="http://www.w3.org/2000/svg" xmlns:xlink="http://www.w3.org/1999/xlink" x="0px" y="0px"
	 viewBox="0 0 488.1 212.8" style="enable-background:new 0 0 488.1 212.8;" xml:space="preserve">
<style type="text/css">
	.st0{fill-rule:evenodd;clip-rule:evenodd;fill:#FFFFFF;}
	.st1{fill:#FFFFFF;}
	.st2{fill:#FBB810;}
	.st3{fill:none;stroke:#FBB810;stroke-width:1.4166;stroke-miterlimit:2.6131;stroke-dasharray:7.0828,4.2497;}
	.st4{fill:none;}
</style>
<g>
	<g>
		<polygon class="st0" points="360.5,191.5 466.8,191.5 466.8,192.9 360.5,192.9 		"/>
		<g>
			<path class="st1" d="M52.2,163.4c0,5,0,9-0.3,11.2c-0.2,1.5-0.5,2.6-1.5,2.8c-0.5,0.1-1.1,0.2-1.6,0.2c-0.3,0-0.4,0.1-0.4,0.3
				c0,0.3,0.3,0.4,0.8,0.4c0.8,0,2-0.1,3-0.1c1.1-0.1,2-0.1,2.1-0.1c0.8,0,2,0.1,4,0.1c2,0.1,4.8,0.1,8.7,0.1c2,0,2.4,0,2.8-1.3
				c0.3-1.1,0.7-4.6,0.7-5c0-0.4,0-0.8-0.3-0.8s-0.4,0.2-0.5,0.8c-0.4,2.1-1,3.1-2.3,3.7c-1.3,0.6-3.6,0.6-5,0.6c-5,0-5.8-0.7-6-4.2
				c-0.1-1.1,0-7.1,0-8.8v-4.5c0-0.2,0.1-0.4,0.4-0.4c0.9,0,6,0.1,7.4,0.3c2,0.2,2.5,1.1,2.7,1.8s0.2,1.2,0.2,1.7
				c0,0.3,0.1,0.5,0.4,0.5c0.4,0,0.4-0.6,0.4-1c0-0.4,0.1-2.3,0.2-3.3c0.1-1.7,0.4-2.6,0.4-2.9s-0.1-0.4-0.3-0.4
				c-0.2,0-0.4,0.3-0.8,0.7c-0.5,0.5-1.2,0.6-2.4,0.7c-1.2,0.1-7.5,0.1-8.2,0.1c-0.3,0-0.3-0.1-0.3-0.5v-14.2c0-0.4,0.1-0.5,0.3-0.5
				c0.6,0,6.2,0.1,7.1,0.1c2.8,0.3,3.3,0.9,3.7,1.8c0.3,0.6,0.3,1.5,0.3,1.9c0,0.4,0.1,0.7,0.4,0.7c0.2,0,0.3-0.3,0.4-0.6
				c0.1-0.6,0.2-2.9,0.3-3.4c0.1-1.4,0.4-2.1,0.4-2.4s0-0.5-0.2-0.5c-0.3,0-0.5,0.2-0.7,0.3c-0.4,0.1-1.2,0.2-2.2,0.3
				c-1.2,0.1-11.4,0.1-11.8,0.1l-2.1-0.1c-1.1-0.1-2.5-0.1-3.7-0.1c-0.6,0-0.8,0.1-0.8,0.4c0,0.2,0.2,0.3,0.4,0.3
				c0.5,0,1.3,0.1,1.8,0.1c1.7,0.4,2.1,1.2,2.2,2.9c0.1,1.6,0.1,3.1,0.1,11.1L52.2,163.4L52.2,163.4z M111.4,141.6l6.5,0.1
				c4.9,0.1,6.2,1.3,6.3,2.8l0.1,0.6c0,0.7,0.1,0.9,0.4,0.9c0.2,0,0.4-0.2,0.4-0.7c0-0.6,0.1-4.1,0.1-5.7c0-0.3,0-0.6-0.3-0.6
				c-0.2,0-0.7,0.1-1.5,0.3c-0.8,0.1-2,0.3-3.6,0.3h-19.3c-0.6,0-2.6-0.1-4.1-0.3c-1.4-0.1-1.9-0.6-2.3-0.6c-0.2,0-0.4,0.7-0.5,1
				c-0.1,0.4-1.1,4.8-1.1,5.4c0,0.3,0.1,0.5,0.3,0.5c0.2,0,0.4-0.1,0.5-0.5c0.1-0.4,0.3-0.7,0.9-1.6c0.8-1.2,2.1-1.6,5.3-1.6
				l7.6-0.1v21.6c0,5,0,9-0.3,11.2c-0.2,1.5-0.5,2.6-1.5,2.8c-0.5,0.1-1.1,0.2-1.5,0.2c-0.3,0-0.4,0.1-0.4,0.3
				c0,0.3,0.3,0.4,0.8,0.4c1.6,0,4.8-0.1,5.1-0.1s3.5,0.1,6.3,0.1c0.6,0,0.8-0.1,0.8-0.4c0-0.1-0.1-0.3-0.4-0.3
				c-0.5,0-1.6-0.1-2.3-0.2c-1.5-0.2-1.8-1.3-2-2.8c-0.3-2.2-0.3-6.2-0.3-11.2V141.6L111.4,141.6z M152.8,163.4c0,5,0,9-0.3,11.2
				c-0.2,1.5-0.5,2.6-1.5,2.8c-0.5,0.1-1.1,0.2-1.5,0.2c-0.3,0-0.4,0.1-0.4,0.3c0,0.3,0.3,0.4,0.8,0.4c0.8,0,2-0.1,3-0.1
				c1.1-0.1,2-0.1,2.1-0.1c0.8,0,2,0.1,4,0.1c2,0.1,4.8,0.1,8.7,0.1c2,0,2.4,0,2.8-1.3c0.3-1.1,0.7-4.6,0.7-5c0-0.4,0-0.8-0.3-0.8
				s-0.4,0.2-0.5,0.8c-0.4,2.1-1,3.1-2.3,3.7c-1.3,0.6-3.6,0.6-4.9,0.6c-5.1,0-5.8-0.7-6-4.2c0-1.1,0-7.1,0-8.8v-4.5
				c0-0.2,0.1-0.4,0.4-0.4c0.9,0,6,0.1,7.4,0.3c2,0.2,2.5,1.1,2.7,1.8s0.2,1.2,0.2,1.7c0,0.3,0.1,0.5,0.4,0.5c0.4,0,0.4-0.6,0.4-1
				c0-0.4,0.1-2.3,0.2-3.3c0.1-1.7,0.4-2.6,0.4-2.9s-0.1-0.4-0.3-0.4c-0.2,0-0.4,0.3-0.8,0.7c-0.5,0.5-1.2,0.6-2.4,0.7
				c-1.2,0.1-7.5,0.1-8.2,0.1c-0.3,0-0.3-0.1-0.3-0.5v-14.2c0-0.4,0.1-0.5,0.3-0.5c0.6,0,6.2,0.1,7.1,0.1c2.8,0.3,3.3,0.9,3.7,1.8
				c0.3,0.6,0.3,1.5,0.3,1.9c0,0.4,0.1,0.7,0.4,0.7c0.2,0,0.3-0.3,0.4-0.6c0.1-0.6,0.2-2.9,0.3-3.4c0.1-1.4,0.4-2.1,0.4-2.4
				s0-0.5-0.2-0.5c-0.3,0-0.5,0.2-0.7,0.3c-0.4,0.1-1.2,0.2-2.2,0.3c-1.2,0.1-11.4,0.1-11.8,0.1l-2.1-0.1c-1.1-0.1-2.5-0.1-3.7-0.1
				c-0.6,0-0.8,0.1-0.8,0.4c0,0.2,0.2,0.3,0.4,0.3c0.5,0,1.3,0.1,1.8,0.1c1.7,0.4,2.1,1.2,2.2,2.9c0.1,1.6,0.1,3.1,0.1,11.1v9.1
				H152.8z M200.9,163.4c0,5,0,9-0.3,11.2c-0.2,1.5-0.5,2.6-1.5,2.8c-0.5,0.1-1.1,0.2-1.6,0.2c-0.3,0-0.4,0.1-0.4,0.3
				c0,0.3,0.3,0.4,0.8,0.4c1.6,0,4.8-0.1,4.8-0.1c0.3,0,3.5,0.1,6.3,0.1c0.6,0,0.8-0.1,0.8-0.4c0-0.1-0.1-0.3-0.4-0.3
				c-0.5,0-1.6-0.1-2.3-0.2c-1.5-0.2-1.9-1.3-2-2.8c-0.3-2.2-0.3-6.2-0.3-11.2v-1.2c0-0.3,0.1-0.4,0.4-0.4l6.3,0.1
				c0.3,0,0.5,0.1,0.7,0.3c1,1.3,3.5,4.8,5.6,7.6c2.9,3.9,4.7,6.4,7,7.6c1.3,0.7,2.6,1,5.5,1h3.7c0.9,0,1.2-0.1,1.2-0.4
				c0-0.1-0.2-0.3-0.5-0.3s-1,0-2-0.1c-1.3-0.2-3.5-0.8-6.3-3.7c-3-3.2-6.5-7.8-10.7-13.2c4.6-4.3,6.2-8.1,6.2-11.9
				c0-3.6-2.3-6.1-3.6-7c-2.7-2-6.2-2.3-9.4-2.3c-1.6,0-5.5,0.1-6.1,0.1c-0.3,0-3.5-0.1-5.8-0.1c-0.6,0-0.8,0.1-0.8,0.4
				c0,0.2,0.2,0.3,0.4,0.3c0.5,0,1.3,0.1,1.8,0.1c1.7,0.4,2.1,1.2,2.2,2.9c0.1,1.6,0.1,3.1,0.1,11.1L200.9,163.4L200.9,163.4
				L200.9,163.4z M205.1,141.9c0-0.3,0.1-0.5,0.4-0.6c0.5-0.1,1.9-0.3,3.4-0.3c5.5,0,8.9,3.9,8.9,10.3c0,3.9-1.3,6.7-3.1,7.9
				c-1.2,0.8-2.6,1-3.9,1c-2.3,0-4.6-0.4-5.4-0.8c-0.3-0.1-0.4-0.4-0.4-0.6v-16.9H205.1z M257.3,146.6c1.6,1.9,7.5,8.4,13.4,14.8
				c5.5,5.9,12.9,13.5,13.4,14c2.7,2.7,3.4,3.3,3.8,3.3s0.5-0.3,0.5-3.7l0.1-30.2c0-3.1,0.2-4.2,1.9-4.6c0.6-0.1,1-0.1,1.2-0.1
				c0.4,0,0.6-0.1,0.6-0.4s-0.4-0.4-0.9-0.4c-2.1,0-3.8,0.1-4.4,0.1s-3-0.1-5.4-0.1c-0.6,0-1,0.1-1,0.4c0,0.2,0,0.4,0.4,0.4
				s1.6,0.1,2.5,0.3c1.6,0.4,2,1.6,2,4.9l0.6,26.2c-1.6-1.7-7.3-8-12.4-13.5c-7.9-8.5-15.6-16.8-16.4-17.7c-0.5-0.5-1.4-1.6-1.8-1.6
				s-0.6,0.6-0.6,2.6v29.5c0,4.7-0.3,6.2-1.6,6.5c-0.8,0.3-1.7,0.3-2.1,0.3c-0.3,0-0.4,0.1-0.4,0.3c0,0.4,0.3,0.4,0.8,0.4
				c2.3,0,4.5-0.1,4.9-0.1c0.5,0,2.5,0.1,5.5,0.1c0.6,0,0.9-0.1,0.9-0.4c0-0.2-0.1-0.3-0.4-0.3c-0.5,0-1.6-0.1-2.6-0.3
				c-1.4-0.4-1.9-1.8-2-6L257.3,146.6L257.3,146.6z M326.4,154.3c0-8,0-9.5,0.1-11.1c0.1-1.8,0.5-2.7,1.9-2.9
				c0.6-0.1,0.9-0.1,1.3-0.1c0.2,0,0.4-0.1,0.4-0.3c0-0.3-0.3-0.4-0.8-0.4c-1.5,0-4.8,0.1-5,0.1c-0.3,0-3.5-0.1-5.2-0.1
				c-0.6,0-0.8,0.1-0.8,0.4c0,0.2,0.2,0.3,0.4,0.3c0.4,0,1,0.1,1.6,0.2c1.1,0.3,1.6,1.1,1.8,2.9c0.1,1.6,0.1,3.1,0.1,11.1v9.1
				c0,5,0,9-0.3,11.2c-0.2,1.5-0.5,2.6-1.5,2.8c-0.5,0.1-1.1,0.2-1.5,0.2c-0.3,0-0.4,0.1-0.4,0.3c0,0.3,0.3,0.4,0.8,0.4
				c1.5,0,4.8-0.1,5-0.1c0.3,0,3.5,0.1,6.3,0.1c0.6,0,0.8-0.1,0.8-0.4c0-0.1-0.1-0.3-0.4-0.3c-0.5,0-1.6-0.1-2.3-0.2
				c-1.5-0.2-1.9-1.3-2-2.8c-0.3-2.2-0.3-6.2-0.3-11.2L326.4,154.3L326.4,154.3z M372.5,141.6l6.5,0.1c4.9,0.1,6.2,1.3,6.3,2.8v0.6
				c0,0.7,0.1,0.9,0.4,0.9c0.2,0,0.4-0.2,0.4-0.7c0-0.6,0.1-4.1,0.1-5.7c0-0.3,0-0.6-0.3-0.6c-0.2,0-0.7,0.1-1.5,0.3
				c-0.8,0.1-2,0.3-3.6,0.3h-19.3c-0.6,0-2.6-0.1-4.1-0.3c-1.4-0.1-1.9-0.6-2.3-0.6c-0.2,0-0.4,0.7-0.5,1c-0.1,0.4-1.1,4.8-1.1,5.4
				c0,0.3,0.1,0.5,0.3,0.5c0.2,0,0.4-0.1,0.5-0.5c0.1-0.4,0.3-0.7,0.9-1.6c0.8-1.2,2.1-1.6,5.3-1.6l7.6-0.1v21.6c0,5,0,9-0.3,11.2
				c-0.2,1.5-0.5,2.6-1.5,2.8c-0.5,0.1-1.1,0.2-1.5,0.2c-0.3,0-0.4,0.1-0.4,0.3c0,0.3,0.3,0.4,0.8,0.4c1.5,0,4.8-0.1,5-0.1
				c0.3,0,3.5,0.1,6.3,0.1c0.6,0,0.8-0.1,0.8-0.4c0-0.1-0.1-0.3-0.4-0.3c-0.5,0-1.6-0.1-2.3-0.2c-1.5-0.2-1.9-1.3-2-2.8
				c-0.3-2.2-0.3-6.2-0.3-11.2v-21.8H372.5z M419.6,169.4c0,0.8,0,3-0.1,5.1c-0.1,1.5-0.6,2.6-1.6,2.8c-0.5,0.1-1.1,0.2-1.5,0.2
				c-0.3,0-0.4,0.1-0.4,0.3c0,0.3,0.3,0.4,0.8,0.4c1.5,0,4.8-0.1,5-0.1c0.3,0,3.5,0.1,6.3,0.1c0.6,0,0.8-0.1,0.8-0.4
				c0-0.1-0.1-0.3-0.4-0.3c-0.5,0-1.6-0.1-2.3-0.2c-1.5-0.2-2-1.3-2.1-2.8c-0.2-2.1-0.2-4.3-0.2-5.1V165c0-1.7,0-3.3,0.8-5.1
				c0.9-2.2,8.1-14.3,9.8-16.4c1.1-1.4,1.7-2,2.7-2.6c0.8-0.5,1.8-0.7,2.4-0.7c0.4,0,0.7-0.1,0.7-0.4c0-0.2-0.3-0.3-0.7-0.3
				c-1,0-4.7,0.1-5,0.1c-0.4,0-2.1-0.1-3.4-0.1c-0.5,0-0.8,0.1-0.8,0.3c0,0.3,0.3,0.4,0.8,0.5c0.6,0.1,0.8,0.7,0.8,1.4
				s-0.2,1.6-0.9,2.6c-1,1.7-7.6,13-8.5,15.1c-0.9-1.5-8.7-14.8-9.5-16.3c-0.4-0.8-0.7-1.4-0.7-2c0-0.4,0.3-0.7,0.7-0.9
				c0.5-0.2,0.8-0.3,0.8-0.5s-0.1-0.4-0.7-0.4c-2,0-4,0.1-4.3,0.1c-0.3,0-4.1-0.1-5.1-0.1c-0.5,0-0.7,0.1-0.7,0.4s0.3,0.4,0.5,0.4
				c0.5,0,1.4,0.3,2.2,0.8c0.9,0.6,2.2,1.9,3.5,3.8c1.8,2.7,8.7,14,9.1,14.8c0.7,1.5,1.2,2.6,1.2,5.4V169.4L419.6,169.4z"/>
		</g>
		<polygon class="st0" points="21.4,124.5 466.8,124.5 466.8,125.9 21.4,125.9 		"/>
		<polygon class="st0" points="21.4,191.5 127.5,191.5 127.5,192.9 21.4,192.9 		"/>
		<g>
			<g>
				<path class="st2" d="M139.3,190.3c0-3.4,0-4.1,0-4.8c0-0.8-0.2-1.1-0.9-1.2c-0.2,0-0.6-0.1-0.8-0.1c-0.1,0-0.2,0-0.2-0.1
					c0-0.1,0.1-0.2,0.4-0.2c0.5,0,1.1,0,1.6,0h0.9c0.4,0,4.9,0,5.4,0c0.4,0,0.8,0,1-0.1c0.1,0,0.2-0.1,0.3-0.1s0.1,0.1,0.1,0.2
					c0,0.1-0.1,0.4-0.2,1c0,0.2-0.1,1.2-0.1,1.4c0,0.1-0.1,0.2-0.2,0.2s-0.1-0.1-0.1-0.3s-0.1-0.6-0.2-0.8s-0.6-0.7-1.5-0.7
					l-3.4-0.1c-0.1,0-0.2,0.1-0.2,0.2v6.1c0,0.1,0,0.2,0.1,0.2h2.8c0.4,0,0.7,0,1,0c0.5,0,0.8-0.1,1-0.4c0.1-0.1,0.1-0.2,0.2-0.2
					s0.1,0.1,0.1,0.2c0,0.1-0.1,0.5-0.2,1.2c0,0.4-0.1,1.3-0.1,1.5s0,0.4-0.1,0.4s-0.1-0.1-0.1-0.2c0-0.2,0-0.5-0.1-0.8
					c-0.1-0.3-0.5-0.7-1.1-0.8c-0.6-0.1-3-0.1-3.3-0.1c-0.1,0-0.1,0-0.1,0.2v1.9c0,2.1,0,3.9,0.1,4.8c0.1,0.6,0.2,1.1,0.9,1.2
					c0.3,0,0.8,0.1,1,0.1c0.1,0,0.2,0.1,0.2,0.1c0,0.1-0.1,0.2-0.4,0.2c-1.2,0-2.6-0.1-2.7-0.1s-1.5,0.1-2.2,0.1
					c-0.2,0-0.4,0-0.4-0.2c0-0.1,0-0.1,0.2-0.1s0.5,0,0.7-0.1c0.4-0.1,0.5-0.6,0.6-1.2c0.1-0.9,0.1-2.7,0.1-4.8L139.3,190.3
					L139.3,190.3z"/>
				<path class="st2" d="M164.6,183.6c4.9,0,8.6,3.1,8.6,8.2c0,4.9-3.5,9-8.8,9c-6,0-8.5-4.7-8.5-8.6
					C155.9,188.6,158.5,183.6,164.6,183.6z M165,200c2,0,6.1-1.1,6.1-7.6c0-5.3-3.2-8.1-6.7-8.1c-3.7,0-6.4,2.4-6.4,7.2
					C158,196.7,161.1,200,165,200z"/>
			</g>
			<g>
				<path class="st2" d="M184,190.3c0-3.4,0-4.1,0-4.8c0-0.8-0.2-1.1-1-1.2c-0.2,0-0.5-0.1-0.8-0.1c-0.1,0-0.2,0-0.2-0.1
					c0-0.1,0.1-0.2,0.4-0.2c1,0,2.4,0.1,2.5,0.1c0.2,0,1.9-0.1,2.6-0.1c1.4,0,2.9,0.1,4,1c0.5,0.4,1.5,1.5,1.5,3
					c0,1.6-0.7,3.3-2.7,5.1c1.8,2.3,3.3,4.3,4.6,5.6c1.2,1.2,2.1,1.5,2.7,1.6c0.4,0.1,0.7,0.1,0.9,0.1c0.1,0,0.2,0.1,0.2,0.1
					c0,0.1-0.1,0.2-0.5,0.2h-1.6c-1.2,0-1.8-0.1-2.4-0.4c-1-0.5-1.7-1.6-3-3.2c-0.9-1.2-2-2.7-2.4-3.3c-0.1-0.1-0.1-0.1-0.3-0.1
					h-2.7c-0.1,0-0.1,0.1-0.1,0.2v0.5c0,2.1,0,3.9,0.1,4.8c0.1,0.6,0.2,1.1,0.9,1.2c0.3,0,0.8,0.1,1,0.1c0.1,0,0.2,0.1,0.2,0.1
					c0,0.1-0.1,0.2-0.4,0.2c-1.2,0-2.6-0.1-2.7-0.1c0,0-1.4,0.1-2.1,0.1c-0.2,0-0.4,0-0.4-0.2c0-0.1,0-0.1,0.2-0.1s0.5,0,0.7-0.1
					c0.4-0.1,0.5-0.6,0.6-1.2c0.1-0.9,0.1-2.7,0.1-4.8L184,190.3L184,190.3L184,190.3z M185.7,192.2c0,0.1,0,0.2,0.1,0.3
					c0.3,0.2,1.3,0.4,2.3,0.4c0.5,0,1.1-0.1,1.6-0.4c0.8-0.5,1.3-1.7,1.3-3.4c0-2.8-1.5-4.4-3.8-4.4c-0.7,0-1.2,0.1-1.5,0.1
					c-0.1,0-0.2,0.1-0.2,0.3L185.7,192.2L185.7,192.2L185.7,192.2z"/>
				<path class="st2" d="M220.2,197.5L220.2,197.5c0.7-2,2.7-8.4,3.5-11.2c0.2-0.8,0.2-1.1,0.2-1.4c0-0.4-0.2-0.7-1.2-0.7
					c-0.1,0-0.2-0.1-0.2-0.1c0-0.1,0.1-0.1,0.4-0.1c1.1,0,2.1,0.1,2.2,0.1s1.1-0.1,1.8-0.1c0.2,0,0.3,0,0.3,0.1
					c0,0.1-0.1,0.2-0.2,0.2s-0.5,0-0.8,0.1c-0.7,0.2-1,1.2-1.4,2.4c-1,2.8-3.2,9.8-4,12.3c-0.6,1.6-0.7,1.9-0.9,1.9
					c-0.2,0-0.4-0.3-0.7-1.1l-4.3-12.2l0,0c-0.8,2.1-3.8,10.2-4.6,12.2c-0.4,0.9-0.5,1.2-0.7,1.2s-0.3-0.2-0.8-1.7l-3.9-13.1
					c-0.4-1.2-0.6-1.5-1.2-1.7c-0.3-0.1-0.8-0.1-1-0.1c-0.1,0-0.2,0-0.2-0.1c0-0.1,0.1-0.1,0.4-0.1c1.1,0,2.4,0.1,2.6,0.1
					s1.2-0.1,2.3-0.1c0.3,0,0.4,0.1,0.4,0.1c0,0.1-0.1,0.1-0.2,0.1c-0.2,0-0.6,0-0.9,0.1c-0.1,0.1-0.3,0.2-0.3,0.5
					c0,0.3,0.2,1.1,0.4,2c0.3,1.4,2.6,9.5,2.9,10.6l0,0l4.7-12.5c0.3-0.9,0.4-1,0.5-1s0.3,0.3,0.6,1L220.2,197.5z"/>
			</g>
			<g>
				<path class="st2" d="M238.8,184.4c0.3-0.7,0.4-0.9,0.5-0.9s0.2,0.1,0.5,0.8c0.3,0.8,3.8,9.9,5.1,13.3c0.8,2,1.4,2.3,1.9,2.4
					c0.3,0.1,0.7,0.1,0.9,0.1c0.1,0,0.2,0,0.2,0.1s-0.2,0.2-0.4,0.2c-0.3,0-1.9,0-3.5,0c-0.4,0-0.7,0-0.7-0.1c0-0.1,0.1-0.1,0.1-0.1
					c0.1,0,0.3-0.2,0.1-0.6l-2.1-5.4c0-0.1-0.1-0.1-0.2-0.1h-4.7c-0.1,0-0.2,0.1-0.2,0.2l-1.3,3.9c-0.2,0.6-0.3,1.1-0.3,1.5
					s0.5,0.6,0.8,0.6h0.2c0.1,0,0.2,0,0.2,0.1c0,0.1-0.1,0.2-0.3,0.2c-0.5,0-1.5-0.1-1.7-0.1s-1.5,0.1-2.5,0.1c-0.3,0-0.4,0-0.4-0.2
					c0-0.1,0.1-0.1,0.2-0.1s0.5,0,0.6,0c1-0.1,1.4-1,1.9-2.1L238.8,184.4z M241.1,193.2c0.1,0,0.1-0.1,0.1-0.1l-2.1-5.9
					c-0.1-0.3-0.2-0.3-0.3,0l-1.9,5.9c0,0.1,0,0.1,0.1,0.1H241.1z"/>
				<path class="st2" d="M257.1,190.3c0-3.4,0-4.1,0-4.8c0-0.8-0.2-1.1-1-1.2c-0.2,0-0.5-0.1-0.8-0.1c-0.1,0-0.2,0-0.2-0.1
					c0-0.1,0.1-0.2,0.4-0.2c1,0,2.4,0.1,2.5,0.1c0.2,0,1.9-0.1,2.6-0.1c1.4,0,2.9,0.1,4,1c0.5,0.4,1.5,1.5,1.5,3
					c0,1.6-0.7,3.3-2.7,5.1c1.8,2.3,3.3,4.3,4.6,5.6c1.2,1.2,2.1,1.5,2.7,1.6c0.4,0.1,0.7,0.1,0.9,0.1c0.1,0,0.2,0.1,0.2,0.1
					c0,0.1-0.1,0.2-0.5,0.2h-1.6c-1.2,0-1.8-0.1-2.4-0.4c-1-0.5-1.7-1.6-3-3.2c-0.9-1.2-2-2.7-2.4-3.3c-0.1-0.1-0.1-0.1-0.3-0.1H259
					c-0.1,0-0.1,0.1-0.1,0.2v0.5c0,2.1,0,3.9,0.1,4.8c0.1,0.6,0.2,1.1,0.9,1.2c0.3,0,0.8,0.1,1,0.1c0.1,0,0.2,0.1,0.2,0.1
					c0,0.1-0.1,0.2-0.4,0.2c-1.2,0-2.6-0.1-2.7-0.1c0,0-1.4,0.1-2.1,0.1c-0.2,0-0.4,0-0.4-0.2c0-0.1,0-0.1,0.2-0.1s0.5,0,0.7-0.1
					c0.4-0.1,0.5-0.6,0.6-1.2c0.1-0.9,0.1-2.7,0.1-4.8L257.1,190.3L257.1,190.3L257.1,190.3z M258.9,192.2c0,0.1,0,0.2,0.1,0.3
					c0.3,0.2,1.3,0.4,2.3,0.4c0.5,0,1.1-0.1,1.6-0.4c0.8-0.5,1.3-1.7,1.3-3.4c0-2.8-1.5-4.4-3.8-4.4c-0.7,0-1.2,0.1-1.5,0.1
					c-0.1,0-0.2,0.1-0.2,0.3L258.9,192.2L258.9,192.2L258.9,192.2z"/>
				<path class="st2" d="M279.8,190.3c0-3.4,0-4.1,0-4.8c0-0.8-0.2-1.1-1-1.2c-0.2,0-0.5-0.1-0.8-0.1c-0.1,0-0.2,0-0.2-0.1
					c0-0.1,0.1-0.2,0.4-0.2c1,0,2.4,0.1,2.5,0.1c0.3,0,1.6-0.1,3-0.1c2.2,0,6.2-0.2,8.8,2.5c1.1,1.1,2.1,3,2.1,5.6
					c0,2.8-1.1,4.9-2.4,6.2c-1,1-2.9,2.5-6.7,2.5c-1,0-2.1-0.1-3.1-0.1c-1-0.1-1.7-0.1-1.8-0.1c0,0-0.4,0-0.9,0c-0.4,0-1,0-1.3,0
					c-0.2,0-0.4,0-0.4-0.2c0-0.1,0-0.1,0.2-0.1s0.5,0,0.7-0.1c0.4-0.1,0.5-0.6,0.6-1.2c0.1-0.9,0.1-2.7,0.1-4.8L279.8,190.3
					L279.8,190.3L279.8,190.3z M281.7,192.6c0,2.3,0,4.4,0,4.8c0,0.6,0.1,1.4,0.2,1.7c0.3,0.4,1.1,0.9,3.7,0.9c2,0,3.9-0.8,5.2-2.1
					c1.1-1.1,1.8-3.2,1.8-5.3c0-2.8-1.2-4.6-2.1-5.5c-2.1-2.2-4.6-2.5-7.2-2.5c-0.4,0-1.2,0.1-1.4,0.1c-0.2,0.1-0.3,0.2-0.3,0.4
					c0,0.8,0,3,0,4.7L281.7,192.6L281.7,192.6z"/>
				<path class="st2" d="M306.1,190.3c0-3.4,0-4.1,0-4.8c0-0.8-0.2-1.1-1-1.2c-0.2,0-0.5-0.1-0.8-0.1c-0.1,0-0.2,0-0.2-0.1
					c0-0.1,0.1-0.2,0.4-0.2c0.5,0,1.1,0,1.6,0h0.9c0.1,0,4.5,0,5,0c0.4,0,0.8-0.1,1-0.1c0.1,0,0.2-0.1,0.3-0.1s0.1,0.1,0.1,0.2
					c0,0.1-0.1,0.4-0.2,1c0,0.2-0.1,1.2-0.1,1.4c0,0.1-0.1,0.2-0.1,0.2c-0.1,0-0.2-0.1-0.2-0.3c0-0.1,0-0.5-0.1-0.8
					c-0.1-0.4-0.4-0.6-1.6-0.8c-0.4,0-2.8-0.1-3-0.1c-0.1,0-0.1,0.1-0.1,0.2v6.1c0,0.1,0,0.2,0.1,0.2c0.3,0,3,0,3.5,0s0.8-0.1,1-0.3
					c0.1-0.2,0.2-0.3,0.3-0.3s0.1,0,0.1,0.2c0,0.2-0.1,0.5-0.2,1.2c0,0.4-0.1,1.2-0.1,1.4c0,0.2,0,0.4-0.1,0.4s-0.1-0.1-0.1-0.2
					c0-0.2,0-0.4-0.1-0.7c-0.1-0.3-0.3-0.7-1.1-0.8c-0.6-0.1-2.8-0.1-3.1-0.1c-0.1,0-0.1,0.1-0.1,0.1v1.9c0,0.8,0,3.3,0,3.8
					c0.1,1.5,0.4,1.8,2.5,1.8c0.6,0,1.5,0,2.1-0.2c0.6-0.2,0.8-0.7,1-1.6c0-0.2,0.1-0.3,0.2-0.3s0.1,0.2,0.1,0.3
					c0,0.2-0.2,1.7-0.3,2.1c-0.1,0.6-0.3,0.6-1.2,0.6c-1.6,0-2.9,0-3.7-0.1c-0.9,0-1.4-0.1-1.7-0.1c0,0-0.4,0-0.9,0
					c-0.4,0-1,0-1.3,0c-0.2,0-0.4,0-0.4-0.2c0-0.1,0-0.1,0.2-0.1c0.2,0,0.5,0,0.7-0.1c0.4-0.1,0.5-0.6,0.6-1.2
					c0.1-0.9,0.1-2.7,0.1-4.8L306.1,190.3L306.1,190.3L306.1,190.3z"/>
				<path class="st2" d="M325.6,190.3c0-3.4,0-4.1,0-4.8c0-0.8-0.2-1.1-1-1.2c-0.2,0-0.5-0.1-0.8-0.1c-0.1,0-0.2,0-0.2-0.1
					c0-0.1,0.1-0.2,0.4-0.2c1,0,2.4,0.1,2.5,0.1c0.2,0,1.9-0.1,2.6-0.1c1.4,0,2.9,0.1,4,1c0.5,0.4,1.5,1.5,1.5,3
					c0,1.6-0.7,3.3-2.7,5.1c1.8,2.3,3.3,4.3,4.6,5.6c1.2,1.2,2.1,1.5,2.7,1.6c0.4,0.1,0.7,0.1,0.9,0.1c0.1,0,0.2,0.1,0.2,0.1
					c0,0.1-0.1,0.2-0.5,0.2h-1.6c-1.2,0-1.8-0.1-2.4-0.4c-1-0.5-1.7-1.6-3-3.2c-0.9-1.2-2-2.7-2.4-3.3c-0.1-0.1-0.1-0.1-0.3-0.1
					h-2.7c-0.1,0-0.1,0.1-0.1,0.2v0.5c0,2.1,0,3.9,0.1,4.8c0.1,0.6,0.2,1.1,0.9,1.2c0.3,0,0.8,0.1,1,0.1c0.1,0,0.2,0.1,0.2,0.1
					c0,0.1-0.1,0.2-0.4,0.2c-1.2,0-2.6-0.1-2.7-0.1c0,0-1.4,0.1-2.1,0.1c-0.2,0-0.4,0-0.4-0.2c0-0.1,0-0.1,0.2-0.1
					c0.2,0,0.5,0,0.7-0.1c0.4-0.1,0.5-0.6,0.6-1.2c0.1-0.9,0.1-2.7,0.1-4.8L325.6,190.3L325.6,190.3L325.6,190.3z M327.4,192.2
					c0,0.1,0,0.2,0.1,0.3c0.3,0.2,1.3,0.4,2.3,0.4c0.5,0,1.1-0.1,1.6-0.4c0.8-0.5,1.3-1.7,1.3-3.4c0-2.8-1.5-4.4-3.8-4.4
					c-0.7,0-1.2,0.1-1.5,0.1c-0.1,0-0.2,0.1-0.2,0.3L327.4,192.2L327.4,192.2L327.4,192.2z"/>
			</g>
			<g>
				<path class="st2" d="M346.4,200.2c-0.3-0.1-0.3-0.2-0.3-0.8c0-1.1,0.1-2,0.1-2.3c0-0.2,0.1-0.4,0.2-0.4c0.1,0,0.1,0.1,0.1,0.2
					c0,0.2,0,0.5,0.1,0.8c0.3,1.6,1.8,2.2,3.3,2.2c2.1,0,3.1-1.5,3.1-2.9c0-1.5-0.6-2.4-2.5-4l-1-0.8c-2.3-1.9-2.9-3.3-2.9-4.8
					c0-2.4,1.8-4,4.5-4c0.9,0,1.5,0.1,2,0.2c0.4,0.1,0.6,0.1,0.8,0.1c0.2,0,0.2,0,0.2,0.1c0,0.1-0.1,0.8-0.1,2.3
					c0,0.4,0,0.5-0.1,0.5s-0.1-0.1-0.2-0.3c0-0.3-0.1-0.9-0.3-1.1c-0.1-0.2-0.7-1.2-2.8-1.2c-1.5,0-2.7,0.9-2.7,2.6
					c0,1.2,0.6,2.1,2.7,3.7l0.6,0.5c2.6,2.1,3.2,3.4,3.2,5.2c0,0.9-0.4,2.6-1.9,3.6c-1,0.7-2.1,0.9-3.3,0.9
					C348.3,200.8,347.3,200.7,346.4,200.2z"/>
			</g>
		</g>
	</g>
	<g>
		<path class="st3" d="M230.9,97.6l-40,0.1l0.2-73c13.7-2.6,30.3,1.9,37.9,12.1l31.3,50.4c9.9,9.8,22.6,12,36.8,10.5V24.2L266.6,24"
			/>
		<g>
			<path class="st2" d="M189,22.4c35.9-3.7,41.4,12.5,54.8,34.6l17.3,27.6C269.8,95,277.3,96,294.9,96V26.4c-9.5,0-19.1,0-28.6,0
				v10.8h18.1v48.1c-1.9,0-4.8-0.2-7.9-1.5c-6.7-2.8-9.8-8.9-12.5-13.8c0,0-1.5-2.8-13.8-23.4c-10.5-17.7-16.6-23.5-23.3-27.8
				c-2.4-1.5-6.4-4.1-12.3-5.6c-4.2-1.1-8.1-1.2-12.7-1.4c-3.5-0.1-6.5-0.1-8.5,0c-4.9,0-9.8,0-14.7,0c0,33,0,66-0.1,99h47.2
				c3.8-4.8,3.8-6.4,5.5-10.6l-42.2-0.1L189,22.4z"/>
			<path class="st2" d="M266.2,11.7c0,3.4,0,6.9,0,10.3l32.9,0.1v77.2c-14,3.2-28-1.2-36.4-7.5c-6.3-4.8-13-18.1-18.4-26.5
				c-3-4.7-5.3-8.8-8.4-13.6c-2.7-4.3-6.1-10.8-8.8-14.2c-7.3-9-18.8-12.3-34-11.1l-0.2,69.2c13.7-0.1,27.4-0.1,41.1-0.2
				c2.1-3.9,3.4-7.3,4.3-9.8c-11.6,0-23.3,0-34.9,0V37c1.7,0.1,4.1,0.3,6.7,1.4c7.3,2.8,11,9.2,14.4,15c7,12.1,12.6,21.4,13.4,22.7
				c7,11.6,12.4,20.4,21.7,26.6c4.6,3.1,14.5,8.5,31,8.1l18.9-0.2V11.8L266.2,11.7L266.2,11.7z"/>
			<line class="st4" x1="265.7" y1="26.4" x2="265.7" y2="26.4"/>
		</g>
	</g>
</g>
</svg>
