<?xml version="1.0" encoding="utf-8"?>
<!-- Generator: Adobe Illustrator 26.0.1, SVG Export Plug-In . SVG Version: 6.00 Build 0)  -->
<svg version="1.1" id="Layer_1" xmlns="http://www.w3.org/2000/svg" xmlns:xlink="http://www.w3.org/1999/xlink" x="0px" y="0px"
	 viewBox="0 0 200 200" style="enable-background:new 0 0 200 200;" xml:space="preserve">
<style type="text/css">
	.st0{fill:none;stroke:#FBB810;stroke-width:2.0105;stroke-miterlimit:2.6131;stroke-dasharray:10.0525,6.0315;}
	.st1{fill:#FBB810;}
	.st2{fill-rule:evenodd;clip-rule:evenodd;fill:#FBB810;}
</style>
<g>
	<path class="st0" d="M81.39,151.75l-56.71,0.21L25,48.35c19.49-3.65,42.99,2.77,53.76,17.16l44.37,71.52
		c13.99,13.88,32.07,17.09,52.18,14.89V47.64l-43.28-0.24"/>
	<g>
		<path class="st1" d="M21.88,44.98c50.96-5.19,58.74,17.81,77.75,49.1l24.55,39.17c12.39,14.7,22.98,16.19,47.94,16.2l-0.03-98.83
			c-13.53,0-27.06-0.01-40.59-0.01v15.33h25.74v68.22c-2.73,0.03-6.8-0.27-11.15-2.11c-9.48-4-13.93-12.59-17.73-19.58
			c0,0-2.13-3.92-19.64-33.28C93.72,54.09,85.12,45.88,75.57,39.71c-3.38-2.18-9.14-5.84-17.47-7.91
			c-6.03-1.5-11.56-1.72-18.03-1.98c-5.01-0.2-9.18-0.11-12.09,0.02c-6.97-0.02-13.93-0.04-20.9-0.06
			c-0.03,46.83-0.06,93.67-0.09,140.5h66.96c5.44-6.85,5.33-9.12,7.83-15.05l-59.92-0.15L21.88,44.98z"/>
		<path class="st1" d="M131.49,29.75c0,4.86,0,9.72,0.01,14.58l46.65,0.11l0,109.64c-19.9,4.59-39.75-1.68-51.66-10.68
			c-8.94-6.75-18.51-25.64-26.09-37.63c-4.23-6.69-7.55-12.44-11.86-19.32c-3.79-6.05-8.63-15.36-12.5-20.14
			c-10.37-12.79-26.7-17.45-48.21-15.71l-0.28,98.2c19.45-0.11,38.91-0.21,58.36-0.32c3.01-5.48,4.88-10.37,6.05-13.93
			c-16.5,0-33.01,0-49.51,0V65.52c2.35,0.09,5.78,0.49,9.56,1.95c10.36,4.01,15.54,13.05,20.36,21.34
			c9.96,17.13,17.93,30.34,19.06,32.2c9.98,16.44,17.57,28.94,30.77,37.81c6.5,4.37,20.63,12.08,44.03,11.43l26.82-0.27V29.75
			H131.49z"/>
		<line class="st2" x1="130.72" y1="50.63" x2="130.73" y2="50.63"/>
	</g>
</g>
</svg>
