<?xml version="1.0" encoding="utf-8"?>
<!-- Generator: Adobe Illustrator 26.0.1, SVG Export Plug-In . SVG Version: 6.00 Build 0)  -->
<svg version="1.1" xmlns="http://www.w3.org/2000/svg" xmlns:xlink="http://www.w3.org/1999/xlink" x="0px" y="0px"
	 viewBox="0 0 500 432" style="enable-background:new 0 0 500 432;" xml:space="preserve">
<style type="text/css">
	.st0{fill:none;}
	.st1{fill:#FFFFFF;}
	.st2{fill:url(#New_Pattern_2);}
	.st3{fill:#FFFFFF;stroke:#000000;stroke-width:1.2934;stroke-miterlimit:10;}
	.st4{fill:none;stroke:#110809;stroke-width:2.5868;stroke-miterlimit:10;}
	.st5{fill:#FBB03B;}
	.st6{fill:#C9CDD1;}
	.st7{fill:none;stroke:#FFFFFF;stroke-width:1.2934;stroke-miterlimit:10;}
	.st8{fill:none;stroke:#000000;stroke-width:2.5868;stroke-miterlimit:10;}
	.st9{fill:#110809;}
	.st10{fill:#7A483A;}
	.st11{stroke:#FFFFFF;stroke-width:1.2934;stroke-miterlimit:10;}
	.st12{fill:none;stroke:#000000;stroke-width:1.2934;stroke-miterlimit:10;}
	.st13{fill:none;stroke:#FFFFFF;stroke-width:2.5868;stroke-miterlimit:10;}
	.st14{fill:#5757FF;stroke:#000000;stroke-width:1.2934;stroke-miterlimit:10;}
</style>
<pattern  y="-68" width="54" height="54" patternUnits="userSpaceOnUse" id="New_Pattern_2" viewBox="0 -54 54 54" style="overflow:visible;">
	<g>
		<rect y="-54" class="st0" width="54" height="54"/>
		<rect y="-54" class="st1" width="54" height="54"/>
		<path d="M4.33-49.39c0.04-0.53,0.5-0.93,1.03-0.9c0.53,0.04,0.93,0.5,0.9,1.03c-0.04,0.53-0.5,0.93-1.03,0.9
			C4.69-48.39,4.29-48.86,4.33-49.39z"/>
		<path d="M23.68-49.39c0.04-0.53,0.5-0.93,1.03-0.9c0.53,0.04,0.93,0.5,0.9,1.03s-0.5,0.93-1.03,0.9
			C24.05-48.39,23.65-48.86,23.68-49.39z"/>
		<path d="M41.15-49.39c0.04-0.53,0.5-0.93,1.03-0.9c0.53,0.04,0.93,0.5,0.9,1.03c-0.04,0.53-0.5,0.93-1.03,0.9
			C41.51-48.39,41.11-48.86,41.15-49.39z"/>
		<path d="M4.33-32.02c0.04-0.53,0.5-0.93,1.03-0.9c0.53,0.04,0.93,0.5,0.9,1.03c-0.04,0.53-0.5,0.93-1.03,0.9
			S4.29-31.49,4.33-32.02z"/>
		<path d="M23.68-32.02c0.04-0.53,0.5-0.93,1.03-0.9c0.53,0.04,0.93,0.5,0.9,1.03s-0.5,0.93-1.03,0.9
			C24.05-31.03,23.65-31.49,23.68-32.02z"/>
		<path d="M41.15-32.02c0.04-0.53,0.5-0.93,1.03-0.9c0.53,0.04,0.93,0.5,0.9,1.03c-0.04,0.53-0.5,0.93-1.03,0.9
			C41.51-31.03,41.11-31.49,41.15-32.02z"/>
		<path d="M4.33-14.66c0.04-0.53,0.5-0.93,1.03-0.9c0.53,0.04,0.93,0.5,0.9,1.03c-0.04,0.53-0.5,0.93-1.03,0.9
			C4.69-13.67,4.29-14.13,4.33-14.66z"/>
		<path d="M23.68-14.66c0.04-0.53,0.5-0.93,1.03-0.9c0.53,0.04,0.93,0.5,0.9,1.03c-0.04,0.53-0.5,0.93-1.03,0.9
			C24.05-13.67,23.65-14.13,23.68-14.66z"/>
		<path d="M41.15-14.66c0.04-0.53,0.5-0.93,1.03-0.9c0.53,0.04,0.93,0.5,0.9,1.03c-0.04,0.53-0.5,0.93-1.03,0.9
			C41.51-13.67,41.11-14.13,41.15-14.66z"/>
	</g>
</pattern>
<g id="BACKGROUND">
	<rect id="XMLID_28_" y="-68" class="st1" width="500" height="500"/>
</g>
<g id="OBJEKTS">
	<g id="XMLID_55_">
	</g>
	<g id="XMLID_122_">
	</g>
	<path class="st2" d="M134.47,336.96c-3.48-0.04-6.96-0.07-10.44-0.11c-22.46-0.23-46.53-0.97-64.74-14.11
		c-27-19.47-34.81-56.83-24.17-86.78c10.94-30.77,32.9-55.48,55.81-77.45c26.48-25.38,54.99-48.32,85.12-68.5
		C207.02,69.29,240.5,51.19,276.7,46c32.45-4.65,66.09,1.83,94.89,17.35c10.4,5.61,21.1,9.99,28.3,19.48
		c10.97,14.47,21.08,28.98,33.82,42.08c10.52,10.81,22.8,20.8,30.93,33.58c8.93,14.02,11.83,30.37,12.7,46.72
		c1.66,30.98-2.65,62.26-12.62,91.64c-3.31,9.74-7.55,19.72-15.6,26.12c-6.8,5.41-15.54,7.63-24.07,9.31
		c-36.9,7.28-74.83,6.91-112.44,6.53C253.23,338.19,193.85,337.58,134.47,336.96z"/>
	<path d="M294.02,356.51c0.97,0.02,1.95-0.11,2.68-0.21c3.82-0.55,7.65,0.18,11.46,0.37c1.89,0.09,3.67-0.19,5.53-0.29
		c1.45-0.08,2.83,0.04,4.05-0.97c0.69-0.57,1.13-1.51,0.87-2.36c-0.36-1.22-1.83-1.67-3.08-1.93c-3.05-0.63-6.1-1.26-9.16-1.89
		c-1.23-0.25-3.62-0.78-3.9-2.3c-0.13-0.74,0.29-1.98,0.36-2.76c0.09-0.97,0.15-1.94,0.2-2.91c0.08-1.76,0.64-3.48-1.58-3.6
		c-2.37-0.13-4.75-0.26-7.12-0.38c-0.23-0.01-0.46-0.02-0.67,0.08c-0.36,0.17-0.49,0.6-0.58,0.98c-0.32,1.31-0.65,2.62-0.97,3.93
		c-0.5,2.03-1.01,4.07-1.33,6.14c-0.23,1.47-0.2,2.96-0.34,4.43c-0.09,0.91-0.33,1.81,0.33,2.56
		C291.53,356.23,292.78,356.49,294.02,356.51z"/>
	<path d="M311.75,364.49c0.13,0.61,0.4,1.08,0.88,1.32c0.95,0.48,2.57,0.39,3.61,0.58c1.71,0.3,3.46,0.49,5.2,0.34
		c1.29-0.11,2.56-0.41,3.85-0.46c3.68-0.15,7.44,1.26,11.08,0.21c1.25-0.36,3.37-1.17,3.75-2.6c0.5-1.88-1.18-3.07-2.74-3.5
		c-2-0.56-4.08-0.81-6.16-0.87c-0.84-0.02-1.69-0.01-2.51-0.2c-2.09-0.48-2.91-2.17-2.44-4.11c0.63-2.58,1.22-5.18,1.83-7.76
		c-4.26-0.59-8.57,0.13-12.81,0.84c-0.26,0.04-0.55,0.1-0.73,0.3c-0.13,0.15-0.19,0.35-0.23,0.54c-0.67,2.82-0.33,5.48-1.28,8.18
		C312.6,358.61,311.3,362.37,311.75,364.49z"/>
	<path class="st3" d="M193.5,202.85c0.81-0.29,1.69-0.43,2.54-0.62c1.61-0.37,2.56-1.14,3.7-2.27c0.73-0.71,1.47-1.45,2.41-1.85
		c2.98-1.28,4.48,1.31,3.39,3.88c-0.86,2.01-2.23,4.08-4.22,5.08c-2.2,1.11-4.46,1.18-6.44,2.76c-0.5,0.4-5.75,4.81-5.53,5.09
		c-0.98-1.22-3.12-3.88-3-5.53c1.47-0.43,2.47-1.46,3.31-2.71c0.82-1.22,1.58-2.56,2.83-3.34
		C192.8,203.14,193.14,202.98,193.5,202.85z"/>
	<line id="XMLID_694_" class="st4" x1="147.95" y1="332.44" x2="147.95" y2="320.18"/>
	<path id="XMLID_697_" class="st3" d="M225.93,322.03c0.31,0.55,0.63,1.09,0.99,1.6c1.15,1.63,3.66,3.07,5.72,2.8
		c2.22-0.29,4.39-1.08,6.63-0.97c0.82,0.04,1.69,0.23,2.28,0.8c2.58,2.52-3.57,4.77-5.27,5.27c-3.85,1.15-7.7,2.31-11.55,3.46
		c-0.72,0.22-1.48,0.44-2.22,0.3c-1.58-0.23-2.26-1.28-2.69-2.61c-0.55-1.69-1.22-3.31-1.89-4.97c-1.08-2.69-1.94-5.47-2.56-8.3
		c-0.17-0.79-0.33-1.62-0.1-2.4c0.33-1.13,1.53-2.1,2.72-2.1c0.53,0,1.04,0.16,1.55,0.32C223.09,316.38,224.19,318.92,225.93,322.03
		z"/>
	<path id="XMLID_698_" class="st3" d="M189.61,325.09c0.03,1.94,0.3,3.64,2.02,5.28c2.54,2.41,6.47,2.75,9.19,4.94
		c0.25,0.2,0.49,0.42,0.61,0.71c0.25,0.56-0.01,1.25-0.45,1.67c-2.39,2.28-7.89,0.05-10.68-0.45c-3.51-0.63-7.02-1.25-10.53-1.88
		c-0.93-0.16-1.55-1.07-1.36-2l2.02-10.01l0.29-1.48c0.48-2.46,2.88-4.04,5.33-3.51c2.11,0.46,3.57,2.45,3.57,4.65
		C189.62,323.74,189.6,324.43,189.61,325.09z"/>
	<path class="st3" d="M153.71,197.33c-0.28-1.45-0.55-2.9-0.83-4.35c1.06,6.28,2.06,12.57,3.03,18.87
		c0.91,5.94,1.5,11.98,3.41,17.71c0.63,1.94,1.58,5.38,3.77,6.17c2.79,1,4.63,0.58,7.43,0.61c1.2,0.01,2.42,0.02,3.59-0.29
		c3.25-0.87,5.33-3.99,6.75-7.03c1.59-3.39,3.17-5.6,6.2-7.82c2.11-1.54,4.14-3.19,6.09-4.94c0.72-0.64,2.52-1.79,2.85-2.69
		c0.38-1.01-0.24-1.37-0.97-2.11c-2.35-2.39-4.94-4.58-7.15-7.1c-2.19,2.03-4.38,4.05-6.57,6.08c-1.56,1.44-3.12,2.89-4.68,4.33
		c-0.75,0.69-4.87,3.46-4.82,4.14c-0.42-4.92-0.85-9.91-2.53-14.55c-0.19-0.53-0.4-1.07-0.46-1.63c-0.08-0.75,0.12-1.49,0.26-2.23
		c0.78-3.89,0.2-8-1.48-11.58c-1.79-3.8-4.03-5.9-7.95-7.18c-2.36-0.78-4.74-1.56-7.2-1.92c-0.41-0.06-0.97-0.02-1.06,0.39
		c-0.04,0.16,0.02,0.32,0.05,0.48 M155.45,203.63c0.12-0.02,0.25-0.04,0.41-0.07L155.45,203.63z M155.05,203.7
		c0,0,0.06-0.01,0.14-0.02L155.05,203.7z"/>
	<path class="st3" d="M141.52,179.95c-1.68,0.17-3.36,0.35-5.04,0.52c-5.35,0.55-11.03,1.23-15.21,4.61
		c-4.97,4.02-8,11.18-6.92,17.5c0.59,3.48,1.69,6.87,2.07,10.39c1.26,11.71,2.18,23.45,2.76,35.21c5.69-0.26,11.38-0.31,17.07-0.61
		c6.98-0.37,14.83-0.67,21.52-3.21c0.78-9.7,3.41-19.28,3.26-29.02c-0.07-4.76-0.15-9.52-0.22-14.27"/>
	<path id="XMLID_690_" class="st3" d="M145.76,253.27v-36.75c0-6.36-5.16-11.52-11.52-11.52h-12.68c-6.36,0-11.52,5.16-11.52,11.52
		v41.08c0,9.07,7.42,16.5,16.5,16.5h18.99h22.35c1.07,0,1.94-0.87,1.94-1.94l0,0c0-1.07-0.87-1.94-1.94-1.94h-5.18
		C153.34,270.22,145.76,262.63,145.76,253.27z"/>
	<path class="st3" d="M154.61,166.43l-2.01-12.15l-7.83,1.82c-4.97,1.16-8.06,6.12-6.91,11.09l0.69,2.97
		c0.28,1.2,0.81,2.27,1.52,3.18l-1.58,7.37c-0.8,3.47,1.47,6.9,4.97,7.53c3.5,0.63,6.82-1.79,7.29-5.32l1.24-8.43
		C154.22,172.56,155.32,169.5,154.61,166.43z"/>
	<path class="st3" d="M156.72,230.76c3.69,0.81,6.37,2.31,9.64,4.06c2.81,1.51,3.36,4.29-0.38,4.96c-2.03,0.37-4.13,0.73-6.15,0.3
		c-2.12-0.45-2.73-1.68-4.09-3.05c-1.16-1.16-3.14-0.59-4.82-1.33c-0.65-0.29-1.31-0.71-1.55-1.39c-0.23-0.66,0-1.39,0.26-2.04
		c0.23-0.59,0.49-1.19,0.95-1.61c0.92-0.84,2.34-0.77,3.55-0.49C154.99,230.39,155.85,230.57,156.72,230.76z"/>
	<path id="XMLID_652_" d="M153.03,156.28c-1.29,1.01-2.87,1.66-4.49,1.94c-1.5,0.26-3.04,0.25-4.49,0.71
		c-3.89,1.23-3.37,5.53-3.03,8.82c0.12,1.16-0.92,5.05-2.53,4.43c-1.05,0-1.23-1.57-1.47-2.25c-0.48-1.31-1.01-2.59-1.52-3.89
		c-0.35-0.9-0.71-1.84-0.64-2.81c0.11-1.41,1.11-2.59,1.41-3.98c0.23-1.06,0.03-2.18,0.2-3.25c0.24-1.45,1.17-2.74,2.4-3.55
		c1.83-1.2,3.98-0.73,5.82-1.74c1.01-0.55,1.75-1.49,2.68-2.17c1.39-1.02,3.21-1.44,4.91-1.12c1.45,0.27,2.87,1.16,3.39,2.54
		c0.48,1.27,0.12,2.72-0.55,3.91C154.6,154.82,153.88,155.63,153.03,156.28z"/>
	<path id="XMLID_650_" class="st1" d="M142.66,166.29c0.33,1.4-0.55,2.8-1.95,3.13c-1.4,0.33-2.8-0.55-3.13-1.95s0.55-2.8,1.95-3.13
		C140.94,164.01,142.34,164.89,142.66,166.29z"/>
	<path class="st3" d="M114.33,197.05c-0.62,5.29-0.74,10.64-1.05,15.97c-0.34,5.8-0.07,11.7,1.56,17.3
		c0.51,1.76,1.18,3.52,2.37,4.91c4.33,5.05,15.01,2.97,20.9,2.97c4.85,0,9.7,0,14.55-0.01c0.07-0.23,0.13-0.46,0.21-0.68
		c0.39-1.99,1.67-6.71,2.03-8.72c-3.08-0.25-6.15-0.5-9.23-0.75c-2.66-0.22-5.32-0.43-7.97-0.65c-2.14-0.17-5.39,0.32-5.75-2.51
		c-0.13-0.99,0.02-2.05-0.38-2.97c-0.59-1.37-2.23-2.13-2.62-3.57c-0.29-1.08,0.2-2.41,0.27-3.51c0.11-1.63,0.87-3.13,1.52-4.63
		c1.11-2.57,1.92-5.27,2.42-8.02c-0.15-0.01-0.31-0.02-0.46-0.03"/>
	<path id="XMLID_587_" class="st5" d="M219.94,237.68h-56.39l0,0c0-1.09,0.88-1.97,1.97-1.97h54.42V237.68z"/>
	<path id="XMLID_586_" class="st5" d="M229.63,235.71h-56.35l10.05-29.76c0.35-1.02,1.37-1.72,2.53-1.72h50.79
		c1.79,0,3.06,1.6,2.53,3.18L229.63,235.71z"/>
	<path id="XMLID_585_" class="st5" d="M228.64,237.68h-55.63v-1.97l56.62-2.59v3.57C229.63,237.24,229.19,237.68,228.64,237.68z"/>
	<path id="XMLID_582_" class="st6" d="M206.99,220.67c-1.1-0.05-2.14-0.94-1.4-2.23c0.31-0.54,0.93-0.82,1.59-0.86
		c0.03,0,0.06-0.01,0.09-0.01c0.03,0.02,0.07,0.03,0.11,0.04C209.2,218.08,209.04,220.76,206.99,220.67z"/>
	<path class="st3" d="M171.92,218.67c-0.14,0.42-0.43,0.77-0.69,1.13c-0.27,0.36-0.51,0.73-0.73,1.12
		c-0.17,0.29-0.41,0.52-0.55,0.83"/>
	<path d="M145.73,174.3c1.71,2.14,4.01,3.77,5.56,6.03c0.18-1.44,0.37-2.89,0.55-4.33c0.1-0.79,0.37-1.5,0.54-2.24
		C150.07,174.29,148.15,174.89,145.73,174.3z"/>
	<path d="M148.43,168.85c0.08,0.73,0.69,1.36,1.41,1.51c0.72,0.15,1.5-0.14,2.01-0.68c0.5-0.54,0.74-1.3,0.7-2.04
		c-0.05-0.02-0.1,0.04-0.08,0.08"/>
	<path d="M140.49,165.93c-0.43-0.09-0.9,0.06-1.19,0.39c-0.29,0.33-0.35,0.84-0.15,1.23c0.21,0.38,0.69,0.6,1.11,0.49"/>
	<path class="st7" d="M180.54,290.05c-0.22-2.66,0.05-5.36,0.8-7.92c0.56-1.91,1.21-3.6,0.76-5.57c-0.44-1.92-0.73-3.48,0.01-5.46"
		/>
	<path class="st7" d="M205.44,252.6c4.47,11.5,0.64,24.34-2.52,36.27c-2.06,7.77-3.83,15.61-5.29,23.51"/>
	<path d="M119.59,231.85c-0.09,0.47-0.01,0.98,0.24,1.39c0.14,0.23,0.32,0.43,0.55,0.56c0.53,0.32,1.21,0.23,1.82,0.14"/>
	<path d="M148.57,207.45c0.05-0.04,0.1-0.08,0.15-0.13"/>
	<circle cx="267.51" cy="73.87" r="7.76"/>
	<circle cx="424.01" cy="73.87" r="7.76"/>
	<circle cx="111.01" cy="73.87" r="7.76"/>
	<path class="st5" d="M138.62,71.03v-0.27c0-15.17-12.3-27.47-27.47-27.47l0,0c-15.17,0-27.47,12.3-27.47,27.47v0.27H138.62z"/>
	<path class="st5" d="M451.21,71.03v-0.27c0-15.17-12.3-27.47-27.47-27.47l0,0c-15.17,0-27.47,12.3-27.47,27.47v0.27H451.21z"/>
	<line class="st8" x1="424.35" y1="0.46" x2="424.35" y2="43.29"/>
	<path class="st5" d="M294.71,71.03v-0.27c0-15.17-12.3-27.47-27.47-27.47l0,0c-15.17,0-27.47,12.3-27.47,27.47v0.27H294.71z"/>
	<line class="st8" x1="267.85" y1="0.46" x2="267.85" y2="43.29"/>
	<line class="st8" x1="112.36" y1="0.46" x2="112.36" y2="43.29"/>
	<path class="st3" d="M385.7,219.92c-0.01,1.32,0.11,1.89-1.05,2.39c-1.15,0.5-2.96,0.37-4.22,0.6c-2.75,0.5-5.48,1.3-7.84,2.83
		c-4.06,2.63-8.9,3.14-13.13,5.84c-0.71,0.45-1.41,0.93-2.22,1.17c-1,0.29-2.07,0.17-3.11,0.14c-3.03-0.1-6.26,0.63-8.39,2.79
		c-0.73,0.74-1.32,1.87-0.83,2.78c0.26,0.47,0.75,0.76,1.24,0.98c3.68,1.66,7.56,0.57,11.12-0.79c2.99-1.15,6.7-1.39,9.89-1.62
		c5.31-0.39,10.7-0.09,15.95-1.19c2.82-0.59,5.66-1.31,8.24-2.61c2.36-1.19,5.3-2.38,6.44-4.98c0.22-0.5,0.35-1.03,0.49-1.56
		c0.99-3.88,1.97-7.77,2.96-11.65c0.75-2.96,0.66-6.06,0.58-9.12c-0.07-2.57-0.52-5.12-1.31-7.56c-0.59-1.81-1.18-4.12-2.21-5.72
		c-1.04-1.61-2.84-2.71-4.75-2.91c-3.84-0.39-7.48,2.11-7.23,6.17c0.31,4.96-1.33,9.85-0.24,14.79c0.13,0.59,0.29,1.18,0.29,1.78
		c0,0.59-0.15,1.17-0.27,1.75C385.72,216.11,385.71,218,385.7,219.92z"/>
	<path id="XMLID_9_" class="st9" d="M373.14,308.68c1.55,2.31,2.65,4.5,2.24,7.58c-0.6,4.53-4.3,7.53-5.27,11.92
		c-0.09,0.4-0.15,0.82-0.05,1.24c0.2,0.83,1.02,1.47,1.82,1.68c4.27,1.12,8.01-5.15,10.43-7.59c3.04-3.06,6.08-6.12,9.11-9.18
		c0.81-0.81,0.7-2.28-0.24-3.26l-10.17-10.51l-1.49-1.56c-2.48-2.59-6.19-2.88-8.23-0.63c-1.76,1.94-1.62,5.26,0.16,7.86
		C372.03,307.09,372.61,307.89,373.14,308.68z"/>
	
		<rect id="XMLID_106_" x="407.12" y="266.3" transform="matrix(-1 -1.224647e-16 1.224647e-16 -1 816.5034 582.5463)" class="st9" width="2.26" height="49.95"/>
	<path id="XMLID_105_" class="st4" d="M428.05,326.73c0-7.38-13.05-10.47-19.57-10.48c-7.76-0.01-19.57,2.85-19.57,10.48"/>
	<line id="XMLID_104_" class="st4" x1="408.26" y1="328.7" x2="408.26" y2="316.45"/>
	<path id="XMLID_103_" class="st9" d="M385.7,328.51c0,1.77,1.43,3.2,3.2,3.2c1.77,0,3.2-1.43,3.2-3.2c0-1.77-1.43-3.2-3.2-3.2
		C387.14,325.3,385.7,326.74,385.7,328.51z"/>
	<path id="XMLID_102_" class="st9" d="M405.11,328.51c0,1.77,1.43,3.2,3.2,3.2s3.2-1.43,3.2-3.2c0-1.77-1.43-3.2-3.2-3.2
		S405.11,326.74,405.11,328.51z"/>
	<path id="XMLID_100_" class="st9" d="M424.52,328.51c0,1.77,1.43,3.2,3.2,3.2c1.77,0,3.2-1.43,3.2-3.2c0-1.77-1.43-3.2-3.2-3.2
		C425.96,325.3,424.52,326.74,424.52,328.51z"/>
	<path id="XMLID_99_" class="st3" d="M410.45,249.53v-36.75c0-6.36,5.16-11.52,11.52-11.52h12.68c6.36,0,11.52,5.16,11.52,11.52
		v41.08c0,9.07-7.42,16.5-16.5,16.5h-18.99h-22.35c-1.07,0-1.94-0.87-1.94-1.94l0,0c0-1.07,0.87-1.94,1.94-1.94h5.18
		C402.86,266.48,410.45,258.89,410.45,249.53z"/>
	<path id="XMLID_98_" class="st9" d="M369.68,320.37c-0.49,2.73-1.22,5.08-3.66,7.01c-3.58,2.83-8.32,2.42-12.08,4.9
		c-0.34,0.22-0.68,0.48-0.9,0.86c-0.43,0.74-0.29,1.77,0.14,2.47c2.29,3.78,9.34,1.87,12.77,1.8c4.31-0.09,8.62-0.17,12.93-0.26
		c1.15-0.02,2.09-1.15,2.09-2.51l0-14.63l0.01-2.16c0.02-3.59-2.45-6.37-5.47-6.18c-2.61,0.17-4.82,2.65-5.35,5.76
		C369.99,318.45,369.85,319.43,369.68,320.37z"/>
	<path class="st10" d="M393.65,228.28L393.65,228.28c0.01-0.05,0.02-0.1,0.03-0.15L393.65,228.28z"/>
	<polygon class="st10" points="402.31,187.12 402.14,187.92 402.14,187.92 	"/>
	<g>
		<path d="M128.33,329.06c-1.7,0.08-3.05,1.47-3.05,3.19c0,1.77,1.43,3.2,3.2,3.2c1.77,0,3.2-1.43,3.2-3.2
			c0-0.66-0.2-1.27-0.54-1.78h14.09c-0.34,0.51-0.54,1.12-0.54,1.78c0,1.77,1.43,3.2,3.2,3.2c1.77,0,3.2-1.43,3.2-3.2
			c0-0.66-0.2-1.27-0.54-1.78h14.09c-0.34,0.51-0.54,1.12-0.54,1.78c0,1.77,1.43,3.2,3.2,3.2c1.77,0,3.2-1.43,3.2-3.2
			c0-1.77-1.43-3.2-3.2-3.2c-0.05,0-0.09,0.01-0.14,0.01c-1.36-6.58-12.16-9.09-19.43-9.07
			C141.64,319.99,129.86,322.69,128.33,329.06z"/>
		<path d="M212.77,283.04c-1.61-4.5-3.26-9.09-5.67-13.23c-0.02-0.22-0.03-0.45-0.05-0.67c-0.66-6.56-0.6-14.91-6.98-18.91
			c-0.37-0.23-0.75-0.46-1.14-0.68c-1.21-1.08-2.59-1.95-4.13-2.48c-2.14-0.74-4.44-0.82-6.7-0.9c-14.67-0.52-26.17,3.46-29.32-1.04
			c-0.24-0.34-0.64-1.02-0.78-2.14c-13,0-26,0-39,0c-0.6,1.83-4.99,15.79,2.8,24.92c1.06,1.24,2.51,2.59,4.52,3.79l-16.59,69.43h3
			l16.35-68.41c0.09,0.02,0.18,0.05,0.27,0.07c0.16,0.03,0.31,0.05,0.47,0.08l17,3.36v43.74h0.91h1.36v-43.29l32.19,6.36
			c-0.32,2.3-0.61,4.65-0.15,6.93c0.16,0.79,0.41,1.56,0.52,2.36c0.26,1.96-0.37,3.91-0.89,5.81c-0.55,2.02-0.98,4.1-0.89,6.2
			c0.09,2.15,0.74,4.26,0.76,6.41c0.02,1.58-0.3,3.14-0.62,4.69c-0.41,2-2.36,6.04,0.24,6.86c1.59,0.5,3.45,0.4,5.1,0.83
			c0.54,0.14,4.54,1.17,6.59,1.87c0.6,0.21,1.22-0.2,1.3-0.83c0.37-2.83,1.73-5.81,2.48-8.48c0.98-3.53,1.9-7.08,2.74-10.65
			c0.14-0.6,0.28-1.2,0.43-1.79c0.99,2.21,2.26,4.28,4.28,5.55c0.75,0.47,1.6,0.83,2.15,1.52c0.38,0.47,0.58,1.05,0.79,1.62
			c0.61,1.71,1.27,3.44,2.4,4.86c1.01,1.29,2.36,2.27,3.39,3.54c1.09,1.34,1.36,2.89,2.1,4.4c0.22,0.44,13-5.11,12.92-5.27
			C221.23,307.68,217.16,295.34,212.77,283.04z"/>
	</g>
	<path class="st10" d="M393.79,227.67c-0.03,0.15-0.07,0.3-0.11,0.45l0.12-0.58C393.8,227.59,393.79,227.63,393.79,227.67z"/>
	<polygon class="st10" points="385.15,196.26 386.52,184.97 385.18,196.26 	"/>
	<path d="M435.31,181.28c-1.39-1.33-3.13-2.21-4.85-3.06c-3.04-1.52-5.65-2.85-9.08-3.41c-3.22-0.53-6.5-0.58-9.76-0.47
		c-2.65,0.09-5.63,0.09-8.43,0.61c-0.22-0.08-0.5-0.09-0.73-0.06c-2.46,0.36-4.84,1.14-7.2,1.92c-0.92,0.3-1.85,0.61-2.72,1.04
		c-2.9,1.46-4.62,4.25-5.62,7.25c-1.2,3.56-1.29,7.38-1.74,11.17c0,0,5.13,0.87,9.33,1.58c0.96,3.71,2.23,7.35,3.04,11.09
		c1.14,5.27,1.35,10.67,1.75,16.03c0.16,2.18,0.72,4.2,0.94,6.32c0.19,1.89,0.27,3.78,0.39,5.68c0.04,0.56-0.13,2.22,0.2,2.65
		c0.2,0.26,0.44,0.31,0.7,0.35c-0.02,0.57-0.03,1.12-0.06,1.66c-2.26,1.11-4.5,2.26-6.97,2.35c-1.77,0.07-3.52-0.42-5.28-0.49
		c-6.83-0.29-13.72,1.88-20.58,2.13c-2.56,0.09-5.16,0.07-7.68,0.45c-0.98,0.05-1.92,0.28-2.8,0.63c-3.2,0.99-6.23,3.15-7.26,6.33
		c-0.31,0.95-0.49,1.84-0.57,2.69c-0.49,1.95-0.54,4.07-0.11,6.33c0.94,4.96,2.67,10.18,4.65,14.81c1.7,3.99,3.77,7.83,5.04,12
		c2.25,7.35,5.51,14.55,8.27,21.74c-0.12-0.32,14.27-1.65,15.12-2.08c0.88-0.44-1.75-13.79-1.99-15.29
		c-0.81-5.23-1.76-10.45-2.83-15.63c-0.63-3.04-1.19-6.42-1.91-9.83c1.11-0.04,2.21-0.07,3.32-0.06c6.97,0.06,13.94,0.11,20.91,0.17
		c0.55,0,1.08,0.01,1.6,0.01c1.09,0.13,2.08,0.18,2.84,0.18c0,0,14.97,0.02,14.97,0.02c8.67,0,15.39-4.34,15.66-12.9
		c0,0,0-7.37,0-14.25c0.63-9.23,3.49-43.51,3.41-47.34C439.17,189.17,438.5,184.35,435.31,181.28z"/>
	<path class="st3" d="M415.55,167.15c0.71-0.91,0.53-0.74,0.81-1.94l2.78-11.97l-16.84-3.92l-2.01,12.15
		c-0.71,3.07,0.39,6.13,2.6,8.07l1.24,8.43c0.47,3.53,3.79,5.95,7.29,5.32c3.5-0.63,5.77-4.06,4.97-7.53L415.55,167.15z"/>
	<path d="M403.88,171.64c2-0.07,4.1-0.97,4.67-3.01c-0.03,0.11-0.41,0.23-0.52,0.27c-0.98,0.37-2.11,0.34-3.14,0.25
		c-0.68-0.06-1.4-0.14-1.97-0.51c-0.05-0.03-0.11-0.07-0.18-0.07c-0.06,0.01-0.11,0.06-0.15,0.11c-0.18,0.28-0.09,0.81,0.13,1.05
		c0.21,0.23,0.4,0.38,0.48,0.7c0.08,0.31,0.09,0.65,0.13,0.97C403.36,171.49,403.61,171.58,403.88,171.64z"/>
	<path id="XMLID_86_" class="st9" d="M401.45,151.91c1.17,0.39,2.43,0.67,3.63,0.98c1.73,0.45,3.49,0.81,5.21,1.31
		c4.58,1.34,3.55,5.88,3.56,9.71c0,1.05,0.09,2.28,0.96,2.88c2.41,1.66,2.99-3.5,3.59-4.68c0.32-0.64,0.81-1.2,1.07-1.86
		c0.54-1.37,0.06-2.93,0.25-4.39c0.09-0.66,0.31-1.31,0.37-1.97c0.23-2.79-2.33-5.36-4.62-6.48c-1.84-0.9-3.79-2.15-4.92-3.9
		c-0.18-0.28-0.35-0.59-0.61-0.81c-0.2-0.17-0.44-0.28-0.69-0.36c-1.36-0.47-2.95-0.2-4.1,0.68c-0.36,0.27-0.68,0.61-1.1,0.78
		c-0.64,0.26-1.37,0.08-2.06,0.03c-1.02-0.07-2.09,0.2-2.84,0.88c-0.75,0.69-1.11,1.84-0.7,2.78c0.24,0.56,0.71,1,0.97,1.55
		c0.6,1.27,0.31,2.27,1.74,2.78C401.26,151.84,401.36,151.87,401.45,151.91z"/>
	<path id="XMLID_84_" class="st1" d="M412.07,162.13c-0.22,0.96,0.37,1.92,1.33,2.14c0.96,0.22,1.92-0.37,2.14-1.33
		s-0.37-1.92-1.33-2.14C413.25,160.57,412.29,161.17,412.07,162.13z"/>
	<path class="st5" d="M436.01,251.53c-1.95-8.75-8.13-10-14.29-11c-5.07-0.82-10.24-0.24-15.02,1.61c-2.8,1.09-5.2,2.22-7.74,3.9
		c-5.84,3.85-12.01,7.22-18.41,10.05c-1.97,0.87-3.98,1.7-5.8,2.86c-5.48,3.49-8.85,10.05-8.5,16.54c0.12,2.27,0.25,5.1,0.95,7.63
		c0.03,0.48,0.08,0.96,0.15,1.44c0.2,1.34,0.55,2.66,0.63,4.01c0.14,2.41-0.61,4.79-0.59,7.2c0.02,1.72,0.43,3.41,0.77,5.1
		c0.85,4.23,1.12,8.32,0.96,12.61c-0.05,1.38-0.11,2.76-0.18,4.14c-0.06,1.11,0.13,2.67-0.4,3.64c1.63,0.25,3.27,0.45,4.91,0.67
		c3.04,0.41,6.09,0.82,9.16,1.05c0.95,0.07,3,0.58,3.81-0.04c0.68-0.53,0.78-2.14,0.96-2.9c1.4-5.63,2.61-11.53,1.48-17.32
		c-0.2-1.04-0.48-2.08-0.6-3.13c-0.14-1.32-0.02-2.66,0.16-3.97c0.74-5.45,2.07-10.8,2.78-16.26c0-0.01,0-0.03,0-0.04l38.79-12.96
		c0.1-0.04,0.21-0.06,0.31-0.1C434.9,264.59,437.53,258.33,436.01,251.53z"/>
	<path class="st9" d="M329.8,135.77c-0.14,0-0.28,0-0.42,0C329.38,135.82,329.8,135.72,329.8,135.77z"/>
	<path class="st3" d="M419.73,186.3c-1.82,1.73-4.65,3.06-6.76,4.44c-1.83-1.64-4.03-2.87-6.39-3.57c-1.31-0.39-2.68-0.62-3.97-1.09
		c-5.85-2.14-10.35-6.54-16.37-8.5c-3.02-0.98-6.38-1.7-8.45-4.1c-2.55-2.95-3.04-7.37-4.91-10.72c-0.74-1.32-1.9-2.45-3.43-1.01
		c-1.18,1.1-0.77,3.27-0.52,4.66c0.37,2.12,0.82,4.22,1.26,6.32c0.65,3.07,0.99,4.15,3.77,5.65c2.77,1.5,5.51,3.37,7.66,5.67
		c1.39,1.49,2.53,3.19,3.87,4.72c4.71,5.4,11.58,8.45,16.8,13.36c2.52,2.37,5.2,5.6,9.02,4.55c1.24-0.34,15.78-4.19,15.31-5.02
		c-1.78-3.14-3.04-6.07-4.35-9.39C421.49,190.25,420.43,188.33,419.73,186.3z"/>
	<path class="st11" d="M435.64,195.15c-2.03,3.29-5.28,5.81-8.98,6.95"/>
	<path class="st3" d="M320.11,144.32c-0.01,0.05-0.02,0.09-0.02,0.14"/>
	<path d="M382.81,222.94l-7.87-36.46c-0.23-1.07-1.18-1.83-2.27-1.83h-63.39c-1.48,0-2.58,1.37-2.27,2.82l7.87,36.46
		c0.23,1.07,1.18,1.83,2.27,1.83h24.74l-0.87,10.37h-9.14v1.55h23.45v-1.55h-9.43l0.87-10.37h33.76
		C382.02,225.76,383.12,224.39,382.81,222.94z"/>
	<path class="st1" d="M335.09,192.98c-0.18-1.54-2.62-1.56-2.44,0c0.19,1.68,0.39,3.35,0.58,5.03c0.18,1.54,2.62,1.56,2.44,0
		C335.47,196.33,335.28,194.66,335.09,192.98z"/>
	<path class="st1" d="M339.97,192.98c-0.18-1.54-2.62-1.56-2.44,0c0.19,1.68,0.39,3.35,0.58,5.03c0.18,1.54,2.62,1.56,2.44,0
		C340.36,196.33,340.17,194.66,339.97,192.98z"/>
	<path class="st1" d="M344.86,192.98c-0.18-1.54-2.62-1.56-2.44,0c0.19,1.68,0.39,3.35,0.58,5.03c0.18,1.54,2.62,1.56,2.44,0
		C345.24,196.33,345.05,194.66,344.86,192.98z"/>
	<path class="st1" d="M349.74,192.98c-0.18-1.54-2.62-1.56-2.44,0c0.19,1.68,0.39,3.35,0.58,5.03c0.18,1.54,2.62,1.56,2.44,0
		C350.13,196.33,349.93,194.66,349.74,192.98z"/>
	<path class="st1" d="M354.63,192.98c-0.18-1.54-2.62-1.56-2.44,0c0.19,1.68,0.39,3.35,0.58,5.03c0.18,1.54,2.62,1.56,2.44,0
		C355.01,196.33,354.82,194.66,354.63,192.98z"/>
	<path d="M395.48,226.09c0.17,1.11,0.18,2.42-0.66,3.17c-0.48,0.43-1.14,0.57-1.77,0.71"/>
	<path class="st9" d="M407.82,202.24c0.16,0.82,0.84,1.51,1.65,1.68c0.81,0.17,1.72-0.18,2.2-0.86"/>
	<path class="st9" d="M256.18,151.07c0.35-0.13,0.65-0.39,0.83-0.72C257.1,150.35,256.09,151.07,256.18,151.07z"/>
	<rect id="XMLID_599_" x="77.38" y="237.55" width="394.59" height="4.36"/>
	<polygon id="XMLID_597_" points="467.87,341.14 464.86,341.14 440.31,238.39 443.31,238.39 	"/>
	<polygon id="XMLID_8_" points="440.69,341.14 437.69,341.14 413.14,238.39 416.14,238.39 	"/>
	<polygon id="XMLID_3_" points="82.55,341.14 85.56,341.14 110.11,238.39 107.11,238.39 	"/>
	<path d="M318.33,281.07c-1.31-6.25-12.6-5.77-17.69-6.65c-6.91-1.2-13.82-2.36-20.72-3.6c-1.55-0.27-3.29-0.51-4.7,0.36
		c-0.78,0.48-1.34,1.24-1.85,1.98c-2.05,2.96-3.8,6.19-4.34,9.62c-0.54,3.42,0.29,7.07,2.81,9.25c2.28,1.97,5.55,2.5,8.67,2.91
		c1.89,0.25,3.7,0.68,5.57,1c1.08,0.18,2.16,0.05,3.06,0.67c2.7,1.83,1.97,6.17,1.25,8.97c-0.68,2.66-1.55,5.45-0.87,8
		c0.18,0.69,0.48,1.35,0.59,2.06c0.14,0.88-0.02,1.81-0.18,2.71c-0.84,4.78-2.52,9.91-0.69,14.43c0.22,0.54,0.5,1.05,0.59,1.63
		c0.08,0.48,0.02,0.97-0.04,1.46c-0.37,3.24-0.74,6.49-1.11,9.73c0-0.01,11.1,0.51,11.95,0.52c1.28,0.02,4.1,0.5,5.26-0.21
		c1.8-1.1,2.17-6.47,2.48-8.45c0.44-2.81,0.63-5.65,1.16-8.44c0.97-5.03,3.06-9.79,3.97-14.82c0.46-2.51,0.29-5.16,0.79-7.64
		c0.43-2.09,0.96-4.18,1.31-6.31c0.86-5.12,1.71-10.25,2.57-15.37c0.19-1.16,0.39-2.35,0.22-3.48
		C318.38,281.29,318.36,281.18,318.33,281.07z"/>
	<path class="st5" d="M316.17,309.95c-0.33,0.84-0.65,1.69-0.98,2.53c-0.83,2.14-1.66,4.33-1.78,6.63c-0.11,2.3,0.51,4.58,0.55,6.89
		c0.08,3.92-1.91,7.3-1.95,11.12c-0.01,1.42,0.39,2.81,0.49,4.23c0.11,1.43-0.09,2.87-0.29,4.29c-0.32,2.3-0.63,4.6-0.95,6.9
		c-0.26,1.89-0.85,3.15,1.32,3.36c5.72,0.55,11.2-0.32,16.89-0.7c0.24-0.02,0.49-0.04,0.66-0.21c0.13-0.12,0.17-0.31,0.22-0.48
		c2.06-7.98,4.01-15.69,5-23.86c0.09-0.73,0.18-1.48,0.49-2.14c0.39-0.85,1.11-1.5,1.69-2.23c1.46-1.81,1.5-3.7,2.12-5.8
		c0.61-2.04,1.34-4,1.79-6.11c1.08-5.02,2.15-10.03,3.21-15.05c0.88-4.16,1.92-7.88-0.29-11.85c-0.72-1.29-1.85-2.28-2.99-3.21
		c-9.96-8.07-22.59-12.78-35.4-13.19c-4.79-0.16-10.81-0.46-12.61-4.91c-0.68-1.68-0.51-3.56-0.78-5.34
		c-0.79-5.21-8.89-6.43-13.1-5.07c-5.68,1.83-7.46,8.89-8.09,14.82c-0.52,4.86-0.86,9.87,0.54,14.56
		c2.08,6.98,7.91,12.42,14.58,15.35c5.25,2.3,10.97,3.14,16.65,3.48c4.34,0.26,8.63-0.56,12.92-1.05c3.05-0.34,2.58,0.52,1.6,3.05
		C317.2,307.27,316.68,308.61,316.17,309.95z"/>
	<path class="st3" d="M277.99,180.51c0.16,0.76,0.3,1.52,0.44,2.28c0.26,1.5,0.4,3.22-0.61,4.36c-0.59,0.66-1.47,0.99-2.07,1.64
		c-0.87,0.96-0.95,2.4-0.75,3.68c0.23,1.53,0.25,2.9,0.33,4.39c0.08,1.61,0.79,3.1,0.72,4.76c-0.13,3.12-2.41,5.19-5.42,4.98
		c-1.79-0.12-3.8-0.37-4.88-1.8c-0.53-0.7-0.73-1.58-0.93-2.43c-1.47-6.42-2.94-13.13-1.28-19.5c0.61-2.35,1.39-5.14,2.79-7.16
		c1.01-1.46,2.14-3.37,3.55-4.48c1.31-1.03,3.29-1.39,4.61-0.4c0.89,0.67,1.3,1.77,1.65,2.83
		C276.88,175.9,277.5,178.19,277.99,180.51z"/>
	<path class="st3" d="M294.29,207.11c0.39-2.35,1.72-4.59,3.81-5.82c2.25-1.33,4.57-2.62,7.04-3.53c0.32-0.12,0.65-0.24,0.98-0.35
		c6.46-2.3,13.24-3.72,19.59-6.31c7.03-2.87,13.79-6.28,20.68-9.46c4.64-2.14,9.11-4.43,13.19-7.51c3.46-2.61,2.37-7.83,4.03-11.42
		c0.71-1.54,2.06-3.15,3.31-1.05c1.16,1.95,0.82,4.52,1.1,6.68c0.28,2.14,0.56,4.32-0.38,6.36c-0.67,1.44-1.88,2.53-3.06,3.59
		c-1.14,1.02-2.28,2.04-3.41,3.06c-1.31,1.17-2.6,2.43-3.99,3.49c-4.35,3.29-8.54,6.78-12.56,10.45
		c-3.97,3.63-7.59,7.36-12.15,10.31c-4.4,2.85-9.46,5.29-14.5,6.63c-0.08,0.02-0.17,0.04-0.25,0.07c-5.04,1.37-9.65,3.43-15.05,2.87
		C298.46,214.73,293.49,211.97,294.29,207.11z"/>
	<path d="M291.23,259.15c0,0.16-13.83,0.86-15.1,0.94c-2.49,0.16-5.7,0.92-8.16,0.5c-1.57-0.27-2.24-1.92-4.09-1.57
		c-1.11,0.21-2.43,0.61-3.25-0.17c-0.53-0.5-0.6-1.31-0.64-2.03c-0.29-5.2-0.57-10.41-0.86-15.61c-0.24-4.3-5.53-5.48-8.62-7.43
		c-2.11-1.33-4.21-2.67-6.32-4c3.95-8.52,9.44-15.91,15.91-22.65c6.78-7.07,11.6-7.71,21.53-7.81c8.02-0.08,16.03-1.14,23.79-3.16
		c1.86,6.58,3.82,13.23,5.61,19.78c-4.56,2.47-10.09,4.26-15.04,5.9c-1.47,0.56-3.06,1.21-3.86,2.56c-0.63,1.06-0.65,2.36-0.66,3.59
		C291.38,238.37,291.3,248.76,291.23,259.15z"/>
	<line class="st12" x1="463.79" y1="409.92" x2="440.14" y2="409.92"/>
	<path class="st5" d="M425.64,358.9c-1.06-0.77-2-1.63-2.56-2.8c-1.51-3.18,0.83-5.36,1-8.35c0.16-2.71-2.18-4.42-3.66-6.3
		c-1.86-2.37-2.29-5.78-1.07-8.53c0.54-1.21,1.39-2.41,1.2-3.72c-0.14-0.96-0.8-1.75-1.3-2.58c-1.42-2.37-1.5-5.49-0.18-7.92
		c0.74-1.37,1.9-2.57,2.22-4.09c0.21-1.02,0.02-2.08-0.17-3.11c-0.62-3.33-1.21-6.71-0.99-10.1c0.09-1.48,0.37-3.01,1.22-4.22
		c0.77-1.09,2.08-1.98,3.46-1.61c1.44,0.38,1.63,1.53,2.14,2.69c1.47,3.36,1.87,6.38,2.51,9.98c0.11,0.63,0.26,1.27,0.63,1.8
		c0.41,0.58,1.03,0.95,1.63,1.33c3.82,2.47,6.93,6.56,6.91,11.1c-0.01,2.66-1.08,5.24-1.12,7.9c-0.01,0.68,0.06,1.41,0.48,1.95
		c0.38,0.5,0.98,0.77,1.54,1.05c1.66,0.84,3.23,2.04,4.02,3.72c0.89,1.9,0.67,4.16,0.04,6.16c-0.63,2.01-1.64,3.87-2.31,5.87
		c-0.17,0.5-0.31,1.01-0.26,1.53c0.12,1.24,1.14,1.83,1.81,2.75c0.71,0.98,0.78,1.63,1.16,2.73c1,2.93,2.03,5.33,1.55,8.52
		c-0.19,1.27-0.56,2.51-0.7,3.78c-0.27,2.55,0.41,5.09,0.81,7.62c0.26,1.69,0.89,5.62-0.84,6.78c-1.49,1-3.6-0.65-4.85-1.37
		c-3.93-2.28-6.69-4.11-7.31-8.81c-0.45-3.34,0-7.19-2.21-10.02C429.19,361.06,427.27,360.09,425.64,358.9z"/>
	<path class="st5" d="M451.48,360.96c0.96-2.5,2.25-4.88,3.85-7.03c1.17-1.56,2.49-3.01,3.53-4.66c1.66-2.64,2.53-5.72,4.15-8.39
		c2.47-4.1,7.41-6.44,11.93-4.1c1.59,0.82,2.94,2.03,4.26,3.24c1.47,1.35,2.93,2.73,4.16,4.31c2.46,3.17,3.87,7.01,5.24,10.78
		c1.62,4.46,3.23,8.91,4.85,13.37c0.77,2.12,2.57,6.95,0.8,9.04c-1.72,2.03-5.49-0.9-6.27-2.58c-0.51-1.11-1.29-2.09-2.26-2.83
		c-1.22-0.95-2.79-1.58-3.54-2.93c-0.78-1.41-0.65-3.49-2.08-4.22c-0.41-0.21-0.89-0.26-1.33-0.41c-1.23-0.43-2.02-1.61-2.68-2.73
		c-1.52-2.55-2.68-5.42-4.32-7.87c-1.03,0.31-1.95,3.44-2.66,4.43c-1.03,1.45-2.3,2.72-3.76,3.73c-2.22,1.55-4.93,2.6-6.4,4.87
		c-0.81,1.26-1.14,2.77-1.58,4.21c-0.62,2.06-2.57,8-5.75,6.99c-2.18-0.69-2.08-4.37-2.11-6.11
		C449.45,368.29,450.13,364.5,451.48,360.96z"/>
	<path d="M492.68,286.67c-1.64-3.65-5.57-3.23-9.11-1.98c-2.7,0.95-5.1,2.55-7.48,4.14c-2.44,1.63-4.92,3.29-6.84,5.52
		c-2.46,2.86-3.86,6.5-4.73,10.17c-0.55,2.31-0.93,4.72-2.15,6.75c-2.22,3.68-6.55,5.8-8.37,9.72c-2.02,4.34-1.88,10.36-2.08,15.05
		c-0.1,2.5-0.87,4.97-2.2,7.09c-1.37,2.18-3.37,4.12-3.79,6.66c-0.04,0.23-0.06,0.47-0.08,0.7c-0.12,2.1,0.69,4.25,0.29,6.34
		c-0.29,1.56-1.22,2.91-1.84,4.37c-0.84,1.98-1.39,7.62-0.76,12.32h-21.47v5.77h3.7l3.01,17.04c1.4,7.94,8.3,13.73,16.36,13.73
		s14.96-5.79,16.36-13.73l3.01-17.04h3.7v-5.77h-16.2c0-0.02,0-0.04,0.01-0.06c0.45-5.04,2.5-9.93,5.78-13.79
		c0.89-1.04,1.86-2.01,2.61-3.16c1.83-2.8,2.1-6.29,2.71-9.58c0.98-5.31,3.41-7.05,7.3-10.12c4.93-3.89,7.56-9.05,6.76-15.43
		c-0.16-1.26-0.54-2.51-0.38-3.77c0.16-1.3,0.88-2.45,1.6-3.54c2.58-3.91,5.46-7.63,8.6-11.1c1.81-2,3.73-3.97,4.95-6.38
		C493.33,293.79,494,289.61,492.68,286.67z"/>
	<line class="st7" x1="424.48" y1="379.75" x2="465.82" y2="379.75"/>
	<path class="st13" d="M277.04,271.91c3.72,0.45,7.44,0.9,11.16,1.34c6.68,0.8,13.94,1.89,18.56,6.79
		c2.88,3.06,4.32,7.26,4.76,11.44c0.44,4.18-0.03,8.4-0.5,12.58"/>
	<rect id="XMLID_24_" x="267.11" y="302.37" class="st9" width="2.26" height="49.95"/>
	<path id="XMLID_23_" class="st4" d="M248.44,362.8c0-7.38,13.05-10.47,19.57-10.48c7.76-0.01,19.57,2.85,19.57,10.48"/>
	<line id="XMLID_15_" class="st4" x1="268.23" y1="364.77" x2="268.23" y2="352.52"/>
	<path id="XMLID_14_" class="st9" d="M290.79,364.58c0,1.77-1.43,3.2-3.2,3.2c-1.77,0-3.2-1.43-3.2-3.2c0-1.77,1.43-3.2,3.2-3.2
		C289.35,361.37,290.79,362.81,290.79,364.58z"/>
	<path id="XMLID_12_" class="st9" d="M271.38,364.58c0,1.77-1.43,3.2-3.2,3.2s-3.2-1.43-3.2-3.2c0-1.77,1.43-3.2,3.2-3.2
		S271.38,362.81,271.38,364.58z"/>
	<path id="XMLID_11_" class="st9" d="M251.97,364.58c0,1.77-1.43,3.2-3.2,3.2c-1.77,0-3.2-1.43-3.2-3.2c0-1.77,1.43-3.2,3.2-3.2
		C250.53,361.37,251.97,362.81,251.97,364.58z"/>
	<path id="XMLID_10_" class="st3" d="M283.6,283.56v-42.89c0-7.42-6.8-13.44-15.2-13.44h-16.74c-8.39,0-15.2,6.02-15.2,13.44v47.95
		c0,10.59,9.8,19.26,21.77,19.26h25.07h29.49c1.41,0,2.56-1.01,2.56-2.27v0c0-1.25-1.15-2.27-2.56-2.27h-6.83
		C293.62,303.34,283.6,294.49,283.6,283.56z"/>
	<path class="st3" d="M254.62,168.49c-2.27,0.12-4.56,0.24-6.66,0.98c-4.15,1.48-6.05,4.58-8.16,8.04
		c-2.12,3.48-5.69,5.59-8.36,8.59c-4.95,5.56-5.6,14.49-1.51,20.71c1.35,2.05,3.12,3.79,5.08,5.27c10.88,8.23,28.62,2.35,34.95-9.2
		c3.34-6.1,2.07-13.59,0.71-20.42c-0.75-3.75-0.32-6.71,3.58-8.65c1-0.5,2.1-0.81,3.04-1.43c2.28-1.51,3.08-4.75,2.05-7.28
		c-1.03-2.53-3.63-4.24-6.34-4.54c-1.18-0.13-2.39-0.01-3.48,0.44c-2.58,1.09-4.03,3.84-6.33,5.44
		C260.71,168.17,257.69,168.33,254.62,168.49z"/>
	<path d="M326.29,203.77c-0.13,0.06-0.09,0.25-0.01,0.37c0.46,0.75,1.41,1.12,2.29,1.04c0.88-0.07,1.69-0.53,2.36-1.11"/>
	<path class="st3" d="M66.01,351.16c3.17-0.31,6.55-0.01,9.93,0.9c-0.03-5.62-0.18-11.27-0.47-16.95c-0.19-3.74-1.59-7.18-5.9-7.91
		c-2.62-0.44-4.63,0.43-5.44,2.61C62.19,335.05,64.64,345.17,66.01,351.16z"/>
	<path d="M52.86,306.4c0.38,3.59-0.23,7.67-0.37,11.33c-0.16,4.19,1.81,7.39,2.28,11.39c0.44,3.71,0.47,7.72,0.39,11.59
		c0,0.17,0.13,0.3,0.3,0.3h24.4c0.15,0,0.28-0.12,0.3-0.27c0.25-2.51,0.47-4.7,0.47-4.7c0.36-3.58,0.44-6.51-0.56-9.92
		c-0.42-1.44-0.76-2.93-1.05-4.44c-0.44-2.38-0.74-4.81-0.97-7.15c-0.35-3.6-0.34-7.22-0.65-10.82c-0.3-3.51-0.9-6.98-1.5-10.45
		c-1.82-10.51-3.64-21.03-6.16-31.41c-1.27-5.22-2.71-10.39-4.41-15.48c-2.02-6.04-4.54-11.86-7.78-17.36
		c-1.95-3.32-4.27-6.95-8.16-8.17c-3.06-0.96-6.52-1.4-9.56-0.12c-4.11,1.73-7.29,5.1-10.68,7.88c-0.46,2.26-0.93,4.52-1.39,6.79
		c-1.1,5.36,0.35,11.54,2.94,16.28c0.97,1.77,2.14,3.43,2.91,5.28c1.16,2.77,1.39,5.84,2.28,8.7c0.88,2.83,2.38,5.41,3.81,8.01
		C45.08,283.46,51.65,295.1,52.86,306.4z"/>
	<path class="st3" d="M88.36,223.52c0.54,2.36,0.15,5.33,1.67,7.4c1.49,2.03,6.07,2.73,8.39,3.56c0.51,0.18,1.04,0.38,1.39,0.79
		c0.86,1,0.09,2.69-1.12,3.21c-1.21,0.52-2.6,0.25-3.89-0.04c-3.04-0.67-6.08-1.34-9.12-2.02c-0.62-0.14-1.26-0.28-1.81-0.59
		c-1.55-0.88-2.09-2.82-2.33-4.59c-1.69-12.59-13.51-20.94-17.51-32.74c-1.03-3.02-1.65-6.17-2.28-9.3
		c-0.91-4.57-1.76-9.16-2.74-13.72c-0.7-3.27-2.55-6.19-0.59-9.45c1.51-2.5,4.91-3.59,7.65-2.58c4.39,1.62,5.9,6.51,7.26,10.45
		c1.89,5.49,3.45,10.47,3.13,16.39c-0.09,1.56-0.27,3.18,0.27,4.65c0.6,1.65,2,2.84,3.13,4.18c3.79,4.53,4.39,10.61,5.75,16.13
		c0.69,2.78,2.04,5.37,2.72,8.09C88.34,223.41,88.35,223.46,88.36,223.52z"/>
	<path class="st3" d="M21.81,356.5c3.25-0.3,6.55-0.01,9.69,0.86c1.45-5.39,2.78-10.82,3.99-16.27c0.8-3.59,0.3-6.89-3.82-7.59
		c-2.5-0.43-4.75,0.42-6.12,2.5C22.22,341.04,22.01,350.75,21.81,356.5z"/>
	<path d="M47.91,363.29c-2.31,1.48-5.13,1.63-7.78,1.57c-0.27-0.01-0.54-0.01-0.8-0.01c-4.15,0-8.31-0.15-12.45-0.45
		c-1.7-0.12-3.62-0.29-5.05-1.32c-1.67-1.21-1.43-3.26-1.02-5.07c0.35-1.55,0.56-3.14,0.64-4.73c1.93,0.59,4.12,1.22,6.14,1.02
		c1.13-0.11,2.25-0.4,3.29-0.87c0.51-0.23,1.01-0.51,1.47-0.84c0.25-0.18,0.94-1,1.24-0.94c0.27,0.06,0.46,0.79,0.59,1
		c0.31,0.49,0.73,0.94,1.15,1.34c0.83,0.78,1.81,1.39,2.89,1.78c0.98,0.35,2.01,0.51,3.03,0.7c1.46,0.26,2.9,0.58,4.34,0.94
		c0.89,0.22,1.79,0.47,2.55,0.98c0.76,0.51,1.38,1.32,1.43,2.23c0.05,1.01-0.6,1.95-1.43,2.53
		C48.05,363.2,47.98,363.24,47.91,363.29z"/>
	<path class="st5" d="M90.93,356.98c-0.25,1.17-1.65,2.04-2.91,2.42c-5.57,1.65-11.56,0.07-17.35,0.54
		c-1.43,0.12-2.89,0.36-4.28,0.01c-3.18-0.8-3.09-4.74-2.34-7.3c0.35-1.18,0.93-2.39,0.6-3.58c2.56,0.53,5.23,0.6,7.81,0.19
		c0.97-0.15,1.97-0.39,2.77-0.96c0.34-0.25,0.73-0.57,1.14-0.44c0.27,0.09,0.42,0.36,0.57,0.59c1.22,1.99,2.93,2.72,4.9,3.73
		c0.84,0.43,1.49,0.87,2.43,1.13c1.15,0.32,2.32,0.53,3.49,0.79c1.32,0.28,2.89,0.8,3.18,2.13
		C90.98,356.49,90.98,356.74,90.93,356.98z"/>
	<path class="st5" d="M50.92,271.23c-0.6-5.94-0.81-11.91-1.11-17.93c-0.28-5.74-1.02-11.36-1.92-17.03
		c-0.33-2.09-0.07-3.95-0.74-6.01c-0.86-2.65-1.93-5.26-3.37-7.65c-2.11-3.49-5.17-6.54-9.02-7.91c-2.62-0.93-5.55-0.94-7.94,0.5
		c-2.34,1.41-3.63,3.73-4.81,6.12c-0.71,1.43-1.41,2.86-2.12,4.29c-1.54,3.13-3.09,6.28-4.03,9.64c-0.94,3.36-1.23,6.98-0.25,10.33
		c0.63,2.14,1.84,3.32,2.86,5.19c1.25,2.3,2.01,4.92,2.11,7.54c0.07,1.9-0.2,3.79-0.27,5.68c-0.16,4.25,0.68,8.49,1.8,12.59
		c0.45,1.63,0.94,3.26,1.02,4.94c0.06,1.39-0.16,2.77-0.24,4.15c-0.23,3.75,0.49,7.46,0.68,11.2c0.2,3.84-0.57,6.92-2,10.41
		c-0.92,2.24-1.4,4.65-1.41,7.07c-0.02,3.7,0.6,7.46-0.5,11.07c-0.33,1.09-0.82,2.13-1.25,3.18c-1.85,4.53-2.6,9.42-3.31,14.27
		c-0.04,0.26,0.14,0.5,0.4,0.53c1.7,0.22,7.47,1.37,8,1.43c5.28,0.62,10.14-1.18,15.27,0.02c0.23,0.05,0.47-0.07,0.55-0.29
		c3.96-10.99,7-22.11,9.12-33.57c0.61-3.3,0.17-6.43,0.32-9.68c0.05-1.18,0.42-3.07,0.75-4.21c1.87-6.47,3.36-12.6,2.27-19.37
		C51.41,275.58,51.14,273.41,50.92,271.23z"/>
	<path d="M58.97,161.02c-2.43-2.14-5.51-3.62-8.62-4.21c-1.14-0.22-2.33-0.32-3.44,0.03c-0.74,0.23-1.41,0.65-2.07,1.07
		c-4.77,3.02-8.82,7.06-11.21,12.24c-1.96,4.24-2.96,8.85-3.82,13.44c-0.5,2.69-5.37,35.48-6.97,35.01
		c1.91,0.56,3.85,0.96,5.72,1.67c2.67,1.01,5.35,2.06,7.98,3.18c5.28,2.25,10.39,4.63,15.96,5.99c0.72-0.56,1.32-1.22,1.79-2.24
		c1.3-2.83,2.29-6.06,2.77-9.14c1.75-11.35,2.59-23.5,5.51-34.6c1.33-5.06,2.26-10.7,0.75-15.83
		C62.55,165.04,60.98,162.8,58.97,161.02z"/>
	<path class="st3" d="M55.34,222.98c1.4,0.64,2.86,1.25,4.31,1.92c6.69,3.09,13.02,6.95,18.84,11.47c-1.7,1.6-3.24,3.62-3.38,5.96
		c-0.14,2.34,1.66,4.88,4,4.77c1.35-1.52,1.53-3.73,2.51-5.51c1.27-2.31,5.08-2.23,5.94-3.97c0.9-1.83-1.15-4.3-2.17-5.61
		c-2.91-3.73-7.43-5.89-10.35-9.57c-1.04-1.31-1.8-2.83-2.73-4.22c-1.5-2.24-3.48-4.17-5.76-5.61c-4.47-2.82-6.06-6.79-8.25-11.46
		c-0.67-1.44-1.35-2.89-1.74-4.43c-0.49-1.98-0.48-4.05-0.79-6.07c-0.45-2.89-1.55-5.63-2.8-8.27c-1.14-2.39-2.45-4.77-4.39-6.57
		c-1.94-1.8-4.63-2.97-7.25-2.53c-3.24,0.55-5.69,3.46-6.63,6.61c-0.94,3.15-0.65,6.53-0.27,9.79c0.37,3.14,0.84,6.35,2.32,9.15
		c1.42,2.68,3.49,4.98,5,7.62c1.43,2.51,2.2,5.24,3.45,7.85C47.42,218.95,51.18,221.09,55.34,222.98z"/>
	<path d="M53.41,159.23c-0.69,0.88-1.19,1.93-1.49,3.01c-1.55,5.67,0.65,12.64,3.01,17.77c0.87,1.89,1.23,5.07,3.33,6.06
		c1.43,0.67,2.47-0.39,3.66-0.99c1.41-0.71,2.92-1.31,4.34-2.04c3.19-1.65,6.32-3.42,9.38-5.3c-1.66-7.74-5.37-15.61-12.27-19.47
		c-2.21-1.24-4.91-2.01-7.27-1.1C55.02,157.59,54.11,158.33,53.41,159.23z"/>
	<path class="st3" d="M44.94,153.83c0.63-2.02,1.12-4.1,1.33-6.36c0.23-2.51,0.23-5.1,1.15-7.45c1.42-3.63,6.5-5.99,10.22-5.1
		c5.24,1.26,3.66,10.05,3.18,13.97c-0.24,1.91-1.68,3.27-2.7,4.85c-1.7,2.64-1.93,6.99-2.19,10.08c-0.03,0.35-0.06,0.73-0.28,1.01
		c-0.25,0.33-0.69,0.43-1.1,0.52c-2.11,0.46-4.25,0.93-6.41,0.89c-2.85-0.05-7.32-1.04-5.99-4.72
		C43.12,158.87,44.14,156.39,44.94,153.83z"/>
	<path d="M59.34,128.44c-1.57-0.1-3.2,0.41-4.37,1.47c-0.5,0.46-0.94,1.01-1.57,1.26c-0.31,0.13-0.66,0.17-0.99,0.22
		c-3.07,0.51-5.88,2.39-7.51,5.04c-0.36,0.59-0.67,1.23-0.76,1.91c-0.07,0.55,0.01,1.1,0.09,1.64c0.19,1.27,0.43,2.52,0.72,3.77
		c0.13,0.55,0.34,1.13,0.36,1.7c0.02,0.48-0.05,0.91,0.09,1.4c0.57,1.93,2.43,1.04,3.21-0.22c0.63-1.02,1.01-2.17,1.45-3.28
		c0.55-1.42,1.25-2.86,2.46-3.77c1.16-0.88,2.66-1.16,4.1-1.4c1.55-0.25,3.71-0.45,4.84-1.65c1.24-1.3,2.19-3.05,2.04-4.89
		c-0.04-0.45-0.14-0.9-0.37-1.29c-0.26-0.44-0.66-0.78-1.09-1.05C61.24,128.78,60.3,128.5,59.34,128.44z"/>
	<path class="st1" d="M51.76,142.8c-0.57-1.13-1.91-1.55-3.04-0.97c-1.28,0.67-2,2.49-1.72,3.87c0.24,1.23,1.49,2.11,2.62,1.41
		c0.51-0.14,1-0.43,1.36-0.8C51.84,145.39,52.36,144,51.76,142.8z"/>
	<path d="M49.68,144.23c-0.14-0.63-1.03-0.34-0.94,0.26c0.07,0.5,0.06,0.94,0.41,1.32c0.21,0.24,0.55,0.08,0.65-0.17
		C49.97,145.18,49.78,144.7,49.68,144.23z"/>
	<path d="M49.36,213.95c-0.16,0.38-0.18,0.82-0.06,1.21c0.19,0.64,0.73,1.14,1.35,1.4c0.14,0.06,0.29,0.11,0.45,0.12
		c0.37,0.03,0.73-0.16,1.05-0.35"/>
	<path d="M31.58,180.59c-0.19,1.03-0.26,2.12-0.2,3.31c0.21,4.49,1.25,8.89,2.27,13.24c2.46-2.36,5.85-3.44,9.11-4.44
		c3.43-1.06,6.87-2.12,10.3-3.17c0.98-0.3,2.1-0.75,2.37-1.73c0.09-0.34,0.06-0.7,0.03-1.05c-0.68-6.44-5.42-18.26-13.74-16.79
		c-2.52,0.45-4.64,2.14-6.42,3.98C33.27,176.02,32.05,178.11,31.58,180.59z"/>
	<path class="st1" d="M48.15,171.87c-0.21-0.15-0.42,0.17-0.26,0.34c1.92,2.1,3.6,4.25,4.82,6.84c1.35,2.86,2.01,5.93,3.17,8.86
		c0.1,0.24,0.43,0.15,0.39-0.11C55.3,182.19,52.88,175.39,48.15,171.87z"/>
	<path d="M53.98,151.26c0.13,0.2,0.32,0.63,0.37,0.73c0.21,0.45,0.39,0.91,0.57,1.37c0.71,1.88,1.43,3.81,1.4,5.82
		c0.02-1.42,0.76-2.54,1.22-3.83c0.47-1.31,1.25-2.47,2-3.64c0.33-0.52,0.58-1.51-0.27-0.86c-0.49,0.38-1.07,0.59-1.68,0.67
		c-1.23,0.16-2.49-0.13-3.69-0.38C53.91,151.16,53.94,151.2,53.98,151.26z"/>
	<path d="M56.09,145.85c-0.06,0.2,0.03,0.42,0.14,0.6c0.22,0.36,0.51,0.69,0.88,0.89c0.37,0.2,0.82,0.27,1.22,0.14
		c0.52-0.18,0.87-0.67,1.08-1.18c0.04-0.1,0.06-0.25-0.04-0.3"/>
	<path class="st5" d="M110.64,362.97c0.14-1.99,0.3-3.67,0.31-4.63c0.02-1.81,0.04-3.64-0.26-5.43c-0.42-2.49-1.43-4.84-2.31-7.21
		c-1.95-5.26-3.27-10.98-2.06-16.46c0.81-3.68,2.72-7.06,3.49-10.75c0.56-2.67,0.5-5.44,1-8.13c0.41-2.19,3.19-9.42,6.59-6.75
		c0.58,0.45,0.88,1.16,1.14,1.84c0.95,2.54,1.52,5.24,2.82,7.62c1.39,2.55,3.57,4.64,4.65,7.33c1.04,2.6,0.96,5.5,0.65,8.28
		c-1.08,9.68-4.32,18.94-2.98,28.86c0.23,1.68,0.71,15.43-1.75,15.43c-0.84,2.24-2.19,5.7-4.84,6.28
		C109.92,380.82,110.16,369.94,110.64,362.97z"/>
	<path class="st5" d="M116,367.72c-0.02-0.53-0.01-1.06,0.05-1.59c0.62-5.57,8.37-6.36,12.21-8.85c3.66-2.38,5.92-7.35,10.65-2.47
		c2.27,2.34,3.8,6.59,4.26,9.76c0.89,6.12,1.74,12.25,2.56,18.38c0.18,1.37,0.35,2.83-0.28,4.06c-1.17,2.28-4.62,2.47-6.68,0.95
		c-2.88-1.77-3.93-6.58-5.04-9.47c-0.53-1.36-1.06-2.78-0.96-4.24c0.12-1.79,1.2-3.5,0.92-5.28c-0.09-0.56-0.48-1.2-1.04-1.12
		c-0.18,0.02-0.34,0.12-0.49,0.21c-2.54,1.64-3.39,4.21-4.96,6.61c-1.65,2.52-2.93,2.23-4.83,3.97c-3.95,3.61-2.75,11.75-4.18,16.6
		c-0.37,1.24-1.58,2.72-2.65,1.99c-0.43-0.29-0.59-0.84-0.72-1.34c-1.31-5.4-1.3-11.12,0.04-16.51c0.57-2.28,1.37-4.54,1.44-6.89
		C116.35,370.9,116.05,369.31,116,367.72z"/>
	<path d="M115.28,385.37c1.7-10.86,1.63-21.58-6.8-30.01c-1.57-1.55-3.32-3-5.41-3.7c-3.34-1.12-6.99-0.16-10.38,0.8
		c-1.72,0.49-3.47,1-4.91,2.05c-2.2,1.61-3.35,4.24-4.64,6.64c-1.73,3.22-3.88,6.22-6.36,8.91c-2.23,2.4-4.8,4.65-6.03,7.68
		c-1.88,4.61,0.79,9.58,6.04,8.73c4.19-0.68,6.27-4,9.08-6.64c0.26-0.24,0.52-0.48,0.79-0.71c1.16-0.98,2.58-1.61,3.81-2.5
		c3-2.17,4.76-5.96,4.49-9.65c-0.04-0.58-0.12-1.21,0.18-1.71c0.58-0.94,2.13-0.65,2.83,0.21c0.7,0.86,0.85,2.02,1.21,3.07
		c1.18,3.44,5.06,5.74,7.2,8.63c1.97,2.67,2.03,5.34,2.48,8.2H95.44v4.73h3.04l2.46,13.97c1.15,6.51,6.81,11.26,13.42,11.26
		c6.61,0,12.27-4.75,13.42-11.26l2.46-13.97h3.04v-4.73H115.28z"/>
	<line class="st7" x1="97.41" y1="390.49" x2="131.3" y2="390.49"/>
	<line class="st14" x1="106.42" y1="415.54" x2="142.06" y2="415.54"/>
	<path d="M413.95,161.77c0.29-0.04,0.6,0.11,0.75,0.36s0.14,0.59-0.04,0.83c-0.14,0.2-0.37,0.31-0.59,0.39
		c-0.02,0.01-0.06,0-0.05-0.02"/>
	<path d="M401.68,163.65c-0.06,0.23,0.05,0.47,0.18,0.66c0.22,0.33,0.52,0.62,0.89,0.78c0.44,0.19,0.96,0.18,1.4-0.01
		c0.44-0.19,0.8-0.55,1.01-0.98c-0.03,0-0.05,0-0.08,0"/>
</g>
<g id="DESIGNED_BY_FREEPIK">
</g>
</svg>
