<?xml version="1.0" encoding="utf-8"?>
<!-- Generator: Adobe Illustrator 26.0.1, SVG Export Plug-In . SVG Version: 6.00 Build 0)  -->
<svg version="1.1" id="Layer_1" xmlns="http://www.w3.org/2000/svg" xmlns:xlink="http://www.w3.org/1999/xlink" x="0px" y="0px"
	 viewBox="0 0 512 512" style="enable-background:new 0 0 512 512;" xml:space="preserve">
<style type="text/css">
	.st0{fill:#454545;}
	.st1{fill:#FBB810;}
</style>
<g>
	<g>
		<path class="st0" d="M126.4,249.2c1-34.7,2.2-80.2,2.6-104c0.1-4.4,0.5-6.5,0.7-7.4c1-0.4,3.7-1,9.3-1c4.2,0,9.2,0.3,15.4,1
			c54.5,5.9,55.7,11,57.2,17.5c3.5,14.7,17.9,77.2,27.5,118.6c0.8,0,1.6,0,2.5,0.1c4.5,0.4,9.5,0.5,14.4,0.6
			c-9.5-41.3-24.9-107.8-28.5-123c-4.1-17.3-13.5-23.8-71.3-30c-37.1-4-43,2.9-43.4,23.2c-0.4,23.3-1.6,66.7-2.5,100.9
			C116.2,246.5,121.6,247.6,126.4,249.2z"/>
		<path class="st0" d="M144.5,264.7c3.8,12.8,12.8,34.1,17,39.2c1.2,1.2,6.7,4.2,31.1,4.2c6.6,0,9.8-1.7,11.4-4.1
			c-3.9-10.8-15.4-7.8-32-3.9c-8.4,1.9-12.2-25.1-15.3-40.3c-6.3-31-3.1-57.9-4.5-67.2c-1.4-9.3-12-8-17.6,8.7
			c-2.3,6.8-0.7,29.6,1.8,52.9C140.4,256.7,143.2,260.2,144.5,264.7z"/>
		<path class="st0" d="M231.2,252.4c-3.1-5.6-14.7-5-25.9,1.3c-11.2,6.2-17.7,15.8-14.6,21.4c2.2,4,8.7,4.7,16.3,2.7l3.9,8.1
			c4.6-7.1,11.4-10.2,18.1-11.4l-3.5-7.2C230.8,261.9,233.3,256.3,231.2,252.4z"/>
	</g>
	<path class="st0" d="M126.8,353.2c0,14.8-12,26.8-26.8,26.8c-14.8,0-26.8-12-26.8-26.8c0-14.8,12-26.8,26.8-26.8
		C114.8,326.4,126.8,338.4,126.8,353.2z"/>
	<path class="st0" d="M296.3,318.1c-3.1-13.2-9-26.6-13.2-29.5c-6.8-4.5-26.6-2.4-42.5-3.9c-15.9-1.5-22,4.8-24,16
		c-2,11.2-9.3,18.1-23.9,18.1c-14.7,0-33.3-0.7-39.5-8.1c-6.1-7.4-15.7-31.7-19.1-43c-4.4-14.6-51.4-12.8-72.7-12.5
		c-17.6,0.2-23.4,26.6-24.1,37.9C36.6,304.5,33,345,33,345c-0.1,3.8,5.6,5.8,13.8,6.9c0,0.5-0.1,0.9-0.1,1.3
		c0,29.3,23.9,53.2,53.2,53.2c25.3,0,46.5-17.8,51.9-41.5c12.7,0.5,28.3,0.8,47.6,0.8c1.8,0,3.5,0,5.3-0.1
		c5.6,23.3,26.6,40.7,51.7,40.7c29.4,0,53.2-23.9,53.2-53.2C309.6,339.7,304.6,327.5,296.3,318.1z M100,395.6
		c-23.4,0-42.4-19-42.4-42.4s19-42.4,42.4-42.4c23.4,0,42.4,19,42.4,42.4S123.4,395.6,100,395.6z M256.4,395.6
		c-23.4,0-42.4-19-42.4-42.4s19-42.4,42.4-42.4c23.4,0,42.4,19,42.4,42.4S279.8,395.6,256.4,395.6z"/>
	<path class="st0" d="M284.2,353.2c0,15.4-12.4,27.8-27.8,27.8c-15.4,0-27.8-12.4-27.8-27.8c0-15.4,12.4-27.8,27.8-27.8
		C271.8,325.4,284.2,337.8,284.2,353.2z"/>
	<polygon class="st0" points="460.5,330.3 457.4,319.4 337.7,353.9 266.1,105.6 249.6,110.3 324.5,369.6 340.9,364.9 340.9,364.9 	
		"/>
	
		<rect x="327" y="214.1" transform="matrix(0.9608 -0.2773 0.2773 0.9608 -58.7006 120.5947)" class="st1" width="139.8" height="107.4"/>
	<polygon class="st1" points="397.8,200.9 312,225.6 293.2,160.6 379,135.9 	"/>
</g>
</svg>
