<?xml version="1.0" encoding="utf-8"?>
<!-- Generator: Adobe Illustrator 26.0.1, SVG Export Plug-In . SVG Version: 6.00 Build 0)  -->
<svg version="1.1" id="Layer_1" xmlns="http://www.w3.org/2000/svg" xmlns:xlink="http://www.w3.org/1999/xlink" x="0px" y="0px"
	 viewBox="0 0 377.54 59.3" style="enable-background:new 0 0 377.54 59.3;" xml:space="preserve">
<style type="text/css">
	.st0{fill-rule:evenodd;clip-rule:evenodd;}
	.st1{fill:#FBB810;}
	.st2{fill:none;stroke:#FBB810;stroke-width:0.8375;stroke-miterlimit:2.6131;stroke-dasharray:4.1876,2.5126;}
	.st3{fill:none;}
</style>
<g>
	<polygon class="st0" points="304.32,48.78 368.56,48.78 368.56,49.65 304.32,49.65 	"/>
	<g>
		<path d="M117.89,31.79c0,2.99,0,5.46-0.16,6.76c-0.13,0.9-0.28,1.59-0.9,1.71c-0.28,0.06-0.65,0.13-0.94,0.13
			c-0.19,0-0.25,0.09-0.25,0.19c0,0.19,0.16,0.25,0.5,0.25c0.47,0,1.19-0.06,1.81-0.06c0.65-0.03,1.19-0.03,1.25-0.03
			c0.47,0,1.22,0.03,2.43,0.09c1.22,0.03,2.93,0.09,5.27,0.09c1.22,0,1.46,0,1.68-0.81c0.16-0.65,0.41-2.78,0.41-3.02
			c0-0.22,0-0.47-0.19-0.47c-0.16,0-0.22,0.13-0.28,0.47c-0.22,1.28-0.59,1.9-1.4,2.24c-0.81,0.34-2.18,0.34-2.99,0.34
			c-3.05,0-3.52-0.41-3.62-2.56c-0.03-0.65,0-4.27,0-5.33v-2.74c0-0.13,0.06-0.22,0.22-0.22c0.53,0,3.62,0.06,4.46,0.16
			c1.22,0.13,1.49,0.65,1.62,1.09c0.13,0.41,0.13,0.71,0.13,1.03c0,0.16,0.06,0.28,0.22,0.28c0.22,0,0.22-0.34,0.22-0.59
			c0-0.22,0.06-1.37,0.13-2c0.09-1.03,0.25-1.56,0.25-1.75s-0.06-0.25-0.16-0.25c-0.13,0-0.25,0.16-0.47,0.41
			c-0.28,0.31-0.72,0.38-1.46,0.44c-0.72,0.06-4.55,0.06-4.95,0.06c-0.16,0-0.19-0.09-0.19-0.31v-8.6c0-0.22,0.06-0.31,0.19-0.31
			c0.34,0,3.74,0.03,4.27,0.09c1.68,0.19,2,0.56,2.21,1.06c0.16,0.38,0.19,0.9,0.19,1.12c0,0.25,0.06,0.41,0.25,0.41
			c0.13,0,0.19-0.19,0.22-0.34c0.06-0.38,0.13-1.75,0.16-2.06c0.09-0.87,0.25-1.25,0.25-1.46c0-0.16-0.03-0.28-0.13-0.28
			c-0.16,0-0.28,0.13-0.44,0.16c-0.25,0.06-0.75,0.13-1.34,0.16c-0.71,0.03-6.92,0.03-7.14,0.03l-1.28-0.06
			c-0.68-0.03-1.52-0.03-2.24-0.03c-0.34,0-0.5,0.06-0.5,0.25c0,0.13,0.13,0.19,0.25,0.19c0.28,0,0.81,0.03,1.06,0.09
			c1.03,0.22,1.28,0.72,1.34,1.78c0.06,1,0.06,1.87,0.06,6.73L117.89,31.79L117.89,31.79z M153.67,18.6l3.92,0.06
			c2.99,0.06,3.73,0.78,3.83,1.71l0.03,0.34c0.03,0.44,0.09,0.53,0.25,0.53c0.13,0,0.22-0.13,0.22-0.41c0-0.34,0.09-2.49,0.09-3.43
			c0-0.19,0-0.38-0.16-0.38c-0.13,0-0.41,0.09-0.88,0.16c-0.5,0.09-1.22,0.16-2.21,0.16h-11.68c-0.38,0-1.56-0.06-2.46-0.16
			c-0.84-0.06-1.16-0.38-1.37-0.38c-0.13,0-0.25,0.41-0.31,0.59c-0.06,0.25-0.68,2.93-0.68,3.24c0,0.19,0.06,0.28,0.16,0.28
			c0.13,0,0.22-0.06,0.31-0.31c0.09-0.22,0.19-0.44,0.53-0.97c0.5-0.75,1.25-0.97,3.18-1l4.62-0.06v13.19c0,2.99,0,5.46-0.16,6.76
			c-0.13,0.9-0.28,1.59-0.9,1.71c-0.28,0.06-0.65,0.13-0.94,0.13c-0.19,0-0.25,0.09-0.25,0.19c0,0.19,0.16,0.25,0.5,0.25
			c0.94,0,2.9-0.09,3.05-0.09s2.12,0.09,3.83,0.09c0.34,0,0.5-0.09,0.5-0.25c0-0.09-0.06-0.19-0.25-0.19c-0.28,0-0.97-0.06-1.4-0.13
			c-0.93-0.13-1.12-0.81-1.21-1.71c-0.16-1.31-0.16-3.77-0.16-6.76V18.6L153.67,18.6z M178.69,31.79c0,2.99,0,5.46-0.16,6.76
			c-0.13,0.9-0.28,1.59-0.9,1.71c-0.28,0.06-0.65,0.13-0.94,0.13c-0.19,0-0.25,0.09-0.25,0.19c0,0.19,0.16,0.25,0.5,0.25
			c0.47,0,1.19-0.06,1.81-0.06c0.65-0.03,1.19-0.03,1.25-0.03c0.47,0,1.22,0.03,2.43,0.09c1.22,0.03,2.93,0.09,5.27,0.09
			c1.22,0,1.46,0,1.68-0.81c0.16-0.65,0.41-2.78,0.41-3.02c0-0.22,0-0.47-0.19-0.47c-0.16,0-0.22,0.13-0.28,0.47
			c-0.22,1.28-0.59,1.9-1.4,2.24c-0.81,0.34-2.18,0.34-2.99,0.34c-3.05,0-3.52-0.41-3.62-2.56c-0.03-0.65,0-4.27,0-5.33v-2.74
			c0-0.13,0.06-0.22,0.22-0.22c0.53,0,3.62,0.06,4.46,0.16c1.22,0.13,1.49,0.65,1.62,1.09c0.13,0.41,0.13,0.71,0.13,1.03
			c0,0.16,0.06,0.28,0.22,0.28c0.22,0,0.22-0.34,0.22-0.59c0-0.22,0.06-1.37,0.13-2c0.09-1.03,0.25-1.56,0.25-1.75
			s-0.06-0.25-0.16-0.25c-0.13,0-0.25,0.16-0.47,0.41c-0.28,0.31-0.72,0.38-1.46,0.44c-0.72,0.06-4.55,0.06-4.95,0.06
			c-0.16,0-0.19-0.09-0.19-0.31v-8.6c0-0.22,0.06-0.31,0.19-0.31c0.34,0,3.74,0.03,4.27,0.09c1.68,0.19,2,0.56,2.21,1.06
			c0.16,0.38,0.19,0.9,0.19,1.12c0,0.25,0.06,0.41,0.25,0.41c0.13,0,0.19-0.19,0.22-0.34c0.06-0.38,0.13-1.75,0.16-2.06
			c0.09-0.87,0.25-1.25,0.25-1.46c0-0.16-0.03-0.28-0.13-0.28c-0.16,0-0.28,0.13-0.44,0.16c-0.25,0.06-0.75,0.13-1.34,0.16
			c-0.71,0.03-6.92,0.03-7.14,0.03l-1.28-0.06c-0.68-0.03-1.52-0.03-2.24-0.03c-0.34,0-0.5,0.06-0.5,0.25
			c0,0.13,0.13,0.19,0.25,0.19c0.28,0,0.81,0.03,1.06,0.09c1.03,0.22,1.28,0.72,1.34,1.78c0.06,1,0.06,1.87,0.06,6.73V31.79
			L178.69,31.79z M207.83,31.79c0,2.99,0,5.46-0.16,6.76c-0.13,0.9-0.28,1.59-0.9,1.71c-0.28,0.06-0.65,0.13-0.94,0.13
			c-0.19,0-0.25,0.09-0.25,0.19c0,0.19,0.16,0.25,0.5,0.25c0.94,0,2.9-0.09,2.93-0.09c0.16,0,2.12,0.09,3.84,0.09
			c0.34,0,0.5-0.09,0.5-0.25c0-0.09-0.06-0.19-0.25-0.19c-0.28,0-0.97-0.06-1.4-0.13c-0.94-0.13-1.13-0.81-1.22-1.71
			c-0.16-1.31-0.16-3.77-0.16-6.76v-0.75c0-0.16,0.06-0.25,0.22-0.25l3.84,0.06c0.19,0,0.28,0.06,0.41,0.19
			c0.62,0.81,2.09,2.9,3.4,4.62c1.78,2.33,2.87,3.87,4.21,4.58c0.81,0.44,1.59,0.59,3.33,0.59h2.21c0.56,0,0.75-0.06,0.75-0.25
			c0-0.09-0.13-0.19-0.28-0.19c-0.19,0-0.62,0-1.22-0.09c-0.78-0.13-2.12-0.47-3.8-2.24c-1.81-1.93-3.93-4.71-6.48-7.98
			c2.81-2.59,3.77-4.89,3.77-7.2c0-2.15-1.37-3.68-2.15-4.24c-1.65-1.19-3.74-1.37-5.7-1.37c-0.97,0-3.33,0.09-3.68,0.09
			c-0.16,0-2.12-0.09-3.52-0.09c-0.34,0-0.5,0.06-0.5,0.25c0,0.13,0.13,0.19,0.25,0.19c0.28,0,0.81,0.03,1.06,0.09
			c1.03,0.22,1.28,0.72,1.34,1.78c0.06,1,0.06,1.87,0.06,6.73L207.83,31.79L207.83,31.79L207.83,31.79z M210.33,18.83
			c0-0.19,0.09-0.31,0.25-0.38c0.31-0.09,1.16-0.19,2.09-0.19c3.33,0,5.39,2.33,5.39,6.23c0,2.37-0.81,4.05-1.9,4.8
			c-0.71,0.5-1.59,0.59-2.33,0.59c-1.37,0-2.81-0.22-3.27-0.5c-0.16-0.09-0.22-0.22-0.22-0.38V18.83L210.33,18.83z M241.91,21.66
			c1,1.12,4.51,5.05,8.12,8.95c3.3,3.55,7.78,8.14,8.12,8.44c1.65,1.65,2.03,2,2.28,2c0.22,0,0.28-0.16,0.28-2.21l0.06-18.26
			c0-1.87,0.13-2.56,1.16-2.78c0.38-0.09,0.59-0.09,0.75-0.09c0.22,0,0.34-0.09,0.34-0.22c0-0.19-0.22-0.22-0.56-0.22
			c-1.28,0-2.3,0.09-2.66,0.09c-0.34,0-1.84-0.09-3.24-0.09c-0.38,0-0.62,0.03-0.62,0.22c0,0.13,0.03,0.22,0.25,0.22
			c0.25,0,0.96,0.03,1.52,0.16c0.97,0.25,1.19,0.94,1.22,2.96l0.34,15.83c-1-1.03-4.39-4.83-7.47-8.14
			c-4.8-5.14-9.43-10.16-9.9-10.69c-0.31-0.31-0.85-1-1.09-1s-0.34,0.34-0.34,1.56l-0.03,17.86c0,2.84-0.16,3.74-0.94,3.96
			c-0.47,0.16-1.03,0.19-1.28,0.19c-0.16,0-0.25,0.06-0.25,0.19c0,0.22,0.19,0.25,0.5,0.25c1.4,0,2.71-0.09,2.99-0.09
			c0.28,0,1.52,0.09,3.3,0.09c0.38,0,0.56-0.06,0.56-0.25c0-0.13-0.09-0.19-0.25-0.19c-0.28,0-0.96-0.03-1.55-0.19
			c-0.84-0.25-1.16-1.06-1.22-3.62L241.91,21.66L241.91,21.66z M283.72,26.3c0-4.86,0-5.73,0.06-6.73c0.06-1.09,0.31-1.62,1.16-1.78
			c0.38-0.06,0.56-0.09,0.78-0.09c0.13,0,0.25-0.06,0.25-0.19c0-0.19-0.16-0.25-0.5-0.25c-0.94,0-2.9,0.09-3.05,0.09
			c-0.16,0-2.12-0.09-3.15-0.09c-0.34,0-0.5,0.06-0.5,0.25c0,0.13,0.13,0.19,0.25,0.19c0.22,0,0.62,0.03,0.97,0.13
			c0.68,0.16,1,0.68,1.06,1.75c0.06,1,0.06,1.87,0.06,6.73v5.49c0,2.99,0,5.46-0.16,6.76c-0.13,0.9-0.28,1.59-0.9,1.71
			c-0.28,0.06-0.65,0.13-0.94,0.13c-0.19,0-0.25,0.09-0.25,0.19c0,0.19,0.16,0.25,0.5,0.25c0.94,0,2.9-0.09,3.05-0.09
			c0.16,0,2.12,0.09,3.83,0.09c0.34,0,0.5-0.09,0.5-0.25c0-0.09-0.06-0.19-0.25-0.19c-0.28,0-0.97-0.06-1.4-0.13
			c-0.94-0.13-1.13-0.81-1.22-1.71c-0.16-1.31-0.16-3.77-0.16-6.76V26.3L283.72,26.3z M311.58,18.6l3.92,0.06
			c2.99,0.06,3.73,0.78,3.83,1.71l0.03,0.34c0.03,0.44,0.09,0.53,0.25,0.53c0.13,0,0.22-0.13,0.22-0.41c0-0.34,0.09-2.49,0.09-3.43
			c0-0.19,0-0.38-0.16-0.38c-0.13,0-0.41,0.09-0.88,0.16c-0.5,0.09-1.22,0.16-2.21,0.16H305c-0.38,0-1.56-0.06-2.46-0.16
			c-0.84-0.06-1.16-0.38-1.37-0.38c-0.13,0-0.25,0.41-0.31,0.59c-0.06,0.25-0.68,2.93-0.68,3.24c0,0.19,0.06,0.28,0.16,0.28
			c0.13,0,0.22-0.06,0.31-0.31c0.09-0.22,0.19-0.44,0.53-0.97c0.5-0.75,1.25-0.97,3.18-1l4.62-0.06v13.19c0,2.99,0,5.46-0.16,6.76
			c-0.13,0.9-0.28,1.59-0.9,1.71c-0.28,0.06-0.65,0.13-0.94,0.13c-0.19,0-0.25,0.09-0.25,0.19c0,0.19,0.16,0.25,0.5,0.25
			c0.94,0,2.9-0.09,3.05-0.09c0.16,0,2.12,0.09,3.83,0.09c0.34,0,0.5-0.09,0.5-0.25c0-0.09-0.06-0.19-0.25-0.19
			c-0.28,0-0.97-0.06-1.4-0.13c-0.93-0.13-1.12-0.81-1.21-1.71c-0.16-1.31-0.16-3.77-0.16-6.76V18.6L311.58,18.6z M340.07,35.44
			c0,0.5,0,1.81-0.09,3.12c-0.06,0.9-0.34,1.59-0.97,1.71c-0.28,0.06-0.65,0.13-0.94,0.13c-0.19,0-0.25,0.09-0.25,0.19
			c0,0.19,0.16,0.25,0.5,0.25c0.94,0,2.9-0.09,3.05-0.09s2.12,0.09,3.83,0.09c0.34,0,0.5-0.09,0.5-0.25c0-0.09-0.06-0.19-0.25-0.19
			c-0.28,0-0.97-0.06-1.4-0.13c-0.94-0.13-1.22-0.81-1.28-1.71c-0.09-1.31-0.09-2.62-0.09-3.12v-2.68c0-1.03,0-2,0.47-3.12
			c0.56-1.34,4.92-8.66,5.95-9.91c0.68-0.84,1.03-1.22,1.65-1.59c0.5-0.31,1.09-0.44,1.43-0.44c0.25,0,0.41-0.09,0.41-0.25
			c0-0.13-0.19-0.19-0.41-0.19c-0.59,0-2.84,0.09-3.02,0.09c-0.25,0-1.25-0.09-2.06-0.09c-0.31,0-0.5,0.06-0.5,0.19
			c0,0.16,0.19,0.22,0.47,0.31c0.38,0.09,0.5,0.44,0.5,0.87c0,0.41-0.13,0.94-0.53,1.59c-0.62,1.03-4.58,7.85-5.17,9.16
			c-0.56-0.9-5.24-8.95-5.73-9.85c-0.25-0.47-0.41-0.84-0.41-1.22c0-0.25,0.16-0.44,0.41-0.56c0.28-0.13,0.47-0.16,0.47-0.28
			c0-0.13-0.06-0.22-0.41-0.22c-1.22,0-2.4,0.09-2.62,0.09c-0.16,0-2.49-0.09-3.08-0.09c-0.28,0-0.41,0.09-0.41,0.22
			c0,0.16,0.16,0.22,0.31,0.22c0.28,0,0.87,0.19,1.34,0.5c0.56,0.38,1.34,1.16,2.12,2.3c1.09,1.62,5.27,8.47,5.49,8.98
			c0.41,0.9,0.72,1.59,0.72,3.27V35.44L340.07,35.44z"/>
	</g>
	<polygon class="st0" points="99.17,8.28 368.6,8.28 368.6,9.15 99.17,9.15 	"/>
	<polygon class="st0" points="99.17,48.78 163.4,48.78 163.4,49.65 99.17,49.65 	"/>
	<g>
		<g>
			<path class="st1" d="M170.54,48.05c0-2.07,0-2.45-0.02-2.87c-0.02-0.45-0.13-0.67-0.57-0.76c-0.11-0.02-0.33-0.04-0.45-0.04
				c-0.05,0-0.11-0.02-0.11-0.08c0-0.08,0.07-0.11,0.21-0.11c0.31,0,0.67,0,0.96,0.01l0.54,0.02c0.27,0.01,2.97,0,3.27-0.01
				c0.25-0.01,0.47-0.01,0.59-0.05c0.08-0.02,0.13-0.08,0.19-0.08c0.05,0,0.08,0.05,0.08,0.12c0,0.09-0.07,0.25-0.11,0.62
				c-0.01,0.13-0.04,0.72-0.07,0.88c-0.01,0.07-0.04,0.15-0.11,0.15s-0.09-0.07-0.09-0.16c0-0.11-0.04-0.33-0.12-0.51
				c-0.08-0.18-0.39-0.41-0.91-0.42l-2.05-0.04c-0.08,0-0.12,0.04-0.12,0.15v3.67c0,0.08,0.01,0.12,0.09,0.12l1.71-0.01
				c0.22,0,0.41,0,0.6-0.01c0.32-0.02,0.49-0.07,0.61-0.24c0.05-0.07,0.09-0.13,0.15-0.13s0.07,0.04,0.07,0.11
				c0,0.08-0.07,0.31-0.11,0.74c-0.02,0.27-0.05,0.8-0.05,0.89c0,0.12,0,0.25-0.09,0.25c-0.07,0-0.09-0.05-0.09-0.12
				c-0.01-0.13-0.02-0.32-0.08-0.48c-0.07-0.19-0.28-0.42-0.69-0.48c-0.33-0.04-1.78-0.04-2.01-0.04c-0.07,0-0.09,0.02-0.09,0.12
				v1.13c0,1.28,0,2.33,0.07,2.89c0.04,0.39,0.12,0.68,0.52,0.73c0.19,0.02,0.48,0.05,0.6,0.05c0.08,0,0.11,0.04,0.11,0.08
				c0,0.07-0.07,0.11-0.21,0.11c-0.73,0-1.57-0.04-1.64-0.04s-0.91,0.04-1.31,0.04c-0.15,0-0.21-0.02-0.21-0.11
				c0-0.04,0.02-0.08,0.11-0.08c0.12,0,0.28-0.02,0.4-0.05c0.27-0.05,0.33-0.34,0.39-0.73c0.07-0.56,0.07-1.61,0.07-2.89
				L170.54,48.05L170.54,48.05z"/>
			<path class="st1" d="M185.83,44c2.99,0,5.23,1.89,5.23,4.99c0,2.98-2.11,5.44-5.31,5.44c-3.65,0-5.17-2.84-5.17-5.23
				C180.58,47.05,182.16,44,185.83,44z M186.11,53.93c1.2,0,3.67-0.69,3.67-4.57c0-3.19-1.94-4.91-4.05-4.91
				c-2.22,0-3.88,1.46-3.88,4.38C181.85,51.93,183.72,53.93,186.11,53.93z"/>
		</g>
		<g>
			<path class="st1" d="M197.56,48.05c0-2.07,0-2.45-0.02-2.87c-0.02-0.45-0.13-0.67-0.57-0.76c-0.11-0.02-0.33-0.04-0.45-0.04
				c-0.05,0-0.11-0.02-0.11-0.08c0-0.08,0.07-0.11,0.21-0.11c0.6,0,1.44,0.04,1.51,0.04c0.15,0,1.16-0.04,1.57-0.04
				c0.84,0,1.73,0.08,2.44,0.59c0.33,0.24,0.92,0.89,0.92,1.81c0,0.99-0.41,1.97-1.61,3.07c1.09,1.4,2,2.58,2.77,3.41
				c0.72,0.76,1.29,0.91,1.62,0.96c0.25,0.04,0.44,0.04,0.52,0.04c0.07,0,0.12,0.04,0.12,0.08c0,0.08-0.08,0.11-0.32,0.11h-0.94
				c-0.74,0-1.08-0.07-1.42-0.25c-0.57-0.31-1.04-0.96-1.8-1.96c-0.56-0.73-1.19-1.62-1.45-1.97c-0.05-0.05-0.09-0.08-0.18-0.08
				l-1.64-0.02c-0.07,0-0.09,0.04-0.09,0.11v0.32c0,1.28,0,2.33,0.07,2.89c0.04,0.39,0.12,0.68,0.52,0.73
				c0.19,0.02,0.48,0.05,0.6,0.05c0.08,0,0.11,0.04,0.11,0.08c0,0.07-0.07,0.11-0.21,0.11c-0.73,0-1.57-0.04-1.64-0.04
				c-0.01,0-0.85,0.04-1.25,0.04c-0.15,0-0.21-0.02-0.21-0.11c0-0.04,0.02-0.08,0.11-0.08c0.12,0,0.28-0.02,0.4-0.05
				c0.27-0.05,0.33-0.34,0.39-0.73c0.07-0.56,0.07-1.61,0.07-2.89v-2.34L197.56,48.05L197.56,48.05z M198.62,49.2
				c0,0.07,0.02,0.12,0.09,0.16c0.2,0.12,0.81,0.21,1.4,0.21c0.32,0,0.69-0.04,1-0.25c0.47-0.32,0.81-1.04,0.81-2.05
				c0-1.66-0.88-2.66-2.3-2.66c-0.4,0-0.76,0.04-0.89,0.08c-0.07,0.02-0.11,0.08-0.11,0.16L198.62,49.2L198.62,49.2L198.62,49.2z"/>
			<path class="st1" d="M219.49,52.41h0.05c0.36-1.22,1.58-5.09,2.05-6.79c0.13-0.49,0.15-0.68,0.15-0.85c0-0.24-0.15-0.4-0.76-0.4
				c-0.07,0-0.12-0.04-0.12-0.09c0-0.07,0.07-0.09,0.22-0.09c0.68,0,1.24,0.04,1.35,0.04c0.09,0,0.67-0.04,1.08-0.04
				c0.12,0,0.19,0.02,0.19,0.08c0,0.07-0.04,0.11-0.12,0.11c-0.05,0-0.31,0.01-0.45,0.07c-0.4,0.15-0.61,0.71-0.86,1.44
				c-0.59,1.69-1.93,5.92-2.45,7.42c-0.34,0.99-0.41,1.14-0.56,1.14c-0.13,0-0.21-0.18-0.4-0.69l-2.61-7.4h-0.02
				c-0.48,1.28-2.3,6.15-2.78,7.39c-0.21,0.56-0.28,0.71-0.44,0.71c-0.13,0-0.2-0.15-0.47-1.05l-2.37-7.89
				c-0.21-0.71-0.39-0.91-0.73-1.04c-0.18-0.07-0.51-0.08-0.6-0.08c-0.07,0-0.12-0.01-0.12-0.09c0-0.07,0.08-0.09,0.21-0.09
				c0.69,0,1.42,0.04,1.57,0.04c0.12,0,0.71-0.04,1.37-0.04c0.19,0,0.24,0.04,0.24,0.09c0,0.08-0.07,0.09-0.13,0.09
				c-0.11,0-0.36,0-0.52,0.08c-0.08,0.04-0.18,0.15-0.18,0.32c0,0.18,0.12,0.64,0.25,1.22c0.2,0.85,1.58,5.73,1.78,6.44h0.02
				l2.82-7.59c0.2-0.54,0.25-0.61,0.33-0.61c0.09,0,0.18,0.18,0.33,0.62L219.49,52.41z"/>
		</g>
		<g>
			<path class="st1" d="M230.74,44.52c0.16-0.44,0.21-0.52,0.29-0.52s0.13,0.07,0.29,0.48c0.2,0.51,2.29,6,3.1,8.03
				c0.48,1.19,0.86,1.4,1.14,1.48c0.2,0.07,0.4,0.08,0.53,0.08c0.08,0,0.13,0.01,0.13,0.08c0,0.08-0.12,0.11-0.27,0.11
				c-0.2,0-1.17,0-2.09-0.02c-0.25-0.01-0.4-0.01-0.4-0.09c0-0.05,0.04-0.08,0.09-0.09c0.08-0.02,0.16-0.15,0.08-0.36l-1.24-3.27
				c-0.02-0.05-0.05-0.08-0.12-0.08h-2.86c-0.07,0-0.11,0.04-0.13,0.11l-0.8,2.35c-0.12,0.33-0.19,0.65-0.19,0.89
				c0,0.27,0.28,0.39,0.51,0.39h0.13c0.09,0,0.13,0.02,0.13,0.08c0,0.08-0.08,0.11-0.2,0.11c-0.32,0-0.89-0.04-1.04-0.04
				c-0.15,0-0.88,0.04-1.51,0.04c-0.18,0-0.25-0.02-0.25-0.11c0-0.05,0.05-0.08,0.12-0.08c0.09,0,0.28-0.01,0.39-0.02
				c0.61-0.08,0.88-0.59,1.12-1.25L230.74,44.52z M232.12,49.85c0.07,0,0.07-0.04,0.05-0.09l-1.26-3.59c-0.07-0.2-0.13-0.2-0.2,0
				l-1.17,3.59c-0.02,0.07,0,0.09,0.04,0.09H232.12z"/>
			<path class="st1" d="M241.82,48.05c0-2.07,0-2.45-0.02-2.87c-0.02-0.45-0.13-0.67-0.57-0.76c-0.11-0.02-0.33-0.04-0.45-0.04
				c-0.05,0-0.11-0.02-0.11-0.08c0-0.08,0.07-0.11,0.21-0.11c0.6,0,1.44,0.04,1.51,0.04c0.15,0,1.16-0.04,1.57-0.04
				c0.84,0,1.73,0.08,2.44,0.59c0.33,0.24,0.92,0.89,0.92,1.81c0,0.99-0.41,1.97-1.61,3.07c1.09,1.4,2,2.58,2.77,3.41
				c0.72,0.76,1.29,0.91,1.62,0.96c0.25,0.04,0.44,0.04,0.52,0.04c0.07,0,0.12,0.04,0.12,0.08c0,0.08-0.08,0.11-0.32,0.11h-0.94
				c-0.74,0-1.08-0.07-1.42-0.25c-0.57-0.31-1.04-0.96-1.8-1.96c-0.56-0.73-1.19-1.62-1.45-1.97c-0.05-0.05-0.09-0.08-0.18-0.08
				l-1.64-0.02c-0.07,0-0.09,0.04-0.09,0.11v0.32c0,1.28,0,2.33,0.07,2.89c0.04,0.39,0.12,0.68,0.52,0.73
				c0.19,0.02,0.48,0.05,0.6,0.05c0.08,0,0.11,0.04,0.11,0.08c0,0.07-0.07,0.11-0.21,0.11c-0.73,0-1.57-0.04-1.64-0.04
				c-0.01,0-0.85,0.04-1.25,0.04c-0.15,0-0.21-0.02-0.21-0.11c0-0.04,0.02-0.08,0.11-0.08c0.12,0,0.28-0.02,0.4-0.05
				c0.27-0.05,0.33-0.34,0.39-0.73c0.07-0.56,0.07-1.61,0.07-2.89v-2.34L241.82,48.05L241.82,48.05z M242.89,49.2
				c0,0.07,0.02,0.12,0.09,0.16c0.2,0.12,0.81,0.21,1.4,0.21c0.32,0,0.69-0.04,1-0.25c0.47-0.32,0.81-1.04,0.81-2.05
				c0-1.66-0.88-2.66-2.3-2.66c-0.4,0-0.76,0.04-0.89,0.08c-0.07,0.02-0.11,0.08-0.11,0.16L242.89,49.2L242.89,49.2L242.89,49.2z"/>
			<path class="st1" d="M255.54,48.05c0-2.07,0-2.45-0.02-2.87c-0.02-0.45-0.13-0.67-0.57-0.76c-0.11-0.02-0.33-0.04-0.45-0.04
				c-0.05,0-0.11-0.02-0.11-0.08c0-0.08,0.07-0.11,0.21-0.11c0.6,0,1.44,0.04,1.51,0.04c0.16,0,1-0.04,1.8-0.04
				c1.32,0,3.75-0.12,5.34,1.52c0.67,0.69,1.29,1.8,1.29,3.38c0,1.68-0.69,2.97-1.44,3.76c-0.57,0.6-1.77,1.53-4.03,1.53
				c-0.57,0-1.28-0.04-1.85-0.08c-0.59-0.04-1.04-0.08-1.11-0.08c-0.02,0-0.25,0-0.53,0.01c-0.27,0-0.57,0.02-0.77,0.02
				c-0.15,0-0.21-0.02-0.21-0.11c0-0.04,0.02-0.08,0.11-0.08c0.12,0,0.28-0.02,0.4-0.05c0.27-0.05,0.33-0.34,0.39-0.73
				c0.07-0.56,0.07-1.61,0.07-2.89v-2.35L255.54,48.05L255.54,48.05z M256.66,49.48c0,1.41,0.01,2.64,0.02,2.89
				c0.01,0.33,0.04,0.86,0.15,1.01c0.18,0.25,0.69,0.53,2.26,0.53c1.24,0,2.38-0.45,3.17-1.24c0.69-0.68,1.06-1.95,1.06-3.18
				c0-1.69-0.73-2.78-1.28-3.35c-1.25-1.32-2.77-1.51-4.35-1.51c-0.27,0-0.76,0.04-0.86,0.09c-0.12,0.05-0.16,0.12-0.16,0.27
				c-0.01,0.45-0.01,1.81-0.01,2.84L256.66,49.48L256.66,49.48z"/>
			<path class="st1" d="M271.43,48.05c0-2.07,0-2.45-0.02-2.87c-0.02-0.45-0.13-0.67-0.57-0.76c-0.11-0.02-0.33-0.04-0.45-0.04
				c-0.05,0-0.11-0.02-0.11-0.08c0-0.08,0.07-0.11,0.21-0.11c0.31,0,0.67,0,0.96,0.01l0.54,0.02c0.09,0,2.74,0,3.05-0.01
				c0.25-0.01,0.47-0.04,0.57-0.07c0.07-0.01,0.12-0.07,0.19-0.07c0.04,0,0.05,0.05,0.05,0.12c0,0.09-0.07,0.25-0.11,0.62
				c-0.01,0.13-0.04,0.72-0.07,0.88c-0.01,0.07-0.04,0.15-0.09,0.15c-0.08,0-0.11-0.07-0.11-0.18c0-0.09-0.01-0.32-0.08-0.48
				c-0.09-0.21-0.22-0.38-0.94-0.45c-0.22-0.02-1.68-0.04-1.82-0.04c-0.05,0-0.08,0.04-0.08,0.13v3.67c0,0.09,0.01,0.13,0.08,0.13
				c0.18,0,1.81,0,2.12-0.02c0.32-0.02,0.51-0.05,0.62-0.19c0.09-0.11,0.15-0.18,0.2-0.18c0.04,0,0.07,0.02,0.07,0.11
				c0,0.08-0.07,0.31-0.11,0.74c-0.02,0.27-0.05,0.76-0.05,0.85c0,0.11,0,0.25-0.09,0.25c-0.07,0-0.09-0.05-0.09-0.12
				c0-0.13,0-0.27-0.05-0.44c-0.05-0.19-0.18-0.41-0.69-0.47c-0.36-0.04-1.68-0.07-1.91-0.07c-0.07,0-0.09,0.04-0.09,0.09v1.17
				c0,0.45-0.01,2,0,2.27c0.04,0.92,0.24,1.09,1.54,1.09c0.34,0,0.93,0,1.28-0.15c0.34-0.15,0.51-0.41,0.6-0.96
				c0.02-0.15,0.05-0.2,0.12-0.2c0.08,0,0.08,0.11,0.08,0.2c0,0.11-0.11,1.01-0.18,1.29c-0.09,0.34-0.2,0.34-0.72,0.34
				c-1,0-1.73-0.02-2.25-0.04c-0.52-0.02-0.84-0.04-1.04-0.04c-0.02,0-0.25,0-0.53,0.01c-0.27,0-0.57,0.02-0.77,0.02
				c-0.15,0-0.21-0.02-0.21-0.11c0-0.04,0.02-0.08,0.11-0.08c0.12,0,0.28-0.02,0.4-0.05c0.27-0.05,0.33-0.34,0.39-0.73
				c0.07-0.56,0.07-1.61,0.07-2.89L271.43,48.05L271.43,48.05L271.43,48.05z"/>
			<path class="st1" d="M283.23,48.05c0-2.07,0-2.45-0.02-2.87c-0.02-0.45-0.13-0.67-0.57-0.76c-0.11-0.02-0.33-0.04-0.45-0.04
				c-0.05,0-0.11-0.02-0.11-0.08c0-0.08,0.07-0.11,0.21-0.11c0.6,0,1.44,0.04,1.51,0.04c0.15,0,1.16-0.04,1.57-0.04
				c0.84,0,1.73,0.08,2.44,0.59c0.33,0.24,0.92,0.89,0.92,1.81c0,0.99-0.41,1.97-1.61,3.07c1.09,1.4,2,2.58,2.77,3.41
				c0.72,0.76,1.29,0.91,1.62,0.96c0.25,0.04,0.44,0.04,0.52,0.04c0.07,0,0.12,0.04,0.12,0.08c0,0.08-0.08,0.11-0.32,0.11h-0.94
				c-0.74,0-1.08-0.07-1.42-0.25c-0.57-0.31-1.04-0.96-1.8-1.96c-0.56-0.73-1.19-1.62-1.45-1.97c-0.05-0.05-0.09-0.08-0.18-0.08
				l-1.64-0.02c-0.07,0-0.09,0.04-0.09,0.11v0.32c0,1.28,0,2.33,0.07,2.89c0.04,0.39,0.12,0.68,0.52,0.73
				c0.19,0.02,0.48,0.05,0.6,0.05c0.08,0,0.11,0.04,0.11,0.08c0,0.07-0.07,0.11-0.21,0.11c-0.73,0-1.57-0.04-1.64-0.04
				c-0.01,0-0.85,0.04-1.25,0.04c-0.15,0-0.21-0.02-0.21-0.11c0-0.04,0.02-0.08,0.11-0.08c0.12,0,0.28-0.02,0.4-0.05
				c0.27-0.05,0.33-0.34,0.39-0.73c0.07-0.56,0.07-1.61,0.07-2.89v-2.34L283.23,48.05L283.23,48.05z M284.3,49.2
				c0,0.07,0.02,0.12,0.09,0.16c0.2,0.12,0.81,0.21,1.4,0.21c0.32,0,0.69-0.04,1-0.25c0.47-0.32,0.81-1.04,0.81-2.05
				c0-1.66-0.88-2.66-2.3-2.66c-0.4,0-0.76,0.04-0.89,0.08c-0.07,0.02-0.11,0.08-0.11,0.16L284.3,49.2L284.3,49.2L284.3,49.2z"/>
		</g>
		<g>
			<path class="st1" d="M295.81,54.07c-0.19-0.09-0.2-0.15-0.2-0.51c0-0.67,0.05-1.2,0.07-1.41c0.01-0.15,0.04-0.21,0.11-0.21
				c0.08,0,0.09,0.04,0.09,0.15c0,0.12,0,0.31,0.04,0.49c0.2,0.99,1.08,1.35,1.97,1.35c1.28,0,1.91-0.92,1.91-1.77
				c0-0.92-0.39-1.45-1.53-2.4l-0.6-0.49c-1.41-1.16-1.73-1.98-1.73-2.89c0-1.42,1.06-2.4,2.75-2.4c0.52,0,0.91,0.05,1.24,0.13
				c0.25,0.05,0.36,0.07,0.47,0.07s0.13,0.02,0.13,0.09s-0.05,0.51-0.05,1.41c0,0.21-0.02,0.31-0.09,0.31
				c-0.08,0-0.09-0.07-0.11-0.18c-0.01-0.16-0.09-0.52-0.18-0.67c-0.08-0.15-0.44-0.71-1.66-0.71c-0.92,0-1.64,0.57-1.64,1.54
				c0,0.76,0.34,1.24,1.62,2.24l0.38,0.29c1.57,1.24,1.94,2.06,1.94,3.13c0,0.54-0.21,1.55-1.13,2.21c-0.57,0.4-1.29,0.56-2.01,0.56
				C296.98,54.44,296.36,54.34,295.81,54.07z"/>
		</g>
	</g>
</g>
<g>
	<path class="st2" d="M31.26,51.21L7.64,51.3L7.77,8.13c8.12-1.52,17.91,1.15,22.4,7.15l18.48,29.79c5.83,5.78,13.36,7.12,21.73,6.2
		V7.84l-18.03-0.1"/>
	<g>
		<path class="st1" d="M6.47,6.74c21.23-2.16,24.47,7.42,32.39,20.45l10.23,16.32c5.16,6.13,9.57,6.74,19.97,6.75L69.05,9.09
			c-5.63,0-11.27,0-16.91-0.01v6.39h10.72v28.42c-1.14,0.01-2.83-0.11-4.65-0.88c-3.95-1.67-5.81-5.24-7.38-8.16
			c0,0-0.89-1.63-8.18-13.86C36.41,10.52,32.82,7.1,28.85,4.53c-1.41-0.91-3.81-2.43-7.28-3.3c-2.51-0.63-4.82-0.72-7.51-0.82
			c-2.09-0.08-3.83-0.05-5.04,0.01C6.11,0.41,3.21,0.4,0.31,0.39C0.29,19.91,0.28,39.42,0.27,58.93h27.89
			c2.26-2.86,2.22-3.8,3.26-6.27L6.47,52.6L6.47,6.74z"/>
		<path class="st1" d="M52.13,0.39c0,2.02,0,4.05,0,6.07l19.43,0.04v45.67c-8.29,1.92-16.56-0.7-21.52-4.45
			c-3.72-2.81-7.71-10.68-10.87-15.67c-1.76-2.78-3.15-5.18-4.94-8.05c-1.58-2.52-3.59-6.4-5.2-8.39
			C24.72,10.3,17.91,8.35,8.95,9.08L8.83,49.99c8.11-0.04,16.21-0.09,24.31-0.13c1.25-2.28,2.03-4.32,2.52-5.8
			c-6.88,0-13.75,0-20.63,0V15.29c0.98,0.04,2.41,0.2,3.98,0.81c4.32,1.67,6.47,5.44,8.48,8.89c4.14,7.14,7.47,12.64,7.94,13.41
			c4.16,6.85,7.32,12.06,12.82,15.75c2.71,1.82,8.6,5.03,18.34,4.76l11.17-0.11V0.39H52.13z"/>
		<line class="st3" x1="51.82" y1="9.09" x2="51.82" y2="9.09"/>
	</g>
</g>
</svg>
