<?xml version="1.0" encoding="utf-8"?>
<!-- Generator: Adobe Illustrator 26.0.1, SVG Export Plug-In . SVG Version: 6.00 Build 0)  -->
<svg version="1.1" id="Layer_1" xmlns="http://www.w3.org/2000/svg" xmlns:xlink="http://www.w3.org/1999/xlink" x="0px" y="0px"
	 viewBox="0 0 377.5 59.3" style="enable-background:new 0 0 377.5 59.3;" xml:space="preserve">
<style type="text/css">
	.st0{fill-rule:evenodd;clip-rule:evenodd;fill:#FFFFFF;}
	.st1{fill:#FFFFFF;}
	.st2{fill:#FBB810;}
	.st3{fill:none;stroke:#FBB810;stroke-width:0.8375;stroke-miterlimit:2.6131;stroke-dasharray:4.1876,2.5126;}
	.st4{fill:none;}
</style>
<g>
	<polygon class="st0" points="304.3,48.8 368.6,48.8 368.6,49.7 304.3,49.7 	"/>
	<g>
		<path class="st1" d="M117.9,31.8c0,3,0,5.5-0.2,6.8c-0.1,0.9-0.3,1.6-0.9,1.7c-0.3,0.1-0.7,0.1-0.9,0.1c-0.2,0-0.2,0.1-0.2,0.2
			c0,0.2,0.2,0.2,0.5,0.2c0.5,0,1.2-0.1,1.8-0.1c0.7,0,1.2,0,1.2,0c0.5,0,1.2,0,2.4,0.1c1.2,0,2.9,0.1,5.3,0.1c1.2,0,1.5,0,1.7-0.8
			c0.2-0.7,0.4-2.8,0.4-3c0-0.2,0-0.5-0.2-0.5c-0.2,0-0.2,0.1-0.3,0.5c-0.2,1.3-0.6,1.9-1.4,2.2c-0.8,0.3-2.2,0.3-3,0.3
			c-3.1,0-3.5-0.4-3.6-2.6c0-0.7,0-4.3,0-5.3V29c0-0.1,0.1-0.2,0.2-0.2c0.5,0,3.6,0.1,4.5,0.2c1.2,0.1,1.5,0.6,1.6,1.1
			c0.1,0.4,0.1,0.7,0.1,1c0,0.2,0.1,0.3,0.2,0.3c0.2,0,0.2-0.3,0.2-0.6c0-0.2,0.1-1.4,0.1-2c0.1-1,0.2-1.6,0.2-1.8s-0.1-0.2-0.2-0.2
			c-0.1,0-0.2,0.2-0.5,0.4c-0.3,0.3-0.7,0.4-1.5,0.4c-0.7,0.1-4.6,0.1-4.9,0.1c-0.2,0-0.2-0.1-0.2-0.3v-8.6c0-0.2,0.1-0.3,0.2-0.3
			c0.3,0,3.7,0,4.3,0.1c1.7,0.2,2,0.6,2.2,1.1c0.2,0.4,0.2,0.9,0.2,1.1c0,0.2,0.1,0.4,0.2,0.4c0.1,0,0.2-0.2,0.2-0.3
			c0.1-0.4,0.1-1.8,0.2-2.1c0.1-0.9,0.2-1.2,0.2-1.5c0-0.2,0-0.3-0.1-0.3c-0.2,0-0.3,0.1-0.4,0.2c-0.2,0.1-0.8,0.1-1.3,0.2
			c-0.7,0-6.9,0-7.1,0l-1.3-0.1c-0.7,0-1.5,0-2.2,0c-0.3,0-0.5,0.1-0.5,0.2c0,0.1,0.1,0.2,0.2,0.2c0.3,0,0.8,0,1.1,0.1
			c1,0.2,1.3,0.7,1.3,1.8c0.1,1,0.1,1.9,0.1,6.7L117.9,31.8L117.9,31.8z M153.7,18.6l3.9,0.1c3,0.1,3.7,0.8,3.8,1.7l0,0.3
			c0,0.4,0.1,0.5,0.2,0.5c0.1,0,0.2-0.1,0.2-0.4c0-0.3,0.1-2.5,0.1-3.4c0-0.2,0-0.4-0.2-0.4c-0.1,0-0.4,0.1-0.9,0.2
			c-0.5,0.1-1.2,0.2-2.2,0.2h-11.7c-0.4,0-1.6-0.1-2.5-0.2c-0.8-0.1-1.2-0.4-1.4-0.4c-0.1,0-0.2,0.4-0.3,0.6
			c-0.1,0.2-0.7,2.9-0.7,3.2c0,0.2,0.1,0.3,0.2,0.3c0.1,0,0.2-0.1,0.3-0.3c0.1-0.2,0.2-0.4,0.5-1c0.5-0.8,1.2-1,3.2-1l4.6-0.1v13.2
			c0,3,0,5.5-0.2,6.8c-0.1,0.9-0.3,1.6-0.9,1.7c-0.3,0.1-0.6,0.1-0.9,0.1c-0.2,0-0.2,0.1-0.2,0.2c0,0.2,0.2,0.2,0.5,0.2
			c0.9,0,2.9-0.1,3.1-0.1s2.1,0.1,3.8,0.1c0.3,0,0.5-0.1,0.5-0.2c0-0.1-0.1-0.2-0.2-0.2c-0.3,0-1-0.1-1.4-0.1
			c-0.9-0.1-1.1-0.8-1.2-1.7c-0.2-1.3-0.2-3.8-0.2-6.8L153.7,18.6L153.7,18.6z M178.7,31.8c0,3,0,5.5-0.2,6.8
			c-0.1,0.9-0.3,1.6-0.9,1.7c-0.3,0.1-0.6,0.1-0.9,0.1c-0.2,0-0.2,0.1-0.2,0.2c0,0.2,0.2,0.2,0.5,0.2c0.5,0,1.2-0.1,1.8-0.1
			c0.6,0,1.2,0,1.2,0c0.5,0,1.2,0,2.4,0.1c1.2,0,2.9,0.1,5.3,0.1c1.2,0,1.5,0,1.7-0.8c0.2-0.7,0.4-2.8,0.4-3c0-0.2,0-0.5-0.2-0.5
			c-0.2,0-0.2,0.1-0.3,0.5c-0.2,1.3-0.6,1.9-1.4,2.2s-2.2,0.3-3,0.3c-3.1,0-3.5-0.4-3.6-2.6c0-0.7,0-4.3,0-5.3V29
			c0-0.1,0.1-0.2,0.2-0.2c0.5,0,3.6,0.1,4.5,0.2c1.2,0.1,1.5,0.6,1.6,1.1c0.1,0.4,0.1,0.7,0.1,1c0,0.2,0.1,0.3,0.2,0.3
			c0.2,0,0.2-0.3,0.2-0.6c0-0.2,0.1-1.4,0.1-2c0.1-1,0.2-1.6,0.2-1.8s-0.1-0.2-0.2-0.2c-0.1,0-0.2,0.2-0.5,0.4
			c-0.3,0.3-0.7,0.4-1.5,0.4c-0.7,0.1-4.6,0.1-4.9,0.1c-0.2,0-0.2-0.1-0.2-0.3v-8.6c0-0.2,0.1-0.3,0.2-0.3c0.3,0,3.7,0,4.3,0.1
			c1.7,0.2,2,0.6,2.2,1.1c0.2,0.4,0.2,0.9,0.2,1.1c0,0.2,0.1,0.4,0.2,0.4c0.1,0,0.2-0.2,0.2-0.3c0.1-0.4,0.1-1.8,0.2-2.1
			c0.1-0.9,0.2-1.2,0.2-1.5c0-0.2,0-0.3-0.1-0.3c-0.2,0-0.3,0.1-0.4,0.2c-0.2,0.1-0.8,0.1-1.3,0.2c-0.7,0-6.9,0-7.1,0l-1.3-0.1
			c-0.7,0-1.5,0-2.2,0c-0.3,0-0.5,0.1-0.5,0.2c0,0.1,0.1,0.2,0.2,0.2c0.3,0,0.8,0,1.1,0.1c1,0.2,1.3,0.7,1.3,1.8
			c0.1,1,0.1,1.9,0.1,6.7L178.7,31.8L178.7,31.8z M207.8,31.8c0,3,0,5.5-0.2,6.8c-0.1,0.9-0.3,1.6-0.9,1.7c-0.3,0.1-0.6,0.1-0.9,0.1
			c-0.2,0-0.2,0.1-0.2,0.2c0,0.2,0.2,0.2,0.5,0.2c0.9,0,2.9-0.1,2.9-0.1c0.2,0,2.1,0.1,3.8,0.1c0.3,0,0.5-0.1,0.5-0.2
			c0-0.1-0.1-0.2-0.2-0.2c-0.3,0-1-0.1-1.4-0.1c-0.9-0.1-1.1-0.8-1.2-1.7c-0.2-1.3-0.2-3.8-0.2-6.8V31c0-0.2,0.1-0.2,0.2-0.2
			l3.8,0.1c0.2,0,0.3,0.1,0.4,0.2c0.6,0.8,2.1,2.9,3.4,4.6c1.8,2.3,2.9,3.9,4.2,4.6c0.8,0.4,1.6,0.6,3.3,0.6h2.2
			c0.6,0,0.8-0.1,0.8-0.2c0-0.1-0.1-0.2-0.3-0.2c-0.2,0-0.6,0-1.2-0.1c-0.8-0.1-2.1-0.5-3.8-2.2c-1.8-1.9-3.9-4.7-6.5-8
			c2.8-2.6,3.8-4.9,3.8-7.2c0-2.1-1.4-3.7-2.1-4.2c-1.6-1.2-3.7-1.4-5.7-1.4c-1,0-3.3,0.1-3.7,0.1c-0.2,0-2.1-0.1-3.5-0.1
			c-0.3,0-0.5,0.1-0.5,0.2c0,0.1,0.1,0.2,0.2,0.2c0.3,0,0.8,0,1.1,0.1c1,0.2,1.3,0.7,1.3,1.8c0.1,1,0.1,1.9,0.1,6.7L207.8,31.8
			L207.8,31.8L207.8,31.8z M210.3,18.8c0-0.2,0.1-0.3,0.2-0.4c0.3-0.1,1.2-0.2,2.1-0.2c3.3,0,5.4,2.3,5.4,6.2c0,2.4-0.8,4.1-1.9,4.8
			c-0.7,0.5-1.6,0.6-2.3,0.6c-1.4,0-2.8-0.2-3.3-0.5c-0.2-0.1-0.2-0.2-0.2-0.4L210.3,18.8L210.3,18.8z M241.9,21.7
			c1,1.1,4.5,5,8.1,9c3.3,3.5,7.8,8.1,8.1,8.4c1.6,1.7,2,2,2.3,2c0.2,0,0.3-0.2,0.3-2.2l0.1-18.3c0-1.9,0.1-2.6,1.2-2.8
			c0.4-0.1,0.6-0.1,0.8-0.1c0.2,0,0.3-0.1,0.3-0.2c0-0.2-0.2-0.2-0.6-0.2c-1.3,0-2.3,0.1-2.7,0.1c-0.3,0-1.8-0.1-3.2-0.1
			c-0.4,0-0.6,0-0.6,0.2c0,0.1,0,0.2,0.2,0.2c0.2,0,1,0,1.5,0.2c1,0.2,1.2,0.9,1.2,3l0.3,15.8c-1-1-4.4-4.8-7.5-8.1
			c-4.8-5.1-9.4-10.2-9.9-10.7c-0.3-0.3-0.9-1-1.1-1s-0.3,0.3-0.3,1.6l0,17.9c0,2.8-0.2,3.7-0.9,4c-0.5,0.2-1,0.2-1.3,0.2
			c-0.2,0-0.2,0.1-0.2,0.2c0,0.2,0.2,0.2,0.5,0.2c1.4,0,2.7-0.1,3-0.1s1.5,0.1,3.3,0.1c0.4,0,0.6-0.1,0.6-0.2c0-0.1-0.1-0.2-0.2-0.2
			c-0.3,0-1,0-1.6-0.2c-0.8-0.2-1.2-1.1-1.2-3.6L241.9,21.7L241.9,21.7z M283.7,26.3c0-4.9,0-5.7,0.1-6.7c0.1-1.1,0.3-1.6,1.2-1.8
			c0.4-0.1,0.6-0.1,0.8-0.1c0.1,0,0.2-0.1,0.2-0.2c0-0.2-0.2-0.2-0.5-0.2c-0.9,0-2.9,0.1-3,0.1c-0.2,0-2.1-0.1-3.1-0.1
			c-0.3,0-0.5,0.1-0.5,0.2c0,0.1,0.1,0.2,0.2,0.2c0.2,0,0.6,0,1,0.1c0.7,0.2,1,0.7,1.1,1.8c0.1,1,0.1,1.9,0.1,6.7v5.5
			c0,3,0,5.5-0.2,6.8c-0.1,0.9-0.3,1.6-0.9,1.7c-0.3,0.1-0.6,0.1-0.9,0.1c-0.2,0-0.2,0.1-0.2,0.2c0,0.2,0.2,0.2,0.5,0.2
			c0.9,0,2.9-0.1,3-0.1c0.2,0,2.1,0.1,3.8,0.1c0.3,0,0.5-0.1,0.5-0.2c0-0.1-0.1-0.2-0.2-0.2c-0.3,0-1-0.1-1.4-0.1
			c-0.9-0.1-1.1-0.8-1.2-1.7c-0.2-1.3-0.2-3.8-0.2-6.8L283.7,26.3L283.7,26.3z M311.6,18.6l3.9,0.1c3,0.1,3.7,0.8,3.8,1.7l0,0.3
			c0,0.4,0.1,0.5,0.2,0.5c0.1,0,0.2-0.1,0.2-0.4c0-0.3,0.1-2.5,0.1-3.4c0-0.2,0-0.4-0.2-0.4c-0.1,0-0.4,0.1-0.9,0.2
			c-0.5,0.1-1.2,0.2-2.2,0.2H305c-0.4,0-1.6-0.1-2.5-0.2c-0.8-0.1-1.2-0.4-1.4-0.4c-0.1,0-0.2,0.4-0.3,0.6c-0.1,0.2-0.7,2.9-0.7,3.2
			c0,0.2,0.1,0.3,0.2,0.3c0.1,0,0.2-0.1,0.3-0.3c0.1-0.2,0.2-0.4,0.5-1c0.5-0.8,1.2-1,3.2-1l4.6-0.1v13.2c0,3,0,5.5-0.2,6.8
			c-0.1,0.9-0.3,1.6-0.9,1.7c-0.3,0.1-0.6,0.1-0.9,0.1c-0.2,0-0.2,0.1-0.2,0.2c0,0.2,0.2,0.2,0.5,0.2c0.9,0,2.9-0.1,3-0.1
			c0.2,0,2.1,0.1,3.8,0.1c0.3,0,0.5-0.1,0.5-0.2c0-0.1-0.1-0.2-0.2-0.2c-0.3,0-1-0.1-1.4-0.1c-0.9-0.1-1.1-0.8-1.2-1.7
			c-0.2-1.3-0.2-3.8-0.2-6.8L311.6,18.6L311.6,18.6z M340.1,35.4c0,0.5,0,1.8-0.1,3.1c-0.1,0.9-0.3,1.6-1,1.7
			c-0.3,0.1-0.6,0.1-0.9,0.1c-0.2,0-0.2,0.1-0.2,0.2c0,0.2,0.2,0.2,0.5,0.2c0.9,0,2.9-0.1,3-0.1s2.1,0.1,3.8,0.1
			c0.3,0,0.5-0.1,0.5-0.2c0-0.1-0.1-0.2-0.2-0.2c-0.3,0-1-0.1-1.4-0.1c-0.9-0.1-1.2-0.8-1.3-1.7c-0.1-1.3-0.1-2.6-0.1-3.1v-2.7
			c0-1,0-2,0.5-3.1c0.6-1.3,4.9-8.7,6-9.9c0.7-0.8,1-1.2,1.6-1.6c0.5-0.3,1.1-0.4,1.4-0.4c0.2,0,0.4-0.1,0.4-0.2
			c0-0.1-0.2-0.2-0.4-0.2c-0.6,0-2.8,0.1-3,0.1c-0.2,0-1.2-0.1-2.1-0.1c-0.3,0-0.5,0.1-0.5,0.2c0,0.2,0.2,0.2,0.5,0.3
			c0.4,0.1,0.5,0.4,0.5,0.9c0,0.4-0.1,0.9-0.5,1.6c-0.6,1-4.6,7.9-5.2,9.2c-0.6-0.9-5.2-8.9-5.7-9.9c-0.2-0.5-0.4-0.8-0.4-1.2
			c0-0.2,0.2-0.4,0.4-0.6c0.3-0.1,0.5-0.2,0.5-0.3c0-0.1-0.1-0.2-0.4-0.2c-1.2,0-2.4,0.1-2.6,0.1c-0.2,0-2.5-0.1-3.1-0.1
			c-0.3,0-0.4,0.1-0.4,0.2c0,0.2,0.2,0.2,0.3,0.2c0.3,0,0.9,0.2,1.3,0.5c0.6,0.4,1.3,1.2,2.1,2.3c1.1,1.6,5.3,8.5,5.5,9
			c0.4,0.9,0.7,1.6,0.7,3.3L340.1,35.4L340.1,35.4z"/>
	</g>
	<polygon class="st0" points="99.2,8.3 368.6,8.3 368.6,9.1 99.2,9.1 	"/>
	<polygon class="st0" points="99.2,48.8 163.4,48.8 163.4,49.7 99.2,49.7 	"/>
	<g>
		<g>
			<path class="st2" d="M170.5,48c0-2.1,0-2.5,0-2.9c0-0.5-0.1-0.7-0.6-0.8c-0.1,0-0.3,0-0.4,0c-0.1,0-0.1,0-0.1-0.1
				c0-0.1,0.1-0.1,0.2-0.1c0.3,0,0.7,0,1,0l0.5,0c0.3,0,3,0,3.3,0c0.2,0,0.5,0,0.6,0c0.1,0,0.1-0.1,0.2-0.1c0.1,0,0.1,0,0.1,0.1
				c0,0.1-0.1,0.2-0.1,0.6c0,0.1,0,0.7-0.1,0.9c0,0.1,0,0.2-0.1,0.2s-0.1-0.1-0.1-0.2c0-0.1,0-0.3-0.1-0.5c-0.1-0.2-0.4-0.4-0.9-0.4
				l-2.1,0c-0.1,0-0.1,0-0.1,0.2v3.7c0,0.1,0,0.1,0.1,0.1l1.7,0c0.2,0,0.4,0,0.6,0c0.3,0,0.5-0.1,0.6-0.2c0.1-0.1,0.1-0.1,0.1-0.1
				s0.1,0,0.1,0.1c0,0.1-0.1,0.3-0.1,0.7c0,0.3-0.1,0.8-0.1,0.9c0,0.1,0,0.2-0.1,0.2c-0.1,0-0.1,0-0.1-0.1c0-0.1,0-0.3-0.1-0.5
				c-0.1-0.2-0.3-0.4-0.7-0.5c-0.3,0-1.8,0-2,0c-0.1,0-0.1,0-0.1,0.1v1.1c0,1.3,0,2.3,0.1,2.9c0,0.4,0.1,0.7,0.5,0.7
				c0.2,0,0.5,0,0.6,0c0.1,0,0.1,0,0.1,0.1c0,0.1-0.1,0.1-0.2,0.1c-0.7,0-1.6,0-1.6,0s-0.9,0-1.3,0c-0.1,0-0.2,0-0.2-0.1
				c0,0,0-0.1,0.1-0.1c0.1,0,0.3,0,0.4,0c0.3,0,0.3-0.3,0.4-0.7c0.1-0.6,0.1-1.6,0.1-2.9L170.5,48L170.5,48z"/>
			<path class="st2" d="M185.8,44c3,0,5.2,1.9,5.2,5c0,3-2.1,5.4-5.3,5.4c-3.6,0-5.2-2.8-5.2-5.2C180.6,47,182.2,44,185.8,44z
				 M186.1,53.9c1.2,0,3.7-0.7,3.7-4.6c0-3.2-1.9-4.9-4.1-4.9c-2.2,0-3.9,1.5-3.9,4.4C181.9,51.9,183.7,53.9,186.1,53.9z"/>
		</g>
		<g>
			<path class="st2" d="M197.6,48c0-2.1,0-2.5,0-2.9c0-0.5-0.1-0.7-0.6-0.8c-0.1,0-0.3,0-0.4,0c-0.1,0-0.1,0-0.1-0.1
				c0-0.1,0.1-0.1,0.2-0.1c0.6,0,1.4,0,1.5,0c0.1,0,1.2,0,1.6,0c0.8,0,1.7,0.1,2.4,0.6c0.3,0.2,0.9,0.9,0.9,1.8c0,1-0.4,2-1.6,3.1
				c1.1,1.4,2,2.6,2.8,3.4c0.7,0.8,1.3,0.9,1.6,1c0.2,0,0.4,0,0.5,0c0.1,0,0.1,0,0.1,0.1c0,0.1-0.1,0.1-0.3,0.1h-0.9
				c-0.7,0-1.1-0.1-1.4-0.2c-0.6-0.3-1-1-1.8-2c-0.6-0.7-1.2-1.6-1.4-2c-0.1,0-0.1-0.1-0.2-0.1l-1.6,0c-0.1,0-0.1,0-0.1,0.1v0.3
				c0,1.3,0,2.3,0.1,2.9c0,0.4,0.1,0.7,0.5,0.7c0.2,0,0.5,0,0.6,0c0.1,0,0.1,0,0.1,0.1c0,0.1-0.1,0.1-0.2,0.1c-0.7,0-1.6,0-1.6,0
				c0,0-0.9,0-1.2,0c-0.1,0-0.2,0-0.2-0.1c0,0,0-0.1,0.1-0.1c0.1,0,0.3,0,0.4,0c0.3,0,0.3-0.3,0.4-0.7c0.1-0.6,0.1-1.6,0.1-2.9
				L197.6,48L197.6,48L197.6,48z M198.6,49.2c0,0.1,0,0.1,0.1,0.2c0.2,0.1,0.8,0.2,1.4,0.2c0.3,0,0.7,0,1-0.2c0.5-0.3,0.8-1,0.8-2
				c0-1.7-0.9-2.7-2.3-2.7c-0.4,0-0.8,0-0.9,0.1c-0.1,0-0.1,0.1-0.1,0.2L198.6,49.2L198.6,49.2L198.6,49.2z"/>
			<path class="st2" d="M219.5,52.4L219.5,52.4c0.4-1.2,1.6-5.1,2.1-6.8c0.1-0.5,0.1-0.7,0.1-0.8c0-0.2-0.1-0.4-0.8-0.4
				c-0.1,0-0.1,0-0.1-0.1c0-0.1,0.1-0.1,0.2-0.1c0.7,0,1.2,0,1.4,0c0.1,0,0.7,0,1.1,0c0.1,0,0.2,0,0.2,0.1c0,0.1,0,0.1-0.1,0.1
				c-0.1,0-0.3,0-0.4,0.1c-0.4,0.2-0.6,0.7-0.9,1.4c-0.6,1.7-1.9,5.9-2.4,7.4c-0.3,1-0.4,1.1-0.6,1.1c-0.1,0-0.2-0.2-0.4-0.7
				l-2.6-7.4h0c-0.5,1.3-2.3,6.2-2.8,7.4c-0.2,0.6-0.3,0.7-0.4,0.7c-0.1,0-0.2-0.2-0.5-1l-2.4-7.9c-0.2-0.7-0.4-0.9-0.7-1
				c-0.2-0.1-0.5-0.1-0.6-0.1c-0.1,0-0.1,0-0.1-0.1c0-0.1,0.1-0.1,0.2-0.1c0.7,0,1.4,0,1.6,0c0.1,0,0.7,0,1.4,0c0.2,0,0.2,0,0.2,0.1
				c0,0.1-0.1,0.1-0.1,0.1c-0.1,0-0.4,0-0.5,0.1c-0.1,0-0.2,0.2-0.2,0.3c0,0.2,0.1,0.6,0.2,1.2c0.2,0.8,1.6,5.7,1.8,6.4h0l2.8-7.6
				c0.2-0.5,0.2-0.6,0.3-0.6c0.1,0,0.2,0.2,0.3,0.6L219.5,52.4z"/>
		</g>
		<g>
			<path class="st2" d="M230.7,44.5c0.2-0.4,0.2-0.5,0.3-0.5s0.1,0.1,0.3,0.5c0.2,0.5,2.3,6,3.1,8c0.5,1.2,0.9,1.4,1.1,1.5
				c0.2,0.1,0.4,0.1,0.5,0.1c0.1,0,0.1,0,0.1,0.1c0,0.1-0.1,0.1-0.3,0.1c-0.2,0-1.2,0-2.1,0c-0.2,0-0.4,0-0.4-0.1c0,0,0-0.1,0.1-0.1
				c0.1,0,0.2-0.2,0.1-0.4l-1.2-3.3c0,0-0.1-0.1-0.1-0.1h-2.9c-0.1,0-0.1,0-0.1,0.1l-0.8,2.3c-0.1,0.3-0.2,0.7-0.2,0.9
				c0,0.3,0.3,0.4,0.5,0.4h0.1c0.1,0,0.1,0,0.1,0.1c0,0.1-0.1,0.1-0.2,0.1c-0.3,0-0.9,0-1,0s-0.9,0-1.5,0c-0.2,0-0.2,0-0.2-0.1
				c0,0,0.1-0.1,0.1-0.1c0.1,0,0.3,0,0.4,0c0.6-0.1,0.9-0.6,1.1-1.2L230.7,44.5z M232.1,49.8C232.2,49.8,232.2,49.8,232.1,49.8
				l-1.2-3.7c-0.1-0.2-0.1-0.2-0.2,0l-1.2,3.6c0,0.1,0,0.1,0,0.1H232.1z"/>
			<path class="st2" d="M241.8,48c0-2.1,0-2.5,0-2.9c0-0.5-0.1-0.7-0.6-0.8c-0.1,0-0.3,0-0.4,0c-0.1,0-0.1,0-0.1-0.1
				c0-0.1,0.1-0.1,0.2-0.1c0.6,0,1.4,0,1.5,0c0.1,0,1.2,0,1.6,0c0.8,0,1.7,0.1,2.4,0.6c0.3,0.2,0.9,0.9,0.9,1.8c0,1-0.4,2-1.6,3.1
				c1.1,1.4,2,2.6,2.8,3.4c0.7,0.8,1.3,0.9,1.6,1c0.2,0,0.4,0,0.5,0c0.1,0,0.1,0,0.1,0.1c0,0.1-0.1,0.1-0.3,0.1h-0.9
				c-0.7,0-1.1-0.1-1.4-0.2c-0.6-0.3-1-1-1.8-2c-0.6-0.7-1.2-1.6-1.4-2c-0.1,0-0.1-0.1-0.2-0.1l-1.6,0c-0.1,0-0.1,0-0.1,0.1v0.3
				c0,1.3,0,2.3,0.1,2.9c0,0.4,0.1,0.7,0.5,0.7c0.2,0,0.5,0,0.6,0c0.1,0,0.1,0,0.1,0.1c0,0.1-0.1,0.1-0.2,0.1c-0.7,0-1.6,0-1.6,0
				c0,0-0.9,0-1.2,0c-0.1,0-0.2,0-0.2-0.1c0,0,0-0.1,0.1-0.1c0.1,0,0.3,0,0.4,0c0.3,0,0.3-0.3,0.4-0.7c0.1-0.6,0.1-1.6,0.1-2.9
				L241.8,48L241.8,48L241.8,48z M242.9,49.2c0,0.1,0,0.1,0.1,0.2c0.2,0.1,0.8,0.2,1.4,0.2c0.3,0,0.7,0,1-0.2c0.5-0.3,0.8-1,0.8-2
				c0-1.7-0.9-2.7-2.3-2.7c-0.4,0-0.8,0-0.9,0.1c-0.1,0-0.1,0.1-0.1,0.2L242.9,49.2L242.9,49.2L242.9,49.2z"/>
			<path class="st2" d="M255.5,48c0-2.1,0-2.5,0-2.9c0-0.5-0.1-0.7-0.6-0.8c-0.1,0-0.3,0-0.4,0c-0.1,0-0.1,0-0.1-0.1
				c0-0.1,0.1-0.1,0.2-0.1c0.6,0,1.4,0,1.5,0c0.2,0,1,0,1.8,0c1.3,0,3.8-0.1,5.3,1.5c0.7,0.7,1.3,1.8,1.3,3.4c0,1.7-0.7,3-1.4,3.8
				c-0.6,0.6-1.8,1.5-4,1.5c-0.6,0-1.3,0-1.9-0.1c-0.6,0-1-0.1-1.1-0.1c0,0-0.2,0-0.5,0c-0.3,0-0.6,0-0.8,0c-0.1,0-0.2,0-0.2-0.1
				c0,0,0-0.1,0.1-0.1c0.1,0,0.3,0,0.4,0c0.3,0,0.3-0.3,0.4-0.7c0.1-0.6,0.1-1.6,0.1-2.9L255.5,48L255.5,48L255.5,48z M256.7,49.5
				c0,1.4,0,2.6,0,2.9c0,0.3,0,0.9,0.1,1c0.2,0.2,0.7,0.5,2.3,0.5c1.2,0,2.4-0.5,3.2-1.2c0.7-0.7,1.1-2,1.1-3.2
				c0-1.7-0.7-2.8-1.3-3.3c-1.2-1.3-2.8-1.5-4.4-1.5c-0.3,0-0.8,0-0.9,0.1c-0.1,0-0.2,0.1-0.2,0.3c0,0.5,0,1.8,0,2.8V49.5
				L256.7,49.5z"/>
			<path class="st2" d="M271.4,48c0-2.1,0-2.5,0-2.9c0-0.5-0.1-0.7-0.6-0.8c-0.1,0-0.3,0-0.5,0c0,0-0.1,0-0.1-0.1
				c0-0.1,0.1-0.1,0.2-0.1c0.3,0,0.7,0,1,0l0.5,0c0.1,0,2.7,0,3,0c0.2,0,0.5,0,0.6-0.1c0.1,0,0.1-0.1,0.2-0.1c0,0,0,0,0,0.1
				c0,0.1-0.1,0.2-0.1,0.6c0,0.1,0,0.7-0.1,0.9c0,0.1,0,0.2-0.1,0.2c-0.1,0-0.1-0.1-0.1-0.2c0-0.1,0-0.3-0.1-0.5
				c-0.1-0.2-0.2-0.4-0.9-0.5c-0.2,0-1.7,0-1.8,0c0,0-0.1,0-0.1,0.1v3.7c0,0.1,0,0.1,0.1,0.1c0.2,0,1.8,0,2.1,0c0.3,0,0.5,0,0.6-0.2
				c0.1-0.1,0.1-0.2,0.2-0.2c0,0,0.1,0,0.1,0.1c0,0.1-0.1,0.3-0.1,0.7c0,0.3,0,0.8,0,0.8c0,0.1,0,0.2-0.1,0.2c-0.1,0-0.1,0-0.1-0.1
				c0-0.1,0-0.3,0-0.4c0-0.2-0.2-0.4-0.7-0.5c-0.4,0-1.7-0.1-1.9-0.1c-0.1,0-0.1,0-0.1,0.1v1.2c0,0.5,0,2,0,2.3
				c0,0.9,0.2,1.1,1.5,1.1c0.3,0,0.9,0,1.3-0.2c0.3-0.2,0.5-0.4,0.6-1c0-0.2,0-0.2,0.1-0.2c0.1,0,0.1,0.1,0.1,0.2
				c0,0.1-0.1,1-0.2,1.3c-0.1,0.3-0.2,0.3-0.7,0.3c-1,0-1.7,0-2.2,0s-0.8,0-1,0c0,0-0.2,0-0.5,0c-0.3,0-0.6,0-0.8,0
				c-0.1,0-0.2,0-0.2-0.1c0,0,0-0.1,0.1-0.1c0.1,0,0.3,0,0.4,0c0.3,0,0.3-0.3,0.4-0.7c0.1-0.6,0.1-1.6,0.1-2.9L271.4,48L271.4,48
				L271.4,48z"/>
			<path class="st2" d="M283.2,48c0-2.1,0-2.5,0-2.9c0-0.5-0.1-0.7-0.6-0.8c-0.1,0-0.3,0-0.5,0c0,0-0.1,0-0.1-0.1
				c0-0.1,0.1-0.1,0.2-0.1c0.6,0,1.4,0,1.5,0c0.1,0,1.2,0,1.6,0c0.8,0,1.7,0.1,2.4,0.6c0.3,0.2,0.9,0.9,0.9,1.8c0,1-0.4,2-1.6,3.1
				c1.1,1.4,2,2.6,2.8,3.4c0.7,0.8,1.3,0.9,1.6,1c0.2,0,0.4,0,0.5,0c0.1,0,0.1,0,0.1,0.1c0,0.1-0.1,0.1-0.3,0.1h-0.9
				c-0.7,0-1.1-0.1-1.4-0.2c-0.6-0.3-1-1-1.8-2c-0.6-0.7-1.2-1.6-1.5-2c0,0-0.1-0.1-0.2-0.1l-1.6,0c-0.1,0-0.1,0-0.1,0.1v0.3
				c0,1.3,0,2.3,0.1,2.9c0,0.4,0.1,0.7,0.5,0.7c0.2,0,0.5,0,0.6,0c0.1,0,0.1,0,0.1,0.1c0,0.1-0.1,0.1-0.2,0.1c-0.7,0-1.6,0-1.6,0
				c0,0-0.9,0-1.2,0c-0.1,0-0.2,0-0.2-0.1c0,0,0-0.1,0.1-0.1c0.1,0,0.3,0,0.4,0c0.3,0,0.3-0.3,0.4-0.7c0.1-0.6,0.1-1.6,0.1-2.9
				L283.2,48L283.2,48L283.2,48z M284.3,49.2c0,0.1,0,0.1,0.1,0.2c0.2,0.1,0.8,0.2,1.4,0.2c0.3,0,0.7,0,1-0.2c0.5-0.3,0.8-1,0.8-2
				c0-1.7-0.9-2.7-2.3-2.7c-0.4,0-0.8,0-0.9,0.1c-0.1,0-0.1,0.1-0.1,0.2V49.2L284.3,49.2L284.3,49.2z"/>
		</g>
		<g>
			<path class="st2" d="M295.8,54.1c-0.2-0.1-0.2-0.2-0.2-0.5c0-0.7,0-1.2,0.1-1.4c0-0.2,0-0.2,0.1-0.2c0.1,0,0.1,0,0.1,0.2
				c0,0.1,0,0.3,0,0.5c0.2,1,1.1,1.3,2,1.3c1.3,0,1.9-0.9,1.9-1.8c0-0.9-0.4-1.5-1.5-2.4l-0.6-0.5c-1.4-1.2-1.7-2-1.7-2.9
				c0-1.4,1.1-2.4,2.8-2.4c0.5,0,0.9,0,1.2,0.1c0.2,0,0.4,0.1,0.5,0.1s0.1,0,0.1,0.1s0,0.5,0,1.4c0,0.2,0,0.3-0.1,0.3
				c-0.1,0-0.1-0.1-0.1-0.2c0-0.2-0.1-0.5-0.2-0.7c-0.1-0.2-0.4-0.7-1.7-0.7c-0.9,0-1.6,0.6-1.6,1.5c0,0.8,0.3,1.2,1.6,2.2l0.4,0.3
				c1.6,1.2,1.9,2.1,1.9,3.1c0,0.5-0.2,1.5-1.1,2.2c-0.6,0.4-1.3,0.6-2,0.6C297,54.4,296.4,54.3,295.8,54.1z"/>
		</g>
	</g>
</g>
<g>
	<path class="st3" d="M31.3,51.2L7.6,51.3L7.8,8.1c8.1-1.5,17.9,1.1,22.4,7.2l18.5,29.8c5.8,5.8,13.4,7.1,21.7,6.2V7.8l-18-0.1"/>
	<g>
		<path class="st2" d="M6.5,6.7c21.2-2.2,24.5,7.4,32.4,20.5l10.2,16.3c5.2,6.1,9.6,6.7,20,6.8l0-41.2c-5.6,0-11.3,0-16.9,0v6.4
			h10.7v28.4c-1.1,0-2.8-0.1-4.7-0.9c-4-1.7-5.8-5.2-7.4-8.2c0,0-0.9-1.6-8.2-13.9C36.4,10.5,32.8,7.1,28.9,4.5
			c-1.4-0.9-3.8-2.4-7.3-3.3c-2.5-0.6-4.8-0.7-7.5-0.8c-2.1-0.1-3.8-0.1-5,0c-2.9,0-5.8,0-8.7,0c0,19.5,0,39,0,58.5h27.9
			c2.3-2.9,2.2-3.8,3.3-6.3l-25-0.1V6.7z"/>
		<path class="st2" d="M52.1,0.4c0,2,0,4.1,0,6.1l19.4,0v45.7C63.3,54.1,55,51.5,50,47.7C46.3,44.9,42.3,37,39.2,32
			c-1.8-2.8-3.2-5.2-4.9-8c-1.6-2.5-3.6-6.4-5.2-8.4c-4.3-5.3-11.1-7.3-20.1-6.5L8.8,50c8.1,0,16.2-0.1,24.3-0.1
			c1.2-2.3,2-4.3,2.5-5.8c-6.9,0-13.8,0-20.6,0V15.3c1,0,2.4,0.2,4,0.8c4.3,1.7,6.5,5.4,8.5,8.9c4.1,7.1,7.5,12.6,7.9,13.4
			c4.2,6.8,7.3,12.1,12.8,15.8c2.7,1.8,8.6,5,18.3,4.8l11.2-0.1V0.4H52.1z"/>
		<line class="st4" x1="51.8" y1="9.1" x2="51.8" y2="9.1"/>
	</g>
</g>
</svg>
