<?xml version="1.0" encoding="utf-8"?>
<!-- Generator: Adobe Illustrator 26.0.1, SVG Export Plug-In . SVG Version: 6.00 Build 0)  -->
<svg version="1.1" xmlns="http://www.w3.org/2000/svg" xmlns:xlink="http://www.w3.org/1999/xlink" x="0px" y="0px"
	 viewBox="0 0 500 323.7" style="enable-background:new 0 0 500 323.7;" xml:space="preserve">
<style type="text/css">
	.st0{opacity:4.000000e-02;}
	.st1{fill:#F4B200;}
	.st2{fill:#E69D43;}
	.st3{fill:#D57912;}
	.st4{fill:#B65615;}
	.st5{fill:#233862;}
	.st6{fill:#D36E2A;}
	.st7{fill:#F59040;}
	.st8{fill:#DCE7F9;}
	.st9{fill:#D15050;}
	.st10{fill:#A03C37;}
	.st11{opacity:0.37;}
	.st12{fill:#B64C41;}
	.st13{fill:#FFFFFF;}
	.st14{fill:#FBB810;}
	.st15{opacity:0.18;fill:#454545;}
	.st16{fill:#ED7D2B;}
	.st17{fill:#F99746;}
	.st18{fill:#2B478B;}
	.st19{opacity:0.19;}
	.st20{fill:#E98A00;}
	.st21{fill:#F1A34F;}
	.st22{fill:#FFB27D;}
	.st23{fill:#ED975D;}
	.st24{fill:#1C4575;}
	.st25{fill:#454545;}
	.st26{fill:#2E3552;}
</style>
<g id="BACKGROUND">
</g>
<g id="OBJECTS">
	<g>
		<path class="st0" d="M335.7,107.6c-20.6,12.3-40.3-3.6-63.5-27c-2.2-2-4.6-4.4-7.2-7.3c-5-5.1-10.1-10.4-15.5-15.8
			C190.6,2.9,90.8-31.2,40.1,77.9C-7.5,180.2,22.5,282.5,32,309.8c1.6,4.5,2.6,7,2.6,7l439.9,0.2C496.5,63.6,392.6,73.7,335.7,107.6
			z"/>
		<g>
			<polygon class="st1" points="194.1,245.7 132,245.7 132,298.3 201.6,298.3 			"/>
			<polygon points="191.4,247.5 121,247.5 121,298.3 198.7,298.3 			"/>
			<g>
				<g>
					<g>
						<g>
							
								<rect x="161.1" y="288.6" transform="matrix(-1 -1.224647e-16 1.224647e-16 -1 331.6812 586.9196)" class="st2" width="9.6" height="9.7"/>
							
								<rect x="170.2" y="288.6" transform="matrix(-1 -1.224647e-16 1.224647e-16 -1 346.2502 586.9196)" class="st3" width="5.8" height="9.7"/>
						</g>
					</g>
				</g>
			</g>
			<g>
				<g>
					<g>
						<g>
							
								<rect x="160.5" y="276.4" transform="matrix(-1 -1.224647e-16 1.224647e-16 -1 336.9664 565.1531)" class="st2" width="15.9" height="12.3"/>
							
								<rect x="176" y="279.2" transform="matrix(-1 -1.224647e-16 1.224647e-16 -1 356.4261 567.9077)" class="st3" width="4.4" height="9.6"/>
						</g>
					</g>
				</g>
			</g>
			<path class="st4" d="M93.7,302H73.3c-0.5,0-0.9-0.4-0.9-0.9V293c0-0.5,0.4-0.9,0.9-0.9h20.4c0.5,0,0.9,0.4,0.9,0.9v8.1
				C94.6,301.6,94.2,302,93.7,302z"/>
			<path class="st5" d="M151,305.2c0-4.9,4-8.9,8.9-8.9c4.9,0,8.9,4,8.9,8.9c0,4.9-4,8.9-8.9,8.9C155,314.2,151,310.2,151,305.2z"/>
			<path class="st5" d="M181,305.2c0-4.9,4-8.9,8.9-8.9c4.9,0,8.9,4,8.9,8.9c0,4.9-4,8.9-8.9,8.9C185,314.2,181,310.2,181,305.2z"/>
			<path class="st5" d="M75.4,305.2c0-4.9,4-8.9,8.9-8.9c4.9,0,8.9,4,8.9,8.9c0,4.9-4,8.9-8.9,8.9C79.4,314.2,75.4,310.2,75.4,305.2
				z"/>
			<path class="st6" d="M79.9,305.2c0-2.5,2-4.5,4.5-4.5c2.5,0,4.5,2,4.5,4.5c0,2.5-2,4.5-4.5,4.5C81.9,309.7,79.9,307.7,79.9,305.2
				z"/>
			<path class="st7" d="M79.9,305.2c0-2.5,2-4.5,4.5-4.5c2.5,0,4.5,2,4.5,4.5c0,2.5-2,4.5-4.5,4.5C81.9,309.7,79.9,307.7,79.9,305.2
				z"/>
			<path class="st6" d="M87.4,301.9c0.3,0.6,0.4,1.2,0.4,1.8c0,2.5-2,4.5-4.5,4.5c-1.2,0-2.2-0.4-3-1.1c0.7,1.6,2.3,2.7,4.1,2.7
				c2.5,0,4.5-2,4.5-4.5C88.9,303.9,88.3,302.7,87.4,301.9z"/>
			<circle class="st4" cx="84.4" cy="305.2" r="1.4"/>
			<path class="st4" d="M81.4,307.6c0-0.3,0.2-0.5,0.5-0.5c0.3,0,0.5,0.2,0.5,0.5s-0.2,0.5-0.5,0.5
				C81.7,308.2,81.4,307.9,81.4,307.6z"/>
			<circle class="st4" cx="81.4" cy="303.6" r="0.5"/>
			<path class="st4" d="M86.8,303.6c0-0.3,0.2-0.5,0.5-0.5c0.3,0,0.5,0.2,0.5,0.5s-0.2,0.5-0.5,0.5C87,304.2,86.8,303.9,86.8,303.6z
				"/>
			<path class="st4" d="M86.3,307.6c0-0.3,0.2-0.5,0.5-0.5c0.3,0,0.5,0.2,0.5,0.5s-0.2,0.5-0.5,0.5
				C86.5,308.2,86.3,307.9,86.3,307.6z"/>
			<path class="st4" d="M83.8,301.8c0-0.3,0.2-0.5,0.5-0.5c0.3,0,0.5,0.2,0.5,0.5s-0.2,0.5-0.5,0.5
				C84.1,302.3,83.8,302.1,83.8,301.8z"/>
			<path class="st6" d="M155.3,305.2c0-2.5,2-4.5,4.5-4.5c2.5,0,4.5,2,4.5,4.5c0,2.5-2,4.5-4.5,4.5
				C157.3,309.7,155.3,307.7,155.3,305.2z"/>
			<path class="st6" d="M155.3,305.2c0-2.5,2-4.5,4.5-4.5c2.5,0,4.5,2,4.5,4.5c0,2.5-2,4.5-4.5,4.5
				C157.3,309.7,155.3,307.7,155.3,305.2z"/>
			<circle class="st4" cx="159.8" cy="305.2" r="1.4"/>
			<path class="st4" d="M156.9,307.6c0-0.3,0.2-0.5,0.5-0.5s0.5,0.2,0.5,0.5s-0.2,0.5-0.5,0.5S156.9,307.9,156.9,307.6z"/>
			<path class="st4" d="M156.7,303.6c0-0.3,0.2-0.5,0.5-0.5c0.3,0,0.5,0.2,0.5,0.5s-0.2,0.5-0.5,0.5
				C156.9,304.2,156.7,303.9,156.7,303.6z"/>
			<path class="st4" d="M161.7,307.6c0-0.3,0.2-0.5,0.5-0.5c0.3,0,0.5,0.2,0.5,0.5s-0.2,0.5-0.5,0.5
				C162,308.2,161.7,307.9,161.7,307.6z"/>
			<circle class="st4" cx="155.7" cy="301.8" r="0.5"/>
			<path class="st5" d="M100.8,305.2c0-4.9,4-8.9,8.9-8.9s8.9,4,8.9,8.9c0,4.9-4,8.9-8.9,8.9S100.8,310.2,100.8,305.2z"/>
			<path class="st3" d="M84.3,257.1c0,0,4.8-7.3,10.4-7.4l-0.5,7.9L84.3,257.1z"/>
			<path class="st2" d="M112.8,290.4H74l3.2-26.2c0.5-4.3,4.1-7.4,8.4-7.4h27.1V290.4z"/>
			<path class="st3" d="M90.2,274.4H79.4l1.4-10.3c0.3-2.1,2.1-3.7,4.3-3.7h5.5L90.2,274.4z"/>
			<path class="st8" d="M89.4,273.7h-7.2c-1.1,0-1.9-1-1.8-2l0.9-7.1c0.3-1.9,1.8-3.3,3.6-3.3h4.6L89.4,273.7z"/>
			<polygon class="st1" points="165.4,298.3 90.9,298.3 94.3,245.7 161,245.7 			"/>
			<path class="st3" d="M97.7,290.4H74c-2.1,0.1-2.3,1.2-2.3,1.2l-2,9.8c0,0.3,0.3,0.6,0.7,0.6h5.9c0.4,0,0.6-0.3,0.8-0.6
				c0,0,0.9-1.1,1.5-1.5c1.5-1,3.2-1.7,5.7-1.7c3,0,5.7,1,7.3,2.4h6c0.7,0,1.3-0.4,1.3-0.8v-8.5C99,290.8,98.4,290.4,97.7,290.4z"/>
			<path class="st9" d="M172,309.6h-7.5c-0.2-0.9-0.5-1.7-0.9-2.4c-2.3-3.6-7.6-4.7-10.6-5.1c-1.3-0.1-2.2-0.1-2.2-0.1h12.9
				c3.4,0.5,5.4,2.3,6.7,4.1C171.6,307.9,172,309.6,172,309.6z"/>
			<path class="st9" d="M201.6,309.6h-7.5c-0.2-1-0.6-1.9-1.1-2.7c-3.4-4.9-12.6-4.9-12.6-4.9h12.9c2.8,0.4,4.7,1.7,6,3.2
				C201.1,307.3,201.6,309.6,201.6,309.6z"/>
			<path class="st10" d="M170.3,306c0,0-4.9-1-6.8,1.2c-2.3-3.6-7.6-4.7-10.6-5.1c-0.1-0.1-0.1-0.1-0.2-0.1h10.8
				C167,302.4,169.1,304.3,170.3,306z"/>
			<path class="st10" d="M199.3,305.2C199.3,305.2,199.3,305.2,199.3,305.2c0,0-4.1-0.1-6.3,1.8c-3.4-4.9-12.6-4.9-12.6-4.9h12.9
				C196.1,302.4,198,303.7,199.3,305.2z"/>
			<path class="st1" d="M92.6,303.4h109.8c0.6,0,1-0.5,1-1v-3.1c0-0.6-0.5-1-1-1H92.6c-0.6,0-1,0.5-1,1v3.1
				C91.6,303,92.1,303.4,92.6,303.4z"/>
			<path class="st10" d="M117.6,310.9H97.3c-0.5,0-1-0.4-1-1v-9.4c0-0.5,0.4-1,1-1h20.3c0.5,0,1,0.4,1,1v9.4
				C118.6,310.5,118.2,310.9,117.6,310.9z"/>
			<path class="st11" d="M162.6,296H93.8l3.1-48.6h12c3.8,11.1,16.5,37.4,53,39.4L162.6,296z"/>
			<g>
				<path class="st12" d="M74.7,269.4c0,0-1,5.2-0.9,6.1c0,0.8,0.8,1.3,1.5,1.3L74.7,269.4z"/>
				<path class="st3" d="M77.7,276.7h-2.4c-0.3,0-0.6-0.3-0.6-0.6v-6.5c0-0.3,0.3-0.6,0.6-0.6h2.4c0.3,0,0.6,0.3,0.6,0.6v6.5
					C78.3,276.4,78,276.7,77.7,276.7z"/>
				<path class="st8" d="M77.5,276.3h-1.9c-0.3,0-0.5-0.2-0.5-0.5v-5.9c0-0.3,0.2-0.5,0.5-0.5h1.9c0.3,0,0.5,0.2,0.5,0.5v5.9
					C78,276.1,77.8,276.3,77.5,276.3z"/>
				<g>
					<path class="st12" d="M76.5,269.1c-0.1,0-0.1-0.1-0.1-0.1v-2.2c0,0,0,0,0,0c0,0,0.1-1.3,1.5-1.2c1.2,0,1.7,0,1.7,0
						c0.1,0,0.1,0.1,0.1,0.1c0,0.1,0,0.1-0.1,0.1c0,0-0.5,0-1.7,0c-1.1,0-1.2,0.9-1.2,1v2.2C76.6,269,76.6,269.1,76.5,269.1z"/>
				</g>
			</g>
			<path class="st3" d="M89.2,277.8h-2.2c-0.3,0-0.6-0.3-0.6-0.6l0,0c0-0.3,0.3-0.6,0.6-0.6h2.2c0.3,0,0.6,0.3,0.6,0.6l0,0
				C89.8,277.6,89.5,277.8,89.2,277.8z"/>
			<g>
				<g>
					<g>
						<g>
							
								<rect x="176.9" y="288.7" transform="matrix(-1 -1.224647e-16 1.224647e-16 -1 363.4588 587.0524)" class="st2" width="9.6" height="9.6"/>
							
								<rect x="186.1" y="288.7" transform="matrix(-1 -1.224647e-16 1.224647e-16 -1 376.617 587.0524)" class="st3" width="4.4" height="9.6"/>
						</g>
					</g>
				</g>
			</g>
			<g>
				<path class="st13" d="M110.4,269c0.4,0,0.8,0.1,1.1,0.2c0.3,0.1,0.6,0.3,0.8,0.5c0.2,0.2,0.4,0.5,0.5,0.7c0.1,0.3,0.2,0.6,0.2,1
					c0,0.4,0,0.8,0,1.3c0,0.4-0.1,0.7-0.2,1c-0.1,0.3-0.3,0.5-0.5,0.7c-0.2,0.2-0.5,0.4-0.8,0.5c-0.3,0.1-0.7,0.2-1.1,0.2h-2.2
					c-0.1,0-0.1,0-0.2-0.1c0,0-0.1-0.1-0.1-0.2v-5.5c0-0.1,0-0.1,0.1-0.2c0,0,0.1-0.1,0.2-0.1H110.4z M111.8,271.4
					c0-0.2,0-0.4-0.1-0.5s-0.1-0.3-0.3-0.4c-0.1-0.1-0.3-0.2-0.4-0.3c-0.2-0.1-0.4-0.1-0.6-0.1h-1.1v3.8h1.2c0.2,0,0.4,0,0.6-0.1
					c0.2-0.1,0.3-0.2,0.4-0.3c0.1-0.1,0.2-0.3,0.3-0.4c0.1-0.2,0.1-0.3,0.1-0.5C111.8,272.2,111.8,271.8,111.8,271.4z"/>
				<path class="st13" d="M118.1,273.9c0.1,0,0.1,0,0.2,0.1c0,0,0.1,0.1,0.1,0.2v0.6c0,0.1,0,0.1-0.1,0.2c0,0-0.1,0.1-0.2,0.1h-3.8
					c-0.1,0-0.1,0-0.2-0.1c0,0-0.1-0.1-0.1-0.2v-5.5c0-0.1,0-0.1,0.1-0.2c0,0,0.1-0.1,0.2-0.1h3.7c0.1,0,0.1,0,0.2,0.1
					c0,0,0.1,0.1,0.1,0.2v0.6c0,0.1,0,0.1-0.1,0.2c0,0-0.1,0.1-0.2,0.1h-2.8v1.4h2.6c0.1,0,0.1,0,0.2,0.1c0,0,0.1,0.1,0.1,0.2v0.6
					c0,0.1,0,0.1-0.1,0.2c0,0-0.1,0.1-0.2,0.1h-2.6v1.4H118.1z"/>
				<path class="st13" d="M123.3,273.9c0.1,0,0.1,0,0.2,0.1c0,0,0.1,0.1,0.1,0.2v0.6c0,0.1,0,0.1-0.1,0.2c0,0-0.1,0.1-0.2,0.1h-3.7
					c-0.1,0-0.1,0-0.2-0.1c0,0-0.1-0.1-0.1-0.2v-5.5c0-0.1,0-0.1,0.1-0.2c0,0,0.1-0.1,0.2-0.1h0.7c0.1,0,0.1,0,0.2,0.1
					c0,0,0.1,0.1,0.1,0.2v4.7H123.3z"/>
				<path class="st13" d="M124.6,275c-0.1,0-0.1,0-0.2-0.1c0,0-0.1-0.1-0.1-0.2v-5.5c0-0.1,0-0.1,0.1-0.2c0,0,0.1-0.1,0.2-0.1h0.7
					c0.1,0,0.1,0,0.2,0.1c0,0,0.1,0.1,0.1,0.2v5.5c0,0.1,0,0.1-0.1,0.2c0,0-0.1,0.1-0.2,0.1H124.6z"/>
				<path class="st13" d="M129.1,273.3l1.4-4.1c0,0,0-0.1,0.1-0.1c0,0,0.1-0.1,0.2-0.1h0.6c0.1,0,0.1,0,0.2,0.1c0,0,0.1,0.1,0.1,0.2
					c0,0,0,0,0,0s0,0,0,0.1l-1.9,5.4c0,0.1-0.1,0.2-0.1,0.2c0,0-0.1,0.1-0.2,0.1h-0.7c-0.1,0-0.2,0-0.2-0.1c0,0-0.1-0.1-0.1-0.2
					l-1.9-5.4c0,0,0,0,0-0.1s0,0,0,0c0-0.1,0-0.1,0.1-0.2c0,0,0.1-0.1,0.2-0.1h0.6c0.1,0,0.1,0,0.2,0.1c0,0,0.1,0.1,0.1,0.1
					L129.1,273.3z"/>
				<path class="st13" d="M136.6,273.9c0.1,0,0.1,0,0.2,0.1c0,0,0.1,0.1,0.1,0.2v0.6c0,0.1,0,0.1-0.1,0.2c0,0-0.1,0.1-0.2,0.1h-3.8
					c-0.1,0-0.1,0-0.2-0.1c0,0-0.1-0.1-0.1-0.2v-5.5c0-0.1,0-0.1,0.1-0.2c0,0,0.1-0.1,0.2-0.1h3.7c0.1,0,0.1,0,0.2,0.1
					c0,0,0.1,0.1,0.1,0.2v0.6c0,0.1,0,0.1-0.1,0.2c0,0-0.1,0.1-0.2,0.1h-2.8v1.4h2.6c0.1,0,0.1,0,0.2,0.1c0,0,0.1,0.1,0.1,0.2v0.6
					c0,0.1,0,0.1-0.1,0.2c0,0-0.1,0.1-0.2,0.1h-2.6v1.4H136.6z"/>
				<path class="st13" d="M140.3,269c0.7,0,1.3,0.2,1.6,0.5c0.4,0.3,0.6,0.8,0.6,1.4c0,0.4-0.1,0.8-0.3,1.1
					c-0.2,0.3-0.5,0.5-0.8,0.7l1.2,2.1c0,0,0,0.1,0,0.1c0,0.1,0,0.1-0.1,0.1c0,0-0.1,0.1-0.1,0.1h-0.7c-0.1,0-0.2,0-0.3-0.1
					c-0.1-0.1-0.1-0.1-0.1-0.1l-1.1-2H139v2c0,0.1,0,0.1-0.1,0.2c0,0-0.1,0.1-0.2,0.1h-0.7c-0.1,0-0.1,0-0.2-0.1
					c0,0-0.1-0.1-0.1-0.2v-5.5c0-0.1,0-0.1,0.1-0.2c0,0,0.1-0.1,0.2-0.1H140.3z M139,271.7h1.2c0.3,0,0.6-0.1,0.8-0.2
					c0.2-0.1,0.3-0.3,0.3-0.6c0-0.3-0.1-0.5-0.3-0.6c-0.2-0.1-0.5-0.2-0.8-0.2H139V271.7z"/>
				<path class="st13" d="M147.9,269c0.1,0,0.1,0,0.2,0.1c0,0,0.1,0.1,0.1,0.2c0,0,0,0.1,0,0.1l-2,3.6v1.9c0,0.1,0,0.1-0.1,0.2
					c0,0-0.1,0.1-0.2,0.1h-0.7c-0.1,0-0.1,0-0.2-0.1c0,0-0.1-0.1-0.1-0.2v-1.9l-2-3.6c0,0,0,0,0-0.1c0-0.1,0-0.1,0.1-0.2
					c0,0,0.1-0.1,0.2-0.1h0.6c0.1,0,0.2,0,0.3,0.1c0.1,0.1,0.1,0.1,0.1,0.1l1.4,2.4l1.4-2.4c0,0,0-0.1,0.1-0.1
					c0.1-0.1,0.1-0.1,0.3-0.1H147.9z"/>
			</g>
		</g>
		<g>
			<path class="st14" d="M211.1,60c-18.8,0-36.1,6.6-49.6,17.6c-17.8,14.5-29.1,36.5-29.1,61.1c0,43.5,78.7,140.1,78.7,140.1
				s35.8-43.9,59-85.8c11.3-20.3,19.7-40.1,19.7-54.3C289.8,95.3,254.6,60,211.1,60z M211.1,174.7c-20.3,0-36.8-16.4-36.8-36.7
				c0-5,1-9.7,2.8-14.1c5.5-13.4,18.7-22.8,34-22.8c20.3,0,36.8,16.5,36.8,36.8c0,17.6-12.3,32.2-28.8,35.8
				C216.6,174.3,213.9,174.7,211.1,174.7z"/>
			<path class="st15" d="M270.1,193c-23.3,41.9-59,85.8-59,85.8s-78.7-96.6-78.7-140.1c0-24.6,11.3-46.6,29.1-61.1
				c3,14.2,7.8,30.5,15.6,46.3c-1.8,4.4-2.8,9.1-2.8,14.1c0,20.3,16.5,36.7,36.8,36.7c2.7,0,5.5-0.3,8-0.9
				C232.9,183.1,249.7,190,270.1,193z"/>
		</g>
		<path class="st14" d="M445.7,220.5c-11.8,0-21.4,9.6-21.4,21.4c0,11.8,21.4,38,21.4,38s21.4-26.2,21.4-38
			C467,230.1,457.5,220.5,445.7,220.5z M445.7,251.7c-5.5,0-10-4.5-10-10c0-5.5,4.5-10,10-10c5.5,0,10,4.5,10,10
			C455.7,247.2,451.2,251.7,445.7,251.7z"/>
		<path class="st14" d="M32,278.9c-6.8,0-12.2,5.5-12.2,12.2c0,6.8,12.2,21.8,12.2,21.8s12.2-15,12.2-21.8
			C44.3,284.4,38.8,278.9,32,278.9z M32,296.7c-3.2,0-5.7-2.6-5.7-5.7c0-3.2,2.6-5.7,5.7-5.7c3.2,0,5.7,2.6,5.7,5.7
			C37.8,294.2,35.2,296.7,32,296.7z"/>
		<g>
			<g>
				<polygon class="st10" points="290.8,253.9 291.8,253.1 279.3,236.8 274.7,236.6 				"/>
			</g>
			<g>
				<polygon class="st10" points="307.2,253.9 308,253.1 297.6,236.8 293.9,236.6 				"/>
			</g>
			<path d="M313.5,282.9c0-9.2-7.5-16.7-16.7-16.7c-9.2,0-16.7,7.5-16.7,16.7c0,9.2,7.5,16.7,16.7,16.7
				C306,299.5,313.5,292.1,313.5,282.9z"/>
			<path class="st16" d="M305.3,282.9c0-4.7-3.8-8.5-8.5-8.5c-4.7,0-8.5,3.8-8.5,8.5c0,4.7,3.8,8.5,8.5,8.5
				C301.5,291.4,305.3,287.6,305.3,282.9z"/>
			<path class="st10" d="M258.3,237.3h41.9c1.2,0,2.2-1,2.2-2.2v-1.5c0-1.2-1-2.2-2.2-2.2h-41.9c-1.2,0-2.2,1-2.2,2.2v1.5
				C256.1,236.4,257.1,237.3,258.3,237.3z"/>
			
				<ellipse transform="matrix(0.9991 -4.155874e-02 4.155874e-02 0.9991 -11.4191 16.4505)" cx="390" cy="282.9" rx="16.7" ry="16.7"/>
			<path class="st17" d="M381.5,282.9c0,1.4,0.4,2.8,1,4c0,0.1,0.1,0.2,0.1,0.2c1.5,2.6,4.2,4.3,7.4,4.3c4.7,0,8.5-3.8,8.5-8.5
				c0-3.5-2.2-6.6-5.2-7.8c0,0-0.1,0-0.1,0c-1-0.4-2-0.6-3.2-0.6C385.3,274.4,381.5,278.2,381.5,282.9z"/>
			<g>
				<path class="st18" d="M359,212.1c0,0,0.4-0.1,0.4-0.1l9.5-2.6c0.4-0.1,0.6-0.5,0.6-1c-0.1-0.5-0.4-0.8-0.8-0.8l-9.5,1.9
					c-0.4,0.1-0.7,0.6-0.8,1.1C358.3,211.4,358.6,212.1,359,212.1z"/>
			</g>
			<path class="st12" d="M414.4,279.2c-0.1-0.6-0.2-1.3-0.4-1.9c0-0.1,0-0.1-0.1-0.2c-0.1-0.5-0.3-1.1-0.4-1.6
				c0-0.1-0.1-0.2-0.1-0.4c-0.2-0.5-0.3-0.9-0.5-1.4c-0.1-0.1-0.1-0.3-0.2-0.4c-0.2-0.4-0.4-0.9-0.6-1.3c-0.1-0.2-0.2-0.3-0.2-0.5
				c-0.2-0.4-0.4-0.8-0.6-1.2c-0.1-0.2-0.2-0.3-0.3-0.5c-0.2-0.3-0.4-0.7-0.7-1c-0.1-0.2-0.3-0.4-0.4-0.5c-0.2-0.3-0.5-0.6-0.7-0.9
				c-0.2-0.2-0.3-0.4-0.5-0.6c-0.2-0.3-0.5-0.5-0.7-0.8c-0.2-0.2-0.4-0.4-0.6-0.6c-0.2-0.2-0.5-0.5-0.7-0.7
				c-0.2-0.2-0.5-0.4-0.7-0.6c-0.2-0.2-0.5-0.4-0.7-0.6c-0.3-0.2-0.5-0.4-0.8-0.6c-0.2-0.2-0.4-0.3-0.7-0.5
				c-0.3-0.2-0.6-0.4-0.9-0.6c-0.2-0.1-0.4-0.3-0.6-0.4c-0.3-0.2-0.7-0.4-1-0.5c-0.2-0.1-0.4-0.2-0.6-0.3c-0.4-0.2-0.7-0.3-1.1-0.5
				c-0.2-0.1-0.4-0.2-0.6-0.3c-0.4-0.2-0.8-0.3-1.2-0.4c-0.2-0.1-0.4-0.1-0.6-0.2c-0.4-0.1-0.8-0.2-1.2-0.3c-0.2,0-0.4-0.1-0.5-0.1
				c0,0-0.1,0-0.1,0l-15.6-32.9c-1.5-2-3.4-3.6-5.5-4.6l-0.4-5.9c1.5,2.5,4.2,4.1,7.4,4.1v-3.7c1.4-1,2.3-2.7,2.3-4.6
				c0-1.9-0.9-3.6-2.3-4.6v-4.3c-3.5,0-6.5,2.1-7.9,5.1l-0.1-1.5c0-0.9-0.7-1.6-1.6-1.6h-4.1c-0.9,0-4.3,1.6-4,4.7l-1,15
				c0,0.2,0,0.3,0,0.5l0,0c0,0,0,0,0,0c0,0.5,0.1,1,0.2,1.5c2,6.1,2.8,12.2,2.8,18.1c0,19.4-8.7,35.4-8.7,35.4l0,0h-20
				c-11.8-15-8-30.2-8-30.2l-20.9-4.2l-0.5,4l-5-0.3c-24,0-39.2,12.1-39.2,36.1c0,0.6,0.2,1.2,0.6,1.6c0.4,0.4,1,0.6,1.6,0.6h53.5
				c0,0,0,0,0,0h50.9c0.6,0,1.1-0.5,1.1-1.1v-4.6c0.6-6.9,4.8-12.8,10.8-15.7c0.2-0.1,0.3-0.1,0.5-0.2c0.2-0.1,0.3-0.2,0.5-0.2
				c0.1-0.1,0.3-0.1,0.4-0.2c0.2-0.1,0.4-0.1,0.5-0.2c0.1-0.1,0.3-0.1,0.4-0.1c0.2-0.1,0.4-0.1,0.6-0.2c0.1,0,0.3-0.1,0.4-0.1
				c0.2-0.1,0.4-0.1,0.6-0.1c0.2,0,0.3-0.1,0.5-0.1c0.2,0,0.4-0.1,0.5-0.1c0.2,0,0.4-0.1,0.6-0.1c0.2,0,0.3-0.1,0.5-0.1
				c0.2,0,0.5,0,0.7-0.1c0.1,0,0.3,0,0.4,0c0.4,0,0.7,0,1.1,0c9.9,0,18.1,7.6,19.1,17.3c0.1,1.1,1,1.9,2,1.9h0.1
				C413.1,282.9,414.7,281.1,414.4,279.2z"/>
			<path class="st17" d="M293.1,242.5v5.2c0,0.9,0.7,1.6,1.6,1.6h34.2c0.9,0,1.6-0.7,1.6-1.6v-5.2c0-0.9-0.7-1.6-1.6-1.6h-34.2
				C293.8,240.8,293.1,241.6,293.1,242.5z"/>
			<path class="st19" d="M267.4,287h51.4c0,0,3.1-19-8.4-25.5c-2.8-1.5-6.3-2.1-10.1-1.7C288.3,261,273.2,271.2,267.4,287z"/>
			<path class="st19" d="M372.7,212.5c0.7,4,4.3,7,8.5,7v-4.8C378.7,214.9,375,214.6,372.7,212.5z"/>
			<path class="st16" d="M303.9,249.3h25c0.9,0,1.6-0.7,1.6-1.6v-5.2c0-0.9-0.7-1.6-1.6-1.6h-17.1
				C310.3,242.9,307.5,246.5,303.9,249.3z"/>
			<path class="st16" d="M382.6,287.1c1.5,2.6,4.2,4.3,7.4,4.3c4.7,0,8.5-3.8,8.5-8.5c0-3.5-2.2-6.6-5.2-7.8
				C392.5,278.7,390.1,285.5,382.6,287.1z"/>
			<path class="st19" d="M381.9,264.1c-0.1,0.5-0.2,1-0.2,1.5c0,0,0,0,0.1,0c3.1-2.8,9.6-5.4,13.7-6.8c0,0-0.1,0-0.1,0l-15.6-32.9
				c-1.5-2-3.4-3.6-5.5-4.6c2.7,4.5,10,18.8,8.3,38c-0.1,1.3-0.3,2.7-0.5,4C382,263.6,381.9,263.8,381.9,264.1z"/>
			<rect x="272.3" y="209.5" class="st20" width="26.6" height="22"/>
			<rect x="259" y="209.5" class="st21" width="26.6" height="22"/>
			<polygon class="st19" points="259,224 259,231.4 285.6,231.4 285.6,209.5 280.9,209.5 			"/>
			<g>
				<path class="st22" d="M325.9,189.6c-4.6,1.9-13-2.1-13-2.1s2.8-2.5,3.3-7.2c0-0.2,0-0.5,0.1-0.7c0.5-0.2,1.4-0.5,2.4-0.8
					l4.1,2.8c0,0,0.1,1.4,0,3.8c0,0.4-0.1,0.9-0.1,1.3C324.7,187.5,325.9,189.6,325.9,189.6z"/>
				<path class="st23" d="M322.8,181.5c0,0,0.1,1.4,0,3.8c-3.7-0.7-5.8-3.7-6.5-5c0-0.2,0-0.5,0.1-0.7c0.5-0.2,1.4-0.5,2.4-0.8
					L322.8,181.5z"/>
				<path class="st22" d="M323.5,183.5c0,0-7.9-0.3-7.7-5.2c0.2-4.9-0.6-8.3,4.4-8.3c5.1,0,6,1.9,6.3,3.6
					C326.9,175.2,325.6,183.4,323.5,183.5z"/>
				<path class="st18" d="M316.2,180.3c0,0-0.3-1.6,0.6-2.7c0,0-0.6-1.6,0-2c0.6-0.4,0.9,1,1.2,0.8c0.3-0.3,1.5-1.5,1.8-3.1
					c0.4-1.6,5.9-0.5,6.5-0.3c0.6,0.2-3.6-7.8-8.3-5.9c-4.6,1.9-5,4.3-4.5,6.2C314.2,175.2,314.2,179.9,316.2,180.3z"/>
				<path class="st24" d="M340.7,273.4c0,0,0.4,6,1.5,6.1c0.2,0,5.9,0,5.9,0l7.4,0c0,0,0-1.8-2.2-2.1c-2.1-0.4-5.7-1.9-7.1-4.7
					C344.9,269.6,340.7,273.4,340.7,273.4z"/>
				<path class="st25" d="M354.4,233.7c-1.7-1.6-9.4-6.2-34-8.8l-11.7,2.5c0,0,0.5,9.7,2.8,12.4c1.3,1.7,17.6,1.9,30.1,1.9
					c0,0,0,0,0,0c-2.8,9-2.4,32.1-2.4,32.1s1.4,1.1,4.3,1.2c0.7,0,1.4,0,2-0.1c1.6-0.2,2.6-0.7,2.6-0.7l7.8-32.8l0,0
					C355.9,241.5,356.1,235.3,354.4,233.7z"/>
				<path class="st12" d="M356.8,208c0,0-13.8-2.7-17.7-3.9c-1.6-0.5-5.2-3-8.7-5.7c-0.2-1.3-0.5-2.5-0.7-3.5
					c-1-3.4-3.2-5.6-5.3-7.3l-1.5-1.1c-1.6,0.3-3.6,0.1-5.3-0.6c-1.9-0.8-2.5-1.4-2.9-1.2c-4.4,3-7.5,12.3-6.7,22.5
					c0.7,8.3-0.2,21,0.6,23.2c0.7,1.9,8.4,0.8,11.4,0.1c1.1-0.2,2.5-0.6,3.9-1c4-1.1,8.3-2.7,8.7-3.8c0,0,0-0.1,0-0.1
					c0-0.2,0-0.3,0-0.5c-0.1-0.4-0.5-0.9-0.7-1.7c-0.1-0.3-0.1-0.6-0.1-1c-0.1-1.5-0.1-3.3-0.1-5.1c0-0.2,0-0.3,0-0.5
					c0-0.2,0-0.5,0-0.7l0-0.1c0,0,0-0.1,0-0.1c-0.1-2.1-0.2-4.4-0.3-6.6c2.2,1,3.9,1.8,4.5,1.9c2.2,0.5,19.9,1.5,19.9,1.5
					C357.2,211.2,356.8,208,356.8,208z"/>
				<path class="st19" d="M320.4,200.8c0,0,5.5,20,11.7,22.5c-0.1-0.3-0.1-0.6-0.1-1c-0.1-1.5-0.1-3.3-0.1-5.1c0-0.2,0-0.3,0-0.5
					c0-0.2,0-0.5,0-0.7l0-0.1c0,0,0-0.1,0-0.1c-0.1-2.3-0.2-4.8-0.4-7.2c0-0.8-0.1-1.5-0.2-2.2C328.5,202.9,324.8,200.5,320.4,200.8
					z"/>
				<path class="st22" d="M353.2,208.5c0,0,2.4,0.2,3,0c0.6-0.2,3.5-1.9,4.5-1.5c1,0.4,3.7,3.1,3,4.3c0,0-1.2,0-2.4-1.1
					c-1.1-1.2-2.4-0.4-2.2-0.2c0.1,0.2,1.9,0.9,1.6,1.2c-0.3,0.3-2.6,0.2-3.2-0.1c-0.6-0.4-4.7,0.1-4.7,0.1L353.2,208.5z"/>
				<path d="M339.1,273.8c0,0,1.4,1.1,4.3,1.2c0.7,0,1.4,0,2-0.1c-4.5-5.6-4-33.2-4-33.2C338.7,250.7,339.1,273.8,339.1,273.8z"/>
				<path class="st12" d="M313,171.8L313,171.8c0,0.3,0.1,0.5,0.2,0.5c0,0,0.1,0,0.1,0h18.8c0.2,0,0.4-0.2,0.4-0.5v-0.1
					c0-0.3-0.2-0.5-0.4-0.5l-4.2-0.5c-0.4-3.1-2.5-5.7-5.2-6.5c0,0,0,0,0,0c-0.7-0.2-1.4-0.3-2.1-0.3c-3.9,0-7,3.2-7.3,7.2
					c0,0,0,0.1,0,0.1c0,0-0.1,0.1-0.1,0.1C313.1,171.4,313,171.6,313,171.8z"/>
			</g>
		</g>
		<g>
			<path class="st14" d="M288.5,129c-0.2,0-0.4-0.1-0.5-0.3c-0.2-0.3-0.1-0.7,0.2-0.9c0,0,0.3-0.2,0.9-0.5c0.3-0.2,0.7-0.1,0.9,0.2
				c0.2,0.3,0.1,0.7-0.2,0.9c-0.6,0.3-0.9,0.5-0.9,0.5C288.8,129,288.7,129,288.5,129z"/>
			<path class="st14" d="M449.8,207.4C449.8,207.4,449.8,207.4,449.8,207.4c-0.3,0-0.6-0.3-0.6-0.6c0-0.1,0-0.3,0-0.4
				c0-0.6,0-1.2,0-1.7c0-0.3,0.3-0.6,0.6-0.6c0.3,0,0.6,0.3,0.6,0.6c0,0.6,0,1.2,0,1.8c0,0.1,0,0.3,0,0.4
				C450.5,207.2,450.2,207.4,449.8,207.4z M449.7,203.1c-0.3,0-0.6-0.3-0.6-0.6c0-0.7-0.1-1.4-0.1-2.2c0-0.3,0.2-0.6,0.6-0.7
				c0.3,0,0.6,0.2,0.7,0.6c0.1,0.7,0.1,1.5,0.1,2.2C450.4,202.8,450.1,203.1,449.7,203.1C449.8,203.1,449.8,203.1,449.7,203.1z
				 M449.4,198.8c-0.3,0-0.6-0.2-0.6-0.6c-0.1-0.7-0.1-1.4-0.2-2.1c0-0.3,0.2-0.7,0.5-0.7c0.3,0,0.7,0.2,0.7,0.5
				c0.1,0.7,0.2,1.5,0.2,2.2C450.1,198.4,449.8,198.7,449.4,198.8C449.5,198.8,449.5,198.8,449.4,198.8z M448.9,194.5
				c-0.3,0-0.6-0.2-0.6-0.5c-0.1-0.7-0.2-1.4-0.3-2.1c-0.1-0.3,0.2-0.7,0.5-0.7c0.3-0.1,0.7,0.2,0.7,0.5c0.1,0.7,0.2,1.4,0.3,2.2
				C449.6,194.1,449.4,194.4,448.9,194.5C449,194.5,449,194.5,448.9,194.5z M448.2,190.2c-0.3,0-0.6-0.2-0.6-0.5
				c-0.1-0.7-0.3-1.4-0.4-2.1c-0.1-0.3,0.1-0.7,0.5-0.7c0.3-0.1,0.7,0.1,0.7,0.5c0.1,0.7,0.3,1.4,0.4,2.1c0.1,0.3-0.2,0.7-0.5,0.7
				C448.3,190.2,448.3,190.2,448.2,190.2z M447.3,185.9c-0.3,0-0.5-0.2-0.6-0.5c-0.2-0.7-0.3-1.4-0.5-2.1c-0.1-0.3,0.1-0.7,0.5-0.8
				c0.3-0.1,0.7,0.1,0.8,0.5c0.2,0.7,0.3,1.4,0.5,2.1c0.1,0.3-0.1,0.7-0.5,0.8C447.4,185.9,447.4,185.9,447.3,185.9z M446.3,181.7
				c-0.3,0-0.5-0.2-0.6-0.5c-0.2-0.7-0.4-1.4-0.6-2.1c-0.1-0.3,0.1-0.7,0.4-0.8c0.3-0.1,0.7,0.1,0.8,0.4c0.2,0.7,0.4,1.4,0.6,2.1
				c0.1,0.3-0.1,0.7-0.4,0.8C446.4,181.7,446.3,181.7,446.3,181.7z M445,177.6c-0.3,0-0.5-0.2-0.6-0.4c-0.2-0.7-0.5-1.4-0.7-2
				c-0.1-0.3,0.1-0.7,0.4-0.8c0.3-0.1,0.7,0.1,0.8,0.4c0.2,0.7,0.5,1.4,0.7,2.1c0.1,0.3-0.1,0.7-0.4,0.8
				C445.2,177.6,445.1,177.6,445,177.6z M443.6,173.5c-0.3,0-0.5-0.2-0.6-0.4c-0.3-0.7-0.5-1.3-0.8-2c-0.1-0.3,0-0.7,0.3-0.8
				c0.3-0.1,0.7,0,0.8,0.3c0.3,0.7,0.5,1.4,0.8,2c0.1,0.3,0,0.7-0.4,0.8C443.8,173.5,443.7,173.5,443.6,173.5z M442,169.5
				c-0.2,0-0.5-0.1-0.6-0.4c-0.3-0.7-0.6-1.3-0.9-2c-0.1-0.3,0-0.7,0.3-0.8c0.3-0.1,0.7,0,0.8,0.3c0.3,0.7,0.6,1.3,0.9,2
				c0.1,0.3,0,0.7-0.3,0.8C442.2,169.4,442.1,169.5,442,169.5z M440.2,165.5c-0.2,0-0.5-0.1-0.6-0.4c-0.3-0.6-0.6-1.3-1-1.9
				c-0.2-0.3,0-0.7,0.3-0.8c0.3-0.2,0.7,0,0.8,0.3c0.3,0.6,0.7,1.3,1,2c0.2,0.3,0,0.7-0.3,0.8C440.4,165.5,440.3,165.5,440.2,165.5z
				 M438.2,161.7c-0.2,0-0.4-0.1-0.6-0.3c-0.3-0.6-0.7-1.3-1.1-1.9c-0.2-0.3-0.1-0.7,0.2-0.9c0.3-0.2,0.7-0.1,0.9,0.2
				c0.4,0.6,0.7,1.3,1.1,1.9c0.2,0.3,0.1,0.7-0.2,0.9C438.4,161.6,438.3,161.7,438.2,161.7z M436,157.9c-0.2,0-0.4-0.1-0.5-0.3
				c-0.4-0.6-0.8-1.2-1.1-1.8c-0.2-0.3-0.1-0.7,0.2-0.9c0.3-0.2,0.7-0.1,0.9,0.2c0.4,0.6,0.8,1.2,1.2,1.8c0.2,0.3,0.1,0.7-0.2,0.9
				C436.2,157.9,436.1,157.9,436,157.9z M433.7,154.3c-0.2,0-0.4-0.1-0.5-0.3c-0.4-0.6-0.8-1.2-1.2-1.8c-0.2-0.3-0.1-0.7,0.1-0.9
				c0.3-0.2,0.7-0.1,0.9,0.1c0.4,0.6,0.8,1.2,1.3,1.8c0.2,0.3,0.1,0.7-0.2,0.9C433.9,154.2,433.8,154.3,433.7,154.3z M431.1,150.8
				c-0.2,0-0.4-0.1-0.5-0.2c-0.4-0.6-0.9-1.1-1.3-1.7c-0.2-0.3-0.2-0.7,0.1-0.9c0.3-0.2,0.7-0.2,0.9,0.1c0.5,0.6,0.9,1.1,1.3,1.7
				c0.2,0.3,0.2,0.7-0.1,0.9C431.4,150.7,431.3,150.8,431.1,150.8z M428.4,147.4c-0.2,0-0.4-0.1-0.5-0.2c-0.5-0.5-0.9-1.1-1.4-1.6
				c-0.2-0.3-0.2-0.7,0.1-0.9c0.3-0.2,0.7-0.2,0.9,0.1c0.5,0.5,1,1.1,1.4,1.7c0.2,0.3,0.2,0.7-0.1,0.9
				C428.7,147.3,428.6,147.4,428.4,147.4z M425.6,144.1c-0.2,0-0.3-0.1-0.5-0.2c-0.5-0.5-1-1-1.5-1.6c-0.2-0.2-0.2-0.6,0-0.9
				c0.2-0.2,0.6-0.2,0.9,0c0.5,0.5,1,1.1,1.5,1.6c0.2,0.3,0.2,0.7,0,0.9C425.9,144.1,425.7,144.1,425.6,144.1z M422.6,141
				c-0.2,0-0.3-0.1-0.4-0.2c-0.5-0.5-1-1-1.6-1.5c-0.3-0.2-0.3-0.6,0-0.9c0.2-0.3,0.6-0.3,0.9,0c0.5,0.5,1.1,1,1.6,1.5
				c0.2,0.2,0.3,0.6,0,0.9C422.9,140.9,422.7,141,422.6,141z M419.4,138c-0.1,0-0.3-0.1-0.4-0.2c-0.5-0.5-1.1-1-1.6-1.4
				c-0.3-0.2-0.3-0.6-0.1-0.9c0.2-0.3,0.6-0.3,0.9-0.1c0.6,0.5,1.1,0.9,1.6,1.4c0.3,0.2,0.3,0.6,0.1,0.9
				C419.7,138,419.6,138,419.4,138z M416.1,135.2c-0.1,0-0.3,0-0.4-0.1c-0.6-0.4-1.1-0.9-1.7-1.3c-0.3-0.2-0.3-0.6-0.1-0.9
				c0.2-0.3,0.6-0.3,0.9-0.1c0.6,0.4,1.2,0.9,1.7,1.4c0.3,0.2,0.3,0.6,0.1,0.9C416.5,135.2,416.3,135.2,416.1,135.2z M412.7,132.6
				c-0.1,0-0.3,0-0.4-0.1c-0.6-0.4-1.2-0.8-1.7-1.3c-0.3-0.2-0.4-0.6-0.2-0.9c0.2-0.3,0.6-0.4,0.9-0.2c0.6,0.4,1.2,0.8,1.8,1.3
				c0.3,0.2,0.3,0.6,0.1,0.9C413,132.5,412.9,132.6,412.7,132.6z M409.1,130.1c-0.1,0-0.2,0-0.3-0.1c-0.6-0.4-1.2-0.8-1.8-1.2
				c-0.3-0.2-0.4-0.6-0.2-0.9c0.2-0.3,0.6-0.4,0.9-0.2c0.6,0.4,1.2,0.8,1.8,1.2c0.3,0.2,0.4,0.6,0.2,0.9
				C409.5,130,409.3,130.1,409.1,130.1z M405.5,127.8c-0.1,0-0.2,0-0.3-0.1c-0.6-0.4-1.2-0.7-1.9-1.1c-0.3-0.2-0.4-0.6-0.2-0.9
				c0.2-0.3,0.6-0.4,0.9-0.2c0.6,0.4,1.3,0.7,1.9,1.1c0.3,0.2,0.4,0.6,0.2,0.9C405.9,127.7,405.7,127.8,405.5,127.8z M291.4,127.5
				c-0.2,0-0.4-0.1-0.6-0.3c-0.2-0.3,0-0.7,0.3-0.8c0.6-0.3,1.3-0.7,1.9-1c0.3-0.2,0.7,0,0.8,0.3c0.2,0.3,0,0.7-0.3,0.8
				c-0.7,0.3-1.3,0.7-1.9,1C291.6,127.4,291.5,127.5,291.4,127.5z M401.7,125.6c-0.1,0-0.2,0-0.3-0.1c-0.6-0.3-1.3-0.7-1.9-1
				c-0.3-0.2-0.4-0.5-0.3-0.8c0.2-0.3,0.5-0.4,0.8-0.3c0.6,0.3,1.3,0.7,1.9,1c0.3,0.2,0.4,0.5,0.2,0.9
				C402.2,125.5,401.9,125.6,401.7,125.6z M295.3,125.5c-0.2,0-0.5-0.1-0.6-0.4c-0.1-0.3,0-0.7,0.3-0.8c0.6-0.3,1.3-0.6,2-0.9
				c0.3-0.1,0.7,0,0.8,0.3c0.1,0.3,0,0.7-0.3,0.8c-0.7,0.3-1.3,0.6-2,0.9C295.5,125.5,295.4,125.5,295.3,125.5z M299.2,123.7
				c-0.2,0-0.5-0.1-0.6-0.4c-0.1-0.3,0-0.7,0.3-0.8c0.7-0.3,1.3-0.6,2-0.8c0.3-0.1,0.7,0,0.8,0.3c0.1,0.3,0,0.7-0.3,0.8
				c-0.7,0.3-1.3,0.6-2,0.8C299.4,123.7,299.3,123.7,299.2,123.7z M397.9,123.6c-0.1,0-0.2,0-0.3-0.1c-0.6-0.3-1.3-0.6-1.9-0.9
				c-0.3-0.1-0.4-0.5-0.3-0.8c0.1-0.3,0.5-0.4,0.8-0.3c0.7,0.3,1.3,0.6,2,1c0.3,0.2,0.4,0.5,0.3,0.8
				C398.3,123.4,398.1,123.6,397.9,123.6z M303.2,122.1c-0.2,0-0.5-0.2-0.6-0.4c-0.1-0.3,0-0.7,0.4-0.8c0.7-0.3,1.4-0.5,2-0.8
				c0.3-0.1,0.7,0,0.8,0.4c0.1,0.3,0,0.7-0.4,0.8c-0.7,0.3-1.3,0.5-2,0.8C303.4,122.1,303.3,122.1,303.2,122.1z M394,121.7
				c-0.1,0-0.2,0-0.3-0.1c-0.7-0.3-1.3-0.6-2-0.9c-0.3-0.1-0.5-0.5-0.3-0.8c0.1-0.3,0.5-0.5,0.8-0.3c0.7,0.3,1.3,0.6,2,0.9
				c0.3,0.1,0.5,0.5,0.3,0.8C394.4,121.6,394.2,121.7,394,121.7z M307.3,120.6c-0.3,0-0.5-0.2-0.6-0.4c-0.1-0.3,0.1-0.7,0.4-0.8
				c0.7-0.2,1.4-0.5,2.1-0.7c0.3-0.1,0.7,0.1,0.8,0.4c0.1,0.3-0.1,0.7-0.4,0.8c-0.7,0.2-1.4,0.5-2,0.7
				C307.4,120.5,307.4,120.6,307.3,120.6z M390,120c-0.1,0-0.2,0-0.2,0c-0.7-0.3-1.3-0.5-2-0.8c-0.3-0.1-0.5-0.5-0.4-0.8
				c0.1-0.3,0.5-0.5,0.8-0.4c0.7,0.3,1.4,0.5,2,0.8c0.3,0.1,0.5,0.5,0.3,0.8C390.5,119.9,390.2,120,390,120z M311.4,119.2
				c-0.3,0-0.5-0.2-0.6-0.4c-0.1-0.3,0.1-0.7,0.4-0.8c0.7-0.2,1.4-0.4,2.1-0.7c0.3-0.1,0.7,0.1,0.8,0.4c0.1,0.3-0.1,0.7-0.4,0.8
				c-0.7,0.2-1.4,0.4-2.1,0.7C311.5,119.1,311.5,119.2,311.4,119.2z M385.9,118.5c-0.1,0-0.1,0-0.2,0c-0.7-0.2-1.4-0.5-2-0.7
				c-0.3-0.1-0.5-0.5-0.4-0.8c0.1-0.3,0.5-0.5,0.8-0.4c0.7,0.2,1.4,0.5,2.1,0.7c0.3,0.1,0.5,0.5,0.4,0.8
				C386.4,118.3,386.2,118.5,385.9,118.5z M315.5,117.9c-0.3,0-0.5-0.2-0.6-0.5c-0.1-0.3,0.1-0.7,0.4-0.8c0.7-0.2,1.4-0.4,2.1-0.6
				c0.3-0.1,0.7,0.1,0.8,0.4c0.1,0.3-0.1,0.7-0.4,0.8c-0.7,0.2-1.4,0.4-2.1,0.6C315.7,117.9,315.6,117.9,315.5,117.9z M381.8,117.1
				c-0.1,0-0.1,0-0.2,0c-0.7-0.2-1.4-0.4-2.1-0.6c-0.3-0.1-0.5-0.4-0.4-0.8c0.1-0.3,0.4-0.5,0.8-0.4c0.7,0.2,1.4,0.4,2.1,0.6
				c0.3,0.1,0.5,0.5,0.4,0.8C382.3,117,382.1,117.1,381.8,117.1z M319.7,116.7c-0.3,0-0.5-0.2-0.6-0.5c-0.1-0.3,0.1-0.7,0.5-0.8
				c0.7-0.2,1.4-0.4,2.1-0.5c0.3-0.1,0.7,0.1,0.8,0.5c0.1,0.3-0.1,0.7-0.5,0.8c-0.7,0.2-1.4,0.3-2.1,0.5
				C319.8,116.7,319.8,116.7,319.7,116.7z M377.6,116c-0.1,0-0.1,0-0.2,0c-0.7-0.2-1.4-0.4-2.1-0.5c-0.3-0.1-0.5-0.4-0.5-0.8
				c0.1-0.3,0.4-0.5,0.8-0.5c0.7,0.2,1.4,0.3,2.1,0.5c0.3,0.1,0.5,0.4,0.5,0.8C378.2,115.8,377.9,116,377.6,116z M323.9,115.7
				c-0.3,0-0.5-0.2-0.6-0.5c-0.1-0.3,0.1-0.7,0.5-0.7c0.7-0.2,1.4-0.3,2.1-0.5c0.3-0.1,0.7,0.1,0.7,0.5c0.1,0.3-0.1,0.7-0.5,0.7
				c-0.7,0.1-1.4,0.3-2.1,0.5C324,115.7,324,115.7,323.9,115.7z M373.4,115c0,0-0.1,0-0.1,0c-0.7-0.1-1.4-0.3-2.1-0.4
				c-0.3-0.1-0.6-0.4-0.5-0.7c0.1-0.3,0.4-0.6,0.7-0.5c0.7,0.1,1.4,0.3,2.1,0.4c0.3,0.1,0.6,0.4,0.5,0.7
				C374,114.8,373.7,115,373.4,115z M328.2,114.8c-0.3,0-0.6-0.2-0.6-0.5c-0.1-0.3,0.2-0.7,0.5-0.7c0.7-0.1,1.4-0.3,2.1-0.4
				c0.3-0.1,0.7,0.2,0.7,0.5c0.1,0.3-0.2,0.7-0.5,0.7c-0.7,0.1-1.4,0.3-2.1,0.4C328.3,114.8,328.2,114.8,328.2,114.8z M369.2,114.2
				c0,0-0.1,0-0.1,0c-0.7-0.1-1.4-0.2-2.1-0.3c-0.3-0.1-0.6-0.4-0.5-0.7c0.1-0.3,0.4-0.6,0.7-0.5c0.7,0.1,1.4,0.2,2.2,0.3
				c0.3,0.1,0.6,0.4,0.5,0.7C369.7,113.9,369.5,114.2,369.2,114.2z M332.5,114.1c-0.3,0-0.6-0.2-0.6-0.5c-0.1-0.3,0.2-0.7,0.5-0.7
				c0.7-0.1,1.4-0.2,2.2-0.3c0.3,0,0.7,0.2,0.7,0.5c0,0.3-0.2,0.7-0.5,0.7C334,113.9,333.3,114,332.5,114.1
				C332.5,114.1,332.5,114.1,332.5,114.1z M364.9,113.5C364.8,113.5,364.8,113.5,364.9,113.5c-0.8-0.1-1.5-0.2-2.2-0.3
				c-0.3,0-0.6-0.3-0.6-0.7c0-0.3,0.3-0.6,0.7-0.6c0.7,0.1,1.5,0.2,2.2,0.3c0.3,0,0.6,0.4,0.5,0.7
				C365.4,113.3,365.2,113.5,364.9,113.5z M336.8,113.5c-0.3,0-0.6-0.2-0.6-0.6c0-0.3,0.2-0.7,0.5-0.7c0.7-0.1,1.5-0.2,2.2-0.2
				c0.3,0,0.7,0.2,0.7,0.6c0,0.3-0.2,0.7-0.6,0.7C338.3,113.3,337.5,113.4,336.8,113.5C336.8,113.5,336.8,113.5,336.8,113.5z
				 M341.1,113.1c-0.3,0-0.6-0.2-0.6-0.6c0-0.3,0.2-0.6,0.6-0.7c0.7-0.1,1.5-0.1,2.2-0.2c0.3,0,0.6,0.2,0.7,0.6
				c0,0.3-0.2,0.6-0.6,0.7C342.6,113,341.8,113,341.1,113.1C341.1,113.1,341.1,113.1,341.1,113.1z M360.6,113.1
				C360.5,113.1,360.5,113.1,360.6,113.1c-0.8-0.1-1.5-0.1-2.2-0.2c-0.3,0-0.6-0.3-0.6-0.7c0-0.3,0.3-0.6,0.7-0.6
				c0.7,0,1.5,0.1,2.2,0.2c0.3,0,0.6,0.3,0.6,0.7C361.2,112.8,360.9,113.1,360.6,113.1z M345.4,112.8c-0.3,0-0.6-0.3-0.6-0.6
				c0-0.3,0.3-0.6,0.6-0.7c0.7,0,1.5-0.1,2.2-0.1c0.3,0,0.6,0.3,0.6,0.6c0,0.3-0.3,0.6-0.6,0.6C346.9,112.7,346.1,112.7,345.4,112.8
				C345.4,112.8,345.4,112.8,345.4,112.8z M356.2,112.8C356.2,112.8,356.2,112.8,356.2,112.8c-0.7,0-1.5-0.1-2.2-0.1
				c-0.3,0-0.6-0.3-0.6-0.6c0-0.3,0.3-0.6,0.6-0.6c0.7,0,1.5,0,2.2,0.1c0.3,0,0.6,0.3,0.6,0.7C356.8,112.5,356.6,112.8,356.2,112.8z
				 M349.7,112.7c-0.3,0-0.6-0.3-0.6-0.6c0-0.3,0.3-0.6,0.6-0.6c0.7,0,1.4,0,2.2,0c0.3,0,0.6,0.3,0.6,0.6c0,0.3-0.3,0.6-0.6,0.6
				c0,0,0,0,0,0C351.2,112.6,350.5,112.6,349.7,112.7C349.7,112.7,349.7,112.7,349.7,112.7z"/>
			<path class="st14" d="M449.7,210.7C449.7,210.7,449.7,210.7,449.7,210.7c-0.4,0-0.7-0.3-0.6-0.7c0,0,0-0.4,0.1-1
				c0-0.3,0.3-0.6,0.7-0.6c0.3,0,0.6,0.3,0.6,0.7c0,0.7-0.1,1.1-0.1,1.1C450.3,210.4,450.1,210.7,449.7,210.7z"/>
		</g>
		<g>
			<path class="st14" d="M149.5,190C149.4,190,149.4,190,149.5,190c-0.4,0-0.8-0.1-1.1-0.1c-0.3,0-0.6-0.3-0.6-0.7
				c0-0.3,0.3-0.6,0.7-0.6c0.4,0,0.7,0.1,1.1,0.1c0.3,0,0.6,0.4,0.6,0.7C150.1,189.8,149.8,190,149.5,190z"/>
			<path class="st14" d="M32.5,271.1C32.5,271.1,32.4,271.1,32.5,271.1c-0.4,0-0.7-0.4-0.6-0.7c0.1-0.7,0.2-1.4,0.3-2.2
				c0.1-0.3,0.4-0.6,0.7-0.5c0.3,0.1,0.6,0.4,0.5,0.7c-0.1,0.7-0.2,1.4-0.3,2.1C33.1,270.9,32.8,271.1,32.5,271.1z M33.2,266.9
				c0,0-0.1,0-0.1,0c-0.3-0.1-0.6-0.4-0.5-0.7c0.1-0.7,0.3-1.4,0.4-2.1c0.1-0.3,0.4-0.6,0.7-0.5c0.3,0.1,0.6,0.4,0.5,0.7
				c-0.1,0.7-0.3,1.4-0.4,2.1C33.7,266.6,33.5,266.9,33.2,266.9z M34,262.6c0,0-0.1,0-0.1,0c-0.3-0.1-0.6-0.4-0.5-0.7
				c0.2-0.7,0.3-1.4,0.5-2.1c0.1-0.3,0.4-0.5,0.8-0.5c0.3,0.1,0.5,0.4,0.5,0.8c-0.2,0.7-0.3,1.4-0.5,2.1
				C34.6,262.4,34.3,262.6,34,262.6z M35,258.4c-0.1,0-0.1,0-0.2,0c-0.3-0.1-0.5-0.4-0.4-0.8c0.2-0.7,0.4-1.4,0.6-2.1
				c0.1-0.3,0.4-0.5,0.8-0.4c0.3,0.1,0.5,0.4,0.4,0.8c-0.2,0.7-0.4,1.4-0.6,2.1C35.6,258.2,35.3,258.4,35,258.4z M36.2,254.3
				c-0.1,0-0.1,0-0.2,0c-0.3-0.1-0.5-0.5-0.4-0.8c0.2-0.7,0.4-1.4,0.7-2.1c0.1-0.3,0.5-0.5,0.8-0.4c0.3,0.1,0.5,0.5,0.4,0.8
				c-0.2,0.7-0.4,1.4-0.6,2C36.7,254.1,36.5,254.3,36.2,254.3z M37.6,250.2c-0.1,0-0.1,0-0.2,0c-0.3-0.1-0.5-0.5-0.4-0.8
				c0.2-0.7,0.5-1.4,0.7-2c0.1-0.3,0.5-0.5,0.8-0.4c0.3,0.1,0.5,0.5,0.4,0.8c-0.2,0.7-0.5,1.3-0.7,2C38.1,250,37.8,250.2,37.6,250.2
				z M39.1,246.2c-0.1,0-0.2,0-0.2,0c-0.3-0.1-0.5-0.5-0.4-0.8c0.3-0.7,0.5-1.3,0.8-2c0.1-0.3,0.5-0.5,0.8-0.3
				c0.3,0.1,0.5,0.5,0.3,0.8c-0.3,0.7-0.5,1.3-0.8,2C39.5,246,39.3,246.2,39.1,246.2z M40.7,242.2c-0.1,0-0.2,0-0.3-0.1
				c-0.3-0.1-0.5-0.5-0.3-0.8c0.3-0.7,0.6-1.3,0.9-2c0.1-0.3,0.5-0.4,0.8-0.3c0.3,0.1,0.4,0.5,0.3,0.8c-0.3,0.6-0.6,1.3-0.9,1.9
				C41.2,242,41,242.2,40.7,242.2z M42.6,238.3c-0.1,0-0.2,0-0.3-0.1c-0.3-0.2-0.4-0.5-0.3-0.8c0.3-0.6,0.7-1.3,1-1.9
				c0.2-0.3,0.5-0.4,0.8-0.3c0.3,0.2,0.4,0.5,0.3,0.8c-0.3,0.6-0.7,1.3-1,1.9C43,238.2,42.8,238.3,42.6,238.3z M44.6,234.5
				c-0.1,0-0.2,0-0.3-0.1c-0.3-0.2-0.4-0.5-0.2-0.9c0.4-0.6,0.7-1.3,1.1-1.9c0.2-0.3,0.6-0.4,0.9-0.2c0.3,0.2,0.4,0.6,0.2,0.9
				c-0.4,0.6-0.7,1.2-1.1,1.9C45,234.4,44.8,234.5,44.6,234.5z M46.7,230.8c-0.1,0-0.2,0-0.3-0.1c-0.3-0.2-0.4-0.6-0.2-0.9
				c0.4-0.6,0.8-1.2,1.2-1.8c0.2-0.3,0.6-0.4,0.9-0.2c0.3,0.2,0.4,0.6,0.2,0.9c-0.4,0.6-0.8,1.2-1.1,1.8
				C47.2,230.7,47,230.8,46.7,230.8z M49.1,227.1c-0.1,0-0.2,0-0.4-0.1c-0.3-0.2-0.4-0.6-0.2-0.9c0.4-0.6,0.8-1.2,1.2-1.8
				c0.2-0.3,0.6-0.3,0.9-0.1c0.3,0.2,0.3,0.6,0.1,0.9c-0.4,0.6-0.8,1.2-1.2,1.8C49.5,227,49.3,227.1,49.1,227.1z M51.6,223.6
				c-0.1,0-0.3,0-0.4-0.1c-0.3-0.2-0.3-0.6-0.1-0.9c0.4-0.6,0.9-1.2,1.3-1.7c0.2-0.3,0.6-0.3,0.9-0.1c0.3,0.2,0.3,0.6,0.1,0.9
				c-0.4,0.6-0.9,1.1-1.3,1.7C52,223.6,51.8,223.6,51.6,223.6z M54.3,220.3c-0.1,0-0.3,0-0.4-0.1c-0.3-0.2-0.3-0.6-0.1-0.9
				c0.5-0.6,0.9-1.1,1.4-1.6c0.2-0.3,0.6-0.3,0.9-0.1c0.3,0.2,0.3,0.6,0.1,0.9c-0.5,0.5-0.9,1.1-1.4,1.6
				C54.6,220.2,54.4,220.3,54.3,220.3z M57.1,217c-0.2,0-0.3-0.1-0.4-0.2c-0.3-0.2-0.3-0.6,0-0.9c0.5-0.5,1-1.1,1.5-1.6
				c0.2-0.2,0.6-0.3,0.9,0c0.2,0.2,0.3,0.6,0,0.9c-0.5,0.5-1,1-1.5,1.5C57.4,217,57.3,217,57.1,217z M60.1,214
				c-0.2,0-0.3-0.1-0.4-0.2c-0.2-0.2-0.2-0.6,0-0.9c0.5-0.5,1-1,1.6-1.5c0.3-0.2,0.7-0.2,0.9,0c0.2,0.3,0.2,0.7,0,0.9
				c-0.5,0.5-1,1-1.5,1.5C60.4,213.9,60.3,214,60.1,214z M63.3,211c-0.2,0-0.3-0.1-0.5-0.2c-0.2-0.3-0.2-0.7,0.1-0.9
				c0.5-0.5,1.1-0.9,1.6-1.4c0.3-0.2,0.7-0.2,0.9,0.1c0.2,0.3,0.2,0.7-0.1,0.9c-0.5,0.5-1.1,0.9-1.6,1.4C63.6,211,63.4,211,63.3,211
				z M66.6,208.3c-0.2,0-0.4-0.1-0.5-0.2c-0.2-0.3-0.2-0.7,0.1-0.9c0.6-0.4,1.1-0.9,1.7-1.3c0.3-0.2,0.7-0.1,0.9,0.1
				c0.2,0.3,0.1,0.7-0.1,0.9c-0.6,0.4-1.1,0.9-1.7,1.3C66.9,208.2,66.7,208.3,66.6,208.3z M70,205.7c-0.2,0-0.4-0.1-0.5-0.3
				c-0.2-0.3-0.1-0.7,0.2-0.9c0.6-0.4,1.2-0.8,1.8-1.2c0.3-0.2,0.7-0.1,0.9,0.2c0.2,0.3,0.1,0.7-0.2,0.9c-0.6,0.4-1.2,0.8-1.8,1.2
				C70.3,205.7,70.2,205.7,70,205.7z M73.6,203.3c-0.2,0-0.4-0.1-0.5-0.3c-0.2-0.3-0.1-0.7,0.2-0.9c0.6-0.4,1.2-0.8,1.8-1.1
				c0.3-0.2,0.7-0.1,0.9,0.2c0.2,0.3,0.1,0.7-0.2,0.9c-0.6,0.4-1.2,0.7-1.8,1.1C73.8,203.3,73.7,203.3,73.6,203.3z M77.3,201.1
				c-0.2,0-0.4-0.1-0.5-0.3c-0.2-0.3-0.1-0.7,0.2-0.9c0.6-0.4,1.3-0.7,1.9-1c0.3-0.2,0.7,0,0.8,0.3c0.2,0.3,0,0.7-0.3,0.8
				c-0.6,0.3-1.3,0.7-1.9,1C77.5,201.1,77.4,201.1,77.3,201.1z M81.1,199.1c-0.2,0-0.5-0.1-0.6-0.3c-0.2-0.3,0-0.7,0.3-0.8
				c0.6-0.3,1.3-0.6,2-0.9c0.3-0.1,0.7,0,0.8,0.3c0.1,0.3,0,0.7-0.3,0.8c-0.6,0.3-1.3,0.6-1.9,0.9C81.3,199.1,81.2,199.1,81.1,199.1
				z M85,197.3c-0.2,0-0.5-0.1-0.6-0.4c-0.1-0.3,0-0.7,0.3-0.8c0.7-0.3,1.3-0.6,2-0.8c0.3-0.1,0.7,0,0.8,0.3c0.1,0.3,0,0.7-0.3,0.8
				c-0.7,0.3-1.3,0.5-2,0.8C85.2,197.3,85.1,197.3,85,197.3z M89,195.7c-0.3,0-0.5-0.2-0.6-0.4c-0.1-0.3,0-0.7,0.4-0.8
				c0.7-0.3,1.4-0.5,2-0.7c0.3-0.1,0.7,0.1,0.8,0.4c0.1,0.3-0.1,0.7-0.4,0.8c-0.7,0.2-1.3,0.5-2,0.7C89.1,195.7,89.1,195.7,89,195.7
				z M93,194.2c-0.3,0-0.5-0.2-0.6-0.4c-0.1-0.3,0.1-0.7,0.4-0.8c0.7-0.2,1.4-0.4,2.1-0.7c0.3-0.1,0.7,0.1,0.8,0.4
				c0.1,0.3-0.1,0.7-0.4,0.8c-0.7,0.2-1.4,0.4-2,0.6C93.2,194.2,93.1,194.2,93,194.2z M97.2,193c-0.3,0-0.5-0.2-0.6-0.5
				c-0.1-0.3,0.1-0.7,0.4-0.8c0.7-0.2,1.4-0.4,2.1-0.6c0.3-0.1,0.7,0.1,0.8,0.5c0.1,0.3-0.1,0.7-0.5,0.8c-0.7,0.2-1.4,0.4-2.1,0.6
				C97.3,193,97.2,193,97.2,193z M101.3,191.9c-0.3,0-0.5-0.2-0.6-0.5c-0.1-0.3,0.1-0.7,0.5-0.8c0.7-0.2,1.4-0.3,2.1-0.5
				c0.3-0.1,0.7,0.1,0.7,0.5c0.1,0.3-0.1,0.7-0.5,0.7c-0.7,0.1-1.4,0.3-2.1,0.5C101.4,191.9,101.4,191.9,101.3,191.9z M105.5,191
				c-0.3,0-0.6-0.2-0.6-0.5c-0.1-0.3,0.2-0.7,0.5-0.7c0.7-0.1,1.4-0.3,2.1-0.4c0.3-0.1,0.7,0.2,0.7,0.5c0.1,0.3-0.2,0.7-0.5,0.7
				c-0.7,0.1-1.4,0.3-2.1,0.4C105.6,191,105.6,191,105.5,191z M109.8,190.3c-0.3,0-0.6-0.2-0.6-0.5c-0.1-0.3,0.2-0.7,0.5-0.7
				c0.7-0.1,1.4-0.2,2.1-0.3c0.3,0,0.7,0.2,0.7,0.5c0,0.3-0.2,0.7-0.5,0.7C111.3,190.1,110.6,190.2,109.8,190.3
				C109.8,190.3,109.8,190.3,109.8,190.3z M114,189.7c-0.3,0-0.6-0.2-0.6-0.6c0-0.3,0.2-0.7,0.5-0.7c0.7-0.1,1.4-0.2,2.1-0.2
				c0.3,0,0.7,0.2,0.7,0.6c0,0.3-0.2,0.7-0.6,0.7C115.5,189.5,114.8,189.6,114,189.7C114.1,189.7,114.1,189.7,114,189.7z
				 M146.3,189.7C146.2,189.7,146.2,189.7,146.3,189.7c-0.8-0.1-1.5-0.1-2.2-0.2c-0.3,0-0.6-0.3-0.6-0.7c0-0.3,0.3-0.6,0.7-0.6
				c0.7,0.1,1.4,0.1,2.2,0.2c0.3,0,0.6,0.3,0.6,0.7C146.8,189.4,146.6,189.7,146.3,189.7z M142,189.3
				C142,189.3,141.9,189.3,142,189.3c-0.8-0.1-1.5-0.1-2.2-0.1c-0.3,0-0.6-0.3-0.6-0.7c0-0.3,0.3-0.6,0.7-0.6c0.7,0,1.4,0.1,2.2,0.1
				c0.3,0,0.6,0.3,0.6,0.7C142.6,189,142.3,189.3,142,189.3z M118.3,189.3c-0.3,0-0.6-0.2-0.6-0.6c0-0.3,0.2-0.6,0.6-0.7
				c0.7-0.1,1.4-0.1,2.2-0.2c0.3,0,0.6,0.2,0.7,0.6c0,0.3-0.2,0.6-0.6,0.7C119.8,189.2,119.1,189.2,118.3,189.3
				C118.4,189.3,118.3,189.3,118.3,189.3z M137.7,189C137.7,189,137.7,189,137.7,189c-0.7,0-1.5-0.1-2.2-0.1c-0.3,0-0.6-0.3-0.6-0.6
				c0-0.3,0.3-0.6,0.6-0.6c0.7,0,1.4,0.1,2.2,0.1c0.3,0,0.6,0.3,0.6,0.7C138.3,188.8,138,189,137.7,189z M122.6,189
				c-0.3,0-0.6-0.3-0.6-0.6c0-0.3,0.2-0.6,0.6-0.7c0.7,0,1.4-0.1,2.2-0.1c0.3,0,0.6,0.3,0.6,0.6c0,0.3-0.3,0.6-0.6,0.6
				C124.1,188.9,123.4,189,122.6,189C122.6,189,122.6,189,122.6,189z M133.4,188.9C133.4,188.9,133.4,188.9,133.4,188.9
				c-0.7,0-1.5,0-2.2,0c-0.3,0-0.6-0.3-0.6-0.6c0-0.3,0.3-0.6,0.6-0.6c0.7,0,1.4,0,2.2,0c0.3,0,0.6,0.3,0.6,0.6
				C134,188.6,133.7,188.9,133.4,188.9z M126.9,188.8c-0.3,0-0.6-0.3-0.6-0.6c0-0.3,0.3-0.6,0.6-0.6c0.7,0,1.4,0,2.2,0c0,0,0,0,0,0
				c0.3,0,0.6,0.3,0.6,0.6c0,0.3-0.3,0.6-0.6,0.6C128.3,188.8,127.6,188.8,126.9,188.8C126.9,188.8,126.9,188.8,126.9,188.8z"/>
			<path class="st14" d="M32.2,274.3C32.1,274.3,32.1,274.3,32.2,274.3c-0.4,0-0.6-0.3-0.6-0.7c0,0,0-0.4,0.1-1.1
				c0-0.3,0.3-0.6,0.7-0.6c0.3,0,0.6,0.3,0.6,0.7c-0.1,0.7-0.1,1-0.1,1C32.8,274.1,32.5,274.3,32.2,274.3z"/>
		</g>
		<path class="st26" d="M489.4,317.5H10.6c-0.3,0-0.5-0.2-0.5-0.5l0,0c0-0.3,0.2-0.5,0.5-0.5h478.8c0.3,0,0.5,0.2,0.5,0.5v0
			C490,317.3,489.7,317.5,489.4,317.5z"/>
	</g>
</g>
</svg>
