<?xml version="1.0" encoding="utf-8"?>
<!-- Generator: Adobe Illustrator 26.0.1, SVG Export Plug-In . SVG Version: 6.00 Build 0)  -->
<svg version="1.1" id="Layer_1" xmlns="http://www.w3.org/2000/svg" xmlns:xlink="http://www.w3.org/1999/xlink" x="0px" y="0px"
	 viewBox="0 0 327 300" style="enable-background:new 0 0 327 300;" xml:space="preserve">
<style type="text/css">
	.st0{fill:#E88100;}
	.st1{fill:#EEA67B;}
	.st2{fill:#444248;}
	.st3{fill:#FBB810;}
	.st4{fill:#64739A;}
	.st5{opacity:0.52;fill:#FFFFFF;}
	.st6{opacity:0.59;fill:#FFFFFF;}
	.st7{fill:#B8B8B8;}
	.st8{opacity:0.36;}
	.st9{fill:#CAA92C;}
	.st10{fill:#F7B896;}
	.st11{fill:#FFFFFF;}
</style>
<g>
	<path class="st0" d="M159.74,162.92c-1.27,0.01-2.43-0.71-2.98-1.85l-12.88-26.75c-0.36-0.74-0.52-1.55-0.48-2.37
		c0.12-2.74,3.02-8.26,9.11-5.28c1.02,0.5,2.27,1.8,2.81,2.8l9.11,18.92c0.51,0.95,1.46,1.59,2.54,1.71l28.19,2.2l-0.15,10.3
		L159.74,162.92z"/>
	<path class="st1" d="M196.34,152.22c-0.4-0.01-0.79,0.03-1.17,0.08l-0.15,10.3c0.38,0.07,0.77,0.11,1.17,0.12
		c3.47,0.05,6.32-2.26,6.36-5.16C202.6,154.66,199.81,152.27,196.34,152.22z"/>
	<path class="st2" d="M327,293.12c-0.12-45.72-0.23-91.44-0.35-137.16v-17.76h-14.1h-3.29V58.77h-19.74h-6.58h-10.34v35.73h10.34
		v152.82h26.32v-91.34h3.29c0.17,45.72,0.34,91.44,0.51,137.16C317.71,293.12,322.35,293.12,327,293.12z"/>
	<rect x="293.14" y="58.77" class="st3" width="6.64" height="188.54"/>
	<g>
		<path class="st2" d="M225.75,69.52c-3.03-6.36-9.15-10.69-16.16-11.43L77.1,45.41c-5.19-0.55-9.72,3.52-9.72,8.74v98.95
			l16.94,15.16v-1.74V71.6c0-5.22,4.52-9.29,9.71-8.74l105.47,9.78c7.05,0.74,13.19,5.11,16.21,11.52l21.67,73.18l1.09,2.31h17.49
			L225.75,69.52z"/>
		<path class="st2" d="M226.6,175.38l-15.25-23.36c4.82-6.93,5.61-12.66,2.29-13.46c-3.12-0.75-9.11,3.15-13.96,8.81
			c-5.05,5.88-8.19,12.86-6.59,15.78c1.58,2.9,7.04,0.89,12.71-4.59l12.8,17.92L226.6,175.38z M197.21,158.21
			c-1.24-1.59,0.58-5.97,3.87-9.84c3.21-3.77,7.11-6.23,8.96-5.51c2.07,0.8,0.91,5.21-2.92,9.89
			C203.17,157.58,198.61,160,197.21,158.21z"/>
		<polygon class="st4" points="218.66,151.5 193.92,170.96 193.92,240.78 225.35,240.78 225.35,151.5 		"/>
		<path class="st4" d="M130.08,179.97c-1.73-4.51-4.18-18.37-6.78-30.09c-1.3-5.89-4.85-11.62-10.84-12.33
			c-0.04,0-0.08-0.01-0.11-0.01c-4.7-0.29-9.39-0.42-14.06-0.55c-1.69-0.05-3.05,1.35-2.97,3.03c0.77,15.9,3.6,45.42,14.03,58.93
			c14.65,18.98,34.3,45.29,34.3,45.29h31.06l-6.15-48.08c0,0,0.86-4.4-30.09-7.95C134.72,187.75,131.43,183.5,130.08,179.97z"/>
		<path class="st3" d="M252.07,151.28h-35.24c0,0,7.27,80-6.18,80c-13.45,0-64.72,0-64.72,0l-18.26-42.49l-61.2-42.96
			c-21.09,0-33.14,11.79-42.78,30.55l-0.22,0.43c-4.09,7.96-6.22,16.77-6.22,25.72v50.08c0,11.92,2.39,21.58,14.31,21.58h248.48
			c-24.07-49.95,6.63-57.23,6.63-57.23S256.49,161.67,252.07,151.28z"/>
		<path class="st5" d="M85.2,206.55c-29.32,0-53.09,23.77-53.09,53.09c0,5.05,0.75,9.92,2.07,14.54h12.26
			c-0.45-2.64-0.77-5.33-0.77-8.12c0-24.43,17.7-44.24,39.53-44.24c21.83,0,39.53,19.81,39.53,44.24c0,2.79-0.32,5.48-0.77,8.12
			h12.26c1.32-4.63,2.07-9.49,2.07-14.54C138.29,230.32,114.52,206.55,85.2,206.55z"/>
		<path class="st6" d="M295.4,236.87l8.59-14c-9.66-10.05-23.23-16.32-38.27-16.32c-29.32,0-53.09,23.77-53.09,53.09
			c0,5.05,0.75,9.92,2.07,14.54h12.26c-0.45-2.64-0.77-5.33-0.77-8.12c0-24.43,17.7-44.24,39.53-44.24
			C277.55,221.82,288.16,227.65,295.4,236.87z"/>
		
			<ellipse transform="matrix(0.2308 -0.973 0.973 0.2308 -48.2363 458.2613)" class="st2" cx="265.72" cy="259.64" rx="40.36" ry="40.36"/>
		<path class="st7" d="M290.44,259.64c0,13.66-11.07,24.73-24.73,24.73c-13.66,0-24.73-11.07-24.73-24.73
			c0-13.66,11.07-24.73,24.73-24.73C279.37,234.91,290.44,245.98,290.44,259.64z"/>
		
			<ellipse transform="matrix(0.7456 -0.6664 0.6664 0.7456 -151.3477 122.8317)" class="st2" cx="85.2" cy="259.64" rx="40.36" ry="40.36"/>
		<path class="st7" d="M109.93,259.64c0,13.66-11.07,24.73-24.73,24.73s-24.73-11.07-24.73-24.73c0-13.66,11.07-24.73,24.73-24.73
			S109.93,245.98,109.93,259.64z"/>
		<path class="st2" d="M276.15,259.64c0,5.76-4.67,10.43-10.43,10.43c-5.76,0-10.43-4.67-10.43-10.43c0-5.76,4.67-10.43,10.43-10.43
			C271.48,249.21,276.15,253.88,276.15,259.64z"/>
		<path class="st2" d="M95.63,259.64c0,5.76-4.67,10.43-10.43,10.43c-5.76,0-10.43-4.67-10.43-10.43c0-5.76,4.67-10.43,10.43-10.43
			C90.96,249.21,95.63,253.88,95.63,259.64z"/>
	</g>
	<polygon class="st1" points="142.24,114.94 141.8,130.85 150.11,131.01 150.79,115.07 	"/>
	<path class="st0" d="M163.17,170.66l22.8,13.47c2.57,1.52,4.02,4.38,3.72,7.35l-3.16,31.19h-15.74l-0.52-27.87l-26.45-5.71
		c-5.14-1.11-8.81-5.66-8.81-10.92v-9.11L163.17,170.66z"/>
	<path class="st2" d="M171.87,222.67v8.75h22.42c0,0,4.24-5.96-7.76-8.75H171.87z"/>
	<path class="st3" d="M181.76,184.13l-16.88-12.66c-1.07-18.41-4.07-26.63-5.6-34.38c-0.84-4.27-4.1-9.44-8.11-12.37
		c-0.81,0.14-1.65,0.23-2.56,0.23c-2.83,0-5.21-0.73-7.15-1.94c-4.75,1.46-8.4,5.56-9.28,10.62c-2.92,16.75-2.05,33.44-1.74,37.84
		l0.36,6.71c0,5.26,3.67,9.81,8.81,10.92l26.45,5.71l0.52,27.87h15.74l3.16-31.19C185.78,188.51,184.33,185.64,181.76,184.13z"/>
	<g class="st8">
		<path class="st9" d="M159.76,151.67l-9.11-18.92c-0.54-1-1.79-2.3-2.81-2.8c-6.1-2.98-9,2.54-9.11,5.28
			c-0.04,0.82,0.13,1.63,0.48,2.37l9.94,27.21c0.55,1.14,1.71,1.86,2.98,1.85h12.41c0,0-0.71-8.13-0.86-12.31
			C163.41,154.11,159.94,152,159.76,151.67z"/>
	</g>
	<path class="st3" d="M156.45,163.76c-1.27,0.01-2.43-0.71-2.98-1.85l-12.88-26.75c-0.36-0.74-0.52-1.55-0.48-2.37
		c0.12-2.74,3.02-8.26,9.11-5.28c1.02,0.5,2.27,1.8,2.81,2.8l9.11,18.92c0.51,0.95,1.46,1.59,2.54,1.71l28.19,2.2l-0.15,10.3
		L156.45,163.76z"/>
	<path class="st10" d="M193.04,153.06c-0.4-0.01-0.79,0.03-1.17,0.08l-0.15,10.3c0.38,0.06,0.77,0.11,1.17,0.11
		c3.47,0.05,6.32-2.26,6.36-5.16C199.3,155.5,196.52,153.11,193.04,153.06z"/>
	<g>
		<g>
			<path class="st2" d="M167.65,76.95c-1.78,2.22-8.32,1.89-21.33-0.56c-6.25-1.17-11.21,0.54-13.64,2.68
				c-5.74,5.06-7,11.75-5.06,21.2c1.62,7.89,10.03,10.14,10.03,10.14c-0.55-3.46-0.33-8-0.33-8s-0.48-3-1.21-6.63
				c1.3,0.75,1.48,2.14,1.48,2.14h3.33c0,0-0.78-4.77,0.55-7.66c1.33-2.89,0.67-1.11,15.3-1.11c2.63,0,4.66-0.41,6.23-1.05
				C170.15,85.15,167.65,76.95,167.65,76.95z"/>
			<path class="st10" d="M141.46,89.33c-1.33,2.89-0.55,7.66-0.55,7.66h-3.33c0,0-0.27-2.27-2.81-2.57
				c-0.97-0.12-3.19,0.79-3.52,3.26c-0.02,0.18-0.05,0.35-0.05,0.53c0,3.03,2.42,5.49,5.41,5.49c0.14,0,0.28-0.03,0.42-0.04v4.12
				c0,7.1,5.75,12.85,12.85,12.85h0.26c7.1,0,12.85-5.75,12.85-12.85V87.17c-1.57,0.65-3.59,1.05-6.23,1.05
				C142.13,88.23,142.8,86.45,141.46,89.33z"/>
		</g>
		<circle class="st2" cx="156.96" cy="99.79" r="1.78"/>
		<path class="st11" d="M161.67,113.47c0.01,0,1.32-1.76,1.3-5.28h-5.72C157.24,108.19,157.85,112.86,161.67,113.47z"/>
		<path class="st2" d="M158.53,96.13h-3.57c-0.35,0-0.64-0.29-0.64-0.64v-0.11c0-0.35,0.29-0.64,0.64-0.64h3.57
			c0.35,0,0.64,0.29,0.64,0.64v0.11C159.17,95.84,158.88,96.13,158.53,96.13z"/>
	</g>
	<path class="st2" d="M167.66,222.67v8.75h22.42c0,0,4.24-5.96-7.76-8.75H167.66z"/>
</g>
</svg>
