<?xml version="1.0" standalone="no"?>
<svg xmlns:xlink="http://www.w3.org/1999/xlink" id="wave" style="transform:rotate(180deg); transition: 0.3s" viewBox="0 0 1440 340" version="1.1" xmlns="http://www.w3.org/2000/svg"><defs><linearGradient id="sw-gradient-0" x1="0" x2="0" y1="1" y2="0"><stop stop-color="rgba(255, 255, 255, 0)" offset="0%"/><stop stop-color="rgba(255, 193.202, 56.597, 1)" offset="100%"/></linearGradient></defs><path style="transform:translate(0, 0px); opacity:1" fill="url(#sw-gradient-0)" d="M0,68L30,107.7C60,147,120,227,180,243.7C240,261,300,215,360,192.7C420,170,480,170,540,170C600,170,660,170,720,147.3C780,125,840,79,900,85C960,91,1020,147,1080,170C1140,193,1200,181,1260,153C1320,125,1380,79,1440,62.3C1500,45,1560,57,1620,56.7C1680,57,1740,45,1800,45.3C1860,45,1920,57,1980,73.7C2040,91,2100,113,2160,130.3C2220,147,2280,159,2340,175.7C2400,193,2460,215,2520,198.3C2580,181,2640,125,2700,124.7C2760,125,2820,181,2880,175.7C2940,170,3000,102,3060,96.3C3120,91,3180,147,3240,147.3C3300,147,3360,91,3420,85C3480,79,3540,125,3600,130.3C3660,136,3720,102,3780,96.3C3840,91,3900,113,3960,102C4020,91,4080,45,4140,73.7C4200,102,4260,204,4290,255L4320,306L4320,340L4290,340C4260,340,4200,340,4140,340C4080,340,4020,340,3960,340C3900,340,3840,340,3780,340C3720,340,3660,340,3600,340C3540,340,3480,340,3420,340C3360,340,3300,340,3240,340C3180,340,3120,340,3060,340C3000,340,2940,340,2880,340C2820,340,2760,340,2700,340C2640,340,2580,340,2520,340C2460,340,2400,340,2340,340C2280,340,2220,340,2160,340C2100,340,2040,340,1980,340C1920,340,1860,340,1800,340C1740,340,1680,340,1620,340C1560,340,1500,340,1440,340C1380,340,1320,340,1260,340C1200,340,1140,340,1080,340C1020,340,960,340,900,340C840,340,780,340,720,340C660,340,600,340,540,340C480,340,420,340,360,340C300,340,240,340,180,340C120,340,60,340,30,340L0,340Z"/></svg>