<?xml version="1.0" encoding="utf-8"?>
<!-- Generator: Adobe Illustrator 25.2.0, SVG Export Plug-In . SVG Version: 6.00 Build 0)  -->
<svg version="1.1" id="Layer_1" xmlns="http://www.w3.org/2000/svg" xmlns:xlink="http://www.w3.org/1999/xlink" x="0px" y="0px"
	 viewBox="0 0 2000 2000" style="enable-background:new 0 0 2000 2000;" xml:space="preserve">
<style type="text/css">
	.st0{fill:#FBB810;}
	.st1{fill:none;stroke:#FFFFFF;stroke-width:2;stroke-miterlimit:10;}
	.st2{fill:#FFFFFF;}
</style>
<g>
	<g>
		<g>
			<path class="st0" d="M362.22,902.01l-76.61-16.89l-116.06,470.91l91.29-18.33l13.74-109.38l45.24-6.28l14.07,102.78l82.84-14.34
				L362.22,902.01z M280.37,1135.02l37.7-133.21l14.45,133.21"/>
		</g>
		<polygon class="st0" points="409.82,914.16 464.75,1302.17 526.06,1291.48 559.36,1179.64 595.81,1285.2 642.31,1285.2 
			748.11,956.55 681.51,953.41 619.06,1160.16 596.44,1086.64 543.66,1083.5 502.18,1158.27 477.68,927.35 		"/>
		<polygon class="st0" points="896.16,961.14 763.26,957.83 722.71,1275.15 857.13,1267.73 859.56,1213.78 797.58,1211.89 
			802.54,1165.19 863.49,1167.07 866.63,1111.78 807.25,1108.63 818.17,1034.83 888.89,1035.71 		"/>
		<path class="st0" d="M1020.77,963.89v51.58c0,0-37.07-3.68-36.44,23.95c0.63,27.63,68.76,68.78,54.79,148.6
			c-12.69,72.46-68.47,92.11-139.86,58.95l27.26-54.04c0,0,28.9,22.11,52.15-1.84c23.25-23.95-0.63-62.63-23.25-91.18
			s-51.53-67.9-20.11-105.33C966.73,957.14,1020.77,963.89,1020.77,963.89z"/>
		<g>
			<path class="st0" d="M1172.92,957.83c-118.76,0-148.29,306.45-22.62,306.45C1294.2,1264.28,1299.85,957.83,1172.92,957.83z
				 M1155.04,1203.15c-60.6-2.75-37.75-179.31,19.52-176.71C1235.77,1029.21,1224.43,1206.29,1155.04,1203.15z"/>
		</g>
		<polygon class="st0" points="1307.11,1270.44 1321.56,941.49 1393.82,941.49 1447.23,1053.97 1492.47,931.44 1573.53,920.75 
			1584.02,1306.92 1506.3,1292.74 1503.16,1079.73 1473.62,1146.33 1425.87,1147.59 1387.54,1080.99 1379.62,1278.91 		"/>
		<polygon class="st0" points="1851.89,862.32 1645.16,905.85 1641.03,1317.41 1814.31,1357.98 1831.57,1254.48 1726.22,1237.45 
			1726.22,1130.63 1828.02,1130.63 1828.02,1040.14 1728.74,1045.8 1728.74,966 1851.89,949.66 		"/>
		<polyline class="st1" points="427.14,921.37 471.12,1250.01 550.92,1106.75 600.56,1253.78 696.45,956.55 		"/>
		<polyline class="st1" points="189.3,1348.1 283.24,941.49 322.83,941.49 356.76,1317.89 		"/>
		<line class="st1" x1="342.47" y1="1172.77" x2="226.69" y2="1176.97"/>
		<polyline class="st1" points="871.77,999.61 766.14,996.18 737.72,1242.03 838.7,1238.27 		"/>
		<line class="st1" x1="845.4" y1="1137.76" x2="750.18" y2="1134.21"/>
		<path class="st1" d="M1001.02,988.46c0,0-48.38-10.44-62.21,28.86c-13.82,39.3,39.59,66.32,54.04,120.97
			c14.45,54.65-29.32,120.16-101.37,84.95"/>
		<path class="st1" d="M1156.48,985.39c-86.19-3.91-120.22,254.39-29.01,258.53C1231.89,1248.65,1248.59,989.56,1156.48,985.39z"/>
		<polyline class="st1" points="1320.92,1274.36 1335.74,969.89 1426.55,1111.78 1511.05,954.06 1524.46,1300.31 		"/>
		<polyline class="st1" points="1832.14,903.79 1664.37,932.69 1664.37,1275.15 1803.4,1304.99 		"/>
		<line class="st1" x1="1808.27" y1="1082.87" x2="1664.37" y2="1087.58"/>
	</g>
	<path class="st2" d="M1213.08,813.09c0,0,8.63-12.24,11.16-12.22c2.53,0.02,4.38,14.36,4.38,14.36s19.53,2.45,19.88,3.29
		c0.35,0.84-16.13,5.03-16.13,5.03s7.07,16.25,6.99,17.32c-0.09,1.07-20.05-10.46-20.05-10.46s-19.44,7.13-21.59,6.47
		c-2.15-0.65,9.61-15.39,9.61-15.39s-13.42-8.03-13.01-8.84C1194.72,811.85,1213.08,813.09,1213.08,813.09z"/>
	<path class="st2" d="M762.47,810.95c0,0,4.09-13.86,6.51-14.47c2.42-0.61,9.08,12.64,9.08,12.64s19.52-2.54,20.13-1.82
		c0.62,0.72-13.72,8.84-13.72,8.84s12.31,13.78,12.58,14.83c0.28,1.05-22.74-5-22.74-5s-16.16,11.67-18.45,11.58
		c-2.28-0.09,3.94-17.12,3.94-17.12s-15.57-4.33-15.46-5.2C744.48,814.36,762.47,810.95,762.47,810.95z"/>
	<g>
		<path class="st2" d="M833.03,794.39l15.09-1.22l11.48,30.25l7.43-31.93l12.3-0.99l12.45,30.32l6.48-31.7l14.8-1.19l-12.88,55.3
			l-12.44,1l-12.87-29.98l-7.82,31.65l-12.44,1L833.03,794.39z"/>
		<path class="st2" d="M921.1,788.1l41.58-1.01l0.31,12.66l-27.4,0.67l0.2,8.13l24.81-0.6l0.28,11.74l-24.81,0.6l0.21,8.51
			l27.77-0.68l0.31,12.66l-41.95,1.02L921.1,788.1z"/>
		<path class="st2" d="M1011.1,787.41l13.81,0.47l20.15,54.81l-15.36-0.53l-3.44-9.71l-19.94-0.68l-4.02,9.46l-15.06-0.52
			L1011.1,787.41z M1022.52,820.74l-5.24-15.46l-6.36,15.06L1022.52,820.74z"/>
		<path class="st2" d="M1053.74,789.54l24.38,1.95c7.88,0.63,13.16,3.21,16.33,7.15c2.77,3.3,3.99,7.55,3.57,12.83l-0.01,0.15
			c-0.65,8.18-5.29,13.28-11.92,15.6l10.81,19.64l-16.5-1.32l-9.09-17.04l-0.15-0.01l-6.11-0.49l-1.3,16.21l-14.29-1.14
			L1053.74,789.54z M1075.4,817.14c4.86,0.39,7.85-1.84,8.17-5.74l0.01-0.15c0.34-4.21-2.44-6.58-7.23-6.97l-9.35-0.75l-1.03,12.85
			L1075.4,817.14z"/>
		<path class="st2" d="M1108.56,794.21l41.26,5.24l-1.59,12.56l-27.19-3.45l-1.02,8.07l24.62,3.12l-1.48,11.65l-24.62-3.12
			l-1.07,8.45l27.56,3.5l-1.59,12.56l-41.63-5.28L1108.56,794.21z"/>
	</g>
	<path class="st2" d="M625.55,539.36l54.39-7.53l10.17,73.45l69.8-9.66l-10.17-73.45l54.39-7.53l27.16,196.24l-54.39,7.53
		l-10.32-74.57l-69.8,9.66l10.32,74.57l-54.39,7.53L625.55,539.36z"/>
	<path class="st2" d="M852.59,610.16l-0.01-0.57c-0.57-56.88,44.81-103.47,105.94-104.09c61.13-0.62,106.87,44.49,107.44,101.37
		l0.01,0.57c0.57,56.88-44.81,103.47-105.94,104.09C898.9,712.15,853.16,667.04,852.59,610.16z M1009.94,608.57l-0.01-0.57
		c-0.29-28.58-21.2-53.28-51.48-52.97c-30,0.3-49.85,24.84-49.56,53.43l0.01,0.57c0.29,28.58,21.2,53.28,51.2,52.98
		C990.38,661.7,1010.22,637.16,1009.94,608.57z"/>
	<path class="st2" d="M1090.96,505.77l57.51,7.67l19.07,118.18l53.1-109.12l46.85,6.25l22.64,119.22l49.38-109.05l56.39,7.52
		l-92.02,189.02l-47.41-6.32l-24.48-118.33l-54.35,107.81l-47.41-6.32L1090.96,505.77z"/>
</g>
</svg>
