<?xml version="1.0" encoding="utf-8"?>
<!-- Generator: Adobe Illustrator 25.2.0, SVG Export Plug-In . SVG Version: 6.00 Build 0)  -->
<svg version="1.1" xmlns="http://www.w3.org/2000/svg" xmlns:xlink="http://www.w3.org/1999/xlink" x="0px" y="0px"
	 viewBox="0 0 500 500" style="enable-background:new 0 0 500 500;" xml:space="preserve">
<style type="text/css">
	.st0{display:none;}
	.st1{display:inline;}
	.st2{fill:#407BFF;}
	.st3{opacity:0.9;fill:#FFFFFF;}
	.st4{opacity:0.15;}
	.st5{fill:#434343;}
	.st6{fill:#FFFFFF;}
	.st7{fill:#263238;}
	.st8{fill:#FFB61F;}
	.st9{opacity:0.2;}
</style>
<g id="Background_Complete">
</g>
<g id="Background_Simple" class="st0">
	<g class="st1">
		<path class="st2" d="M298.37,335.5C382,299.85,469.46,233.1,432.31,134.95C398.6,45.91,284.74,25.7,219.62,102.42
			c-28.09,33.09-23.18,77.05-57.16,106.51c-33.97,29.45-90.4,45.83-75.13,103.97C110.97,402.91,243.33,358.95,298.37,335.5z"/>
		<path class="st3" d="M298.37,335.5C382,299.85,469.46,233.1,432.31,134.95C398.6,45.91,284.74,25.7,219.62,102.42
			c-28.09,33.09-23.18,77.05-57.16,106.51c-33.97,29.45-90.4,45.83-75.13,103.97C110.97,402.91,243.33,358.95,298.37,335.5z"/>
	</g>
</g>
<g id="Shadow_1_">
	<ellipse id="_x3C_Path_x3E__368_" class="st4" cx="250" cy="416.24" rx="193.89" ry="11.32"/>
</g>
<g id="Character_1_">
	<path class="st5" d="M360.6,263.05c-0.12,0-0.24,0-0.36-0.01c-26.63-2.18-44.97-24.95-45.74-25.92c-1.53-1.93-1.21-4.74,0.72-6.28
		c1.93-1.53,4.74-1.21,6.27,0.72c0.21,0.27,15.9,19.61,37.63,22.37c7.05-6.99,12.98-25.48,12.33-31.08
		c-0.01-0.05-0.01-0.1-0.01-0.16c-0.15-1.8-0.48-7.96,1.29-11.64c1.07-2.22,3.74-3.16,5.96-2.09c2.22,1.07,3.16,3.74,2.09,5.96
		c-0.44,0.92-0.65,4.24-0.44,6.99c0.99,9.2-6.98,32.42-17,40.19C362.55,262.73,361.59,263.05,360.6,263.05z"/>
	<path class="st5" d="M148.82,238.82c-7.93,0-30.38-1.95-48.56-22.28c-1.41-1.58-1.52-3.94-0.26-5.64
		c7.22-9.71,19.96-32.64,21.95-40.11c-0.82-1.42-2.3-3.46-4.14-4.33c-1.42-0.67-2.39-2.04-2.55-3.6l-0.72-7.32
		c-0.24-2.46,1.55-4.64,4.01-4.88c2.45-0.24,4.64,1.55,4.88,4.01l0.5,5.09c4.36,3.13,6.54,8.01,6.81,8.64
		c0.3,0.71,0.41,1.49,0.33,2.26c-0.92,7.94-13.79,30.9-21.71,42.51c18.49,18.43,40.59,16.75,41.56,16.66
		c2.44-0.2,4.62,1.6,4.84,4.05c0.22,2.45-1.58,4.62-4.03,4.85C151.52,238.74,150.49,238.82,148.82,238.82z"/>
	<path class="st5" d="M292.87,416.09H280.9c-1.4,0-2.71-0.65-3.56-1.76c-0.84-1.11-1.12-2.55-0.75-3.9
		c3.13-11.24,4.67-20.38,5.82-34.71c-4.24-19.95-8.23-38.21-8.27-38.4c-0.53-2.41,1-4.79,3.41-5.32c2.41-0.53,4.79,1,5.32,3.41
		c0.04,0.19,4.12,18.86,8.42,39.08c0.09,0.42,0.12,0.85,0.08,1.28c-1.01,12.86-2.31,21.75-4.68,31.38h6.18c2.47,0,4.47,2,4.47,4.47
		C297.33,414.09,295.33,416.09,292.87,416.09z"/>
	<path class="st5" d="M200.32,416.09h-6.76c-1.29,0-2.52-0.56-3.37-1.54c-0.85-0.97-1.23-2.27-1.05-3.55
		c1.15-8.2,7.04-23.13,13.3-38.14c2.23-19.8,4.06-36.8,4.08-36.97c0.26-2.45,2.46-4.24,4.92-3.96c2.45,0.26,4.23,2.46,3.96,4.92
		c-0.02,0.17-1.89,17.56-4.15,37.65c-0.05,0.42-0.15,0.83-0.32,1.22c-4.44,10.63-9.49,23.15-11.8,31.44h1.2c2.47,0,4.47,2,4.47,4.47
		C204.79,414.09,202.79,416.09,200.32,416.09z"/>
	<path class="st6" d="M204.21,110.98l-52.07,52.07c-2.62,57.71-2.4,118.33,0,181.19h172.16c-3.41-81.11-3.73-159.18,0-233.25H204.21
		z"/>
	<path class="st7" d="M324.31,345.12H152.15c-0.48,0-0.87-0.38-0.89-0.86c-2.5-65.26-2.5-126.25,0-181.26
		c0.01-0.22,0.1-0.43,0.26-0.59l52.07-52.07c0.17-0.17,0.39-0.26,0.63-0.26h120.1c0.24,0,0.48,0.1,0.65,0.28
		c0.17,0.18,0.26,0.42,0.25,0.66c-3.59,71.34-3.59,147.62,0,233.17c0.01,0.24-0.08,0.48-0.25,0.66
		C324.79,345.03,324.55,345.12,324.31,345.12z M153.01,343.34h170.37c-3.54-84.86-3.54-160.59-0.01-231.47H204.58l-51.56,51.56
		C150.55,218.07,150.55,278.59,153.01,343.34z"/>
	<path class="st8" d="M293.44,319.46h-18.78c-0.37,0-0.67-0.3-0.67-0.67c0-0.37,0.3-0.67,0.67-0.67h18.78c0.37,0,0.67,0.3,0.67,0.67
		C294.11,319.16,293.81,319.46,293.44,319.46z"/>
	<path class="st8" d="M266.88,319.46h-83.87c-0.37,0-0.67-0.3-0.67-0.67c0-0.37,0.3-0.67,0.67-0.67h83.87c0.37,0,0.67,0.3,0.67,0.67
		C267.55,319.16,267.25,319.46,266.88,319.46z"/>
	<path class="st8" d="M214.28,219.19c-0.2-4.35-2.67-7.8-5.53-7.7c-2.86,0.1-5.01,3.72-4.82,8.07c0.2,4.35,2.67,7.8,5.53,7.7
		C212.32,227.15,214.48,223.54,214.28,219.19z"/>
	<path class="st8" d="M274.65,217.82c-0.2-4.35-2.67-7.8-5.53-7.7c-2.86,0.1-5.01,3.72-4.82,8.07c0.2,4.35,2.67,7.8,5.53,7.7
		C272.69,225.79,274.85,222.18,274.65,217.82z"/>
	<path class="st8" d="M229.35,237.03c15.83-5.65,28.06,0.99,28.63,1.3c0.62,0.35,0.84,1.12,0.49,1.74
		c-0.35,0.61-1.13,0.83-1.75,0.49c-0.14-0.08-14.39-7.76-31.41,1.02c-0.63,0.32-1.41,0.08-1.74-0.54c-0.33-0.63-0.09-1.4,0.54-1.72
		C225.9,238.39,227.64,237.64,229.35,237.03z"/>
	<path class="st8" d="M205.64,178.34c0.43,0.01,0.86,0.13,1.26,0.36c1.23,0.72,1.64,2.29,0.92,3.51
		c-7.19,12.15-19.04,12.75-19.54,12.77c-1.42,0.06-2.62-1.04-2.69-2.45c-0.07-1.41,1.02-2.59,2.43-2.65l0,0
		c0.39-0.02,9.62-0.59,15.36-10.28C203.86,178.76,204.74,178.32,205.64,178.34z"/>
	<path class="st8" d="M266.05,176.87c0.82-0.16,1.7,0.08,2.33,0.71c8.03,8.03,17.14,6.4,17.52,6.32c1.39-0.27,2.75,0.63,3.03,2.01
		c0.28,1.38-0.6,2.72-1.98,3c-0.5,0.09-12.15,2.32-22.21-7.74c-1-1-1-2.62,0-3.61C265.12,177.19,265.57,176.96,266.05,176.87z"/>
	<path class="st9" d="M321.72,204.86l-7.3,0.69c-2.62,0.25-5.01-1.49-5.58-4.06L298.7,156.1c-0.61-2.74,1.05-5.47,3.77-6.19
		l19.59-5.14L321.72,204.86z"/>
	<path class="st9" d="M209.02,167.69c-5.09-13.9-10.18-36.13-4.8-56.71l-52.07,52.07C166.86,167.97,190.32,170.11,209.02,167.69z"/>
	<path class="st6" d="M204.21,163.05c-5.71-16.86-3.38-39.78,0-52.07l-52.07,52.07C167.91,165.92,185.52,165.46,204.21,163.05z"/>
	<path class="st7" d="M175.96,165.92c-8.69,0-16.64-0.67-23.97-2c-0.33-0.06-0.59-0.29-0.69-0.61c-0.1-0.32-0.01-0.66,0.22-0.9
		l52.07-52.07c0.29-0.29,0.73-0.34,1.08-0.14c0.35,0.2,0.52,0.62,0.41,1.01c-3.15,11.44-5.75,34.61-0.02,51.54
		c0.09,0.25,0.05,0.53-0.09,0.76c-0.14,0.23-0.38,0.38-0.64,0.41C194.05,165.26,184.63,165.92,175.96,165.92z M153.99,162.46
		c13.83,2.29,29.9,2.24,49.03-0.16c-4.71-14.93-3.64-34.7-0.47-48.4L153.99,162.46z"/>
	<g>
		<path class="st7" d="M386.85,247.48c-0.66,0-1.27-0.44-1.44-1.12l-18.34-69.88c-0.21-0.8,0.27-1.61,1.07-1.82
			c0.8-0.21,1.61,0.27,1.82,1.07l18.34,69.88c0.21,0.8-0.27,1.61-1.07,1.82C387.1,247.46,386.97,247.48,386.85,247.48z"/>
		<g>
			
				<rect x="414.21" y="138.59" transform="matrix(0.9673 -0.2538 0.2538 0.9673 -22.2958 109.8891)" class="st8" width="1" height="5.51"/>
			<path class="st8" d="M398.67,112.68c0.64-0.17,1.3-0.25,1.97-0.25c3.51,0,6.59,2.38,7.49,5.78l3.85,14.68l0.97-0.25l-3.85-14.68
				c-1.01-3.84-4.48-6.52-8.45-6.52c-0.75,0-1.5,0.1-2.22,0.29l-10.07,2.64l0.25,0.97L398.67,112.68z"/>
			<path class="st8" d="M417.77,164.83l-12.07-45.99c-0.73-2.8-3.6-4.47-6.4-3.74l-95.34,25.02c-2.8,0.73-4.47,3.6-3.74,6.4
				l12.07,45.99c0.73,2.8,3.6,4.47,6.4,3.74l12.52-3.29l3.22,12.28c0.73,2.8,3.6,4.47,6.4,3.74l60.15-15.78
				c2.8-0.73,4.47-3.6,3.74-6.4l-3.22-12.28l12.52-3.29C416.83,170.49,418.5,167.63,417.77,164.83z"/>
		</g>
		<path class="st6" d="M341.34,193.7l8.23-2.14l0.55,2.12l-5.15,1.34l0.41,1.58l4.78-1.24l0.53,2.03l-4.78,1.24l0.51,1.96l5.3-1.38
			l0.59,2.25l-8.38,2.18L341.34,193.7z"/>
		<path class="st6" d="M354,201.02l-2.58-9.94l5.12-1.33c0.95-0.25,1.7-0.35,2.24-0.32c0.54,0.03,1.03,0.23,1.45,0.59
			c0.42,0.36,0.71,0.86,0.88,1.49c0.14,0.55,0.15,1.06,0.02,1.52c-0.13,0.46-0.37,0.87-0.72,1.23c-0.22,0.23-0.55,0.45-0.98,0.67
			c0.4,0.03,0.7,0.08,0.89,0.16c0.13,0.05,0.34,0.18,0.63,0.39c0.28,0.21,0.48,0.38,0.59,0.51l2.23,2.49l-3.47,0.9l-2.43-2.61
			c-0.31-0.34-0.56-0.55-0.76-0.62c-0.26-0.1-0.53-0.11-0.81-0.04l-0.27,0.07l1.05,4.03L354,201.02z M355.55,194.3l1.3-0.34
			c0.14-0.04,0.4-0.15,0.78-0.35c0.19-0.1,0.33-0.24,0.42-0.44c0.09-0.2,0.1-0.41,0.04-0.63c-0.08-0.32-0.25-0.54-0.5-0.66
			c-0.25-0.12-0.65-0.1-1.21,0.04l-1.35,0.35L355.55,194.3z"/>
		<path class="st6" d="M364.8,198.21l-2.58-9.93l5.12-1.33c0.95-0.25,1.7-0.35,2.24-0.32c0.54,0.03,1.03,0.23,1.45,0.59
			c0.42,0.36,0.71,0.86,0.88,1.49c0.14,0.55,0.15,1.06,0.02,1.52c-0.13,0.46-0.37,0.87-0.72,1.22c-0.22,0.23-0.55,0.45-0.98,0.67
			c0.4,0.03,0.7,0.08,0.89,0.16c0.13,0.05,0.34,0.18,0.63,0.39c0.28,0.21,0.48,0.38,0.59,0.51l2.23,2.49l-3.47,0.9l-2.43-2.61
			c-0.31-0.34-0.56-0.55-0.76-0.62c-0.26-0.1-0.53-0.11-0.81-0.03l-0.27,0.07l1.05,4.03L364.8,198.21z M366.34,191.5l1.3-0.34
			c0.14-0.04,0.4-0.15,0.78-0.35c0.19-0.09,0.33-0.24,0.42-0.44c0.09-0.2,0.1-0.41,0.04-0.63c-0.08-0.32-0.25-0.54-0.5-0.66
			c-0.25-0.12-0.65-0.1-1.21,0.04l-1.35,0.35L366.34,191.5z"/>
		<path class="st6" d="M373.64,190.61c-0.42-1.62-0.3-3,0.37-4.14c0.67-1.14,1.81-1.92,3.42-2.34c1.65-0.43,3.04-0.32,4.17,0.34
			c1.13,0.65,1.9,1.78,2.31,3.38c0.3,1.16,0.35,2.17,0.16,3.01c-0.2,0.85-0.61,1.57-1.24,2.18c-0.63,0.61-1.5,1.05-2.6,1.34
			c-1.12,0.29-2.09,0.35-2.92,0.19c-0.83-0.17-1.57-0.57-2.23-1.23C374.42,192.68,373.94,191.77,373.64,190.61z M376.71,189.83
			c0.26,1,0.63,1.68,1.12,2.02c0.49,0.34,1.05,0.43,1.69,0.26c0.66-0.17,1.11-0.52,1.36-1.04c0.25-0.52,0.23-1.34-0.06-2.45
			c-0.24-0.94-0.61-1.57-1.1-1.9c-0.49-0.33-1.06-0.42-1.7-0.25c-0.62,0.16-1.06,0.51-1.32,1.05
			C376.45,188.04,376.45,188.82,376.71,189.83z"/>
		<path class="st6" d="M386.92,192.45l-2.58-9.94l5.12-1.33c0.95-0.25,1.69-0.35,2.24-0.32c0.54,0.03,1.03,0.23,1.45,0.59
			c0.42,0.36,0.71,0.86,0.88,1.49c0.14,0.55,0.15,1.06,0.02,1.52c-0.13,0.46-0.37,0.87-0.72,1.23c-0.22,0.23-0.55,0.45-0.98,0.67
			c0.4,0.03,0.7,0.08,0.89,0.16c0.13,0.05,0.34,0.18,0.63,0.39c0.28,0.21,0.48,0.38,0.59,0.51l2.23,2.49l-3.47,0.9l-2.43-2.61
			c-0.31-0.34-0.56-0.55-0.75-0.62c-0.26-0.1-0.53-0.11-0.81-0.04l-0.27,0.07l1.05,4.03L386.92,192.45z M388.47,185.74l1.29-0.34
			c0.14-0.04,0.4-0.15,0.78-0.35c0.19-0.1,0.33-0.24,0.42-0.44c0.08-0.2,0.1-0.41,0.04-0.63c-0.08-0.32-0.25-0.54-0.5-0.66
			c-0.25-0.12-0.65-0.1-1.21,0.04l-1.35,0.35L388.47,185.74z"/>
		<g>
			<path class="st6" d="M326.93,149.43c1.61-0.47,3.24-0.62,4.9-0.44c1.69,0.2,3.23,0.69,4.64,1.48c1.42,0.74,2.66,1.77,3.71,3.09
				c1.06,1.27,1.83,2.72,2.31,4.36c0.62,2.13,0.66,4.29,0.13,6.48c-0.17,0.71-0.4,1.39-0.69,2.05c-0.29,0.66-0.64,1.29-1.05,1.89
				c-0.41,0.61-0.87,1.18-1.39,1.71c-0.75,0.79-1.59,1.47-2.53,2.05c-0.93,0.57-1.95,1.02-3.04,1.34c-2.14,0.62-4.3,0.67-6.5,0.13
				c-2.18-0.52-4.06-1.55-5.66-3.09c-0.81-0.78-1.49-1.62-2.06-2.54c-0.56-0.91-1-1.91-1.32-3c-0.32-1.08-0.48-2.17-0.5-3.27
				c-0.02-1.09,0.11-2.17,0.37-3.23c0.52-2.15,1.56-4.02,3.12-5.63C322.95,151.18,324.79,150.05,326.93,149.43z M327.7,152.05
				c-1.61,0.47-3.02,1.33-4.24,2.59c-1.16,1.21-1.95,2.68-2.37,4.41c-0.4,1.66-0.35,3.34,0.15,5.05c0.47,1.63,1.34,3.05,2.6,4.27
				c1.3,1.23,2.74,2.05,4.34,2.46c1.7,0.41,3.36,0.38,4.97-0.09c1.64-0.48,3.05-1.34,4.24-2.59c1.17-1.25,1.95-2.72,2.36-4.41
				c0.41-1.64,0.36-3.3-0.13-4.99c-0.5-1.73-1.37-3.18-2.59-4.34c-1.28-1.24-2.73-2.06-4.35-2.45
				C330.99,151.54,329.34,151.57,327.7,152.05z"/>
			<path class="st6" d="M350.38,152.14c1.4-0.41,2.78-0.44,4.15-0.09s2.56,1.01,3.58,1.98c1.02,0.97,1.73,2.15,2.13,3.52
				c0.39,1.32,0.41,2.68,0.09,4.08c-0.36,1.38-1.03,2.56-2,3.56c-0.98,1.04-2.15,1.76-3.51,2.16c-1.36,0.4-2.74,0.42-4.12,0.07
				c-1.36-0.31-2.55-0.96-3.57-1.94c-1.03-0.93-1.74-2.09-2.15-3.48c-0.41-1.4-0.43-2.79-0.08-4.15c0.36-1.37,1.01-2.55,1.97-3.57
				C347.83,153.26,349,152.54,350.38,152.14z M351.15,154.76c-0.91,0.27-1.68,0.73-2.28,1.4c-0.61,0.67-1.02,1.45-1.23,2.34
				c-0.23,0.89-0.21,1.79,0.06,2.7c0.26,0.88,0.72,1.64,1.39,2.28c0.62,0.61,1.4,1.03,2.33,1.28c0.89,0.23,1.77,0.21,2.64-0.04
				c0.86-0.25,1.61-0.71,2.25-1.38c0.6-0.68,1.02-1.46,1.25-2.32c0.23-0.89,0.21-1.78-0.05-2.67c-0.26-0.9-0.73-1.67-1.4-2.31
				c-0.69-0.64-1.46-1.08-2.31-1.32C352.92,154.49,352.04,154.5,351.15,154.76z"/>
			<path class="st6" d="M363.14,148.84l0.69,2.38l0.09-0.03c0.11-0.46,0.35-1,0.7-1.59c0.45-0.62,0.91-1.12,1.4-1.52
				c0.55-0.46,1.22-0.82,2.01-1.09c1.21-0.35,2.41-0.37,3.59-0.06c1.2,0.3,2.28,0.93,3.24,1.9c0.94,0.98,1.63,2.22,2.07,3.72
				c0.38,1.31,0.48,2.63,0.3,3.96c-0.18,1.37-0.66,2.53-1.43,3.49c-0.79,1.02-1.86,1.74-3.19,2.16c-1.09,0.32-2.14,0.37-3.13,0.15
				c-0.99-0.22-1.94-0.71-2.85-1.47l3.06,10.51l-2.74,0.8l-6.56-22.51L363.14,148.84z M374.27,153.4c-0.45-1.53-1.26-2.64-2.43-3.34
				c-1.14-0.68-2.39-0.82-3.76-0.42c-0.75,0.22-1.4,0.62-1.98,1.21c-0.55,0.57-0.93,1.31-1.17,2.22c-0.2,0.89-0.15,1.87,0.16,2.94
				c0.43,1.49,1.2,2.62,2.31,3.37c1.12,0.76,2.39,0.96,3.81,0.57c0.02-0.01,0.04-0.02,0.05-0.05l0.06-0.02
				c0.9-0.29,1.62-0.77,2.17-1.43c0.54-0.71,0.86-1.49,0.97-2.34C374.58,155.28,374.52,154.37,374.27,153.4z"/>
			<path class="st6" d="M384.32,146.27c-0.67-0.71-1.41-0.95-2.23-0.71c-0.43,0.12-0.74,0.36-0.93,0.69
				c-0.19,0.38-0.23,0.78-0.11,1.2c0.19,0.56,0.76,0.92,1.71,1.09c0.92,0.19,1.84,0.35,2.77,0.49c0.91,0.13,1.74,0.42,2.47,0.87
				c0.75,0.44,1.31,1.21,1.66,2.31c0.22,0.77,0.22,1.56,0,2.38c-0.21,0.8-0.61,1.55-1.19,2.24c-0.62,0.66-1.34,1.12-2.16,1.36
				c-1.44,0.42-2.67,0.43-3.67,0.03c-1.08-0.4-1.9-0.96-2.45-1.7l2.04-1.82c0.43,0.51,0.92,0.86,1.47,1.06
				c0.52,0.19,1.07,0.22,1.65,0.09c0.54-0.19,0.95-0.49,1.25-0.9c0.33-0.44,0.47-0.92,0.44-1.45c-0.12-0.43-0.33-0.75-0.62-0.97
				c-0.32-0.29-0.67-0.5-1.03-0.6c-0.35-0.12-0.77-0.24-1.27-0.36c-0.3-0.06-0.53-0.11-0.71-0.14c-0.17-0.03-0.34-0.06-0.52-0.1
				c-1.32-0.24-2.32-0.6-3-1.07c-0.66-0.46-1.11-1.09-1.34-1.87c-0.16-0.66-0.16-1.36-0.01-2.08c0.14-0.74,0.48-1.4,1.01-1.98
				c0.53-0.6,1.2-1.01,2.02-1.25c1.72-0.5,3.28-0.05,4.69,1.35L384.32,146.27z"/>
			<path class="st6" d="M395.64,151.8c0.59-0.12,1.06-0.07,1.4,0.16c0.38,0.28,0.64,0.64,0.77,1.1c0.14,0.5,0.1,0.96-0.13,1.4
				c-0.18,0.47-0.51,0.78-1.01,0.92c-0.55,0.16-1.03,0.11-1.46-0.14c-0.41-0.24-0.71-0.6-0.89-1.1c-0.11-0.49-0.06-0.96,0.15-1.43
				C394.73,152.25,395.11,151.95,395.64,151.8z M388.46,132.04l2.8-0.82l5.16,17.71l-2.8,0.82L388.46,132.04z"/>
		</g>
	</g>
	<g>
		<path d="M195,284.33h-2.16l-8.68-13.16v13.16h-2.16v-16.54h2.16l8.68,13.13v-13.13H195V284.33z"/>
		<path d="M201.03,283.72c-0.99-0.55-1.76-1.34-2.32-2.36c-0.56-1.02-0.84-2.2-0.84-3.54c0-1.33,0.29-2.5,0.87-3.52
			c0.58-1.02,1.36-1.8,2.36-2.35c1-0.54,2.11-0.82,3.34-0.82c1.23,0,2.35,0.27,3.34,0.82c1,0.54,1.78,1.32,2.36,2.33
			c0.58,1.01,0.87,2.19,0.87,3.53c0,1.34-0.3,2.52-0.89,3.54s-1.39,1.81-2.41,2.36c-1.01,0.55-2.13,0.83-3.37,0.83
			C203.12,284.55,202.02,284.27,201.03,283.72z M206.52,282.1c0.68-0.36,1.23-0.91,1.65-1.63c0.42-0.73,0.63-1.61,0.63-2.66
			s-0.21-1.93-0.62-2.65c-0.41-0.73-0.95-1.27-1.61-1.62c-0.66-0.36-1.38-0.53-2.16-0.53c-0.79,0-1.51,0.18-2.17,0.53
			c-0.66,0.36-1.18,0.9-1.58,1.62c-0.4,0.73-0.59,1.61-0.59,2.65c0,1.06,0.19,1.95,0.58,2.68c0.39,0.73,0.9,1.27,1.55,1.62
			c0.65,0.36,1.36,0.53,2.13,0.53C205.11,282.65,205.84,282.47,206.52,282.1z"/>
		<path d="M228.87,284.33l-3.93-6.76h-2.61v6.76h-2.16v-16.52h5.33c1.25,0,2.3,0.21,3.16,0.64c0.86,0.43,1.51,1,1.93,1.73
			c0.43,0.73,0.64,1.56,0.64,2.49c0,1.14-0.33,2.14-0.98,3.01c-0.66,0.87-1.64,1.45-2.95,1.73l4.15,6.92H228.87z M222.33,275.85
			h3.18c1.17,0,2.05-0.29,2.63-0.87c0.58-0.58,0.88-1.35,0.88-2.31c0-0.98-0.29-1.74-0.87-2.28c-0.58-0.54-1.46-0.81-2.64-0.81
			h-3.18V275.85z"/>
		<path d="M246.36,278.64h-10.38c0.08,1.28,0.52,2.28,1.32,3c0.8,0.72,1.77,1.08,2.9,1.08c0.93,0,1.71-0.22,2.33-0.65
			c0.62-0.43,1.06-1.02,1.32-1.74h2.32c-0.35,1.25-1.04,2.26-2.09,3.05s-2.34,1.17-3.89,1.17c-1.23,0-2.33-0.28-3.31-0.83
			c-0.97-0.55-1.73-1.34-2.29-2.36c-0.55-1.02-0.83-2.2-0.83-3.54c0-1.34,0.27-2.52,0.81-3.53c0.54-1.01,1.29-1.79,2.26-2.33
			c0.97-0.54,2.09-0.82,3.35-0.82c1.23,0,2.32,0.27,3.27,0.81c0.95,0.54,1.68,1.28,2.19,2.22c0.51,0.94,0.77,2,0.77,3.19
			C246.43,277.75,246.41,278.19,246.36,278.64z M243.66,274.77c-0.36-0.59-0.86-1.04-1.48-1.35c-0.62-0.31-1.32-0.46-2.07-0.46
			c-1.09,0-2.02,0.35-2.79,1.04c-0.77,0.7-1.21,1.66-1.32,2.89h8.2C244.2,276.07,244.02,275.36,243.66,274.77z"/>
		<path d="M249.28,274.29c0.54-1,1.28-1.78,2.24-2.33c0.96-0.55,2.05-0.83,3.28-0.83c1.6,0,2.91,0.39,3.95,1.16
			c1.03,0.77,1.72,1.85,2.05,3.22h-2.32c-0.22-0.79-0.65-1.41-1.29-1.87c-0.64-0.46-1.43-0.69-2.38-0.69
			c-1.23,0-2.23,0.42-2.99,1.27c-0.76,0.85-1.14,2.04-1.14,3.59c0,1.56,0.38,2.77,1.14,3.63s1.75,1.28,2.99,1.28
			c0.95,0,1.74-0.22,2.37-0.66c0.63-0.44,1.07-1.07,1.3-1.9h2.32c-0.35,1.33-1.04,2.39-2.09,3.19s-2.35,1.2-3.91,1.2
			c-1.23,0-2.33-0.28-3.28-0.83c-0.96-0.55-1.7-1.33-2.24-2.35c-0.54-1.01-0.81-2.2-0.81-3.56
			C248.47,276.47,248.74,275.3,249.28,274.29z"/>
		<path d="M266.02,283.72c-0.99-0.55-1.76-1.34-2.32-2.36c-0.56-1.02-0.84-2.2-0.84-3.54c0-1.33,0.29-2.5,0.87-3.52
			c0.58-1.02,1.36-1.8,2.36-2.35c1-0.54,2.11-0.82,3.34-0.82c1.23,0,2.35,0.27,3.34,0.82c1,0.54,1.78,1.32,2.36,2.33
			c0.58,1.01,0.87,2.19,0.87,3.53c0,1.34-0.3,2.52-0.89,3.54s-1.39,1.81-2.41,2.36c-1.01,0.55-2.13,0.83-3.37,0.83
			C268.11,284.55,267.01,284.27,266.02,283.72z M271.51,282.1c0.68-0.36,1.23-0.91,1.65-1.63c0.42-0.73,0.63-1.61,0.63-2.66
			s-0.21-1.93-0.62-2.65c-0.41-0.73-0.95-1.27-1.61-1.62c-0.66-0.36-1.38-0.53-2.16-0.53c-0.79,0-1.51,0.18-2.17,0.53
			c-0.66,0.36-1.18,0.9-1.58,1.62c-0.4,0.73-0.59,1.61-0.59,2.65c0,1.06,0.19,1.95,0.58,2.68c0.39,0.73,0.9,1.27,1.55,1.62
			c0.65,0.36,1.36,0.53,2.13,0.53C270.1,282.65,270.83,282.47,271.51,282.1z"/>
		<path d="M282.62,271.72c0.7-0.41,1.56-0.62,2.57-0.62v2.23h-0.57c-2.42,0-3.63,1.31-3.63,3.93v7.06h-2.16v-12.99h2.16v2.11
			C281.37,272.71,281.91,272.13,282.62,271.72z"/>
		<path d="M287.68,274.29c0.54-1,1.28-1.78,2.22-2.33c0.94-0.55,1.99-0.83,3.16-0.83c1.01,0,1.95,0.23,2.82,0.7
			c0.87,0.47,1.53,1.08,1.99,1.84v-6.87h2.18v17.54h-2.18v-2.44c-0.43,0.77-1.06,1.41-1.9,1.91c-0.84,0.5-1.82,0.75-2.94,0.75
			c-1.15,0-2.2-0.28-3.14-0.85c-0.94-0.57-1.68-1.37-2.22-2.39c-0.54-1.03-0.81-2.2-0.81-3.51
			C286.87,276.46,287.14,275.3,287.68,274.29z M297.28,275.25c-0.4-0.73-0.93-1.28-1.6-1.67c-0.67-0.39-1.41-0.58-2.22-0.58
			s-1.54,0.19-2.2,0.57c-0.66,0.38-1.19,0.93-1.59,1.66c-0.4,0.73-0.59,1.58-0.59,2.56c0,1,0.2,1.86,0.59,2.6
			c0.39,0.73,0.92,1.3,1.59,1.68c0.66,0.39,1.4,0.58,2.2,0.58s1.54-0.19,2.22-0.58c0.67-0.39,1.2-0.95,1.6-1.68
			c0.4-0.74,0.59-1.59,0.59-2.57C297.87,276.83,297.67,275.98,297.28,275.25z"/>
		<path d="M215.45,296.25v1.75h-7.18v5.57h5.83v1.75h-5.83v7.44h-2.16v-16.52H215.45z"/>
		<path d="M220.42,312.16c-0.99-0.55-1.76-1.34-2.32-2.36c-0.56-1.02-0.84-2.2-0.84-3.54c0-1.33,0.29-2.5,0.87-3.52
			c0.58-1.02,1.36-1.8,2.36-2.35c1-0.54,2.11-0.82,3.34-0.82c1.23,0,2.35,0.27,3.34,0.82c1,0.54,1.78,1.32,2.36,2.33
			c0.58,1.01,0.87,2.19,0.87,3.53c0,1.34-0.3,2.52-0.89,3.54s-1.39,1.81-2.41,2.36c-1.01,0.55-2.13,0.83-3.37,0.83
			C222.51,312.99,221.41,312.71,220.42,312.16z M225.91,310.55c0.68-0.36,1.23-0.91,1.65-1.63c0.42-0.73,0.63-1.61,0.63-2.66
			s-0.21-1.93-0.62-2.65c-0.41-0.73-0.95-1.27-1.61-1.62c-0.66-0.36-1.38-0.53-2.16-0.53c-0.79,0-1.51,0.18-2.17,0.53
			c-0.66,0.36-1.18,0.9-1.58,1.62c-0.4,0.73-0.59,1.61-0.59,2.65c0,1.06,0.19,1.95,0.58,2.68c0.39,0.73,0.9,1.27,1.55,1.62
			c0.65,0.36,1.36,0.53,2.13,0.53C224.5,311.09,225.23,310.91,225.91,310.55z"/>
		<path d="M244.75,299.79v12.99h-2.16v-1.92c-0.41,0.66-0.98,1.18-1.72,1.55c-0.73,0.37-1.54,0.56-2.43,0.56
			c-1.01,0-1.92-0.21-2.73-0.63s-1.44-1.05-1.91-1.88c-0.47-0.84-0.7-1.86-0.7-3.06v-7.61h2.13v7.32c0,1.28,0.32,2.26,0.97,2.95
			c0.65,0.69,1.53,1.03,2.65,1.03c1.15,0,2.06-0.36,2.73-1.07c0.66-0.71,1-1.75,1-3.1v-7.13H244.75z"/>
		<path d="M258.57,300.98c0.98,0.96,1.47,2.33,1.47,4.14v7.66h-2.13v-7.35c0-1.3-0.32-2.29-0.97-2.97
			c-0.65-0.69-1.53-1.03-2.65-1.03c-1.14,0-2.04,0.36-2.71,1.07c-0.67,0.71-1.01,1.75-1.01,3.11v7.18h-2.16v-12.99h2.16v1.85
			c0.43-0.66,1.01-1.18,1.74-1.54c0.73-0.36,1.54-0.54,2.43-0.54C256.31,299.55,257.59,300.03,258.57,300.98z"/>
		<path d="M263.57,302.74c0.54-1,1.28-1.78,2.22-2.33c0.94-0.55,1.99-0.83,3.16-0.83c1.01,0,1.95,0.23,2.82,0.7
			c0.87,0.47,1.53,1.08,1.99,1.84v-6.87h2.18v17.54h-2.18v-2.44c-0.43,0.77-1.06,1.41-1.9,1.91c-0.84,0.5-1.82,0.75-2.94,0.75
			c-1.15,0-2.2-0.28-3.14-0.85c-0.94-0.57-1.68-1.37-2.22-2.39c-0.54-1.03-0.81-2.2-0.81-3.51
			C262.76,304.91,263.03,303.74,263.57,302.74z M273.17,303.7c-0.4-0.73-0.93-1.28-1.6-1.67c-0.67-0.39-1.41-0.58-2.22-0.58
			s-1.54,0.19-2.2,0.57c-0.66,0.38-1.19,0.93-1.59,1.66c-0.4,0.73-0.59,1.58-0.59,2.56c0,1,0.2,1.86,0.59,2.6
			c0.39,0.73,0.92,1.3,1.59,1.68c0.66,0.39,1.4,0.58,2.2,0.58s1.54-0.19,2.22-0.58c0.67-0.39,1.2-0.95,1.6-1.68
			c0.4-0.74,0.59-1.59,0.59-2.57C273.76,305.28,273.56,304.42,273.17,303.7z"/>
	</g>
</g>
</svg>
