<?xml version="1.0" encoding="utf-8"?>
<!-- Generator: Adobe Illustrator 25.2.0, SVG Export Plug-In . SVG Version: 6.00 Build 0)  -->
<svg version="1.1" id="Layer_1" xmlns="http://www.w3.org/2000/svg" xmlns:xlink="http://www.w3.org/1999/xlink" x="0px" y="0px"
	 viewBox="0 0 2000 2000" style="enable-background:new 0 0 2000 2000;" xml:space="preserve">
<style type="text/css">
	.st0{fill:#FFFFFF;}
	.st1{fill:#FDB714;}
</style>
<g>
	<g>
		<path class="st0" d="M96.09,970.71c-1.63-11.1-1.68-23.04-0.15-35.83c1.94-17.12,6.48-32.4,13.62-45.83
			c7.14-13.43,16.99-24.67,29.53-33.71s27.48-14.83,44.82-17.37c23.23-3.41,43.05,1.06,59.47,13.39
			c16.42,12.33,26.38,30.41,29.87,54.24c2.91,19.81,1.06,39.67-5.52,59.56c-6.59,19.9-17.14,36.01-31.64,48.35
			c-14.5,12.33-31.83,19.98-51.98,22.94c-17.51,2.57-32.78,0.75-45.81-5.45c-13.04-6.2-22.89-14.81-29.57-25.82
			C102.06,994.16,97.85,982.67,96.09,970.71z M134.15,964.35c1.89,12.9,7.4,23.12,16.54,30.68c9.13,7.56,20.11,10.4,32.92,8.52
			c10.42-1.53,19.93-6.43,28.53-14.72c8.6-8.28,15.01-19.87,19.24-34.75c4.23-14.88,5.37-28.94,3.43-42.18
			c-2.17-14.77-7.84-25.78-17.01-33.03c-9.18-7.25-19.91-9.97-32.21-8.16c-18.87,2.77-32.93,13.82-42.18,33.14
			C134.15,923.17,131.07,943.34,134.15,964.35z"/>
		<path class="st0" d="M448.91,994.19l-35.99,5.28l-69.23-118.73l-7.88,130.04l-35.99,5.28l11.65-193.53l36.12-5.3l69.29,118.2
			l7.82-129.51l35.87-5.26L448.91,994.19z"/>
		<path class="st0" d="M642.84,965.75l-38.68,5.68L614,810.21l-55.08,8.08l1.93-32.34l147.95-21.7l-1.93,32.34l-54.31,7.97
			L642.84,965.75z"/>
		<path class="st0" d="M719.7,954.47l11.78-193.55l38.56-5.66l-11.65,193.53L719.7,954.47z"/>
		<path class="st0" d="M902.24,927.69l-36.63,5.37L835.8,777.15l-6.83,161.29l-34.84,5.11l11.65-193.53l55.08-8.08l25.06,130.71
			l44.75-140.95l55.72-8.17l-11.78,193.55l-35.23,5.17l14.17-161.19L902.24,927.69z"/>
		<path class="st0" d="M1012.78,911.48l11.65-193.53l139.24-20.43l-1.93,32.34l-100.55,14.75l-2.71,43.97l97.22-14.26l-1.93,32.34
			l-97.22,14.26l-4.31,52.71l109.26-16.03l-2.06,32.36L1012.78,911.48z"/>
	</g>
	<g>
		<g>
			<path class="st1" d="M233.98,1302.49L245.93,1104l142.8-20.95l-1.98,33.17l-103.13,15.13l-2.78,45.1l99.71-14.63l-1.98,33.17
				l-99.71,14.63l-4.42,54.06l112.06-16.44l-2.11,33.19L233.98,1302.49z"/>
			<path class="st1" d="M501.65,1263.22l-42.3,6.21l-62.8-187.52l39.54-5.8l45.81,142.11l58.37-157.39l39.28-5.76L501.65,1263.22z"
				/>
			<path class="st1" d="M576.73,1252.21l11.95-198.49l142.8-20.95l-1.98,33.17l-103.13,15.13l-2.78,45.1l99.71-14.63l-1.98,33.17
				l-99.71,14.63l-4.42,54.06l112.06-16.44l-2.11,33.19L576.73,1252.21z"/>
			<path class="st1" d="M788.6,1221.12l-39.67,5.82l12.08-198.5l85.52-12.55c14.71-2.16,26.39-2.33,35.02-0.51
				c8.63,1.82,16.06,6.39,22.27,13.71c6.22,7.32,10.17,16.72,11.85,28.19c2.4,16.38-0.52,30.61-8.77,42.69
				c-8.25,12.08-22.13,20.85-41.63,26.3c5.75,3.81,11.4,9.11,16.96,15.9c11.05,13.77,24.03,33.6,38.92,59.51l-42.56,6.24
				c-5.01-10.36-14.19-26.32-27.56-47.89c-7.26-11.64-14.26-19.15-21.02-22.55c-4.14-1.99-10.89-2.29-20.26-0.92l-16.16,2.37
				L788.6,1221.12z M795.39,1109.15l21.02-3.08c21.28-3.12,35.22-6.46,41.81-10.03c6.59-3.56,11.46-8.34,14.6-14.35
				c3.14-6.01,4.28-11.99,3.41-17.95c-1.03-7.01-4.65-11.84-10.85-14.51c-3.81-1.59-11.54-1.53-23.19,0.18l-43.61,6.4
				L795.39,1109.15z"/>
			<path class="st1" d="M1031.16,1185.54l-39.54,5.8l4.63-77.31l-70.32-109.79l42.17-6.19l31.89,50.88
				c7.61,12.22,12.8,21.07,15.57,26.57c2.4-6.17,5.28-12.76,8.64-19.79l14.52-28.16l21.47-43.01l45.98-6.75l-70.49,134.21
				L1031.16,1185.54z"/>
			<path class="st1" d="M1256.23,1152.52l-39.67,5.82l10.1-165.34l-56.49,8.29l1.98-33.17l151.73-22.26l-1.98,33.17l-55.7,8.17
				L1256.23,1152.52z"/>
			<path class="st1" d="M1326.97,1142.15l12.08-198.51l39.54-5.8l-11.95,198.49L1326.97,1142.15z"/>
			<path class="st1" d="M1506.11,1115.86l-37.57,5.51l-30.57-159.91l-7,165.42l-35.73,5.24l11.95-198.49l56.49-8.29l25.7,134.05
				l45.89-144.55l57.15-8.38l-12.08,198.51l-36.13,5.3l14.53-165.32L1506.11,1115.86z"/>
			<path class="st1" d="M1611.43,1100.42l11.95-198.49l142.8-20.95l-1.98,33.17l-103.13,15.13l-2.78,45.1l99.71-14.63l-1.98,33.17
				l-99.71,14.63l-4.42,54.06l112.06-16.44l-2.11,33.19L1611.43,1100.42z"/>
			<path class="st1" d="M1857.28,1027.18l37.31-5.47l-2.28,37.51l-37.31,5.47L1857.28,1027.18z M1886.17,1010.06l-20.76,3.04
				l-2.59-100l2.81-46.71l39.54-5.8l-2.97,50.22L1886.17,1010.06z"/>
		</g>
	</g>
</g>
</svg>
