<?xml version="1.0" encoding="utf-8"?>
<!-- Generator: Adobe Illustrator 26.0.1, SVG Export Plug-In . SVG Version: 6.00 Build 0)  -->
<svg version="1.1" id="Layer_1" xmlns="http://www.w3.org/2000/svg" xmlns:xlink="http://www.w3.org/1999/xlink" x="0px" y="0px"
	 viewBox="0 0 512 512" style="enable-background:new 0 0 512 512;" xml:space="preserve">
<style type="text/css">
	.st0{fill:#FBB810;}
	.st1{fill:#454545;}
</style>
<g>
	<path class="st0" d="M329.4,184.2c25-2.6,34.8,7,36.4,28.2c20.2-6.9,35.8-12.3,35.8-12.3L364.9,98.2l-114.6,38.6
		c6.6,20.8,12.7,37.2,19.6,56.3C277.5,191.7,308.3,186.4,329.4,184.2z"/>
	<g>
		<path class="st1" d="M358.7,208.6c-2.4-13.1-14.9-21.7-28-19.3l-57.2,10.5L241.3,157c-3.6-15.1-17-26.3-33.1-26.4
			c-0.1,0-0.2,0-0.2,0c-18.9,0-34.2,15.2-34.4,34.1l-0.9,121.4c-0.1,18.3,14.1,28.4,32.1,44.3l50.9,45.6L267,457
			c1.7,12,12,20.8,23.8,20.8c1.1,0,2.2-0.1,3.3-0.2c13.2-1.8,22.4-13.9,20.5-27.1l-12.4-89.6c-0.8-5.6-3.5-10.8-7.8-14.6l-53.2-47.7
			c0-0.7,0.2-1.3,0.2-1.9l0.3-44c-1.4-2.4-19.6-32.5-30.3-55.2l32.6,43.3c4.6,6.1,11.7,9.6,19.2,9.6c1.4,0,2.9-0.1,4.4-0.4
			l71.8-13.2C352.5,234.2,361.1,221.7,358.7,208.6z"/>
		<path class="st1" d="M170.5,314.5l-58.1,131.7c-5.4,12.1,0.1,26.3,12.3,31.7c3.2,1.4,6.5,2.1,9.7,2.1c9.2,0,18.1-5.4,22-14.3
			l51.7-117.3C197.9,340.7,182.1,328,170.5,314.5z"/>
		<path class="st1" d="M206.3,127c0.7,0,1.4,0.1,2.1,0.1c24.8,0,45.2-19.4,46.3-44.2c0.3-6-0.6-11.9-2.5-17.5l-87.8,29.7
			c2,6.1,5.3,11.9,9.8,16.8C182.5,121.1,193.9,126.5,206.3,127z"/>
	</g>
	<path class="st0" d="M273.2,52L161.8,89.6c0,0-9.7-31.2,11.7-45.2c17.3-11.3,34.9-15.1,50.4-10.5c14.1,4.2,22.8,16.5,22.8,16.5
		s26.4-5.2,28.2-4.3C280,48.9,275.1,50.9,273.2,52z"/>
</g>
</svg>
