<?xml version="1.0" encoding="utf-8"?>
<!-- Generator: Adobe Illustrator 26.0.1, SVG Export Plug-In . SVG Version: 6.00 Build 0)  -->
<svg version="1.1" id="Layer_1" xmlns="http://www.w3.org/2000/svg" xmlns:xlink="http://www.w3.org/1999/xlink" x="0px" y="0px"
	 viewBox="0 0 2000 2000" style="enable-background:new 0 0 2000 2000;" xml:space="preserve">
<style type="text/css">
	.st0{fill:#454545;}
	.st1{fill:#FBAE17;}
</style>
<path class="st0" d="M564.4,1837.3c-59.1,0-114.3,1.6-169.4-0.6c-31.8-1.3-52-27.5-52.8-61.8c-0.7-31.7-0.2-63.4-0.2-95.1
	c0-155.8,0-311.6,0-467.4c0-9.6,0-19.2,0-33.2c-36.2,0-71,0.3-105.8-0.2c-11.3-0.2-23.3-0.3-33.7-4c-24.6-8.8-38.8-27.7-39.9-53.8
	c-1.2-27.6,13.6-46.9,37.9-58.2c65.3-30.5,130.9-60.4,196.4-90.7c78.2-36.1,156.5-72.2,234.7-108.5c5.4-2.5,10.4-6.1,21.5-12.7
	c-25.1-23.2-47.8-45.2-71.9-65.5c-4.7-4-16.3-4.1-22.6-1.2c-21.4,9.7-41.9,21.6-66,34.3c-0.9-10.5-2.1-17.8-2.1-25.1
	c-0.1-96.8,0.5-193.7-0.6-290.5c-0.2-18.8,6.4-27.5,22.8-35.5c75.1-36.6,149.4-74.7,224.1-112.2c6.1-3.1,12.7-5.1,22.6-8.9
	c0,38.2,0,73.7,0,111.2c160.6,0,318.4,0,478.9,0c0-36.5,0-72.2,0-113.5c32.4,15.9,60.5,29.5,88.4,43.5
	c55.1,27.5,110.2,54.8,164.7,83.4c7.5,3.9,16.2,14.7,16.3,22.4c1,104.7,0.6,209.5,0.5,314.3c0,2.3-1.4,4.6-3.1,9.9
	c-20.9-11.1-41.2-21-60.6-32.3c-12.4-7.2-21.1-7.5-32,3.9c-20.1,20.8-42.2,39.7-67.6,63.3c51.9,24.3,97.5,45.7,143.3,66.9
	c102.1,47.3,204.4,94.3,306.5,141.6c31.1,14.4,46.9,41.8,40.9,69.1c-6.6,30.2-30.9,48.4-66.3,48.7c-36,0.3-72,0.1-112.5,0.1
	c0,11.7,0,21.7,0,31.8c0,183.1,0,366.2,0,549.3c0,57.6-20.1,77.6-77.9,77.7c-46.6,0.1-93.2,0-143.6,0c11.3-20.4,20.3-38.8,31.5-55.8
	c2.8-4.2,12.4-4.8,19-5.6c65.4-7.2,110.7-53.2,111.3-119.1c1.3-140,1.5-279.9-0.1-419.9c-0.8-68.4-51.9-117.4-120.5-117.8
	c-158.5-0.9-316.9-0.4-475.4-0.2c-38.4,0-69.1,15.6-94.8,44.3c-7.4,8.3-21.7,14.4-32.9,14.5c-74.8,1.3-149.6,1.2-224.5,0.5
	c-49.3-0.5-85.9,20.1-112.7,61c-41,62.5-83.1,124.4-123.8,187.1c-6.3,9.7-10.7,22.4-10.8,33.8c-1,63.4-0.9,126.8-0.4,190.1
	c0.6,70.6,43.6,117.3,113,126.1c8.3,1.1,17.6,8.6,23,15.7C546.9,1805.2,553.8,1819.6,564.4,1837.3z M1240.3,582.2
	c-163.4,0-320.4,0-483,0c14.6,65.6-3.5,113.8-80.4,133.9c28.7,26.8,52.7,47.3,74.3,70c11.9,12.4,21.3,13.4,36.3,6.2
	c60.2-28.9,121.3-56,181.6-84.7c20.8-9.9,39.8-9.7,60.5,0.1c60.4,28.6,121.1,56.4,182,83.8c7.7,3.5,21.1,6.7,25.7,2.8
	c27.4-23,53-48.1,85.6-78.4C1243.4,696.8,1228.8,646.6,1240.3,582.2z"/>
<path class="st0" d="M1836.7,346.3c0,81.2,0,159.2,0,237.3c0,18.5,3.3,37.7-1,55.2c-4.3,17.6-11.8,40.8-25.4,48.7
	c-77.9,45.4-158.1,86.9-240.7,131.5c-1.2-10.1-2.6-16.5-2.6-22.9c-0.1-98.5,0.3-196.9-0.5-295.4c-0.1-16.3,4.9-24.5,19.9-31.8
	c75.7-37,150.8-75.4,226.1-113.2C1819.3,352.2,1826.7,350.1,1836.7,346.3z"/>
<path class="st0" d="M162.3,344.2c44.2,21.9,84.1,41.6,123.9,61.5c43.2,21.6,86.5,42.9,129.2,65.5c7,3.7,15.6,13.2,15.7,20
	c0.9,106.3,0.4,212.7,0.2,319.1c0,1.4-1.7,2.7-4.2,6.6c-44.5-23.6-89.2-47.2-133.9-70.9c-31-16.5-61.8-33.4-93-49.6
	c-21.9-11.4-37.3-28.4-37.5-53.3C161.7,545.5,162.3,448,162.3,344.2z"/>
<path class="st0" d="M1265.9,291c86.2-43.6,166.4-85.3,247.8-124.3c13.2-6.3,34.6-6.2,47.9,0.1c81.4,39,161.6,80.6,247.1,123.8
	c-39.2,19.9-74.6,38.1-110.2,56c-46.2,23.3-92.3,46.9-139,69.3c-9.4,4.5-23.6,9.1-31.5,5.3C1442,379.7,1356.9,336.5,1265.9,291z"/>
<path class="st0" d="M733.2,290.8c-66.5,33.4-130.2,59.7-187.5,95.9c-58.8,37.2-108.8,37.5-167.8,0.2
	c-57.4-36.4-121.3-62.6-185.8-95c8.2-5,13.4-8.6,19-11.5c72.8-36.9,145-75,218.9-109.6c16.2-7.6,41.5-10,57-2.8
	C568.1,205.8,647.3,247.4,733.2,290.8z"/>
<g>
	<path class="st1" d="M1536.6,1247.5c-0.1-48.1-21.2-68.6-70.1-68.6c-151.4-0.1-302.8-0.1-454.2,0c-51.4,0-73.1,22.2-73.2,74.6
		c-0.1,104.7,0,209.5,0,314.2c0,9.3,0,18.6,0,27.1c-21.8,0-39.7,0-60.3,0c0-39.8,0-77.3,0-115.1c-139.8,0-276.7,0-416.6,0
		c0,59.4-0.5,117.2,0.2,175.1c0.5,41.1,23.1,62.4,65,63.1c17.2,0.3,34.5,0.1,50.6,0.1c21.8,81.6,57.3,119.1,117.5,118.8
		c23.4-0.1,48.9-7.9,69.7-19.1c37.4-20.3,52-57.6,56.3-98.7c119.8,0,236.7,0,353.2,0c32.4,89.4,66,120.7,126.7,119
		c60.8-1.7,96.5-36.7,119.8-119.9c15.8,0,30.7,0.1,45.6,0c48.6-0.4,69.8-20.8,69.9-68.9C1536.8,1515.1,1536.8,1381.3,1536.6,1247.5z
		 M701.4,1776.7c-33.6,0.5-60.4-25.9-60.2-59.3c0.2-33.7,26.8-59.2,60.9-58.4c33.1,0.8,57.5,26,57.4,59.1
		C759.4,1750.7,734.1,1776.2,701.4,1776.7z M1299,1776.7c-32.7,0.4-58.8-24.4-59.8-56.9c-1-34.2,24.2-60.4,58.3-60.8
		c33.1-0.3,59,24.1,60,56.7C1358.5,1749.2,1332.5,1776.3,1299,1776.7z"/>
	<path class="st1" d="M879.2,1237.8c-12.2,0-21.7,0-31.1,0c-59.8,0-119.7,2-179.5-0.7c-42.8-1.9-71.5,13.5-93.3,50.2
		c-25.8,43.5-55.2,84.7-84.3,128.8c131.8,0,259.5,0,388.1,0C879.2,1356.4,879.2,1299.4,879.2,1237.8z"/>
</g>
</svg>
