<?xml version="1.0" encoding="utf-8"?>
<!-- Generator: Adobe Illustrator 26.0.1, SVG Export Plug-In . SVG Version: 6.00 Build 0)  -->
<svg version="1.1" id="Layer_1" xmlns="http://www.w3.org/2000/svg" xmlns:xlink="http://www.w3.org/1999/xlink" x="0px" y="0px"
	 viewBox="0 0 2000 2000" style="enable-background:new 0 0 2000 2000;" xml:space="preserve">
<style type="text/css">
	.st0{fill:#454545;}
	.st1{fill:#FBAE17;}
</style>
<g>
	<g>
		<path class="st0" d="M885.5,1326c0,20.1,0,35.3,0,52.3c-87.1,0-172.6,0-260,0c-2.1-27.4-3.2-54.6-6.4-81.6
			c-9.7-81-54-146.5-96.1-213c-32.7-51.7-69.2-101.5-98-155.3c-173.4-323.9,44.1-726.8,410-761.7c1.8-0.2,3.6-0.4,5.5-0.6
			c50-5,51.4-3.4,43.6,48.3c-29.1,4.1-59,6.8-88.3,12.5c-326.7,63.8-483.7,445.6-297.4,721.3c40.4,59.8,78.6,121.2,116.9,182.5
			c32.9,52.7,52.7,110.6,59.1,172.3c2.1,20.2,10.2,23.5,27.6,23.3C762.1,1325.6,822.3,1326,885.5,1326z"/>
		<path class="st0" d="M942.1,1516.6c-83.1,0-166.2-0.5-249.3,0.4c-21,0.2-29.5-6-28.9-28c1.9-76.1-8.9-63.5,63.7-63.8
			c153.4-0.6,306.9-0.2,460.3-0.2c36.9,0,37,0,37,35.7c-0.1,62.6,6.5,55.8-55.3,55.9C1093.7,1516.7,1017.9,1516.6,942.1,1516.6z"/>
		<path class="st0" d="M943,1648.9c-83.1,0-166.3-0.7-249.4,0.4c-22.7,0.3-30.5-7.1-29.9-29.8c2-72.6-8.9-62.1,62.8-62.3
			c154.4-0.5,308.8,0.5,463.1-0.7c27.4-0.2,36.8,7.3,35.8,35.5c-2.4,63.1,7.5,56.7-57.7,56.8
			C1092.8,1649.1,1017.9,1648.9,943,1648.9z"/>
		<path class="st0" d="M1176.1,1686.3c-58.9,75.6-121.1,143.8-220.5,152.1c-51.5,4.3-102.4-13.9-142.8-46.4
			c-36.6-29.4-66.7-67-104.2-105.7C867.8,1686.3,1020.1,1686.3,1176.1,1686.3z"/>
	</g>
	<g>
		<path class="st1" d="M1009.7,231.8c0-24.2,0-44.9,0-65.5c76.3-20.8,143.5,21.2,156.1,97.8c5.3,32.2,9.6,64.5,14.9,101.2
			c29.3-21.6,54.9-40.4,80.4-59.2c56.3-41.5,115.7-37.9,166,10.4c18.5,17.7,37,35.4,54.8,53.8c40.4,41.7,44.8,98.2,10.8,145
			c-20.4,28-42.4,54.8-66,85c8.9,2.6,15.1,5.2,21.6,6.1c28.1,4,56.2,7.2,84.3,11.1c60.7,8.5,100.2,51.9,102.4,113.3
			c0.9,25.6,0.7,51.2,0.2,76.8c-1.4,63.5-42.1,108.6-105,116.9c-33.2,4.4-66.4,8.8-104.9,13.8c22.2,28.7,41.5,53.6,60.7,78.5
			c43,55.8,39.1,112.5-11.2,161.7c-18.3,17.9-36.3,36.1-55.3,53.2c-43.8,39.3-100.1,43.3-148.8,10c-29.2-20-57.2-41.7-89.8-65.7
			c-4.3,29.5-8.6,54.4-11.5,79.4c-11.3,94.7-61.4,133.9-159.1,122.1c-0.6-7.5-1.8-15.4-1.9-23.3c-0.7-42.1-0.6-42.2,40.2-44.6
			c26.7-1.5,42-15,45.7-41.8c5-37.1,11.1-74.1,15.6-111.3c7-58,56-80.1,102.6-45.7c30.9,22.8,61.5,46,92.6,68.5
			c29.2,21.1,45.9,19.5,72.5-5.7c15.9-15.1,31.8-30.3,47.3-45.8c23.1-23,24.6-41.3,4.6-67.6c-23.8-31.3-48.9-61.6-72.8-92.8
			c-31.9-41.7-11.4-89.9,40.6-96.7c40.8-5.3,81.6-10.3,122.3-16.2c29.7-4.3,41.6-17.5,42.4-47.1c0.7-25.6,0.4-51.2-0.1-76.8
			c-0.5-24.5-13.3-39.5-37.5-43c-40.7-5.9-81.4-11.6-122.3-16c-25.7-2.8-44.7-12.6-55.7-37.5c-11.3-25.6-3.1-45.5,13.3-65.3
			c23.9-28.9,47-58.4,69.8-88.1c19.7-25.6,18.9-42.4-3.2-65.3c-17.1-17.8-34.9-35-52.9-51.8c-21.8-20.4-42-21.3-66.5-3.4
			c-31.7,23.3-63.4,46.6-94.4,70.7c-20.7,16.1-41.4,20.5-66.3,9.9c-25.4-10.9-33.9-30.3-36.6-55.9c-3.8-35.4-9.5-70.6-14.8-105.9
			c-5.5-36.3-17.4-46.5-54.4-47.2C1031.4,231.7,1022.4,231.8,1009.7,231.8z"/>
		<path class="st1" d="M945.1,1008c0-24,0-43.7,0-62.9c120.6-31.6,176.4-88.5,174-176.4c-2.4-87.9-58.9-143.6-173.3-169
			c0-19.8,0-40.1,0-63.3c85.1,3.3,153.6,36.1,200.9,105.4c51.1,74.9,56.6,156.1,14,236.4C1116.2,962,1042.3,1001.4,945.1,1008z"/>
	</g>
</g>
</svg>
