<?xml version="1.0" encoding="utf-8"?>
<!-- Generator: Adobe Illustrator 26.0.1, SVG Export Plug-In . SVG Version: 6.00 Build 0)  -->
<svg version="1.1" id="Layer_1" xmlns="http://www.w3.org/2000/svg" xmlns:xlink="http://www.w3.org/1999/xlink" x="0px" y="0px"
	 viewBox="0 0 2000 2000" style="enable-background:new 0 0 2000 2000;" xml:space="preserve">
<style type="text/css">
	.st0{fill:#454545;}
	.st1{fill:#454545;stroke:#FBAE17;stroke-width:26.2612;stroke-miterlimit:10;}
	.st2{fill:#FBAE17;stroke:#FBAE17;stroke-width:13.1306;stroke-miterlimit:10;}
	.st3{fill:#FFFFFF;stroke:#454545;stroke-width:23.8623;stroke-miterlimit:10;}
	.st4{fill:#FFFFFF;stroke:#454545;stroke-width:26.2612;stroke-miterlimit:10;}
	.st5{fill:none;stroke:#FBAE17;stroke-width:29.5439;stroke-linecap:round;stroke-linejoin:round;stroke-miterlimit:10;}
	.st6{fill:none;stroke:#FBAE17;stroke-width:26.2612;stroke-linecap:round;stroke-miterlimit:10;}
</style>
<g>
	<path class="st0" d="M1186.8,1697.6H347.1c-46.4,0-84.1-37.6-84.1-84.1V419.3c0-46.4,37.6-84.1,84.1-84.1h839.6
		c46.4,0,84.1,37.6,84.1,84.1v1194.2C1270.8,1659.9,1233.2,1697.6,1186.8,1697.6z"/>
	<path class="st1" d="M870.3,263c0-58-47-105-105-105c-58,0-105,47-105,105h-82.1v157.6h377.5V263H870.3z"/>
	<g>
		<rect x="847.4" y="952.4" class="st2" width="889.6" height="889.6"/>
		<polygon class="st0" points="1050.9,952.4 1050.9,1211.7 1152.6,1169.1 1251.1,1211.7 1251.1,952.4 		"/>
		<rect x="1405.4" y="1576.1" class="st3" width="172.3" height="172.3"/>
		<line class="st4" x1="936" y1="1589.2" x2="1149.4" y2="1589.2"/>
		<line class="st4" x1="936" y1="1661.5" x2="1149.4" y2="1661.5"/>
		<line class="st4" x1="936" y1="1733.7" x2="1149.4" y2="1733.7"/>
	</g>
	<polyline class="st5" points="414,595.4 453.4,674.2 634,595.4 	"/>
	<g>
		<line class="st6" x1="768.6" y1="590.5" x2="1139.5" y2="590.5"/>
		<path class="st6" d="M771.9,675.8c90.8,1.1,181.6,2.2,272.5,3.3"/>
	</g>
	<polyline class="st5" points="404.2,911.4 443.6,990.2 624.1,911.4 	"/>
	<g>
		<line class="st6" x1="758.7" y1="906.4" x2="1129.7" y2="906.4"/>
		<path class="st6" d="M762,991.8c90.8,1.1,181.6,2.2,272.5,3.3"/>
	</g>
	<polyline class="st5" points="394.4,1233.1 433.7,1311.9 614.3,1233.1 	"/>
	<g>
		<line class="st6" x1="748.9" y1="1228.1" x2="1119.8" y2="1228.1"/>
		<path class="st6" d="M752.2,1313.5c90.8,1.1,181.6,2.2,272.5,3.3"/>
	</g>
</g>
</svg>
