<?xml version="1.0" encoding="utf-8"?>
<!-- Generator: Adobe Illustrator 26.0.1, SVG Export Plug-In . SVG Version: 6.00 Build 0)  -->
<svg version="1.1" xmlns="http://www.w3.org/2000/svg" xmlns:xlink="http://www.w3.org/1999/xlink" x="0px" y="0px"
	 viewBox="0 0 500 500" style="enable-background:new 0 0 500 500;" xml:space="preserve">
<style type="text/css">
	.st0{fill:#FFC580;}
	.st1{fill:#F09E4D;}
	.st2{fill:#2B195E;}
	.st3{fill:#F5406A;}
	.st4{fill:#FFFFFF;}
	.st5{fill:#FBB810;}
	.st6{fill:#6F675C;}
	.st7{fill:#C2B3A1;}
	.st8{fill:#4D463F;}
	.st9{fill:#454545;}
	.st10{fill:#424AA8;}
	.st11{fill:#FFDC7F;}
</style>
<g id="BACKGROUND">
</g>
<g id="OBJECTS">
	<g>
		<path d="M381.3,230.6l-1.5-0.3c-1.6-0.3-2.7-1.9-2.3-3.5l5.2-26.2c0.3-1.6,1.9-2.7,3.5-2.3l1.5,0.3c1.6,0.3,2.7,1.9,2.3,3.5
			l-5.2,26.2C384.4,229.8,382.9,230.9,381.3,230.6z"/>
		<g>
			<path class="st0" d="M377.2,218.7c0.4,0.8,3.3,4.4,4.1,4.1l4.7-2.2c0.7-0.3,1.1-1.1,0.9-1.9l0.8-0.4c0.8-0.4,1.2-1.3,0.8-2.1
				c-0.1-0.3-0.3-0.5-0.5-0.6l0.5-0.2c0.8-0.4,1.2-1.3,0.8-2.1c-0.3-0.7-1-1-1.7-0.9l0.3-0.1c0.8-0.4,1.2-1.3,0.8-2.1
				c-0.4-0.8-1.3-1.2-2.1-0.8l-3.3,1.5c0.1-0.5-0.1-1-0.4-1.4c-0.6-0.6-1.6-0.6-2.3,0l-0.6,0.6c-0.9,0.8-1.5,1.5-1.8,2.8l-2.2,1.4
				L377.2,218.7z"/>
			<path class="st1" d="M380.6,212.3c-0.1,0-0.1,0-0.1-0.1c0-0.1,0-0.2,0.1-0.2l2.8-1.4c0.1,0,0.2,0,0.2,0.1c0,0.1,0,0.2-0.1,0.2
				L380.6,212.3C380.6,212.3,380.6,212.3,380.6,212.3z"/>
		</g>
		<path class="st0" d="M327.3,178l-1,7.8c-1.8-0.2-3.6,0.9-4.2,2.7c-0.5,1.6,0,3.3,1.3,4.4l0.4,15.3c0.1,1.6,4.6,1.7,9,2.6
			c2.6,0.5,4.5,2.3,4.1-0.3l-1.1-7.9l1.8,0.6c2.1,0.7,4.2,0.2,5.8-1.1c1.2-1,1.9-2.5,2.1-4.1l0.5-16.2L327.3,178z"/>
		<path class="st1" d="M336.3,205.1l-0.8-5.3l-9.4-4.4l0.3,2.1C326.5,197.6,327.8,201.1,336.3,205.1z"/>
		<path class="st0" d="M345.2,185.6l2.6,6.8c0.4,0.8-0.4,1.6-1.4,1.4l-2.1-0.3L345.2,185.6z"/>
		<path class="st2" d="M342.6,188.3c-0.1,0.3,0.1,0.6,0.4,0.7c0.3,0.1,0.6-0.1,0.7-0.4c0.1-0.3-0.1-0.6-0.4-0.7
			C343,187.8,342.7,188,342.6,188.3z"/>
		<path class="st3" d="M340.9,186.8c0.1,0,0.2,0,0.2,0l2.3-0.9c0.2-0.1,0.3-0.3,0.2-0.5c-0.1-0.2-0.3-0.3-0.5-0.2l-2.3,0.9
			c-0.2,0.1-0.3,0.3-0.2,0.5C340.7,186.7,340.8,186.8,340.9,186.8z"/>
		<g>
			<path d="M329.4,190.2c0,0-1.3-5.9,0.7-6.6c2-0.6,3.7,1.5,6.6,0.8c3-0.7,2.7-2.2,5.5-1.1c2.8,1.1,6,0.6,7.7-2.4
				c1.6-3-4-6.7-8.1-6.6c-4.1,0.2-3.7,2.8-6.2,2.2c-2.5-0.6-4.3-2.1-5.5-0.7c-1.2,1.3-2,2.6-2.9,2.5
				C326.4,178.2,322.2,182.4,329.4,190.2z"/>
		</g>
		<path class="st4" d="M345.7,193.8l-8.3-1l-10-6.1l-0.6,1.1l8.5,5.2c0,0.7,0.1,2.4,1,4.1l-10.3-6l-0.6,1.1l13,7.6l0.1-0.1
			c0.4,0.3,0.7,0.6,1.2,0.8c0.7,0.4,2.3,0.6,3.1,0.5C344.4,200.5,346.5,198.9,345.7,193.8z"/>
		<path class="st5" d="M350.2,174.1l-7.2,0.1c-3-2.2-7.6-4.4-12.5-2.5c0-0.4-0.4-0.8-0.8-0.8c-0.5-0.1-1,0.3-1.1,0.8
			c0,0.3,0.1,0.6,0.3,0.8c-8.3,4.7-4,13.9-4,13.9l21-8.6l4.6-1.9C351.5,175.5,351.3,174.1,350.2,174.1z"/>
		<path class="st5" d="M381.4,223.8l-5-11.3l-25.1,11c-5.3-6.6-14.9-15.7-27.4-15.2c0,0-9.9,3.4-8.1,21.9h17.1l8.6,11.2L381.4,223.8
			z"/>
	</g>
	<g>
		<ellipse transform="matrix(0.9219 -0.3875 0.3875 0.9219 -122.1273 81.5416)" cx="141.2" cy="343.6" rx="40.7" ry="40.7"/>
		
			<ellipse transform="matrix(0.9965 -8.323901e-02 8.323901e-02 0.9965 -28.1145 12.9423)" class="st6" cx="141.2" cy="343.6" rx="23.9" ry="23.9"/>
		
			<ellipse transform="matrix(0.3784 -0.9256 0.9256 0.3784 -230.3465 344.2621)" class="st7" cx="141.2" cy="343.6" rx="18.4" ry="18.4"/>
		<g>
			<g>
				<path class="st8" d="M139.6,335.3c1.1,1.1,2.9,1.2,4,0.1c1.1-1.1,1.2-2.9,0.1-4c-1.1-1.1-2.9-1.2-4-0.1
					C138.5,332.4,138.5,334.1,139.6,335.3z"/>
			</g>
			<g>
				<path class="st8" d="M128.1,346c1.1,1.1,2.9,1.2,4,0.1c1.1-1.1,1.2-2.9,0.1-4c-1.1-1.1-2.9-1.2-4-0.1
					C127.1,343.1,127.1,344.8,128.1,346z"/>
			</g>
			<g>
				<path class="st8" d="M149.6,346c1.1,1.1,2.9,1.2,4,0.1s1.2-2.9,0.1-4c-1.1-1.1-2.9-1.2-4-0.1C148.6,343.1,148.5,344.9,149.6,346
					z"/>
			</g>
			<g>
				<path class="st8" d="M138.2,356.7c1.1,1.1,2.9,1.2,4,0.1c1.1-1.1,1.2-2.9,0.1-4c-1.1-1.1-2.9-1.2-4-0.1
					C137.2,353.8,137.1,355.6,138.2,356.7z"/>
			</g>
		</g>
	</g>
	<path class="st5" d="M34.6,125.4v194.9c0,5.4,4.4,9.8,9.8,9.8H78c4,0,7.7-2.5,9.1-6.2c8.1-22,29.2-37.8,54.1-37.8
		s46,15.7,54.1,37.8c1.4,3.8,5.1,6.2,9.1,6.2H272c5.4,0,9.8-4.4,9.8-9.8V125.4c0-5.4-4.4-9.8-9.8-9.8H44.3
		C38.9,115.6,34.6,120,34.6,125.4z"/>
	<g>
		<circle cx="372.2" cy="343" r="40.7"/>
		<circle class="st6" cx="372.2" cy="343" r="23.9"/>
		
			<ellipse transform="matrix(0.9728 -0.2316 0.2316 0.9728 -69.3084 95.5128)" class="st7" cx="372.2" cy="343" rx="18.4" ry="18.4"/>
		<g>
			<g>
				<path class="st8" d="M370.6,334.6c1.1,1.1,2.9,1.2,4,0.1c1.1-1.1,1.2-2.9,0.1-4c-1.1-1.1-2.9-1.2-4-0.1
					C369.6,331.7,369.5,333.5,370.6,334.6z"/>
			</g>
			<g>
				<path class="st8" d="M359.2,345.3c1.1,1.1,2.9,1.2,4,0.1c1.1-1.1,1.2-2.9,0.1-4c-1.1-1.1-2.9-1.2-4-0.1
					C358.1,342.4,358.1,344.2,359.2,345.3z"/>
			</g>
			<g>
				<path class="st8" d="M380.6,345.4c1.1,1.1,2.9,1.2,4,0.1c1.1-1.1,1.2-2.9,0.1-4c-1.1-1.1-2.9-1.2-4-0.1
					C379.6,342.4,379.6,344.2,380.6,345.4z"/>
			</g>
			<g>
				<path class="st8" d="M369.2,356.1c1.1,1.1,2.9,1.2,4,0.1c1.1-1.1,1.2-2.9,0.1-4c-1.1-1.1-2.9-1.2-4-0.1
					C368.2,353.1,368.1,354.9,369.2,356.1z"/>
			</g>
		</g>
	</g>
	<path class="st9" d="M444.6,232.1l-68.4-85.6c-1.3-1.6-3.2-2.5-5.3-2.5h-77c-3.7,0-6.8,3-6.8,6.8v178.8h29
		c6.1-25.2,28.8-44,55.9-44c27.1,0,49.8,18.8,55.9,44H458v-59.1C458,256.4,453.3,242.9,444.6,232.1z M393.2,227.5H318
		c-5.9,0-10.6-5.3-10.6-11.8v-42.3c0-6.5,4.7-11.8,10.6-11.8h44.8c3.2,0,6.3,1.6,8.3,4.4l30.4,42.3
		C407,216.1,402.1,227.5,393.2,227.5z"/>
	<g>
		<path d="M458.7,323.1h-21.4c-1.2,0-2.3-0.7-2.7-1.8c-9.3-25.3-33.6-42.2-60.5-42.2c-6.2,0-12.2,0.9-18,2.6v-31
			c0-0.9-0.7-1.7-1.7-1.7h-52.5c-0.9,0-1.7,0.7-1.7,1.7v72.5c0,0,0,0,0,0.1h-96c-1.2,0-2.3-0.7-2.7-1.8
			c-9.3-25.3-33.6-42.2-60.5-42.2c-26.9,0-51.2,17-60.5,42.2c-0.4,1.1-1.5,1.8-2.7,1.8H35.2c-3.8,0-6.8,3.1-6.8,6.8s3.1,6.8,6.8,6.8
			H78c6.9,0,13.2-4.3,15.5-10.7c7.3-19.9,26.4-33.3,47.7-33.3c21.2,0,40.4,13.4,47.7,33.3c2.3,6.4,8.6,10.7,15.5,10.7h106.1
			c0.6,0,1.1-0.1,1.6-0.2c6.5-0.4,12.2-4.6,14.4-10.7c7.3-19.9,26.4-33.3,47.7-33.3c21.2,0,40.4,13.4,47.7,33.3
			c2.3,6.4,8.6,10.7,15.5,10.7h21.4c3.8,0,6.8-3.1,6.8-6.8S462.4,323.1,458.7,323.1z M313.6,321.3c-0.4,1.1-1.5,1.8-2.7,1.8
			c-0.5,0-1,0.1-1.5,0.2h-5.9c0,0,0,0,0-0.1v-70.9h49.2v30.4C335,289,320.4,303,313.6,321.3z"/>
		<path d="M315.8,278.5h-6.1c-0.9,0-1.7,0.7-1.7,1.7c0,0.9,0.7,1.7,1.7,1.7h6.1c0.9,0,1.7-0.7,1.7-1.7
			C317.5,279.2,316.7,278.5,315.8,278.5z"/>
	</g>
	<path class="st10" d="M317.4,223"/>
	<path class="st11" d="M459.6,318.7h-4.8v-40.2h4.8c2.4,0,4.4,2,4.4,4.4v31.5C464,316.8,462,318.7,459.6,318.7z"/>
</g>
</svg>
