<?xml version="1.0" encoding="utf-8"?>
<!-- Generator: Adobe Illustrator 26.0.1, SVG Export Plug-In . SVG Version: 6.00 Build 0)  -->
<svg version="1.1" id="Layer_1" xmlns="http://www.w3.org/2000/svg" xmlns:xlink="http://www.w3.org/1999/xlink" x="0px" y="0px"
	 viewBox="0 0 2000 2000" style="enable-background:new 0 0 2000 2000;" xml:space="preserve">
<style type="text/css">
	.st0{fill:#454545;}
	.st1{fill:#FBB810;}
</style>
<g>
	<path class="st0" d="M83.8,649.1c6.4-8.8,15.6-8.5,25.2-8.4c65,0.2,130,0,195,0.2c7.4,0,13-1.6,18.6-7.1
		c15-14.5,38.4-13.3,53.7,0.9c3.5,3.3,9.3,5.7,14.1,5.7c67.8,0.4,135.5,0.3,203.3,0.3c13,0,19,4.2,18.8,13
		c-0.2,8.8-7,13.7-19.2,13.7c-139.5,0-278.9,0-418.4,0c-21.7,0-43.3-0.4-65,0.2c-10.3,0.3-19.3-1.1-26.1-9.5
		C83.8,655.2,83.8,652.2,83.8,649.1z"/>
	<path class="st0" d="M1916.2,665.6c-5.7,0.7-11.4,1.9-17.1,1.9c-161.2,0.1-322.5,0.1-483.7,0c-3.6,0-7.5,0.1-10.8-1
		c-6.7-2.2-11.2-7.3-10.1-14.4c1.1-7.2,5.8-11.5,14.1-11.4c35.7,0.2,71.5,0.1,107.2,0.1c33.6,0,67.2,0.2,100.8-0.3
		c4.8-0.1,10.5-2.7,14.1-6c15.5-14.4,39.7-15,54.4,0.1c4.5,4.6,8.9,6.2,15.2,6.2c67.5-0.2,135-0.1,202.5-0.1c4.5,0,9.1,0.6,13.6,0.9
		C1916.2,649.7,1916.2,657.7,1916.2,665.6z"/>
	<path class="st0" d="M1292,857c6.7,13.2,13.4,24.8,18.6,36.9c8.7,20.2,10.8,42,10.9,63.6c0.5,83.4,0.2,166.7,0.2,250.1
		c0,17.7-8.6,29.4-22.2,31.1c-18.7,2.4-31.4-9.2-31.5-28.9c-0.1-43.1,0-86.1,0-129.2c0-42.5-0.1-84.9,0-127.4
		c0.2-43.7-18.8-75.3-58.8-93.7c-3.5-1.6-7.5-2.6-11.3-2.6c-129.8-0.1-259.6-0.2-389.4,0.2c-6.7,0-13.9,3.7-20.1,7.1
		c-33.7,18.4-49.5,48-49.8,85.5c-0.5,85.8-0.1,171.6-0.4,257.5c0,6.7-1.3,14.3-4.5,20c-6.1,10.9-16.8,13.4-28.6,11
		c-11.3-2.3-16.7-10.5-19-21c-0.8-3.8-0.8-7.9-0.8-11.8c0-80.6,0.2-161.3-0.1-241.9c-0.1-37.7,6.4-73.3,31.5-106.7
		c-7.9,0-13.8-0.3-19.5,0.1c-26.1,1.8-48.9-5.7-64.6-27c-7.5-10.2-12.1-23-15.9-35.3c-2.1-6.7-4.3-8.6-10.9-8.6
		c-56.5,0.2-113-0.1-169.5,0.3c-8.5,0.1-11.8-1.8-11.4-11c0.8-18.6,0.6-37.3,0.1-55.9c-0.2-8.6,2-11.5,11.2-11.5
		c59.5,0.4,119.1,0.1,178.7,0.3c7.6,0,12.7-1.8,17.9-8c14.6-17.6,33.5-26.9,56.8-26.2c9.5,0.3,19,0.5,28.4-0.2
		c3.3-0.2,8.3-2.5,9.4-5.2c9.4-23.6,28.7-36.6,49.7-47.6c45.6-23.8,95-34,145.5-39.8c48.7-5.6,97.5-5.6,146.2-1.6
		c46.4,3.8,91.8,12.4,135.4,29.5c23.1,9.1,45.2,20.1,62.1,39c4.8,5.4,9.6,11.5,12.1,18.1c2.5,6.7,6.2,7.9,12.3,8
		c14.3,0.2,28.8-0.1,42.9,1.7c17.4,2.2,31.3,11.9,41.6,25.8c3.8,5.1,7.9,6.6,13.8,6.6c60.2-0.2,120.3,0.1,180.5-0.3
		c9.1-0.1,12.4,2.3,12,11.8c-0.7,18.9-0.6,37.9,0,56.8c0.3,7.9-2.2,9.8-9.7,9.7c-56.2-0.3-112.4,0-168.6-0.4
		c-9.2-0.1-12.5,2.5-13.7,11.9c-4.2,31.8-35.3,58.5-67.3,59C1312.1,857.1,1302.1,857,1292,857z"/>
	<path class="st1" d="M1003.7,1422.5c-72.2,0-144.4-0.1-216.7,0.2c-7.7,0-12.7-2.7-17-8.8c-11-15.5-17-32.7-17-52.3
		c0-100.1,0-200.3,0-300.4c0-49.5,34-85.5,80.9-85.5c34.3-0.1,68.7,0.4,103-0.2c10.7-0.2,13.2,3.6,13,14.2
		c-0.6,31.6,0,63.2-0.3,94.9c-0.1,9.1,2.4,12.7,11.5,12.6c27.9-0.5,55.8-0.5,83.7,0c9.3,0.2,12.6-2.8,12.5-12.8
		c-0.5-32,0.2-64-0.4-96c-0.2-10.1,3.1-12.9,12.3-12.8c35.7,0.4,71.5-0.1,107.3,0.2c42.4,0.3,77,36.8,77,81.3
		c0.2,102.4-0.1,204.8,0.1,307.2c0,16.1-4.9,30.2-12.7,43.5c-5.9,10-12.9,15.4-25.8,15.2C1144.5,1422.1,1074.1,1422.5,1003.7,1422.5
		z M1125,1257.7c12.8-1.4,11.7,5.3,11.6,11.5c-0.1,19.9,0.4,39.9-0.2,59.8c-0.3,11.4,6.3,10,13.3,10.4c7.6,0.5,11.1-1.6,10.8-10.5
		c-0.5-19.5-0.4-39.1,0.1-58.7c0.1-5.4,2.6-10.8,3.8-15.5c-4.5-5.8-9.8-12.7-15.8-20.5C1141.2,1241.7,1134.8,1248,1125,1257.7z"/>
	<path class="st0" d="M387.3,734.9c0,11.9,0.1,23.8,0,35.7c-0.4,22.7-16.4,38.6-38.7,38.6c-22,0-38.6-16.5-38.7-38.7
		c-0.1-24.7,0.2-49.4-0.2-74.1c-0.1-6.5,2.1-8.5,8.4-8.5c20.4,0.3,40.8,0.3,61.3,0c6.6-0.1,8.3,2.4,8.1,8.6
		C387,709.3,387.3,722.1,387.3,734.9z"/>
	<path class="st0" d="M1696.7,735.9c0,11.9,0.1,23.8,0,35.7c-0.1,21.2-16.3,37.3-37.8,37.5c-21.8,0.2-39.3-15.7-39.5-36.9
		c-0.3-25.6,0.1-51.2-0.2-76.8c-0.1-5.7,2.1-7.5,7.5-7.5c21,0.1,42.1,0.2,63.1,0c5.9-0.1,7.1,2.6,7,7.8
		C1696.5,709.1,1696.7,722.5,1696.7,735.9z"/>
	<path class="st0" d="M271.9,747.3c0,10-0.5,20.1,0.1,30.1c0.5,7.7-2.4,9.7-9.6,8.4c-16.2-3.1-28.7-17.5-30.9-36.1
		c-1.8-14.9,8.6-32.2,22.9-38.1c2.2-0.9,4.5-1.9,6.8-2.5c7.9-2.2,10.5-0.2,10.6,8.1C272,727.2,271.9,737.3,271.9,747.3
		C271.9,747.3,271.9,747.3,271.9,747.3z"/>
	<path class="st0" d="M1735.3,747.4c0-10.7,0.2-21.4-0.1-32.1c-0.1-6.5,2.9-7.8,8.6-6.7c18,3.4,31.4,19.8,31.5,38.6
		c0,18.6-13.7,35.4-31.5,38.7c-6.2,1.2-9-0.4-8.7-7.4C1735.7,768.2,1735.3,757.8,1735.3,747.4z"/>
</g>
</svg>
