<?xml version="1.0" encoding="utf-8"?>
<!-- Generator: Adobe Illustrator 26.0.1, SVG Export Plug-In . SVG Version: 6.00 Build 0)  -->
<svg version="1.1" id="Layer_1" xmlns="http://www.w3.org/2000/svg" xmlns:xlink="http://www.w3.org/1999/xlink" x="0px" y="0px"
	 viewBox="0 0 2000 2000" style="enable-background:new 0 0 2000 2000;" xml:space="preserve">
<style type="text/css">
	.st0{opacity:0.19;}
	.st1{fill:#FBB810;stroke:#FFFFFF;stroke-width:8.3799;stroke-miterlimit:10;}
	.st2{fill:#FBB810;stroke:#FFFFFF;stroke-width:25.1398;stroke-miterlimit:10;}
	.st3{fill:#FBB810;stroke:#454545;stroke-width:9;stroke-miterlimit:10;}
	.st4{fill:none;stroke:#454545;stroke-width:25.1398;stroke-linecap:round;stroke-dasharray:125.6988,92.1792;}
</style>
<g class="st0">
	<g>
		<path class="st1" d="M1065.6,257.1c-420.1,0-761.9,341.8-761.9,762S645.5,1781,1065.6,1781c420.2,0,761.9-341.8,761.9-761.9
			S1485.8,257.1,1065.6,257.1z"/>
		<path class="st2" d="M1065.6,257.1c-420.1,0-761.9,341.8-761.9,762S645.5,1781,1065.6,1781c420.2,0,761.9-341.8,761.9-761.9
			S1485.8,257.1,1065.6,257.1z"/>
		<g>
			<path class="st2" d="M1065.6,1781c0,0-381-219.8-381-765.7c0-545.9,381-758.2,381-758.2"/>
		</g>
		<g>
			<path class="st2" d="M1065.6,1781c0,0,381-219.8,381-765.7c0-545.9-381-758.2-381-758.2"/>
		</g>
		<line class="st2" x1="366.6" y1="715.8" x2="1764.5" y2="715.8"/>
		<line class="st2" x1="366.6" y1="1322.5" x2="1764.5" y2="1322.5"/>
	</g>
</g>
<path class="st3" d="M1681.2,260.3c-95.4,0-172.7,77.3-172.7,172.7c0,95.4,172.7,335.9,172.7,335.9S1854,528.4,1854,433
	C1854,337.6,1776.6,260.3,1681.2,260.3z M1681.2,492.3c-36.7,0-66.4-29.7-66.4-66.4c0-36.7,29.7-66.4,66.4-66.4
	c36.7,0,66.4,29.7,66.4,66.4C1747.6,462.5,1717.9,492.3,1681.2,492.3z"/>
<path class="st3" d="M280.2,617.3c-95.4,0-172.7,77.3-172.7,172.7c0,95.4,172.7,335.9,172.7,335.9S453,885.4,453,790
	C453,694.6,375.6,617.3,280.2,617.3z M280.2,849.3c-36.7,0-66.4-29.7-66.4-66.4c0-36.7,29.7-66.4,66.4-66.4
	c36.7,0,66.4,29.7,66.4,66.4C346.6,819.5,316.9,849.3,280.2,849.3z"/>
<path class="st4" d="M1689.5,848.5c-89.5,289.5-149,351.3-188,348c-122.6-10.3-86.5-667.6-386.2-785.7c-21-8.3-65.5-16.7-111.8-6.2
	C796,451.5,846.9,794,934.9,917.6c88,123.6,368.7,646.1,106.1,647.9c-124.1,0.8-201.9-502-363.1-458.7
	c-81.5,21.9-102.2,223.3-208.9,236.5c-70.9,8.8-141.6-78.5-194.5-163.9"/>
</svg>
