<?xml version="1.0" encoding="utf-8"?>
<!-- Generator: Adobe Illustrator 26.0.1, SVG Export Plug-In . SVG Version: 6.00 Build 0)  -->
<svg version="1.1" id="Layer_1" xmlns="http://www.w3.org/2000/svg" xmlns:xlink="http://www.w3.org/1999/xlink" x="0px" y="0px"
	 viewBox="0 0 2000 2000" style="enable-background:new 0 0 2000 2000;" xml:space="preserve">
<style type="text/css">
	.st0{fill:#606060;}
	.st1{fill:#454545;}
	.st2{fill:#FBB810;}
	.st3{fill:#F49E00;}
	.st4{fill:#F4EFE9;}
	.st5{clip-path:url(#SVGID_00000131368410364577717770000003083010742651269273_);}
	.st6{fill:#FFFFFF;}
	.st7{fill:#025482;}
</style>
<g>
	<g>
		<polygon class="st0" points="186.6,1452.6 351.2,1300.2 1667.8,1300.2 1813,1452.6 		"/>
	</g>
	<path class="st1" d="M1647.2,427H352.4c-21.4,0-38.7,17.9-38.7,40v810.6c0,22.1,17.3,40,38.7,40h1294.8c21.4,0,38.7-17.9,38.7-40
		V467C1685.9,444.9,1668.6,427,1647.2,427z M1632.7,1248.5c0,19.7-16,35.7-35.7,35.7H402.7c-19.7,0-35.7-16-35.7-35.7V525.2
		c0-19.7,16-35.7,35.7-35.7H1597c19.7,0,35.7,16,35.7,35.7V1248.5z"/>
	<g>
		<g>
			<g>
				<g>
					<path class="st2" d="M1648,508.4c-5.3-12.9-17.9-21.4-31.9-21.4h-397.6h-438H387.4c-16.6,0-31.6,10.1-37.9,25.5l-89.6,219.4
						h472.4h534.5h472.4L1648,508.4z"/>
				</g>
			</g>
		</g>
		<g>
			<g>
				<g>
					<path class="st3" d="M307.3,811.1h-0.9c-25.7,0-46.5-20.8-46.5-46.5v-32.8h94v32.8C353.9,790.3,333,811.1,307.3,811.1z"/>
				</g>
			</g>
		</g>
		<g>
			<g>
				<g>
					<path class="st3" d="M503.1,811.1h-1c-28,0-50.8-20.8-50.8-46.5v-32.8h102.6v32.8C553.9,790.3,531.1,811.1,503.1,811.1z"/>
				</g>
			</g>
		</g>
		<g>
			<g>
				<g>
					<path class="st3" d="M699.7,811.1h-1.1c-29.2,0-52.9-20.8-52.9-46.5v-32.8h106.9v32.8C752.6,790.3,728.9,811.1,699.7,811.1z"/>
				</g>
			</g>
		</g>
		<g>
			<g>
				<g>
					<path class="st3" d="M899.3,811.1h-1.1c-29.7,0-53.8-20.8-53.8-46.5v-32.8H953v32.8C953,790.3,929,811.1,899.3,811.1z"/>
				</g>
			</g>
		</g>
		<g>
			<g>
				<g>
					<path class="st3" d="M1099.5,811.1h-1.1c-29.1,0-52.7-20.8-52.7-46.5v-32.8h106.5v32.8C1152.2,790.3,1128.6,811.1,1099.5,811.1
						z"/>
				</g>
			</g>
		</g>
		<g>
			<g>
				<g>
					<path class="st3" d="M1296.5,811.1h-1.1c-29.1,0-52.7-20.8-52.7-46.5v-32.8h106.5v32.8C1349.2,790.3,1325.6,811.1,1296.5,811.1
						z"/>
				</g>
			</g>
		</g>
		<g>
			<g>
				<g>
					<path class="st3" d="M1495.8,811.1h-1c-28.5,0-51.6-20.8-51.6-46.5v-32.8h104.3v32.8C1547.5,790.3,1524.4,811.1,1495.8,811.1z"
						/>
				</g>
			</g>
		</g>
		<g>
			<g>
				<g>
					<path class="st3" d="M1691.9,811.1h-1c-26.4,0-47.8-20.8-47.8-46.5v-32.8h96.6v32.8C1739.7,790.3,1718.3,811.1,1691.9,811.1z"
						/>
				</g>
			</g>
		</g>
		<g>
			<g>
				<g>
					<path class="st4" d="M403.1,811.1h-1c-26.6,0-48.2-20.8-48.2-46.5v-32.8h97.4v32.8C451.3,790.3,429.7,811.1,403.1,811.1z"/>
				</g>
			</g>
		</g>
		<g>
			<g>
				<g>
					<path class="st4" d="M600.2,811.1h-0.9c-25.1,0-45.4-20.8-45.4-46.5v-32.8h91.8v32.8C645.7,790.3,625.3,811.1,600.2,811.1z"/>
				</g>
			</g>
		</g>
		<g>
			<g>
				<g>
					<path class="st4" d="M799.2,811.1h-0.9c-25.3,0-45.9-20.8-45.9-46.5v-32.8h92.7v32.8C845.1,790.3,824.5,811.1,799.2,811.1z"/>
				</g>
			</g>
		</g>
		<g>
			<g>
				<g>
					<path class="st4" d="M1000.1,811.1h-0.9c-25.3,0-45.9-20.8-45.9-46.5v-32.8h92.7v32.8C1045.9,790.3,1025.4,811.1,1000.1,811.1z
						"/>
				</g>
			</g>
		</g>
		<g>
			<g>
				<g>
					<path class="st4" d="M1197.7,811.1h-0.9c-24.8,0-44.8-20.8-44.8-46.5v-32.8h90.5v32.8C1242.5,790.3,1222.4,811.1,1197.7,811.1z
						"/>
				</g>
			</g>
		</g>
		<g>
			<g>
				<g>
					<path class="st4" d="M1396.9,811.1h-0.9c-25.9,0-46.9-20.8-46.9-46.5v-32.8h94.8v32.8C1443.8,790.3,1422.8,811.1,1396.9,811.1z
						"/>
				</g>
			</g>
		</g>
		<g>
			<g>
				<g>
					<path class="st4" d="M1596,811.1h-1c-26.4,0-47.8-20.8-47.8-46.5v-32.8h96.6v32.8C1643.8,790.3,1622.4,811.1,1596,811.1z"/>
				</g>
			</g>
		</g>
		<g>
			<defs>
				<path id="SVGID_1_" d="M1651.7,517.4c-7.5-18.4-25.5-30.5-45.4-30.5h-387.8h-438H359.9l-100,244.8h472.4h534.5h472.4
					L1651.7,517.4z"/>
			</defs>
			<clipPath id="SVGID_00000061448582697373930820000012023494661055280037_">
				<use xlink:href="#SVGID_1_"  style="overflow:visible;"/>
			</clipPath>
			<g style="clip-path:url(#SVGID_00000061448582697373930820000012023494661055280037_);">
				<g>
					<g>
						<rect x="953" y="455.9" class="st6" width="93.1" height="396.6"/>
					</g>
				</g>
			</g>
			<g style="clip-path:url(#SVGID_00000061448582697373930820000012023494661055280037_);">
				<g>
					<g>
						<polygon class="st6" points="831.8,839.9 739.7,826.4 793.5,435.2 880.6,444.7 						"/>
					</g>
				</g>
			</g>
			<g style="clip-path:url(#SVGID_00000061448582697373930820000012023494661055280037_);">
				<g>
					<g>
						<polygon class="st6" points="625.2,823.4 535,800.2 640.9,416.3 714.2,439.6 						"/>
					</g>
				</g>
			</g>
			<g style="clip-path:url(#SVGID_00000061448582697373930820000012023494661055280037_);">
				<g>
					<g>
						<polygon class="st6" points="1165.8,839.9 1258,826.4 1193.6,433.5 1115.1,446.5 						"/>
					</g>
				</g>
			</g>
			<g style="clip-path:url(#SVGID_00000061448582697373930820000012023494661055280037_);">
				<g>
					<g>
						<polygon class="st6" points="1577.8,821.9 1665.3,789.9 1528.8,417.5 1449.6,447.3 						"/>
					</g>
				</g>
			</g>
			<g style="clip-path:url(#SVGID_00000061448582697373930820000012023494661055280037_);">
				<g>
					<g>
						<polygon class="st6" points="420.4,821.9 333,789.9 469.5,417.5 548.6,447.3 						"/>
					</g>
				</g>
			</g>
			<g style="clip-path:url(#SVGID_00000061448582697373930820000012023494661055280037_);">
				<g>
					<g>
						<polygon class="st6" points="1372.5,823.4 1462.7,800.2 1356.5,418 1273.8,439.3 						"/>
					</g>
				</g>
			</g>
		</g>
	</g>
	<g>
		<circle class="st7" cx="999.8" cy="453.2" r="14.5"/>
	</g>
	<g>
		<g>
			<g>
				<path class="st2" d="M925,1165.8h147.4c18.1,0,32.9-14.7,32.9-32.9v-0.5c0-18.1-14.7-32.9-32.9-32.9H925c-4.7,0-8.6,3.8-8.6,8.6
					s3.8,8.6,8.6,8.6h147.4c8.6,0,15.7,7,15.7,15.7v0.5c0,8.6-7,15.7-15.7,15.7H925c-4.7,0-8.6,3.8-8.6,8.6
					C916.4,1161.9,920.2,1165.8,925,1165.8z"/>
			</g>
		</g>
		<g>
			<g>
				<path class="st2" d="M1087.4,1116.6c2.8,0,5.3-1.8,6.2-4.6l45-148.9H887.3l28.4,148.3c0.7,3.5,4,5.8,7.5,5.1
					c3.5-0.7,5.8-4,5.1-7.5L902.9,976h218.3l-40,132.3c-1,3.4,0.9,7,4.3,8C1086.1,1116.5,1086.7,1116.6,1087.4,1116.6z"/>
			</g>
		</g>
		<g>
			<g>
				<path class="st2" d="M1129.9,976c2.6,0,5.1-1.6,6.1-4.3l14.4-40.3h32.5c3.6,0,6.4-2.9,6.4-6.4c0-3.6-2.9-6.4-6.4-6.4h-41.6
					l-17.4,48.9c-1.2,3.4,0.6,7,3.9,8.2C1128.4,975.9,1129.1,976,1129.9,976z"/>
			</g>
		</g>
		<g>
			<g>
				<path class="st2" d="M1182.9,935.7h34.9c5.9,0,10.7-4.8,10.7-10.7c0-5.9-4.8-10.7-10.7-10.7h-34.9c-5.9,0-10.7,4.8-10.7,10.7
					C1172.1,930.9,1177,935.7,1182.9,935.7z"/>
			</g>
		</g>
		<g>
			<g>
				<circle class="st2" cx="1076.3" cy="1200.8" r="29.5"/>
			</g>
		</g>
		<g>
			<g>
				<circle class="st2" cx="937.4" cy="1200.8" r="29.5"/>
			</g>
		</g>
		<g>
			<g>
				<path class="st2" d="M1062.5,1200.8c0,7.6,6.2,13.8,13.8,13.8s13.8-6.2,13.8-13.8s-6.2-13.8-13.8-13.8
					S1062.5,1193.2,1062.5,1200.8z"/>
			</g>
		</g>
		<g>
			<g>
				<path class="st2" d="M922.2,1200.8c0,7.6,6.2,13.8,13.8,13.8s13.8-6.2,13.8-13.8s-6.2-13.8-13.8-13.8S922.2,1193.2,922.2,1200.8
					z"/>
			</g>
		</g>
		<g>
			<g>
				<path class="st2" d="M1057.7,1113c3.1,0,5.8-2.2,6.3-5.3l22.9-131.8c0.6-3.5-1.7-6.8-5.2-7.5c-3.5-0.6-6.8,1.7-7.5,5.2
					l-22.9,131.8c-0.6,3.5,1.7,6.8,5.2,7.5C1057,1113,1057.3,1113,1057.7,1113z"/>
			</g>
		</g>
		<g>
			<g>
				<path class="st2" d="M1025.5,1110.2c3.4,0,6.2-2.6,6.4-6l8.6-130.3c0.2-3.6-2.5-6.6-6-6.9c-3.5-0.3-6.6,2.5-6.9,6l-8.6,130.3
					c-0.2,3.6,2.5,6.6,6,6.9C1025.2,1110.2,1025.3,1110.2,1025.5,1110.2z"/>
			</g>
		</g>
		<g>
			<g>
				<path class="st2" d="M958.1,1113c0.3,0,0.7,0,1-0.1c3.5-0.6,5.9-3.9,5.4-7.4l-20.8-131.8c-0.6-3.5-3.9-5.9-7.4-5.4
					c-3.5,0.6-5.9,3.9-5.4,7.4l20.8,131.8C952.3,1110.8,955,1113,958.1,1113z"/>
			</g>
		</g>
		<g>
			<g>
				<path class="st2" d="M992.5,1110.2c0.1,0,0.2,0,0.3,0c3.6-0.2,6.3-3.2,6.1-6.8l-6.4-130.3c-0.2-3.6-3.2-6.3-6.8-6.1
					c-3.6,0.2-6.3,3.2-6.1,6.8l6.4,130.3C986.2,1107.5,989.1,1110.2,992.5,1110.2z"/>
			</g>
		</g>
		<g>
			<g>
				<path class="st2" d="M909.4,1021.4h206.3c3.6,0,6.4-2.9,6.4-6.4c0-3.6-2.9-6.4-6.4-6.4H909.4c-3.6,0-6.4,2.9-6.4,6.4
					C903,1018.5,905.9,1021.4,909.4,1021.4z"/>
			</g>
		</g>
		<g>
			<g>
				<path class="st2" d="M916.6,1067.2h181.9c3.6,0,6.4-2.9,6.4-6.4s-2.9-6.4-6.4-6.4H916.6c-3.6,0-6.4,2.9-6.4,6.4
					S913,1067.2,916.6,1067.2z"/>
			</g>
		</g>
	</g>
	<g>
		<path class="st1" d="M1729.7,1573.8H270c-46,0-83.3-37.3-83.3-83.3v-37.9H1813v37.9C1813,1536.5,1775.7,1573.8,1729.7,1573.8z"/>
	</g>
	<g>
		<path d="M719.1,1317.2c0,8-6.5,14.5-14.5,14.5H540c-8,0-14.5-6.5-14.5-14.5l0,0c0-8,6.5-14.5,14.5-14.5h164.6
			C712.6,1302.7,719.1,1309.2,719.1,1317.2L719.1,1317.2z"/>
	</g>
	<g>
		<path d="M1498.4,1317.2c0,8-6.5,14.5-14.5,14.5h-164.6c-8,0-14.5-6.5-14.5-14.5l0,0c0-8,6.5-14.5,14.5-14.5h164.6
			C1491.9,1302.7,1498.4,1309.2,1498.4,1317.2L1498.4,1317.2z"/>
	</g>
	<g>
		<polygon class="st2" points="808.6,1430.8 862.7,1380.8 1143.3,1380.8 1191,1430.8 		"/>
	</g>
	<g>
		<rect x="957.5" y="1350" class="st6" width="90.7" height="4.8"/>
	</g>
	<g>
		<g>
			<rect x="295.5" y="1415" class="st6" width="101.6" height="4.8"/>
		</g>
		<g>
			<rect x="381.5" y="1350" class="st6" width="90.7" height="4.8"/>
		</g>
		<g>
			<rect x="342.8" y="1379.7" class="st6" width="90.7" height="4.8"/>
		</g>
		<g>
			<rect x="558.2" y="1350" class="st6" width="90.7" height="4.8"/>
		</g>
		<g>
			<rect x="512.2" y="1379.7" class="st6" width="90.7" height="4.8"/>
		</g>
		<g>
			<rect x="622.3" y="1415" class="st6" width="101.6" height="4.8"/>
		</g>
		<g>
			<rect x="730" y="1350" class="st6" width="90.7" height="4.8"/>
		</g>
		<g>
			<rect x="684" y="1379.7" class="st6" width="90.7" height="4.8"/>
		</g>
		<g>
			<rect x="460.1" y="1422.3" class="st6" width="101.6" height="4.8"/>
		</g>
	</g>
	<g>
		<g>
			<rect x="1619.4" y="1415" class="st6" width="101.6" height="4.8"/>
		</g>
		<g>
			<rect x="1544.4" y="1350" class="st6" width="90.7" height="4.8"/>
		</g>
		<g>
			<rect x="1583.1" y="1379.7" class="st6" width="90.7" height="4.8"/>
		</g>
		<g>
			<rect x="1367.7" y="1350" class="st6" width="90.7" height="4.8"/>
		</g>
		<g>
			<rect x="1413.7" y="1379.7" class="st6" width="90.7" height="4.8"/>
		</g>
		<g>
			<rect x="1292.7" y="1415" class="st6" width="101.6" height="4.8"/>
		</g>
		<g>
			<rect x="1195.8" y="1350" class="st6" width="90.7" height="4.8"/>
		</g>
		<g>
			<rect x="1241.8" y="1379.7" class="st6" width="90.7" height="4.8"/>
		</g>
		<g>
			<rect x="1454.8" y="1422.3" class="st6" width="101.6" height="4.8"/>
		</g>
	</g>
</g>
</svg>
