<?xml version="1.0" encoding="utf-8"?>
<!-- Generator: Adobe Illustrator 26.0.1, SVG Export Plug-In . SVG Version: 6.00 Build 0)  -->
<svg version="1.1" id="Layer_1" xmlns="http://www.w3.org/2000/svg" xmlns:xlink="http://www.w3.org/1999/xlink" x="0px" y="0px"
	 viewBox="0 0 2000 2000" style="enable-background:new 0 0 2000 2000;" xml:space="preserve">
<style type="text/css">
	.st0{clip-path:url(#SVGID_00000178891519019015168250000016344470421052596151_);fill:#FBB810;}
	.st1{clip-path:url(#SVGID_00000178891519019015168250000016344470421052596151_);}
	.st2{fill:#FFE98A;}
	.st3{fill:#6F675C;}
	.st4{fill:#C2B3A1;}
	.st5{fill:#4D463F;}
	.st6{fill:#454545;}
	.st7{fill:#424AA8;}
	.st8{fill:#FFDC7F;}
</style>
<g>
	<g>
		<defs>
			<path id="SVGID_1_" d="M83,533.2v706.2c0,19.6,20.6,35.5,46,35.5h157.7c33.8-95,125.3-157.8,225.5-155
				c98.3,2.7,184.9,68,215,162.2c156.6-2.4,313.2-4.8,469.9-7.2c25.3,0,46-15.9,46-35.5V533.2c0-19.6-20.6-35.5-46-35.5H128.5
				C103.2,497.7,83,513.6,83,533.2z"/>
		</defs>
		<clipPath id="SVGID_00000057835645793832128130000003255673869075146406_">
			<use xlink:href="#SVGID_1_"  style="overflow:visible;"/>
		</clipPath>
		<path style="clip-path:url(#SVGID_00000057835645793832128130000003255673869075146406_);fill:#FBB810;" d="M82,533.2v706.2
			c0,19.6,20.6,35.5,46,35.5h157.7c33.8-95,125.3-157.8,225.5-155c98.3,2.7,184.9,68,215,162.2c156.6-2.4,313.2-4.8,469.9-7.2
			c25.3,0,46-15.9,46-35.5V533.2c0-19.6-20.6-35.5-46-35.5H127.6C102.2,497.7,82,513.6,82,533.2z"/>
		<g style="clip-path:url(#SVGID_00000057835645793832128130000003255673869075146406_);">
			<rect x="160.4" y="1036.8" class="st2" width="304.4" height="168.3"/>
			<rect x="510.8" y="1036.8" class="st2" width="304.4" height="168.3"/>
			<rect x="861.2" y="1036.8" class="st2" width="304.4" height="168.3"/>
			<rect x="160.4" y="805.7" class="st2" width="304.4" height="168.3"/>
			<rect x="510.8" y="805.7" class="st2" width="304.4" height="168.3"/>
			<rect x="861.2" y="805.7" class="st2" width="304.4" height="168.3"/>
			<rect x="158.5" y="574.5" class="st2" width="304.4" height="168.3"/>
			<rect x="508.8" y="574.5" class="st2" width="304.4" height="168.3"/>
			<rect x="859.2" y="574.5" class="st2" width="304.4" height="168.3"/>
		</g>
	</g>
	<g>
		<ellipse transform="matrix(0.7071 -0.7071 0.7071 0.7071 -801.2303 758.5547)" cx="515" cy="1346.4" rx="147.5" ry="147.5"/>
		<ellipse class="st3" cx="515" cy="1346.4" rx="86.6" ry="86.6"/>
		<ellipse class="st4" cx="514.8" cy="1346.4" rx="66.7" ry="66.7"/>
		<g>
			<g>
				<path class="st5" d="M509.3,1316.4c4,4,10.5,4.3,14.5,0.4c4-4,4.3-10.5,0.4-14.5c-4-4-10.5-4.3-14.5-0.4
					C505.3,1305.9,505.3,1312.1,509.3,1316.4z"/>
			</g>
			<g>
				<path class="st5" d="M467.6,1355.2c4,4,10.5,4.3,14.5,0.4c4-4,4.3-10.5,0.4-14.5c-4-4-10.5-4.3-14.5-0.4
					C464,1344.7,464,1350.8,467.6,1355.2z"/>
			</g>
			<g>
				<path class="st5" d="M545.5,1355.2c4,4,10.5,4.3,14.5,0.4c4-4,4.3-10.5,0.4-14.5c-4-4-10.5-4.3-14.5-0.4
					C541.9,1344.7,541.5,1351.2,545.5,1355.2z"/>
			</g>
			<g>
				<path class="st5" d="M504.2,1393.9c4,4,10.5,4.3,14.5,0.4c4-4,4.3-10.5,0.4-14.5c-4-4-10.5-4.3-14.5-0.4
					C500.6,1383.4,500.2,1390,504.2,1393.9z"/>
			</g>
		</g>
	</g>
	<g>
		<circle cx="1581.5" cy="1354.9" r="147.5"/>
		<circle class="st3" cx="1581.5" cy="1354.9" r="86.6"/>
		<ellipse class="st4" cx="1581.5" cy="1354.8" rx="66.7" ry="66.7"/>
		<g>
			<g>
				<path class="st5" d="M1575.7,1324.4c4,4,10.5,4.3,14.5,0.4c4-4,4.3-10.5,0.4-14.5c-4-4-10.5-4.3-14.5-0.4
					C1572.1,1313.9,1571.7,1320.4,1575.7,1324.4z"/>
			</g>
			<g>
				<path class="st5" d="M1534.4,1363.2c4,4,10.5,4.3,14.5,0.4s4.3-10.5,0.4-14.5c-4-4-10.5-4.3-14.5-0.4
					C1530.4,1352.7,1530.4,1359.2,1534.4,1363.2z"/>
			</g>
			<g>
				<path class="st5" d="M1611.9,1363.6c4,4,10.5,4.3,14.5,0.4c4-4,4.3-10.5,0.4-14.5c-4-4-10.5-4.3-14.5-0.4
					C1608.3,1352.7,1608.3,1359.2,1611.9,1363.6z"/>
			</g>
			<g>
				<path class="st5" d="M1570.6,1402.3c4,4,10.5,4.3,14.5,0.4c4-4,4.3-10.5,0.4-14.5c-4-4-10.5-4.3-14.5-0.4
					C1567,1391.5,1566.6,1398,1570.6,1402.3z"/>
			</g>
		</g>
	</g>
	<path class="st6" d="M1843.8,953.1L1596,642.9c-4.7-5.8-11.6-9.1-19.2-9.1h-279c-13.4,0-24.6,10.9-24.6,24.6v647.8h105.1
		c22.1-91.3,104.3-159.4,202.5-159.4s180.4,68.1,202.5,159.4h109.1v-214.1C1892.3,1041.1,1875.3,992.2,1843.8,953.1z M1657.6,936.4
		h-272.5c-21.4,0-38.4-19.2-38.4-42.8V740.4c0-23.6,17-42.8,38.4-42.8h162.3c11.6,0,22.8,5.8,30.1,15.9l110.1,153.3
		C1707.6,895.1,1689.8,936.4,1657.6,936.4z"/>
	<path d="M1892,1267.4h-77.5c-4.3,0-8.3-2.5-9.8-6.5c-33.7-91.7-121.7-152.9-219.2-152.9c-22.5,0-44.2,3.3-65.2,9.4v-112.3
		c0-3.3-2.5-6.2-6.2-6.2h-190.2c-3.3,0-6.2,2.5-6.2,6.2v262.7c0,0,0,0,0,0.4h-75.6H1228H760.6h-11.2h-6l-2.9,2.9
		c-0.6,0.6-1.5-0.3-0.9-0.9l1.9-1.9h-1.2c-4.3,0-8.3-2.5-9.8-6.5c-33.7-91.7-121.7-152.9-219.2-152.9s-185.5,61.6-219.2,152.9
		c-1.4,4-5.4,6.5-9.8,6.5H128.1c-13.8,0-24.6,11.2-24.6,24.6s11.2,24.6,24.6,24.6h155.1c25,0,47.8-15.6,56.2-38.8
		c26.4-72.1,95.7-120.7,172.8-120.7c76.8,0,146.4,48.6,172.8,120.7c8.3,23.2,31.2,38.8,56.2,38.8h8.3h11.2H1228h14.1h113
		c2.2,0,4-0.4,5.8-0.7c23.6-1.4,44.2-16.7,52.2-38.8c26.4-72.1,95.7-120.7,172.8-120.7c76.8,0,146.4,48.6,172.8,120.7
		c8.3,23.2,31.2,38.8,56.2,38.8h77.5c13.8,0,24.6-11.2,24.6-24.6S1905.4,1267.4,1892,1267.4z M1507.9,1121
		c-64.1,22.8-117,73.6-141.7,139.9c-1.4,4-5.4,6.5-9.8,6.5c-1.8,0-3.6,0.4-5.4,0.7h-21.4c0,0,0,0,0-0.4v-256.9h178.3V1121z"/>
	<path d="M1391.5,1071.2h-22.1c-3.3,0-6.2,2.5-6.2,6.2c0,3.3,2.5,6.2,6.2,6.2h22.1c3.3,0,6.2-2.5,6.2-6.2
		C1397.7,1073.8,1394.8,1071.2,1391.5,1071.2z"/>
	<path class="st7" d="M1382.9,920.1"/>
	<path class="st8" d="M1898.1,1266.8h-17.4v-145.7h17.4c8.7,0,15.9,7.2,15.9,15.9v114.1C1914.1,1259.9,1906.8,1266.8,1898.1,1266.8z
		"/>
</g>
</svg>
