<?xml version="1.0" encoding="utf-8"?>
<!-- Generator: Adobe Illustrator 26.0.1, SVG Export Plug-In . SVG Version: 6.00 Build 0)  -->
<svg version="1.1" id="Layer_1" xmlns="http://www.w3.org/2000/svg" xmlns:xlink="http://www.w3.org/1999/xlink" x="0px" y="0px"
	 viewBox="0 0 406.5 395.7" style="enable-background:new 0 0 406.5 395.7;" xml:space="preserve">
<style type="text/css">
	.st0{fill:#FFFFFF;}
	.st1{fill:none;stroke:#7D8F39;stroke-width:2;stroke-miterlimit:10;stroke-dasharray:4;}
	.st2{fill:#7D8F39;}
</style>
<g>
	<g>
		<path class="st1" d="M211,118.5c-0.4-27.7-0.2-17.1-0.2-17.1"/>
		<path class="st1" d="M211,317.6c-0.4-27.7-0.4-48.3-0.4-48.3"/>
		<path class="st1" d="M309.2,247.3c-24.7-12.7-33.9-15.4-33.9-15.4"/>
		<path class="st1" d="M309.2,148.4c-11.2,7.3-22.3,13.5-22.3,13.5"/>
		<path class="st1" d="M104.8,248.5c18.3-9.3,22.5-11.3,22.5-11.3"/>
		<path class="st1" d="M102.5,142.1c9.5,6.3,24.8,17,24.8,17"/>
	</g>
	<path class="st1" d="M341.6,199.6c0,74.6-60.4,135-135,135s-135-60.4-135-135c0-74.6,60.4-135,135-135S341.6,125,341.6,199.6z"/>
</g>
<path class="st2" d="M206.6,107.1c-51,0-92.5,41.5-92.5,92.5c0,51,41.5,92.5,92.5,92.5c51,0,92.5-41.5,92.5-92.5
	C299.1,148.6,257.6,107.1,206.6,107.1z M186.7,133.6l-0.4-1.1l0.2-0.5l0-0.4l0.1-0.5l0.5-0.4l0.8-0.4l0.6,0.1l0.5,0.1l-0.5-0.4
	l0.8-0.1l0.3-0.1l0.4-0.4l0.1-0.5l-0.9,0.1l-0.9-0.2l-0.1-0.3l0.5,0l0.3,0l0.6,0l0.8,0l-0.2-0.2l-0.2,0l-0.3-0.1l-0.3,0l-0.6-0.1
	l-0.5,0.2l-0.6-0.3l0.3-0.3l0.6-0.5l0.2-0.4l-0.3-0.4l-0.4-0.4l-0.6-0.4l-0.4,0l-0.4,0l-0.8-0.1l-1-0.1l-0.6,0h-0.5l-0.6,0.1
	l-0.5,0.1l-1,0.2l0.2-0.4c0.8-0.4,0.3-0.2,1.4-0.4c1.2-0.1,1.4-0.1,0.5-0.1c-0.9-0.1,0.1-0.3-0.5-0.2h-1.8c-0.3-0.1-1.3,0-0.3-0.3
	l1.4-0.3h0.5h0.5l0.6,0c0.6-0.2-0.1-0.3,0.9-0.5c0.9-0.2-0.4-0.4,0.9-0.5l1.2,0l1.1-0.1l0.8,0l0.8-0.1l0.7-0.1l0.6-0.1l0.6-0.1
	l0.8-0.1l0.8,0l0.7,0l0.6,0h0.8h1.3l0.6,0l1.1-0.1l1.7-0.2l0.6,0.1l0.7,0.1l0.5,0l0.6,0l0.4,0l0.8-0.1c1.2-0.2,2.1-0.3,1.8,0
	c-0.4,0.3-0.3,0.2,1-0.2h1.2l0.7,0.1l0.8,0l0.9,0.1l0.8,0.1l0.7,0l1,0l0.7,0l1,0.3l0.3-0.3l0.9,0l0,0.3l-0.6,0.4l1-0.2l-0.4,0.8
	l0.7-0.3l0.3-0.8l1-0.2l0.6,0l0.5,0.3l-0.3,0.5l-0.2,0.5l-0.5,0.1H217l-0.3,0.4l0.6,0l0.6,0.1l-0.8,0.4l-0.5,0l-0.3-0.1l0.1,0.6
	l-0.3,0.6v0.4h-0.5l-0.1,0.1l-1.3,0.3h-0.6h-0.7l-1.1,0l-0.1,0.3l0.3,0.2l0.2,0.1l0.6,0.2l0.6-0.1l0.4,0l0.2,0.1l0.4,0.6l-0.5,0.5
	l-1.4-0.4l-1.3-0.3l-1.4-0.2l1,0.3l-0.7,0.4l-0.2,0.4l0.2,0.2l-0.2,0.1l1-0.4l1.7,0.3l0.4,0l0.2,0.1l-0.7,0.4l-0.9,0.3l-1.1,0.2
	l-1,0.3l-0.4,0.1l-1,0.1l-0.5,0l-0.5,0.1l-0.5,0l-0.7,0l-0.8-0.5l-0.1,0.2l-0.3,0.2l-0.5,0.4l-0.5,0.4l-0.6,0.2l-0.5,0.2l-1,0.3
	l-1,0.2l-0.1-0.2l-0.8,0.1l-0.6,0.2h-0.5l-0.6,0.5l-0.9,0.1l-0.1,0.5l-0.6,0.4l-0.6,0.5l-0.8,0.4l-0.6,0.7l-0.3,0.7l-0.6,0.5
	l-0.7,0.7l-0.4,0.4h-0.6l-0.5-0.3l-0.5-0.4l-0.3-0.3l-0.8,0.3l-0.7-0.2l-0.7-0.6l-0.5-0.7l-0.5-0.5l-0.3-0.8l0.4-0.4l0.6-0.4
	L186.7,133.6z M187,129l0.3-0.1l0.5,0l0.4,0l0.6,0.2l-0.1,0.4l-0.7,0l-0.5-0.2l-0.4-0.1L187,129z M177.3,151.1l-0.3,0.1l0.1-0.6
	l0.1-0.3l0.4-0.1l0.5-0.3l0.1,0.1l-0.3,0.3l0.4-0.1l-0.1,0.5l-0.1,0.4l-0.3,0.3l-0.3-0.1l0.1-0.5L177.3,151.1z M178.3,149.3
	l-0.5,0.2l0.3,0.2l-0.5,0.2l-0.2,0.1l-0.4,0.3l-0.4,0.1l-0.2,0.3l-0.3,0.2l-0.6,0.2l-0.2,0v-0.3l0.5-0.3l0.4-0.3l-0.3,0l-0.3-0.1
	l-0.2,0.1l-0.1-0.2l-0.4,0.1h-0.4l-0.5,0.2l-0.2,0l-0.5,0l-0.3-0.1l-0.3,0l-0.8,0.1l-0.1-0.1l0-0.4l0.6-0.3l0.2-0.2l-0.5,0.1
	l0.1-0.1l0.3,0l0.4-0.4l0.6-0.2l-0.1-0.1l0.1-0.3l0.4-0.3l0.4-0.5l0.8-0.9l0.4-0.3l0.3-0.1l0.4-0.4l0.5-0.1l0,0.1l0.3,0.1l-0.3,0.1
	l-0.1,0.2l0.2,0.1l-0.2,0.3l-0.4,0.2l-0.3,0.2l-0.2,0.2l-0.5,0.5l0.7-0.5l0.1,0.1l0.3,0.1l0.1,0.1l-0.8,0.2l0.4,0.1l0.2,0.2l0.3,0.1
	l0.4,0.1h0.3l0.7,0.1l-0.1,0.3l-0.2,0.1l-0.4,0.2h0.4l0.4,0l0.1,0.2L178.3,149.3z M178.3,131.6l-0.2,0.2l-0.4,0.2l-0.3,0l-0.2,0.1
	l-0.2,0.2l-0.1,0l-0.3,0.2l-0.1,0.5l-0.3-0.2l-0.2-0.2l-0.3-0.2l-0.1-0.5l-0.5,0.3H175l-0.2-0.1l-0.6-0.1l-0.5-0.1l0.1,0.2l-0.4,0.2
	l-0.1,0.4l0.3,0.2l0.7,0.4l0.1,0.4l0,0.4v0.3l-0.7,0l-0.7-0.2l-1.4,0l0.7,0.5l0.7,0.4l0.2,0.3l0,0.4l-0.5-0.1l-0.5,0l-1.4-0.4
	l-0.5,0l-0.3,0.1l-1.1-0.1l-0.3-0.4l-0.7-0.1l-1.3-0.3l0.1-0.4l-0.8-0.3l0.3,0.5h-0.6l-0.4,0l-0.5,0.1l-0.2,0.2l-0.5,0.1l-0.5-0.2
	v-0.4l0.3-0.6l0.4-0.1l0.5-0.2l0.8-0.1h0.6l0.4-0.1l0.5,0l0.3-0.1l0.5-0.1l1,0.1l-0.8-0.6l0.8-0.4l1,0.2l0.2,0.3l-0.2,0.4l0.6-0.3
	l0.5-0.3l0.4-0.1l0.3-0.2l-0.5-0.4l-0.7,0.3l-1.1-0.1l0.7-0.5l0.9-0.3v-0.7l-0.5-0.3l-0.5-0.1h-0.2l-0.2,0.1l-0.3,0.1l0.2-0.4
	l-0.4-0.3l-0.2-0.1l-0.2-0.1l-0.3-0.2l-0.4-0.1l-0.3-0.1l-0.1,0l-0.8-0.3l-0.1,0.7l-0.5-0.1l-0.4-0.1l0.3,0.4l-0.8-0.4l-0.3,0.4
	l-0.3-0.1l-0.3-0.1h-0.2l-0.2,0l0-0.3l-0.5,0.3h-0.9l-0.7,0l-1,0.2c-0.8,0.2-1.9-0.7-0.9-0.8l0.3-0.6l1.1-0.7l0.8-0.3l1.7-0.2
	l0.2,0.4l-0.7,0.7l-0.1,0.8l1.2-0.7c-1.1-0.4,0.9-0.6,0.6-0.7l0.8-0.3l1-0.3l1.7-0.2l0.3,0.4l0,0.3l-0.2,0.5l0.7-0.3l0.3-0.1
	l0.4-0.1l0.4,0.1l0.1,0.2l0.6,0.3l0-0.5l0.9-0.5l0.7,0.2l0.3,0.3l0.4,0.1l0.5,0l0.7,0.1l0.4,0.1l0.1,0.2l0.2,0.2l0.8-0.1l-0.7,0.5
	l0.1,0l1.1-0.2l0.4,0.5l-1.3,0.6l0.7,0h0.8l-0.7,0.3l0.4,0l0.5,0l0.2,0.1l0.1,0.1l0.1,0.1l0.3,0.1l0.2,0.1l0.2,0.1l0.3,0.2l0.6-0.1
	l0.6,0.3l-0.3,0.3l-0.4,0.1l-0.4,0.1l-0.4,0.1L178.3,131.6z M163.2,131.7l-1,0.2l-0.6,0l-0.6,0.1l-0.4,0.1l-1-0.4l0.3,0.3v0.3
	l-0.4,0.1l-0.5-0.2h-0.9c-0.9,0.3,1.5,0.2-0.7,0.8c-1.3,0.3-0.9,0.4-1.7,0.3c-0.9-0.1-0.1-0.6-1.5-0.5c1,0.1,0.5,0.5,1.2,0.6
	l0.7,0.1l-0.1,0.3l-1.7,0.7l-0.4,0l-0.8-0.2l-0.7,0.4l-0.6,0c-0.3-0.1-0.8-0.1-1.9,0l0.5,0.2l1.3,0.1c0.1,0.2,0.2,0.5-0.9,0.4
	c-1.5-0.1,0.1,0.2-0.6,0.3c-1.2,0.2-0.9,0.5-1.3,0.5l-1.6,0.7c-0.1,0-0.2,0-0.2,0c2.5-2.4,5.1-4.6,7.8-6.6l0.7-0.3l-0.3,0.1
	c0.7-0.5,1.3-1,2-1.4l0.2,0.5l-0.4,0.1l-0.3-0.1l-0.3,0.7l0.3,0.6l1.2-0.4l0.6,0.5l-0.2,1c1.2-1,1.8-0.8,2.2-1.1l0.8-0.4l0.9-0.6
	l1.4,0.2l0.6,0.5l-0.7,0.3l-0.3,0.3C163.2,131.2,164.2,131.2,163.2,131.7z M155.6,135.1l-0.8,0c0.1-0.1,0.3-0.3,1.4-0.5l0.8-0.9
	l1-0.6l0.3,0.1l0,0.3l0.7-0.1l0.7,0.4l0.4,0.4l0.3,0.4l0.1,0.3H160l-0.5-0.2l-0.2-0.2l-0.3,0l-0.1-0.1l-0.4,0l-0.3,0.1l-0.8,0.3
	l-0.8,0.5l-0.9,0.1l0.1-0.3L155.6,135.1z M226,141.8l0.3-0.1l0.4,0l0.1,0.2l0.1,0.2l0.2,0.1l-0.1,0.1l-0.1,0.1l0.2-0.1l0.2,0.1v0.2
	l-0.2,0.1l-0.1,0.1l-0.2,0.1l-0.1,0l-0.1,0.1l0.1,0.2l0.1,0.2l0,0.1l0.1,0.2l0,0.2l0,0.2l-0.1,0.2l-0.2,0.2v0.2l-0.3-0.1l-0.3,0.1
	v-0.3l-0.1,0.3l-0.3,0l-0.2,0.1l-0.3,0.1l-0.3,0.2l-0.4,0.1l-0.3,0l-0.5,0.1l-0.4,0l0-0.1l0.3-0.1l-0.4,0l-0.1,0l0.5-0.2l-0.4,0.1
	l-0.2-0.1l-0.1-0.1l0.4-0.1l0.2-0.1l-0.4,0l-0.3,0l0.2-0.1l0.2,0l0.3,0.1l-0.1-0.1v-0.1l0.3-0.1l0.8,0l-0.2-0.1l-0.1,0l-0.4,0.1
	l-0.3,0l0-0.1l0.2-0.1l0.1-0.2v0l0.3-0.1l0-0.2h-0.5l-0.1-0.1l-0.1,0l-0.1-0.1l-0.1,0l0-0.2h0.2l0.1-0.2l0.1-0.1l-0.3-0.1l-0.1-0.1
	l0.3,0l-0.1-0.2v-0.1l0.2,0l0.4,0.1h0.3l0.3,0.1l0-0.2l0.3-0.1l0.1-0.1l-0.4,0v-0.1l0.2-0.1l0.1-0.2l0.2-0.1l0.3,0l0.2-0.1l0,0.3
	l0.1-0.3h0.3L226,141.8l-0.3,0L226,141.8z M222.4,147.9l-0.3,0l-0.1,0.1l0.1,0.2l-0.3,0.1l-0.2,0.1l0.5,0.1h0.5l-0.1,0.3l-0.5,0.2
	l-0.2,0.1l-0.5,0l-0.6,0.1l-0.2,0l-0.3-0.1l-0.2-0.1L220,149h-0.4l-0.2,0.2l-0.4-0.1l-0.4-0.1l-0.4,0.1l-0.2,0.4l-0.3-0.1l-0.3-0.1
	l-0.4,0l-0.3,0.1l-0.2,0.2l-0.4-0.1l-0.1-0.1l0.5-0.2l0.4-0.3l0.2-0.3l0.2-0.2h0.6l0.5,0l0.3-0.2l0.3-0.3l-0.5,0.2l-0.4,0.1
	l-0.4-0.3l-0.2,0.1l-0.1-0.1l0-0.1h-0.2l-0.3,0.1l-0.3-0.1l0-0.3l0.5-0.2l0.5-0.4l0-0.2l0,0v-0.2l-0.4,0.1h-0.2l0.2-0.2l0.3-0.2
	l-0.3-0.2l0.4,0.2l0.3-0.1h0.4l0.3,0.1v-0.1l0.4,0.1l-0.4-0.1l0.2-0.3l-0.1-0.1l0.1-0.3l-0.3-0.1l-0.2,0l-0.1-0.5l0.3-0.2l-0.4,0
	l-0.2,0.1l-0.3,0.1h-0.3l-0.1,0.1l-0.3-0.1v0.2l-0.2-0.3l0.1,0l0-0.3l0.3-0.3l-0.2-0.3l0.3-0.1l-0.2-0.3l-0.4,0.2l0,0.1l-0.2,0.4
	l-0.1-0.1l0.2-0.5l0.1-0.2l0.2-0.4l0-0.1l-0.2-0.2l-0.4-0.1l0.4-0.3l0.2-0.1l-0.2-0.2v-0.3l-0.1-0.3l0.3-0.1l0.2,0.1l-0.2-0.3
	l0.1-0.2l0.2-0.1l0.1-0.2l0.2,0.1l0.1,0.1l0.3-0.1h0.5l0.3,0l-0.1,0.3l-0.6,0.3l-0.2,0.1l0.2,0.1l-0.2,0.1l0,0.1h0.2l0.7-0.1l0.2,0
	h0.2h0.2l0.3,0.2l-0.2,0.3l-0.2,0.4l-0.4,0.3l-0.4,0.1l0.4,0.1v0.2l-0.3,0.1l-0.5,0l0.1,0.1l0.4,0l0.6,0l0.2,0.1l0.1,0.1l0.3,0.4
	l0.2,0.6l0.3,0.2l0.7,0.4l0,0.2l0.3,0.4l-0.4-0.2l0.5,0.3l0,0.5l0,0.2l0.3,0l0.5-0.2l0.6,0.7l-0.1,0.3l-0.3,0.1L222.4,147.9z
	 M215.8,145.8l0.1,0.2l-0.1,0.1l0.1,0.2l0,0.2l0,0.2l0,0.2l-0.2,0.2v0.2l-0.3,0l-0.3,0v-0.3l-0.1,0.3l-0.3,0l-0.2,0.1l-0.2,0.1
	l-0.3,0.1l-0.4,0.1l-0.3,0.1l-0.5,0.1h-0.4l0-0.1l0.3-0.1l-0.4,0l-0.1-0.1l0.5-0.2l-0.4,0.1l-0.2-0.1l-0.1-0.1l0.4-0.1l0.2-0.1h-0.4
	h-0.3l0.2-0.2h0.3l0.3,0.1l-0.1-0.1l0-0.1l0.3-0.1l0.8-0.1l-0.2-0.1l-0.1,0l-0.4,0.1l-0.3,0l0-0.1l0.2-0.1l0.2-0.2v-0.1l0.3-0.1
	l0-0.1l-0.5,0l-0.1-0.1l-0.1,0l-0.1-0.1l-0.2,0l0-0.1h0.2l0.1-0.2l0-0.1l-0.3,0l-0.2-0.1l0.3,0.1l-0.1-0.3V145l0.2,0l0.4,0.1l0.3,0
	l0.3,0.1V145l0.3-0.1l0.1-0.1l-0.4,0v-0.1l0.2-0.1l0.1-0.2l0.2-0.2l0.3,0l0.2-0.1l0,0.3l0.1-0.3h0.3l0.1,0.2l-0.2,0.1l0.3-0.1
	l0.4-0.1l0.4,0l0.1,0.2l0,0.1l0.2,0.1l-0.1,0.1l-0.1,0.1l0.2,0l0.2,0.1v0.2l-0.2,0.1l-0.1,0.1l-0.2,0.1l-0.2,0l-0.1,0.1L215.8,145.8
	z M212.2,133.4l0.1-0.1l-0.4,0l-0.1-0.1v-0.1l-0.8,0l-0.1,0h-0.1l-0.1,0l0.9-0.2l0.4,0l0.5-0.1h-0.4l0,0l-0.2,0l0.6-0.2l0,0
	l-0.6-0.1l-0.2,0l0,0l-0.6,0.1l-0.5-0.1l-0.1,0l-0.1-0.1l0.4,0l0-0.1v-0.1h0.1l0.2,0.1l0.2-0.1l-0.1,0l-0.3-0.1h0.2l-0.1-0.1l0.3,0
	l-0.1,0l0.2-0.1l0.6,0.3v-0.2l-0.2-0.1l0.2,0l-0.1,0h-0.4l0.1,0l0.4-0.1l0.3,0.2l0.1,0l0.3,0.2l0,0l0,0.2l0,0.1l-0.3,0l0.3,0.1
	l0.1,0.2l0.1,0v-0.1l0.1-0.1l0.3-0.2l0.1,0.1l0.1,0l0.1-0.1l-0.1-0.1l0.1-0.1l0.4,0.1l0.1,0l0.2,0.2l0.1,0l0-0.2l0.5-0.1l0.2,0
	l0.1,0.2l0.4,0.2l-0.2-0.3l0.6,0l0.3-0.2h0.4l0-0.1v-0.2l0.1,0l0.3-0.1h0.1l0.3,0.2l0,0.1l0,0l0.2,0l0.6-0.1l-0.1,0v0l-0.2,0.2
	l0.2,0l-0.2,0.2h0.3l0.1,0.1h0.1l0.3,0.1l-0.2,0.2h0.3l-0.1,0.2l-0.2,0l-0.1,0.2l0,0.1l-0.1-0.1l-0.2,0.3l-0.1,0l-0.3,0.1l-0.1,0
	l-0.6,0.1l-0.5,0.2l-0.1,0.1l-0.3,0.1l-0.8,0.1l-0.3,0.2l-0.7,0.2l-1-0.1l-0.2,0l-1-0.3h-0.1h-0.6l-0.3,0l0-0.1l0.1-0.1L212.2,133.4
	l0.3,0.1l0,0L212.2,133.4z M168.2,122.6l0.4,0.1l0.8,0.1l-0.4,0.4l-0.7,0.1l-1.6,0.6l-1.3,0.1l-0.5,0.3l-0.5,0.1l-0.2,0
	c1.1-0.6,2.3-1.3,3.5-1.9L168.2,122.6z M169.9,126.2L169,126l-0.3,0.3l-0.4,0l-0.6,0l-1.3,0c-0.5,0-0.3,0.3-1.2,0.3l-0.2-0.2
	l0.1-0.1l-1.2,0.4l-0.7-0.2l-1,0.3c-1,0.1-0.9-0.4-0.6-0.5l0-0.1c0.4-0.2,0.7-0.4,1.1-0.6l-0.2,0.2l0.5,0.2l0.7,0.1l0.5,0l0.5-0.1
	l0.6-0.1l1,0l0.8,0l0.5,0l0.7-0.1l0.6-0.1l0.7-0.1l1,0.6L169.9,126.2z M171.3,126.8l-0.9,0.2l-1,0.3l-0.3-0.4l0.3-0.4l1.1,0
	L171.3,126.8z M160.7,126.9l-1.2,0.6l-0.3,0c0.4-0.2,0.7-0.5,1.1-0.7L160.7,126.9z M180,123.5l-0.9,0.1l-1.1,0l-0.9,0.1l-1.7,0
	l-0.4,0l-0.6,0L174,124l-0.9,0.2l0,0.4l-0.9,0.2l-1.1,0.4l-0.5-0.1l-0.5,0l-1.2-0.1l-1,0.3l-1.5-0.1h-0.7l-0.8,0.1l-0.1-0.3l1.3-0.2
	l0.5-0.3l1.4-0.1l1.2,0.1l-0.8-0.3l1.1-0.2l-0.6,0.1l-0.8,0l0.8-0.4c2.2-0.2,0.1-0.3,1.5-0.4l1.1,0l0.5,0.2l0.3-0.6l1.2-0.3l1.2-0.1
	l-0.2-0.1l-0.6,0l-0.9,0l-0.2,0h-0.2l-0.9,0.1l-0.8,0.1l-0.5,0l1.6-0.5l1.1-0.1l0.4,0l0.5,0l1.2-0.2h0.5l1,0l1.8-0.1l0.6,0.1l0.7,0
	l1.5,0c1,0.2,1.6-0.3,2.8-0.4l1.1,0.1l1.3,0.1c1.8,0,0.3,0.5-0.3,0.6l-2.2,0.6c-0.9,0.4-1.4,0.3-2.7,0.7L180,123.5z M274,252.9
	c-0.9,0.8-3,0.2-2.8-1.3c0.2-1.5-0.8-1.4-0.2-2.9c0.6-1.6,1-0.9,1.3-1.8c0.2-0.9,0.6-0.7,0.4-1.6c-0.1-0.9,0.2-0.8,0.1-2
	c-0.1-1.2,0.5-1.1,0.6-2l0.4-0.5l0.4-0.2l1-0.4l0.7-0.2l0.7-1l0.1,0l0.4-0.3l0.6-0.9l0.1-0.8l0.3,0.1l0.2-0.1l0.7-1.2l0.2-0.6l0.6,0
	l0.1,0.2l0.5,4.3l-0.4,0l-0.3,0l0,1.5c-1,1.3-0.5,1.9-1.4,3.4c-1,1.6-1.2,2.5-1.4,3.3c-0.2,0.6-0.3,1.3-0.7,2.2
	c-0.6,0.8-1.2,1.7-1.9,2.5C274.3,252.7,274.1,252.8,274,252.9z M291.1,182.3l-0.6,0l-0.9-0.1l-0.5-0.1l-0.9-0.9
	c-0.4-0.4,0.1-0.9-0.9-1.1l-1,0.2l-0.5,0.2l-0.5,0.1l-0.8,0l-0.5-0.1l-0.7-0.3l-0.8-0.7l-0.2-0.2l-0.3-0.2l-0.6-0.3l-0.5-0.5l-0.8-1
	l-0.9-0.8l-0.7-0.5l-0.5,0l-0.4-0.5l-0.2,0.5l-0.6,0l-0.3,0l0.4,0.6l-0.4,0.8c0.3-0.2,0.4,0,0.9,0.9c0.6,1,0.6,1,0.6,1.3l0.5,0.1
	l0.4,0.4l0.7,0.5l0.2,0.6l0.4,0.9l0.6,0.8l-0.2-1l0.2,0.1l0.4-0.4l0.5,0.9l0,0.9l0,0.2l0.1,0.2l0.5,0.7l1,0l0.4,0h0.3l0.3,0l0.2-0.1
	l0.2,0l0.2-0.1l0.3-0.4c1.2-0.8,0.6-1.1,1.2-1.4l0.6-0.5l0.2,0.7l0.3,1l0.9,0.9l1.4,0.9l0.5,0.2l0.3,0.2l0.3,0.2l0.1,0.3l0.5,0.7
	c0,0.2,0.1,0.5,0.1,0.7l-0.8,1.6c-0.2-0.2-0.8,0.8-0.4,1.8l-0.2,0.7l-1,1l-1.3,0.8l-0.2,0.8l-1.5,0.5l-0.8,0.4l-0.9,1.2l-1.2,0.6
	l-2.6,1.2l-2,0.9l-2.1,0.7l-0.5,0.2l-0.2,0.2h-1.8l-0.3-1l-0.4-1.7c0-0.3-0.2,0.1-0.5-2.1l-0.1-0.5l-0.5-1l-1.3-1.8
	c-0.8-0.8-0.2-1.3-2.1-2.7c-1-0.8-0.5-0.8-0.8-1.2l0-0.8l-1.1-2.7l-0.5-0.6l-1.2-0.7c-0.8-1.3,0.2-0.2-0.6-1.5
	c-1.1-1.8-1.7-2.1-1.5-2.4l-0.8-1.2l-0.5-0.7l0-1l-0.2-0.6l-0.1,1.4l0,1.1l-0.8-0.2l-1-1.4l-0.7-1.1l-0.7-1.3l0.4,1.4l0.4,1.2
	l0.9,1.3l0.5,0.8c0.8,0.7-0.3,0,0.2,0.9c0.9,1.7,1.4,1.6,1.6,2.4l1.2,1.5c0.6,0.6-0.8-0.2-0.1,0.8c0.7,1,0,0.2,0.5,0.9
	c0.8,1,1.2,0.6,1.1,1.2l0.6,1.7l0.1,1.8l0.5,0.9l0.4,0.2l0.2,0.2l0.5,0.5c0.8,1.4,1,1.3,1.4,2.8c0.3,1.5,0.6,1.5,0.7,1.3l0.8,0.6
	l0.8,0.4l1.5,1.6l0.7,0.8l0.2,0.1l0.9,1.5l-0.8,0.5l-0.2,0.3l0.7,0l0,0l2.2,1.3l1.5-0.4l1-0.2l0.8-0.2l0.6-0.1l0.5-0.1l1.8-0.9
	l0.8,0.3c-0.2,0.9,0.5,1.3,0.2,1.2l-0.2,1.1l0,0.1l-0.1,0.7c-0.5,1.3-0.6,0.8-0.5,1.1c0.1,0.8-1.2,2-1.2,3.2c-0.1,1.6-1.4,2-1.6,2.7
	c-0.2,1-1.1,1.8-2.2,3c-1.1,1.3-1.7,1.1-2.4,2.3c-0.7,1.1-1.6,1.3-2.1,2.3c-0.5,1-0.5,1-0.8,1.2c-1,1.1-1.8,0.8-1.7,1.9
	c0,0.7-0.1,0.2-0.2,1.2l-0.5,1.1l-0.3,0.5c-0.5,0.7,0,0.7-0.8,1.8c-1,1.3,1.2,1.2,0.5,2.2l-0.3,1c-0.5,0.7,0.4,0.8,0.4,2.2l0.5,1.1
	l0.1,1.5l-0.2,1.5c0.2,0.8-0.5,1.1-0.1,2.3c0.4,1.3,0.3,1-0.3,2.2l-0.9,1l-2,1.5c-0.3-0.1,0,0.4-0.9,0.6c-1.1,0.2-2.2,2.1-3,2.5
	c-1,0.4-1.6,1.9-1,2.1l0.4,1.4l0.1,1.3l-0.5,1.5c0,0.2-0.4,1.4-2.1,2.1c-2.1,0.8-1,0.9-1.2,1.7c-0.7,2.4-0.6,2.7-1.5,2.8
	c-0.9,0.1-1.9,3.4-3,3.7l-1.6,1.8c-0.6,0.3-0.8,1.7-2.5,1.9l-1.3,0.6l-0.4,0.2l-0.5,0.1l-1.1-0.1l-0.3-0.1l-0.6,0.1l-0.8,0.4
	l-0.3,0.1l-0.7,0.2l-1.4-0.2l-0.6-0.3l0.1,0.5c-1-0.4-0.1-0.8-0.7-1.2l-0.3-1l0.4-0.8l-0.3-1.6c-1.2-0.8-0.8-3.4-1.1-3.6l-0.5-0.5
	l-0.6-1.8l-0.6-4.3l0.1-1.3c0.2-0.4-1.9-3.1-1.8-4.5c0.1-0.9-1.1-1.9-1-3.5c0.2-2.4-0.3-1.7,0.2-2c0.5-0.4,0-2.6,0.7-4.2
	c0.6-1.4,0.5-0.3,1-1.4c0.4-0.8,0.5,0.2,0.9-1.3c0.4-1.5-0.7-2.1-0.5-3c0.1-0.5-0.3,0,0-1.2l-0.5-2.4l-0.5-1.2l1-0.5l-0.3,0.1
	l-0.3,0.1l-0.5-0.2l-0.2-0.4v-0.6l-0.1-0.6l0.2-0.1l-0.2-0.1l-0.4-0.3c-0.6-1.2-1-1-0.8-1.1l-0.2-0.4l-0.7-0.8l-1-1.1l0.1-0.1
	l-0.3-0.7l0-0.3l-0.5-1.3l0.6-0.4l0.2-0.9l0.7,0.4l0-0.2l-0.5-0.5l0.8-0.7l-0.6-0.1L233,217l0.4-0.9l0.3-0.6v-1.2l-0.1-0.8l-0.1-0.4
	l0.1-0.3l0,0l-0.3,0v0l-0.4,0l-0.5-0.6l-0.2,0l-0.5-0.3l-0.5,0.2l-0.5-0.1l-0.3,0.4l-0.4,0.1l-0.2,0l-0.2,0l-0.9-0.5l-0.3-0.4
	l0.1-0.2l0.3-0.3l-0.4,0.2l-0.2-0.3l0.3-0.3l-0.3-0.1l-1.2-0.7l-0.5-0.2l-0.4,0.1l-0.5,0.1h-0.3l0,0l-0.2,0l-0.4,0.2l-1,0.2
	l-0.6,0.5l-0.2-0.1l-0.2,0.4l-1.3,0.4l-0.9,0.2l-0.9-0.3l-0.8-0.2l-0.6-0.1l-0.4,0h-0.5l0.8,0.2h-0.3l-1,0c-1.4,0.2-1.8,0.7-2.1-0.1
	l-1.4,1.2l-0.5-0.3c-0.9,0.2-0.3-0.3-1.4-0.6l-0.4-0.3l-0.9-0.9l-0.7-0.8l-0.8-0.6l-0.4-0.5l-0.8-0.3l-0.3-0.3l0.3-0.2l-0.2-0.2
	h-0.1l-0.4,0l-0.2-0.4l-0.2-0.4l-0.2-0.4l0.1-0.2l-0.1-0.3l-0.1-0.3l0.1-0.4l-0.7-0.8l-0.5-0.7l-0.4-0.6l-0.5-0.8l-0.3-0.3l0.2-0.3
	l0.2-0.3l-0.6,0.3l-0.3-0.3l0.8-0.3l-0.9,0.2l0.1-0.2l-0.1,0l-0.3,0l0.2-0.3l-0.5-0.1l0.1-0.4l0.5-0.1l0.2,0l0.3,0l0.2,0l0.3,0.1
	l0.3-0.1l-0.4,0l-0.3-0.1l-0.2,0l-0.3,0h-0.2l-0.4,0.2l-0.1-0.6l0.1-0.2l0.3,0c0.4-0.2-0.3-0.2,0.9-0.5c-1.4,0.1-0.6,0.3-1,0.4
	l-0.4-0.5l-0.1-0.5l0.3-0.3l-0.4,0l-0.3,0l-0.2-0.3l-0.4-0.3l0.1-0.4l0.8-1l0.7-1.4c-0.3-0.9,0.4-0.8,0.3-1.8c0-0.5,0.3-1.3-0.5-2.3
	l0.2-0.4l-0.2-0.4l0.2-0.7l-0.4-0.8l-0.2-0.8l-0.1-0.1l0-0.4c0.4-1,0.8-0.9,1-2.4c0.3-1.5,1.4-1.8,1.9-3.4c0.7-2.2,0.9-0.4,1.4-2
	l0.6-1.1c0.6-1.1,1.9-0.3,2.3-1.1c0.3-0.7,1.8-1.1,2-2.1c0.2-0.6-0.9-0.4-0.5-1.3c0.7-1.7,0.9-0.9,1.2-2.3c0.2-1,1.5-0.1,2.6-2.5
	c0.5-1,0.7-0.8,1-1.3l0.6-0.1l0.5,0.3l0.5,0.2l0.7,0.1l0.2,0.1l0.6-0.3l0,0.1l0.4,0.2l0.3,0.1l0.3,0l0.3,0l0.3-0.3l0.4-0.2l0.3-0.2
	l0.3,0l0.9-0.3l1.3-0.7c0.5,0,0.1-0.2,1.2-0.2l0.7,0l0.4-0.1l0.3-0.1l0.3-0.1l0.6,0l0.6,0l0.3,0.1l0.3,0l0.8-0.3l0.3-0.1l0.3,0.1
	l0.4-0.1l0.1,0.1l0.5,0.1l1.2-0.4l0.7,0.1l-0.1,0.4l0.4,0.1l0.6,0l-0.1,0.4l-0.2,0.6l0.6,0.9l-0.1,1l-1.1,0.7l0.8,0.6l0.2,0l0,0.3
	l0.5,0.4l1,0.4l0.8,0l0.8,0.1l0.7,0.2l0.7,0.2l0.5,0.2l0.4,0.5c0.1,0.9,0.5,0.9,0.9,0.8l0.5,0c0.4,0.2,0.9,0,1.9,0.6
	c1.1,0.7,0.6,0.7,1.4,0.7l0.6-1.6l0.2-1c0.5-0.3,0.6-0.7,1.5-0.6c0.9,0.1-0.1,0.1,0.5,0.2l0.1-0.1l1,0.2c1.1,0.4-0.2,0.6,0.8,0.5
	l0.5,0.2l0.4,0.1l0.5,0.3l1,0.3l1.7,0.2l0.9,0.3l0.5,0.2l0.7,0.2l0.8-0.5l1-0.3l0.4,0l0.5,0.1l1.5,0.3l0.5,0.1l1.3-0.5l0.3-1.1
	l0.2-0.9l0.3-1l0.4-0.7c-0.8-1.4,0.3-1.2-0.4-1.6l-0.1-0.5l0.1-0.7h-0.3l-0.2,0.1l-1.2-0.2l-0.6,0.7l-1.2,0.1l-1.3-0.8l-0.8,0.1
	l-0.9,0.6l-0.8-0.6l-0.6-0.2l-0.7,0.1l-0.7,0l0.7-0.4l-0.8,0l0.1-0.2l0-0.3l-0.6-0.2l-0.4-0.7l-0.6-0.1l-0.2-0.5l0.1-0.2l0.2,0.1
	l0.1-0.1l-0.1-0.5l0-0.3L251,163c-1,0-0.3,0-0.5-0.5l0.4-0.3l0.9-0.3l0.5,0l1.1,0l1-0.3l-1.3-0.5l1.1,0h1.3l1.7-0.7l1.1-0.1l0.8-0.1
	l0.5,0.1l0.6,0.2l1,0.4l0.7,0.4l0.3,0.1l1.4,0l0.7,0.1c0.5,0.1,1.1,0.3,1.9-0.7l-0.1-0.6l-0.5-0.8l-1-0.6c-1.2-0.8-1-0.3-1.5-0.7
	c-1.3-1.1-2.6-1-2.8-1.5l0.1-0.2l0.5-0.4l0.6-0.3l-0.2-0.4l-0.4-0.4l1-0.4c0.4-0.3,0.4-0.4-1-0.1l-0.3,0.1l-0.3,0.1l-0.3,0.2
	l-0.3,0.1l-0.4,0.2l-0.6,0.1l-0.5,0.1l-0.6,0.1l0.3-0.1h-0.4l-0.4,0l-0.1,0l0.2,0.2l0.3,0.1l0.6,0.6l0.5,0h0.5l0.8,0.1l0,0.2
	l-0.2,0.1l-0.4,0l-0.6,0l-0.2,0.2l-0.3,0c-0.5,0.1,0,0.8-1.2,0.3l-0.1-0.6l-0.8-0.4l0-0.3l0.7-0.5l-0.3-0.2l-0.3,0.1l-0.2-0.1
	l-0.5-0.1l-0.3-0.1l-0.1,0l0.1-0.3l0-0.1l0.7,0.1l-0.6-0.2l-0.8,0.1l-0.8,0.4l-0.2-0.2l-0.1,0.1v0.3l-0.4,0.4l-0.1,0.3l-0.1,0.1
	l0,0.3l-0.2,0.1l-0.1,0.1l-0.1-0.2v0.2l-0.1,0.2l-0.1,0.4v0.4l0.1,0.4l-0.2,0.3l-0.2,0.1l-0.2,0.6l-0.1,0.2h-0.1l-0.2,0.3l0.1,0.2
	l0.3,0.3l0,0.2l0.1,0.1l0.9,0.7l0.4,0.2l-0.3,0.2l-0.3,0l-0.2,0l-0.3-0.1l-0.4,0.3l-0.2,0.4l-0.7,0.4h-0.3l0.5-0.4l0-0.1l-0.6,0.3
	l-0.3-0.3l-0.3-0.2l-0.7,0.1l-0.4-0.1l-0.3,0l-0.4,0.1l-0.4,0.2l0.1,0.3l0,0.1l-0.2,0l0,0.1l-0.2-0.1l-0.1,0.1l-0.1-0.2l-0.4-0.1
	l-0.3-0.2v0.4l0.2,0.3l0.3,0.3l0.2,0.5l-0.1-0.1l-0.1-0.3l-0.2,0.2v0.2l0.1,0.1l0.2,0.3l0,0.3l0.5,0.2l0.4,0.2l0.5,0.4l0.1,0.4
	l-0.3-0.1l-0.3,0l-0.4,0.1l0.1,0.3l0.1,0.2l-0.3,0.2l-0.2-0.1l0.1,0.2l0.1,0.4l0.1,0.3l0,0.3l-0.3-0.2l-0.2,0.1l-0.2-0.2l-0.3-0.1
	l-0.6-0.5l-0.4-0.5l-0.2-0.3l0-0.2l0.4-0.2h0.2h0.3l0.3,0.1l0.2,0.1l0.4,0.2l0-0.3h-0.4l-0.6-0.2l-0.3-0.1l-0.2-0.1l-0.2,0.1
	l-0.3-0.3l0.3-0.1l0.1-0.1l-0.2-0.1l-0.2,0l-0.1,0.1l-0.3-0.4l-0.3-0.3l-0.5-0.2v-0.1l-0.5-0.4l-0.4-0.3l-0.2-0.4l0.1-0.1h0.2
	l-0.3-0.3v-0.4l0.1-0.2l-0.2-0.4l-0.2-0.4l0.1-0.2l-0.3-0.1l-0.3-0.2l-0.5-0.3l0.2-0.1l-0.2-0.1l-0.3,0l-0.8-0.2l-0.1-0.2l-0.7-0.5
	l-0.2,0l-0.2-0.1l-0.7-0.4l-0.6-0.6l-0.1-0.2l-0.6-0.5l-0.3-0.6l-0.2,0.5h-0.3l-0.2-0.7v-0.2l-0.3-0.2l-0.4,0.3l-0.5,0.3v0.4
	l-0.1,0.3l0.2,0.6l0.7,0.3l0.5,0.7l0.6,1l0.7,0.6l0.6,0.2l0.7,0.1l0.2,0.3v0.3l1,0.4l0.5,0.5l0.7,0.3l0.2,0.4l-0.1,0.2l-0.4-0.4
	l-0.5,0h-0.3l-0.2,0.3l-0.1,0.2l0.1,0.2l0.3,0.4l0.2,0.3l-0.3,0.1l0,0.4l-0.4,0.5l-0.6,0.5l-0.2-0.4l0.2-0.6l0.1-0.4l-0.5-0.9
	l-0.2-0.3l-0.5-0.1l-0.3-0.3l-0.5-0.2l-0.2-0.3l-0.6-0.3l-0.6-0.1l-0.7-0.5l-0.2-0.3l-0.4-0.3l-0.3-0.4l-0.4-0.2l-0.6-0.8l-0.3-0.4
	l-0.9-0.8l-1.4,0l-0.9,0.5v-0.2l0,0.2l-0.4,0.1l-0.2,0.2l-0.2,0.3l-0.4,0.1l-0.4-0.1l-0.4-0.2l-0.3-0.2l-0.6,0.2h-0.4l-0.6,0.4
	l-0.3,0.3l-0.1,0.3l0,0.2l0.1,0.1l-0.1,0.5l-0.3,0.2l-0.6,0.3l-0.3,0.2l-1.2,0.5l0,0.3l-0.2,0.1l-0.6,0.6l-0.4,0.4l0,0.8l0.4,0.2
	l-0.2,0.2l-0.2,0.5l-0.1,0.3l-0.1,0.3l0.1,0.1l-0.4,0.1l-0.3,0.2l-0.5,0.4l-0.3,0.6l-0.4,0.1l-0.6,0l-0.7,0.2l-0.5,0.1l-0.9,0.2
	l-0.5,0.3h-0.3l-0.3-0.1l-0.1-0.3l-0.1-0.1l-0.1-0.2l-0.2-0.1l-0.5-0.3l-0.1-0.2l-0.7,0l-0.4-0.1l-0.4,0.2l-0.5,0l-0.3-0.1h-0.4
	l-0.1-0.1l0.3-0.4l0.2-0.4l-0.1-0.1l0.1-0.7l0-0.2l-0.5,0l0-0.3l-0.1,0l-0.1-0.3l0-0.6h0.1l0.2-0.3l0.1-0.4l0.3-0.7l0.1-0.8l0-0.5
	l0-0.3v-0.2l-0.1-0.3l0.2-0.1l-0.2-0.3l-0.1-0.2l-0.2-0.3v-0.2l0.4-0.2l0.4-0.1l0.1-0.1l0-0.2l0.3-0.1l0.1,0l0.6,0.2l1,0l0.2,0
	l0.2,0.1l1.1,0.1l0.5-0.1l0.4,0l0.3,0.2l0.4-0.1l0.5,0.1l0.5,0h0.4l0.1,0l0.3-0.2l0.3-1l0.2-1l0.4,0.2L221,155l0-0.3v-0.3l-0.4-0.2
	l-0.6-0.3l-0.2-0.4l0-0.2l0-0.1l-0.2-0.2l-0.3-0.2l-0.2-0.2h-0.4l-0.5-0.3h-0.6l-0.2-0.3l0.2-0.1l-0.1-0.1l-0.3-0.1v-0.2l0.4,0
	l0.5-0.1l0.3-0.1l0.4,0l0.2,0.2l0.3,0l0.3,0l0.5,0.1v-0.2l0.1-0.3l-0.1-0.4l-0.1-0.3l0.2,0l0.3,0.1l0.2,0.3l0.2,0.2l0.3-0.1l0.5-0.2
	l0.2,0l0-0.2l0.3-0.2l0.5-0.1l0.6-0.3l0.1-0.2l0.1-0.3l0.2-0.2l0.5,0l0.5-0.2l0.6-0.4l0.3,0.1l0.3,0l0.3,0l-0.2-0.2l-0.2-0.1
	l0.3-0.1l-0.3-0.2l0.3-0.5l0.2-0.6l0.2,0l0.1,0.1l0,0.2l0,0.1l-0.1,0.2h0.2l0.2-0.2l0.1-0.2V147l-0.2-0.3l0.2-0.2l0.4,0l0.5,0l0,0.2
	l0.1-0.1l0.1-0.2l0.4-0.1l0.2,0h0.4l0,0.1l0.1,0.1l0-0.2l0.2,0l0.1-0.2l0.2-0.3l0.4,0.1l0.4,0.2l-0.5-0.3l-0.2-0.1l0-0.2l-0.2-0.1
	l-0.2-0.1l0.1-0.1l-0.3-0.3l0.1-0.1l-0.1-0.3l-0.2-0.1l-0.1-0.2l-0.1-0.2l-0.2-0.2l0.1-0.3l-0.1-0.2l-0.1-0.4l0.3,0.1l0.2,0l0.1-0.2
	l0.2,0.1l0.1,0.2l0.2-0.3l0.2,0l0.3,0.2l0.1,0.3l0.1,0.1l0.6,0.2l-0.2,0.1l-0.3,0.2l-0.2,0.3l-0.1,0.2l-0.1,0.4l0.3,0.1l-0.1,0.1
	l0.1,0.3l0.3,0.1l0.3,0l0.3,0.1l0,0.4l0.4,0l0.5,0l0.4,0l0.5,0l0.5-0.3l0.2,0.1l-0.2,0l0,0.1l0.4-0.1l0.3,0l0.1-0.1l0.2-0.1l0.2,0.3
	l0.3,0.3l0.2,0l0.4-0.4l0.9-0.2h0.4l0.5-0.1l0.8-0.3l1,0.1l0.4,0.3l0,0.1l-0.2-0.1l0.1,0.3l0.4,0l0.2-0.2l0.1,0l-0.2,0.3l0.1,0
	l0.2-0.3l0.3-0.1l-0.3-0.1l-0.1-0.1l0.2-0.1l0.3,0l0.5-0.3l0.1,0.1l0.3-0.1l-0.1-0.7l0-0.8l0.1-0.7l0.6-0.4l0.4,0l0.4,0.3l0.4,0.4
	l0.5,0.1l0.4-0.3l-0.1-0.6l-0.3-0.3l-0.3-0.1l-0.4-0.4l0.3-0.1l-0.4-0.3l0.1-0.2l0.5-0.2l0.4,0l0.2,0l0.2,0h0.2l0.2,0l0.2,0l0.3,0.1
	l0.6,0.2l0.4,0.1l0.5-0.1l-0.1-0.3l0.2,0.1h0.2l0.2-0.1l0.3-0.1l0.8,0l0.3-0.3l-0.3,0l-0.4,0l-0.5-0.1l-0.4-0.1l-0.6-0.2l-0.3,0
	l-0.9,0l-0.3,0l-0.8,0.1l-0.4,0.1l-0.5,0l-0.3,0h-0.3l-0.5,0l-0.5,0.3l-0.4,0.1l-0.3,0.1l0-0.3l-0.2-0.4l-0.5,0l-0.1-0.2l-0.3-0.3
	l-0.1-0.4l-0.2-0.3l-0.2-0.3l-0.1-0.3l0-0.1l0.1-0.2l0.1-0.1l0.2-0.1l0.2,0l0.2-0.1l0.2-0.1l0.2-0.1l0.2-0.1l0.3-0.1l0.3-0.1
	l0.5-0.2l0.4-0.3h0.4l-0.1-0.4l-1.1-0.5l-0.3-0.2l-0.2,0.1h-0.1l-0.3,0l-0.4-0.1l-0.3,0l-0.1,0.1l-0.1,0l-0.4,0.1l0,0.6l-0.5,0.5
	l-0.3,0.2l-0.3,0.1l-0.2,0.2l-0.2,0.1l-0.8,0.1l-0.2,0.1l-0.2,0.1l-0.2,0l-0.1,0.1l-0.1,0.9l0.3,1l0.3,0.1l0.1-0.1l0.6,0.3l0.3,0.4
	l-0.4,0.1l0.5,0.1l-0.5,0.5l-0.1,0.1l-0.4-0.2L237,141h-0.4l0.5,0.3l-0.2,0.4v0.7l-0.1,0.9l-0.5,0.6l-0.8-0.1l-0.1,0.1l-0.2,0.2
	l0,0.4h-0.4h-0.6l-0.8-0.5l-0.4-0.5l0.3-0.2l-0.3-0.3l-0.5-0.8l-0.1,0l-0.1-0.2l-0.2-0.1l-0.1-0.1l-0.3-0.4l-0.1-0.5l-0.3-0.1
	l-0.3-0.1l-0.1-0.7l-0.2,0.4l0,0.7l-0.6-0.2l-0.3,0.7l-0.8,0.4l-0.8,0.1l-0.4,0l0.1-0.1l-0.4-0.3l-0.8-0.3l-0.4-0.6l0.4,0l0.3,0.1
	l0.2-0.8l-0.6,0.4l-0.2,0l-0.2,0.2l0.2-0.7l0.3-0.2l-0.2,0l-0.1-0.1l-0.1-0.1l-0.1-0.1l-0.1,0l-0.3-0.2l0.5-0.2l-0.4-0.2l0.1-0.2
	l0.4,0l0.4,0h0.3h0.4l0.4-0.2l-0.5,0.1l-0.3,0h-0.2h-0.4l-0.3,0l0.2-0.4l-0.3-0.4l0.5-0.2l0.8-0.4l0.6,0l0.1-0.4h0.6l0.7-0.2
	l0.6-0.2l0.3-0.1l0.4,0l0.5,0.1l0.2-0.3l-1,0l0.2-0.3l0.5-0.3l0.5-0.4l0.5-0.5l0.7-0.5l0.3-0.3l0.3-0.4l0.5-0.2l0.6-0.2l0.5-0.3
	l0.5-0.4l0.6-0.3l0.3-0.3l1.1-0.2l0.3,0l0.4,0l0.4,0l0.4-0.1l0.3-0.1l0.2-0.1l0.3-0.1l0.3,0l0.3,0h0.4l0.4-0.2l0.5,0.1l0.8,0.1
	l0.1-0.7l0.5,0l0.3,0v0.4l0,0.4l0.6-0.7l0.2,0.5l0.3-0.4l0.2,0.4l0.4-0.1l0.3,0l0.2,0.1l0.8,0.3l-0.9,0.1l0.8,0.3l0.5,0.1l0.2,0
	l0.8,0.1l-0.6,0l0.9,0.2l0.4,0l0.2,0l0.8,0l1.1,0.2l1.1,0.2l1.1,0.2l1.1,0.3l1,0.2l0.6,0.2l0.3,0.2l0.6,0.6l-0.1,0.2l-1.1,0.6
	c-0.2,0-0.3-0.2-2.4-0.3c-2.7-0.2-1.9-0.8-2.3-0.5l-0.5-0.1l-0.2,0l-0.2,0l-0.3,0l-0.4-0.1l-0.3-0.1l-0.1,0.1l1,0.3l0.3,0.1l0.3,0.3
	l0.5,0.1l0.5,0.1l0.4,0.1l0.1,0.1l-0.1,0.3l0.2,0.3l0.3,0.3c0.4,0.3-0.7,0.1,0.3,0.3l0.9,0.2l1.4,0.3l0.4-0.2l-0.7-0.3
	c-1,0-0.4-0.2-0.8-0.3l0.2-0.2h0.3l0.5,0l0.3,0.1l0,0.1l1,0l0.5,0h0.5h0.2l-1.4-0.8l0.4-0.3l0.8-0.3l0.8,0l0.2,0.1l0.7,0.2l0.1,0
	l0.4,0l0.1-0.6l-0.4-0.2l-0.4-0.7l-0.8-0.7c0.1,0,0.6,0.2,1.6,0.4l0.3,0.3l0.2,0.4l0.2,0.4l0.7,0.3h0.5l0.2,0h0.3h0.2l0.2-0.1
	l0.1-0.2l-0.2-0.3v-0.2l0.2,0l0.2,0C276.8,146.1,287.2,163,291.1,182.3z M230.8,160.9l0.3,0l0.3-0.2l0.3,0l0.2,0.4l0.1,0.4l0,0.4
	v0.4v0.3l0,0.5l-0.4-0.2l0,0.4h-0.3l-0.3-0.4l0-0.8l0-0.3l-0.1-0.5l-0.2-0.3l0.1-0.2H230.8z M230.7,159.1l0-0.2l0.2-0.1l0.4-0.2
	l0.1,0.2l0.1,0.4v0.7l-0.2,0.6l-0.3-0.2l-0.2-0.2l-0.1-0.2l-0.1-0.4L230.7,159.1z M235.5,164.6l0.5-0.2l0.7,0l0.4,0.2l0.5-0.1
	l0.6-0.1l0.4-0.1h0.3l-0.3,0.6l-0.1,0.4v0.5l-0.2,0.3l-0.6-0.1l-0.6-0.3l-0.6-0.4l-0.5-0.3L235.5,164.6z M229.2,142.7l0.2-0.2
	l0.3-0.1l0.3,0l0.5-0.3l0.4-0.1v0.2l-0.1,0.4l-0.1,0.2l-0.4-0.3l-0.3,0.1h-0.4l-0.2,0.3L229.2,142.7z M231.4,144.5l0,0.3l-0.6,0
	l-0.3-0.1l0-0.1l0.3,0h0.4L231.4,144.5z M232.6,143.8L232.6,143.8l0.3-0.2l0.1,0.3l-0.1,0.3l0,0.4l-0.1,0.4l-0.5-0.1l0.1-0.2l-0.5,0
	l-0.2-0.5l0.4-0.2l0.1-0.1h0.2l0.2,0.1l0.2,0L232.6,143.8z M147.2,137.1c0,0.1,0,0.2-0.4,0.4C146.9,137.4,147.1,137.2,147.2,137.1z
	 M144.4,139.9l0.1,0.1l0.7-0.2l0.4,0.5v0.7l-0.6,0.2l-0.5,0.3l0.3-0.1h0.3l1.8-0.2l1.7,0.7l0.2,0.2l0.4,0.1l0.9,0.5l0.9,0.1l0.9,0
	l0.5,0.1l0.1,0.3l-0.3,0.6l-0.3,0.2l-0.2,0l-0.8,0l0.9,0.5l-0.6,0.4c1.2,0.2,0.4,1.1,0.7,1.2l-0.5,0.5l0.7-0.3l0.3,0.3v0.4l0.3,0
	l0.2-0.1l0.8-0.4l0.6,0.7l0.2-0.4l-0.3-0.5c0-0.3,1.2,0,1.2-1l0.2-0.6c0.1-0.9,0-0.9-0.1-0.9l-0.1-0.1l-0.2-0.4
	c0.1-0.2,2.5-0.1,4.2-1.8c2.1-2.1-0.3-2.2,0.2-2.5c0.3-0.2-0.5-0.3,0.8-0.7l0.7-0.3l0.4-0.7c1.1-0.6-0.5-0.1,0.5-0.8l0.9-1.4
	l2.1,0.2l1.1,0l1.4,0.3l0.5,0.7l0.4,0.1l0.3-0.1v0.4l0.7-0.1l-0.4,0.4c-1,0.2,0.8,0.5-0.8,0.7l0.5,0.1l-1.1,1l1,0.2l-0.8,0.1
	l-0.5,0.4l0.5,0.4l1.6-0.6l0.1,0.2l0.2,0.1l1.2-0.9l0.2,0.1l0.1,0.2l0.6-0.6l0.5-0.8l0.9-0.6l0.5,0.5l0.1,0.5l0.2,0.6l0.2,0.9
	c0.8,0.3,0.4,0.8-0.6,0.9l1-0.1v0.8l0.3,0.9l0.2,0.1l0.3,0.2l0.3,0.1l0.2,0.1l0.2,0.2l0.3,0.1l0.4,0.3l-2,0.4c-1.1,0,0.2,0.1-1,0.5
	l2.1-0.4l1.2-0.1v0.4l0.6-0.1l0.2,0.6l0.1,0.4c-0.3,0,0.8,0.3-0.4,0.9l-0.7,0.2l-0.8,0.3l-0.7,0.4l0,0.1l-0.5,0.2l-0.1,0.2
	c0,0-0.1-0.1-1.2,0.3c-1,0.4-1.1,0.3-1.2,0.2l-1,0h-0.7c-0.2,0-0.5-0.1-1.9,0c-2,0.2-2.6,0.3-2.5,0.6l-1.2,0.5l-0.9,0.4l-0.6,0.3
	l-2.6,1.6l-1.1,0.8l1.3-0.7c0.8-0.6,3.9-1.9,5.1-2c1.2-0.2,1.8,0.1,1.7,0.3l-0.2,0l0.1,0.3l-1.1,0.4l-0.5,0.2l-0.6,0.2l0.5,0.1h0.6
	l-0.6,0.7l0.7,1.2l1.1,0.5l0.8,0.1l0.4,0l0.2,0l0.3,0.1l-0.7,0.5L167,154l-0.2,0.1l-0.4,0.1l-0.9,0.2l-0.4,0.4l-1.1,0.5l-0.3,0.3
	l-0.2-0.5l0.9-1.2l1.3-0.4l0.1,0l1.1-0.2h-1.1l-0.6,0l-0.4,0.1l0.4-0.8l-0.8,0.7l-0.9,0.2l-0.3,0.1l-1.3,0.8l-0.9,0.2l-0.2,0.1
	l-0.1-0.1l-0.5,0.5l-0.3,0.1l-1.3,0.6l-0.7,0.7l-0.2,0.9l0.3,0.1l-0.1,0.3l-1,0l-0.9,0.4c-0.5-0.2,0,0.1-0.9,0.1
	c-0.9,0-0.9,0.5-1.3,0.6l-0.3,0.2l-0.1,0.5l-0.6,0.5l-0.6-0.1l0.3,0.4l-0.3,0.1l-0.2,0.1l-0.6,0.5l-0.4,0.2l-0.4-0.7l0.2,0.5
	l0.2,0.5l-0.2,0.6l0,0.2l-0.2,0.4l0.3-0.6l0-0.1l-0.9,1.2l0-0.4l-0.1-0.7l0-0.6l0.2-0.5l-0.4,0l-0.4,0.6l-0.3,0.3l0.4,0.7l-0.2,0
	l-0.3,0l0.2,0.6l0.3,0.9l-0.1,1h-0.3l-0.5-0.1l0.2,0.3l0.3,0.1l0.1,0l0.1,0.4l-0.7,0.1l-0.1,0.3l0.1,0.1h0.1l-0.7,0.6l-1,0.6
	l-0.6,0.4l-0.6,0.4l-1.1,0.5l-0.6,0.6l-0.8,0.3l-0.1-0.1l-0.6,0.2l-0.1,0l-0.1,0.5l-0.5,0.5c-1.4,1.7-0.9,1.7-1.1,2l0,2l0.1,0.3
	l0,0.1l0.1,1.3l-0.1-0.4l-0.1-0.2l0.4,1.4l-0.4,1.7l-0.2,0.6l-0.4,0.1l-0.2,0.1l-0.3,0l-0.5-0.1l0.1-0.2l0.3-0.2l-0.4-0.4l-0.5-0.7
	l0-0.7l-0.2-0.1c-0.5-1.1,0-1-0.2-1.3l0.5-1.7l-0.6-0.7l-0.9-0.2l-0.7,0.2l-0.2,0l-0.3-0.1c0.3-0.1-0.1-0.2-1.2-0.5
	c-1.1-0.2,0.8-0.2,0.5-0.3l-1,0.1l-1,0l-0.5,0.3l-0.3-0.4l-0.1,0.4l-0.5,0.2h-0.3l-0.7-0.1l-0.4,0l0.6,0.6l0.2,0.4l0.1,0.4l-0.5-0.1
	l-0.2,0.1l-0.3,0l-1.1-0.3l-0.1,0l-0.2-0.1l-0.6,0.1l-0.7-0.2l-1.4,0.1l-0.9,0.5l0.3-0.6l-0.5,0.6l-0.4,0.4l-0.7,0.4
	C127.8,161.9,134.9,149.8,144.4,139.9z M170.5,152.2v0.3l-0.5,0.2l-0.5,0.1l-0.4,0l0.2-0.5l0.9-0.6l0.1,0.1l-0.1,0.4L170.5,152.2z
	 M168.1,152.3l-0.3,0l-0.1-0.1l-0.3,0l-0.2,0.1l-0.3-0.1l-0.1-0.1l-0.2-0.1l-0.1-0.1l-0.2-0.1l0.2-0.3l0.5,0.3l0.2,0l0.6,0l0.4,0
	l-0.3,0.2L168.1,152.3z M153.4,189l0.3-0.2l0.9,0.1h0.3h0.2v0.3l-0.3,0.2h-0.4l-0.6,0.1h-0.4l0.1-0.3L153.4,189z M147.9,189.2
	l-0.3-0.1l-0.9,0l-0.7-0.1l-0.4,0.1h-0.2L145,189l0-0.3l0.4-0.2l0.5,0l0.4,0l0.5-0.1l0.5,0l-0.4-0.3l-0.2-0.3l0-0.3l0-0.2l-0.3-0.2
	l-0.1-0.3l0.5,0h0.4l0.4,0.1l0.3-0.1h0.4l0.2-0.1l0.4-0.1l0.3,0l0.5,0.2l0.3,0.2l0.5,0l0.1,0.3l0.6,0l-0.2,0.2l-0.5,0.1l0.4,0.1
	l0.8,0.2l0.6,0.5l-0.3,0.5l-0.2,0.1l-0.3,0.1l-0.5-0.4l-0.5,0.1H150l-0.4,0.2l-0.2-0.1l-0.3,0.1l-0.1,0.3l-0.3,0.3l-0.3,0.1h-0.4
	l0-0.3L147.9,189.2z M142.4,186.9l-0.6,0.1l-0.2-0.2l0.4-0.2l0.4-0.2l0-0.2l-0.1-0.2l-0.3,0l-0.3-0.1l-0.4-0.2l-0.2-0.3l0-0.5
	l-0.2-0.2l-0.1,0l-0.4,0l-0.7-0.3l-0.5-0.2l-0.2-0.3h-0.3l-0.9,0l-0.6-0.2l-0.2-0.1l0.4-0.1l0.4-0.1l-0.1-0.2l-1.4-0.1l-0.3,0.2
	l-0.4,0.2l-0.5,0.1l-0.3,0.2l-0.2,0.2l-0.3,0.1l-0.2-0.1l-0.3,0.2l-0.3-0.1l0.5-0.2l0.3-0.1l-0.2-0.3l0.3-0.4l0.2-0.2l0.9-0.3
	l0.5-0.2h0.6l0.2-0.1l1,0l0.6,0.2l0.3,0l0.5,0.1l0.3,0.2l0.5,0.3l0.5,0.3l0.6,0.4l0.4,0.1l0.2-0.1l0.3,0.3l-0.1,0.1l0.3,0l0.8,0.5
	l0.5,0.2h0.3l0.5,0.1l-0.1,0.3l-0.2,0.2l0.2,0.1l0.3,0h0.3l0.4,0.2l0.2,0.1l0.4,0.2l-0.1,0.2l-0.6,0.1l-0.5,0.2l-0.3,0.1l-0.7-0.1
	l-0.2,0l-0.5,0L142.4,186.9z M142.8,189.5l-0.3,0.1l-0.6,0h-0.2l-0.2,0.1l-0.1,0.1l0,0.1l-0.4-0.3l-0.3-0.3l-0.3-0.3l-0.2-0.2
	l0.5-0.1h0.1h0.5l0.6,0.2l0.5,0.3L142.8,189.5z M135.6,184.5L135.6,184.5l0.2-0.2l0.3,0.1l0,0v0.1l0.1,0.1l0,0.1l0,0.1l-0.4,0.1
	l-0.2-0.2h0v0l0,0l0.1,0l0.1-0.1L135.6,184.5z M120.3,199.6c0-3.5,0.2-7,0.6-10.4l0,0l1.1,0.1l1.5-0.5l1.1-0.3h0.3l0.2,0.1l0.5-0.6
	l0.6-1l0.2-1.3l1.9-0.8l0.6-0.1l0.9-0.1l0.5,0l0.3,0.2l0.3,0.2l0.2,0.2l-0.6,1l-0.5,0.7v0.1l0,0.4l-0.8,1.5l-0.3,0.8l-0.1-1
	l-0.3,0.5l-0.1,1.2l-0.6,1.3l-0.5,0.7l0.1,0.1l0.3,0.1h0.6l0.5-0.1l1.2,0l1.2,0h0.1l0.1,0h0.2l0.7,0.1l-0.1,0.2l-0.2,0.1l0.5,0.1
	l0.2,0l0.2,0l0.7,0.6l-0.2,0.5l-0.3,1l-0.1,0.8l-0.1,0.9l-0.2,0.4l0.1,0.2l-0.1,0.4v0.4l-0.1,0.6v1.1l0.1,0.4l0.7,1.3l0.4,0.3l0,0.2
	l0,0.3l0.2-0.3l0.4,0.4h1.2l0.9-0.3l0.1,0.3l-0.1,0.2l0.4-0.1l0-0.2l0.3-0.5l0.7,0l0.2,0.1l0.6,0.3l0.3,0.4l0.6,0.5l0.9,0.9
	l-0.1-0.3l0.2-0.1l-0.3-0.4l0.6-0.6l0.6-0.4h0.1l0.2-0.7l0.2-0.9l0.9-0.8c1-0.4-0.1,0.3,0.5,0.3l0.7-0.8c0.5,0,0.4-0.1,1.5-0.7
	c1.2-0.5,0.1-0.8,0.7-0.8l0.7-0.1l0.1,0.7l-0.3,0.3l0.2,0.9l-0.1,0.3l0,0.2l-0.8,0.9l0.6,0.7l0.9,0l-0.2-1.1l-0.2-0.4l0.3-0.6l1-0.6
	l0.5-0.3l0.2-0.1l-0.3-0.1l-0.3-0.3l0.7,0.1l0.6,0.5l0.4,0.1l0.2,0l0.4,0.6c-0.3,0.1,0.1,0.5,1.1,0.4c1-0.1,2,0,1.8,0.2
	c-0.1,0.3,0.2,0.5,1.4,0.3c1.2-0.1,0.3-0.5,1.2-0.6c-1-0.1-0.5-0.3,0.1-0.2l0.5,0l0.5,0l0.7,0.1l0.1,0l-1.1,0.2l-0.1,0.1l0.6,0.9
	l0.8,0.3l0.8,0.9l0.2,0.3l0.2,0.2l-0.6,0.4l0.7,0.1l0.6,0.4l1.5,0.7l0.4,1.4l0.7,0.1l0.6,0.7l-0.3,1.2l0.5-0.6h0.8l0.7,0.1l0.5,0
	l0.2,0l0.5-0.1l0.2-0.1l1,0.3l0.4,0.1l1,0.6l0.3,0.1l0.2,0.2l0.4,0.4l0.4,0.7l0.5,0.4l0.2,0.1l0,0.2l0.9,2.8l0.3,1.2l-0.8,1
	l-0.6,1.6l-0.6,0.8l0.6,1l-0.1-0.9l1-0.9l0.3-1l0.7-0.3l0.6,0l1.4,0.3l-0.5,1l-0.3,0.9l-0.4,0.1l-0.6,0.2l-0.4,0.1l-0.7,0.1l0.4,0.1
	l0.7,0c0.9-0.5-0.2,0.2,0.5,1.1c-0.2-1.1,0.3-1.4,0.6-1.3c0.3,0-0.1-0.9,1.1-1.2c1.1-0.3,1.1,0.4,2.6,1.1c1.6,0.7,1.2,0.8,0.9,1
	l0.2,0.9l1.2-0.1c1,0.6,2.4,0.9,2.6,0.8l2.2,0.7l2.3,1.6l1,0.2l1.3,0.5l0.7,2.4l-0.4,3.1c-0.7,0.7-0.7,1.3-1.6,2.1
	c-1.1,1-1,2.8-1.9,3.6l-0.5-0.1L186,235c0.3,0.6-0.3,1.3,0.3,2.5c0.5,1-0.2,1.2-0.1,2.7c0.2,1.4-0.8,0.8-0.2,2
	c0.5,1.2-0.9,0.6-0.5,1.9c0.4,1.6-1.3,1.2-1,2.6c0.2,1.1-0.4,0.7-0.8,1.1l-1,0.5l-0.3,0l-0.8,0l-0.8,0.1c-0.4,0.5-0.9,0.5-2.3,1.9
	c-1.4,1.4-0.5,2.2-0.5,2.5c-0.2,1,0.7,1.7,0.1,2.2c-0.6,0.5,0.5,0.5-0.9,1.4c-1.4,0.9-0.3,1.3-0.8,2c-0.5,0.7,0.2,1.7-0.9,2.3
	c-1.1,0.7,0.5,0.7-1.4,2c-0.6,1-2.1,1.1-2.6,0.7l-0.7-0.1l-0.5-0.1c-0.3-0.4-1.6,0.2-1.8-1.6c-0.4,1.3,0.8,1.2,0.1,1.4
	c-0.6,0.2,2.3,0.6,2.3,1.7c-0.1,1,0.4,1,0.7,1l0.2,0.1c0.4,1,0,0.8-0.1,1.3c-0.4,1.4-1,1-1.8,1.4c-1.2,0.5-1.9,0.4-2.3,0.3l-0.3-0.1
	l-0.3-0.1l-0.2-0.1v0.5l0.4,0.5l-0.1,0.5l0.1,0.9l-1.6,0.6l-0.8-0.3l-0.3,0.3c1.3,0.7-0.1,1.5,1.1,1.4l0.4,0.1l0.1-0.3l0.4,0.6
	l-0.4,0.2l-0.9,0l0.8,0.2l-0.4,0.5l0.1,0.8l0,0.2C138.7,260.9,120.3,232.3,120.3,199.6z"/>
<path class="st2" d="M356.6,137.1c0,15.3-12.4,27.7-27.7,27.7c-15.3,0-27.7-12.4-27.7-27.7s12.4-27.7,27.7-27.7
	C344.2,109.4,356.6,121.8,356.6,137.1z"/>
<path class="st2" d="M234.3,64.6c0,15.3-12.4,27.7-27.7,27.7c-15.3,0-27.7-12.4-27.7-27.7c0-15.3,12.4-27.7,27.7-27.7
	C221.9,36.9,234.3,49.3,234.3,64.6z"/>
<path class="st2" d="M234.3,334.6c0,15.3-12.4,27.7-27.7,27.7c-15.3,0-27.7-12.4-27.7-27.7c0-15.3,12.4-27.7,27.7-27.7
	C221.9,306.9,234.3,319.3,234.3,334.6z"/>
<path class="st2" d="M112,137.1c0,15.3-12.4,27.7-27.7,27.7c-15.3,0-27.7-12.4-27.7-27.7s12.4-27.7,27.7-27.7
	C99.6,109.4,112,121.8,112,137.1z"/>
<path class="st2" d="M112,257.6c0,15.3-12.4,27.7-27.7,27.7c-15.3,0-27.7-12.4-27.7-27.7c0-15.3,12.4-27.7,27.7-27.7
	C99.6,229.9,112,242.3,112,257.6z"/>
<path class="st2" d="M356.6,257.6c0,15.3-12.4,27.7-27.7,27.7c-15.3,0-27.7-12.4-27.7-27.7c0-15.3,12.4-27.7,27.7-27.7
	C344.2,229.9,356.6,242.3,356.6,257.6z"/>
<g>
	<g>
		<path class="st0" d="M192.1,54.2l8.4,4.9l5.1-8.8l-1-2.5c0,0-1.4-3.3-4.8-2.9c-3,0.4-3.6,2.4-4.2,3.3
			C195.1,49.2,192.1,54.2,192.1,54.2z M222.3,55.9l-8.2,5.2l5.5,8.6l2.6,0.3c0,0,3.6,0.3,4.8-2.9c1.1-2.8-0.4-4.3-1-5.3
			C225.4,60.9,222.3,55.9,222.3,55.9z M205.7,82l-0.1-9.8l-10.2,0.1l-1.6,2.1c0,0-2.1,2.9-0.1,5.6c1.9,2.4,3.8,2.1,4.9,2.1
			C199.8,82.2,205.7,82,205.7,82z"/>
		<path class="st0" d="M203.4,44.6l10.4,0c0,0,1.7,0,2.5,1.6c0.8,1.6,2.1,3.7,2.1,3.7l3-1.4l-4.5,8.2l-9.5,0.3l2.9-1.8
			c0,0-4.8-10.7-6.8-10.3L203.4,44.6z M225.6,70.4l-4.8,9.3c0,0-0.8,1.5-2.6,1.4c-1.8,0-4.2,0.2-4.2,0.2l-0.1,3.3l-5.2-7.7l4.1-8.6
			l0.3,3.4c0,0,11.7,0.6,12.3-1.4L225.6,70.4z M191.7,77.1l-5.4-8.9c0,0-0.8-1.4,0.1-2.9c0.9-1.5,2.1-3.7,2.1-3.7l-2.7-1.8l9.3-0.4
			l5.1,8l-3.1-1.5c0,0-6.7,9.6-5.3,11.2L191.7,77.1z"/>
	</g>
	<g>
		<path class="st0" d="M333.3,150.7l-9,0c-0.6,0-1,0.5-1,1c0,0.6,0.5,1,1,1l9,0c0.6,0,1-0.5,1-1
			C334.4,151.2,333.9,150.7,333.3,150.7z"/>
		<path class="st0" d="M332.9,153.6l-8.3,0c-0.6,0-1,0.5-1,1c0,0.6,0.5,1,1,1l8.3,0c0.6,0,1-0.5,1-1
			C334,154.1,333.5,153.6,332.9,153.6z"/>
		<path class="st0" d="M332.1,156.5l-6.7,0c-0.6,0-1,0.5-1,1c0,0.6,0.5,1,1,1l6.7,0c0.6,0,1-0.5,1-1
			C333.1,157,332.7,156.5,332.1,156.5z"/>
		<path class="st0" d="M336.6,134.5C336.6,134.5,336.6,134.5,336.6,134.5l0-6.9l0-1.7l0-2.1c0-1.2-0.7-2.8-2.6-3.5l0,3.5l0,2.1
			l0,1.7l0,2l0,4.9c0,0,0,0,0,0l-0.5,0l0-9.1l0-2.2l0-2.7c0-2-0.5-5-4.6-5c-5,0-4.7,5.9-4.7,6.2l0,1.6l0,1.6l0,9.8l-0.5,0
			c0,0,0,0,0,0l0-4.9l0-2l0-1.7l0-2.1l0-3.5c-1.9,0.7-2.6,2.3-2.6,3.5l0,2.1l0,1.7l0,6.9c0,0,0,0,0,0l-0.5,0l0,2.9l0,2.3l16.6,0.1
			l0-2.3l0-2.9L336.6,134.5z M328.9,118.9c1.4,0,1.2,1.2,1.2,1.6l0,2.7l0,2.2l0,9.1l-2.4,0l0-9.8l0-1.6l0-1.6
			C327.7,120.8,327.5,118.9,328.9,118.9z"/>
		<path class="st0" d="M320.5,141.5l0,2c0,0.8,0.6,1.5,1.4,1.5l1.3,0l0,4.8l11.1,0l0-4.8l1.3,0c0.8,0,1.5-0.6,1.5-1.4l0-2l0-0.3
			l-16.6-0.1L320.5,141.5z"/>
	</g>
	<path class="st0" d="M314.6,237.7c0,0,1,6.7,0.5,11.3c-0.5,4.7-0.1,15.5,11,20c0,0,4,1.6,7.6,1.5c3.6-0.1,5.4,0.7,6.6,3.3
		c1.2,2.6,2.2,3.7,2.2,3.7l0.5-0.6c0,0-2.2-3.6-2.7-4.8c-0.6-1.2-1.2-4-0.2-8.1c1-4.1,2.2-8.9-2.9-15.5
		C331.9,241.9,319.2,241.8,314.6,237.7z M320.7,245c0.2-0.7,0.5-1.7,0.3-2.6c0,0,1.1,1.5,0.7,3.8c0.4,0.5,0.7,0.9,1.1,1.4
		c0.3-0.9,0.7-2.3,0.4-3.8c0,0,0.7,2,0.3,4.8c0.4,0.6,0.8,1.1,1.2,1.6c0.6-1,1.7-3.6,1.1-6.1c0,0,2.2,3.1-0.3,7.2
		c0.3,0.4,0.6,0.9,1,1.4c0.6-0.9,2.9-4.4,2.2-7.4c0,0,2.3,3.5-1.1,8.8c0.3,0.5,0.7,0.9,1.1,1.4c0.7-1,3.5-5.5,2.7-8.4
		c0,0,2.2,3.6-1.5,10.1c0.4,0.5,0.8,1,1.2,1.6c0.8-1.4,3.9-6.8,2.4-11.3c0,0,3.6,3.6-1.3,12.8c0.4,0.5,0.8,1,1.1,1.5
		c0.8-1.3,4-6.5,3.4-10.5c0,0,2.7,2.2-2.3,12.1c0.5,0.6,1,1.3,1.4,1.9c1.1-1.6,3.9-6,3.3-10.5c0,0,2.1,6.1-2.2,12
		c-0.3,0.7-1.4,1-1.4,1c-6.6,2.1-11.5-1.4-11.5-1.4c3.8,1.6,8.2,0.6,10.4-0.1l-1.4-2c-10.3,1.8-11.6-1.2-11.6-1.2
		c3.4,1.5,8.6,0.3,10.6-0.3l-1.1-1.6c-9.7,1.9-12.2-2.4-12.2-2.4c3.6,2.5,9.1,1.5,11.1,0.9l-1.1-1.6c-7,1.5-9.7-1.4-9.7-1.4
		c2.4,1.5,7,0.3,8.5-0.2l-1-1.4c-5.9,1.7-8.6-1.4-8.6-1.4c2.5,1.4,6.3,0.4,7.5,0l-1-1.4c-4.6,1.2-6.9-1.7-6.9-1.7
		c2.2,1.3,5,0.9,6.1,0.6l-1.1-1.6c-2.9-0.3-4.6-1.6-4.6-1.6c1.4,0.6,3,0.7,3.9,0.6l-1-1.4c-2.4-0.1-3.6-1.7-3.6-1.7
		c0.9,0.5,2,0.5,2.7,0.4l-4.7-6.6c0,0-0.1-0.7-0.1-0.8l1.1,0.8C316.2,239.3,318.4,242,320.7,245z"/>
	<g>
		<path class="st0" d="M217.2,324.5l-1.7,0l0-6.9c0-0.7-0.5-1.2-1.2-1.2c-0.7,0-1.2,0.5-1.2,1.2l0,6.9l-8.8,0l0-6.9
			c0-0.7-0.5-1.2-1.2-1.2c-0.7,0-1.2,0.5-1.2,1.2l0,6.9l-1.7,0c-1.7,0-3,1.3-3,3l0,5.7l23,0l0-5.7
			C220.2,325.8,218.9,324.5,217.2,324.5z"/>
		<path class="st0" d="M199.9,342.5l4.3,0l0,4.9l3.9,0l0,2.4l0,0.1l0,0.1c0,0,0.2,1.3-0.6,2.2c-0.6,0.7-1.7,1.1-3.3,1.1l-9.4,0l0,2
			l9.4,0c2.2,0,3.9-0.6,4.9-1.9c1.2-1.5,1.1-3.3,1-3.8l0-2.4l3.2,0l0-5l4.2,0l2.6-7.9l-22.5,0L199.9,342.5z"/>
	</g>
	<path class="st0" d="M105.8,258.1l-8.3-4.3l4.2-8.4l-9.3,1.4l-1.5-9.3l-6.7,6.6l-6.7-6.6l-1.5,9.3l-9.3-1.4l4.2,8.4l-8.3,4.3
		l8.3,4.3l-4.2,8.4l9.3-1.4l1.5,9.3l6.7-6.6l6.7,6.6l1.5-9.3l9.3,1.4l-4.2-8.4L105.8,258.1z M84.3,269.5c-6.3,0-11.4-5.1-11.4-11.4
		c0-6.3,5.1-11.4,11.4-11.4c6.3,0,11.4,5.1,11.4,11.4C95.7,264.4,90.6,269.5,84.3,269.5z"/>
	<path class="st0" d="M93.6,136.8c-3.1-8.1-9.1-19.5-9.1-19.5S77.4,131,74,137.1c-6.4,11.6,1,19.7,10.5,19.7
		C97.2,156.8,97,145.7,93.6,136.8z M84.1,153.4c-7.2,0-13-6.2-8-15.1c0.3-0.6,0.7-1.3,1.1-2c-3.7,8.8,2.4,14.9,9.9,14.9
		c1.6,0,2.9-0.2,4-0.6C89.7,152.3,87.5,153.4,84.1,153.4z"/>
</g>
</svg>
