<?xml version="1.0" encoding="utf-8"?>
<!-- Generator: Adobe Illustrator 26.0.1, SVG Export Plug-In . SVG Version: 6.00 Build 0)  -->
<svg version="1.1" id="Layer_1" xmlns="http://www.w3.org/2000/svg" xmlns:xlink="http://www.w3.org/1999/xlink" x="0px" y="0px"
	 viewBox="0 0 2000 2000" style="enable-background:new 0 0 2000 2000;" xml:space="preserve">
<style type="text/css">
	.st0{fill:#454545;}
	.st1{fill:#FF8C00;}
	.st2{fill:#F2F2F2;stroke:#000000;stroke-miterlimit:10;}
	.st3{fill:#AA4700;}
	.st4{fill:#EAD1B7;}
	.st5{fill:#F7EEE5;}
	.st6{fill:#444248;}
	.st7{fill:#C78B5B;}
</style>
<path class="st0" d="M396.4,490.8c2.2,0.1,4.5,0.2,6.7,0.2c77.9,0,141.8-61,145.4-138.8c0.9-18.9-1.9-37.4-8-54.8l-275.8,93.4
	c6.3,19.3,16.6,37.3,30.7,52.7C321.7,472.2,357.5,489,396.4,490.8z"/>
<path class="st1" d="M603.8,244.3L254.2,362.6c0,0-30.4-98.1,36.7-142c54.3-35.6,109.7-47.4,158.3-33c44.3,13.1,71.6,51.8,71.6,51.8
	s83-16.5,88.5-13.5C625.3,234.7,609.9,240.8,603.8,244.3z"/>
<path class="st0" d="M910.8,713.1c-97.6-32.8-195.2-65.6-292.9-98.3c-8-3.3-16-6.6-24-9.8c-2.4-10.3-14.3-57.4-59.7-85.6
	c-3.5-2.2-35.6-19.3-76.4-19.3c-77.6,0-140.4,53.7-140.4,119.8v28c-0.4-0.6-0.8-1.2-1.2-1.8c-42,69.3-84.1,138.6-126.1,208
	c-32.8,50.9-20.8,103.6,13.5,122.3c23.8,13,53.6,7,64.9,4.2c16.3-2.3,32.6-4.6,49-6.8v771c0,36.8,35,66.7,78.1,66.7
	s78.1-29.9,78.1-66.7v-471.9l84.1,181.2v290.7c0,36.8,35,66.7,78.1,66.7c43.2,0,78.1-29.9,78.1-66.7v-316.2
	c-38.6-91.5-77.2-183.1-115.8-274.6V934.4c46.3-6.5,92.5-12.9,138.8-19.4c36.4-19.9,53.2-57.5,41.5-91.4c-1.5-4.3-3.4-8.4-5.7-12.3
	l76.7,25.1c36.3,10.1,73.7-8.8,86.3-41.4C947,766.5,936.9,732.5,910.8,713.1z M598.3,781v-26.8l57.3,18.7
	C636.5,775.7,617.4,778.3,598.3,781z"/>
<path class="st2" d="M738.2,564.4c-45.1,72.4-90.2,144.8-135.3,217.2c28.7-4,57.4-8,86.1-12c37.5,4.5,68.4,26.7,78.7,56.3
	c11.7,33.6-5.1,70.8-41.5,90.5c-77.5,10.7-155,21.4-232.5,32.1l-26,39.7l278.6,54.5c93.5-145.3,186.9-290.6,280.4-435.8
	C930.5,592.8,834.3,578.6,738.2,564.4z"/>
<polygon class="st3" points="1683.1,1522.7 1683.1,1230.6 1494.3,1230.6 1494.3,1009.3 1472.6,1009.3 1472.6,713.6 1170,713.6 
	1170,1009.3 1119.7,1009.3 1119.7,1358.4 936.2,1358.4 936.2,1818.4 1407,1818.4 1407,1553.5 1478.7,1553.5 1478.7,1818.4 
	1781.3,1818.4 1781.3,1522.7 "/>
<polygon class="st1" points="1731.1,1522.7 1731.1,1230.6 1582,1230.6 1582,1009.3 1520.5,1009.3 1520.5,713.6 1220.6,713.6 
	1220.6,1009.3 1211.3,1009.3 1211.3,1358.4 1034.9,1358.4 1034.9,1818.4 1501.5,1818.4 1501.5,1553.5 1529.3,1553.5 1529.3,1818.4 
	1829.2,1818.4 1829.2,1522.7 "/>
<rect x="1384" y="1009.3" class="st4" width="87" height="112.2"/>
<rect x="1384" y="1441.3" class="st4" width="87" height="112.2"/>
<rect x="1243.4" y="1464.1" class="st5" width="114.8" height="69.3"/>
<rect x="1568.1" y="1230.6" class="st4" width="47.8" height="76.1"/>
<rect x="1568.1" y="1450.2" class="st4" width="47.8" height="76.1"/>
<rect x="1642.9" y="1465.6" class="st5" width="77.8" height="47"/>
<rect x="1649.9" y="1522.7" class="st4" width="80.5" height="76.1"/>
<rect x="1649.9" y="1742.3" class="st4" width="80.5" height="76.1"/>
<rect x="1554.5" y="1757.8" class="st5" width="77.8" height="47"/>
<rect x="1341.2" y="713.6" class="st4" width="80.5" height="76.1"/>
<rect x="1245.8" y="948.6" class="st5" width="77.8" height="47"/>
<rect x="1256.2" y="955.6" class="st6" width="57" height="33.8"/>
<rect x="1653.3" y="1472.2" class="st6" width="57" height="33.8"/>
<rect x="1563.5" y="1763.5" class="st6" width="57" height="33.8"/>
<rect x="1249.9" y="1473.3" class="st6" width="101.9" height="48.3"/>
<rect x="1216.5" y="1358.4" class="st4" width="125.2" height="118.4"/>
<rect x="1216.5" y="1700" class="st4" width="125.2" height="118.4"/>
<rect x="1068.1" y="1724.1" class="st5" width="121.1" height="73.1"/>
<path class="st7" d="M1231.9,1016.9c73.1,0,146.1,0,219.2,0c20.6,0,41.2,0,61.8,0c8.4,0,8.4-13,0-13c-73.1,0-146.1,0-219.2,0
	c-20.6,0-41.2,0-61.8,0C1223.5,1003.9,1223.5,1016.9,1231.9,1016.9L1231.9,1016.9z"/>
<rect x="1080.6" y="1736.5" class="st6" width="101.9" height="48.3"/>
<path class="st7" d="M1210.5,1354.2c91,0,182,0,273,0c25.9,0,51.8,0,77.7,0c8.4,0,8.4-13,0-13c-91,0-182,0-273,0
	c-25.9,0-51.8,0-77.7,0C1202.1,1341.2,1202.1,1354.2,1210.5,1354.2L1210.5,1354.2z"/>
<path class="st7" d="M1517.3,1553.5c74.4,0,148.8,0,223.2,0c8.4,0,8.4-13,0-13c-74.4,0-148.8,0-223.2,0
	C1509,1540.4,1508.9,1553.5,1517.3,1553.5L1517.3,1553.5z"/>
<path class="st7" d="M1503.9,1339.7c0-31.9,0-63.8,0-95.6c0-8.4-13-8.4-13,0c0,31.9,0,63.8,0,95.6
	C1490.9,1348.1,1503.9,1348.1,1503.9,1339.7L1503.9,1339.7z"/>
<path class="st7" d="M1497.4,1246.6c22.6,0,45.2,0,67.7,0c8.4,0,8.4-13,0-13c-22.6,0-45.2,0-67.7,0
	C1489,1233.6,1489,1246.6,1497.4,1246.6L1497.4,1246.6z"/>
</svg>
