<?xml version="1.0" encoding="utf-8"?>
<!-- Generator: Adobe Illustrator 26.0.1, SVG Export Plug-In . SVG Version: 6.00 Build 0)  -->
<svg version="1.1" id="Layer_1" xmlns="http://www.w3.org/2000/svg" xmlns:xlink="http://www.w3.org/1999/xlink" x="0px" y="0px"
	 viewBox="0 0 2000 2000" style="enable-background:new 0 0 2000 2000;" xml:space="preserve">
<style type="text/css">
	.st0{fill:#FBB810;}
	.st1{fill:#FFFFFF;stroke:#454545;stroke-width:60.3545;stroke-miterlimit:10;}
	.st2{fill:none;stroke:#FBB810;stroke-width:69.6398;stroke-linecap:round;stroke-linejoin:round;stroke-miterlimit:10;}
</style>
<g>
	<path class="st0" d="M1071.3,280.7l-674,305.3c-23.9,10.8-39.3,34.6-39.3,60.9v437.2c139.8-60.8,303.3-28.6,408.9,80.4
		c107.4,110.8,133.4,278.9,64.3,417.8c80.6,34.4,161.2,68.8,241.9,103.2c16.6,7.1,35.4,7.2,52,0.2l654.3-273.7
		c24.9-10.4,41-34.7,41-61.7V643.1c0-26.1-15.2-49.8-38.9-60.7l-654.8-301.5C1109.2,272.8,1089,272.7,1071.3,280.7z"/>
	<path d="M558.1,882.4V698.5l733.8-341.6c61.9,28.2,123.9,56.3,185.8,84.5c-241.1,115.5-482.1,230.9-723.2,346.4
		c-1.8,57.7-3.6,115.5-5.4,173.2C685.4,934.8,621.7,908.6,558.1,882.4z"/>
	<polygon points="1277.7,1484.2 1702.6,1305.6 1702.6,1255.6 1277.7,1430.6 	"/>
	<g>
		<polygon points="1279.5,1365.4 1260.8,1373 1256.5,1283.5 1275.2,1275.9 		"/>
		<polygon points="1307,1354.1 1287.4,1362.2 1283.1,1272.7 1302.7,1264.6 		"/>
		<polygon points="1334.5,1342.8 1313.9,1351.3 1309.6,1261.8 1330.2,1253.3 		"/>
		<polygon points="1362.1,1331.6 1340.4,1340.4 1336.1,1250.9 1357.8,1242.1 		"/>
		<polygon points="1389.6,1320.3 1366.9,1329.6 1362.6,1240.1 1385.3,1230.8 		"/>
		<polygon points="1417.2,1308.9 1393.3,1318.7 1389,1229.2 1412.9,1219.5 		"/>
		<polygon points="1453.1,1294.2 1428.1,1304.5 1423.8,1215 1448.9,1204.7 		"/>
		<polygon points="1489.1,1279.5 1462.8,1290.3 1458.5,1200.8 1484.8,1190 		"/>
		<polygon points="1524.1,1265.2 1496.4,1276.5 1492.1,1187 1519.8,1175.7 		"/>
	</g>
	<path d="M1638.4,1225.2c0-50.6,0-101.2,0-151.8c-8.3,0.6-16.7,1.2-25,1.8c14.9-22,29.8-44,44.6-66.1c12.5,19.6,25,39.3,37.5,58.9
		c-7.7,1.2-15.5,2.4-23.2,3.6c-0.6,48.2-1.2,96.4-1.8,144.6C1659.8,1219.3,1649.1,1222.3,1638.4,1225.2z"/>
	<g>
		<circle class="st1" cx="516.1" cy="1388.6" r="336.6"/>
		<polyline class="st2" points="319.9,1370 439,1529 713.1,1313.1 		"/>
	</g>
</g>
</svg>
