<?xml version="1.0" encoding="utf-8"?>
<!-- Generator: Adobe Illustrator 26.0.1, SVG Export Plug-In . SVG Version: 6.00 Build 0)  -->
<svg version="1.1" id="Layer_1" xmlns="http://www.w3.org/2000/svg" xmlns:xlink="http://www.w3.org/1999/xlink" x="0px" y="0px"
	 viewBox="0 0 512 512" style="enable-background:new 0 0 512 512;" xml:space="preserve">
<style type="text/css">
	.st0{fill:#454545;}
	.st1{fill:#FBB810;}
</style>
<g>
	<g>
		<path class="st0" d="M168.8,307.2c-19.9,0-36.1,16.2-36.1,36.1c0,19.9,16.2,36.1,36.1,36.1c19.9,0,36.1-16.2,36.1-36.1
			C204.9,323.4,188.7,307.2,168.8,307.2z M168.8,368.6c-14,0-25.3-11.3-25.3-25.3c0-14,11.3-25.3,25.3-25.3
			c14,0,25.3,11.3,25.3,25.3C194.1,357.3,182.8,368.6,168.8,368.6z"/>
		<path class="st0" d="M413.8,307.2c-19.9,0-36.1,16.2-36.1,36.1c0,19.9,16.2,36.1,36.1,36.1c19.9,0,36.1-16.2,36.1-36.1
			C449.9,323.4,433.7,307.2,413.8,307.2z M413.8,368.6c-14,0-25.3-11.3-25.3-25.3c0-14,11.3-25.3,25.3-25.3s25.3,11.3,25.3,25.3
			C439.1,357.3,427.8,368.6,413.8,368.6z"/>
		<path class="st0" d="M84.5,307.2c-19.9,0-36.1,16.2-36.1,36.1c0,19.9,16.2,36.1,36.1,36.1c19.9,0,36.1-16.2,36.1-36.1
			C120.6,323.4,104.4,307.2,84.5,307.2z M84.5,368.6c-14,0-25.3-11.3-25.3-25.3c0-14,11.3-25.3,25.3-25.3s25.3,11.3,25.3,25.3
			C109.8,357.3,98.4,368.6,84.5,368.6z"/>
	</g>
	<path class="st0" d="M300.3,132.6H42.1c-9.5,0-17.3,7.8-17.3,17.3V326c0,4.8,1.4,9.9,5.1,12.2c8.1,5.1,9.9-4.4,11.3-8.6
		c5.8-18.4,23-31.7,43.4-31.7c13.4,0,25.4,5.8,33.8,15c3.5,3.9,13,4.4,16.3,0.6c8.3-9.6,20.6-15.6,34.3-15.6
		c20.6,0,37.5,13.8,43.6,32.4c2.6,7.9,9.7,13.1,14.6,13.1c19.5,0,73.3,0,73.3,0c9.5,0,17.3-7.8,17.3-17.3V149.9
		C317.6,140.4,309.8,132.6,300.3,132.6z"/>
	<path class="st1" d="M482.8,311.7c-1.4-42.5-20.3-37.9-31.9-66.6c-24.1-59.8-47.2-67.9-79.5-67.9c-18.2,0-28.1,0-28.1,0
		c-8.5,0-12.7,8.2-12.7,17.8v131.3c0,9.5,7.8,17.2,17.3,17c0,0,4-0.4,10.4-0.2c6.5,0.2,10.5-6.9,11.2-10.2
		c4.7-20.1,22.7-35.1,44.3-35.1c20.3,0,37.2,13.4,43.3,31.7c2.7,8.1,8.4,10.6,11.3,10.2c5.5-0.7,7.7-4.1,10.1-7.5
		c4.9-0.8,8.7-5.5,8.7-11.2C487.3,317.2,485.5,313.7,482.8,311.7z M418,251.8H363c-9.5,0-17.3-7.8-17.3-17.3v-23.7
		c0-9.5,5.7-17.3,15.2-17.3h5.5c9.5,0,16,0.3,26.2,1.8c7.8,1.1,15.2,5.6,27.5,23.3c7,10.1,9.5,16.6,10.5,23.5
		C431.4,248.1,427.6,251.8,418,251.8z"/>
</g>
</svg>
