<?xml version="1.0" encoding="utf-8"?>
<!-- Generator: Adobe Illustrator 26.0.1, SVG Export Plug-In . SVG Version: 6.00 Build 0)  -->
<svg version="1.1" id="Layer_1" xmlns="http://www.w3.org/2000/svg" xmlns:xlink="http://www.w3.org/1999/xlink" x="0px" y="0px"
	 viewBox="0 0 2000 2000" style="enable-background:new 0 0 2000 2000;" xml:space="preserve">
<style type="text/css">
	.st0{fill:#FBB810;}
	.st1{fill:#454545;}
	.st2{fill:#FBB810;stroke:#454545;stroke-width:8.9916;stroke-miterlimit:10;}
	.st3{fill:none;stroke:#454545;stroke-width:19.1591;stroke-linecap:round;stroke-dasharray:95.7955,70.2501;}
</style>
<g>
	<path class="st0" d="M836.9,781.2c80.7-8.4,112.5,22.7,117.4,91c65.3-22.4,115.7-39.6,115.7-39.6L951.2,503.7L581.1,628.2
		c21.3,67.2,41.1,120.1,63.3,181.6C669.3,805.4,768.7,788.2,836.9,781.2z"/>
	<g>
		<path class="st1" d="M931.3,859.9c-7.8-42.2-48.2-70-90.4-62.3l-184.5,34L552.5,693.5c-11.5-48.6-54.7-85-106.9-85.4
			c-0.3,0-0.5,0-0.7,0c-60.9,0-110.5,49.2-110.9,110.2l-2.8,391.9c-0.4,59,45.4,91.6,103.6,143.1l164.5,147.3l36,261.1
			c5.4,38.9,38.7,67,76.8,67c3.5,0,7.1-0.2,10.7-0.7c42.5-5.8,72.2-45,66.3-87.5l-39.9-289.3c-2.5-18.2-11.4-34.9-25.1-47.2
			l-171.8-153.9c0.1-2.1,0.7-4.1,0.7-6.2l0.9-142.2c-4.6-7.7-63.4-104.9-97.9-178.2l105.2,139.8c14.8,19.7,37.9,31,62,31
			c4.7,0,9.4-0.4,14.1-1.3L869,950.3C911.2,942.6,939.1,902.1,931.3,859.9z"/>
		<path class="st1" d="M323.9,1201.9L136.3,1627c-17.3,39.2,0.5,85.1,39.7,102.4c10.2,4.5,20.8,6.6,31.3,6.6
			c29.8,0,58.3-17.3,71.1-46.3l167-378.6C412.2,1286.4,361.3,1245.5,323.9,1201.9z"/>
		<path class="st1" d="M439.4,596.6c2.3,0.1,4.6,0.2,6.9,0.2c80.1,0,145.8-62.7,149.5-142.7c0.9-19.4-2-38.5-8.2-56.3l-283.5,96
			c6.5,19.8,17,38.3,31.5,54.2C362.6,577.4,399.4,594.7,439.4,596.6z"/>
	</g>
	<path class="st0" d="M655.2,354.2L295.8,475.9c0,0-31.2-100.9,37.7-146c55.9-36.6,112.7-48.7,162.8-33.9
		c45.5,13.4,73.6,53.3,73.6,53.3s85.4-16.9,90.9-13.9C677.3,344.5,661.5,350.7,655.2,354.2z"/>
</g>
<path class="st2" d="M1779.4,353.7c-95.3,0-172.6,77.3-172.6,172.6c0,95.3,172.6,335.6,172.6,335.6S1952,621.6,1952,526.3
	C1952,431,1874.7,353.7,1779.4,353.7z M1779.4,585.5c-36.6,0-66.3-29.7-66.3-66.3c0-36.6,29.7-66.3,66.3-66.3
	c36.6,0,66.3,29.7,66.3,66.3C1845.7,555.8,1816,585.5,1779.4,585.5z"/>
<path class="st3" d="M1779.7,912.9c-92.3,432.3-203.3,550.8-297.2,563.6c-102.1,13.9-164.3-100-309-105
	c-152.9-5.3-284.4,114.8-379,232"/>
</svg>
