<?xml version="1.0" encoding="utf-8"?>
<!-- Generator: Adobe Illustrator 26.0.1, SVG Export Plug-In . SVG Version: 6.00 Build 0)  -->
<svg version="1.1" id="Layer_1" xmlns="http://www.w3.org/2000/svg" xmlns:xlink="http://www.w3.org/1999/xlink" x="0px" y="0px"
	 viewBox="0 0 2000 2000" style="enable-background:new 0 0 2000 2000;" xml:space="preserve">
<style type="text/css">
	.st0{clip-path:url(#SVGID_00000083801785228466651290000001828067479450266258_);fill:#FBB810;}
	.st1{clip-path:url(#SVGID_00000083801785228466651290000001828067479450266258_);fill:#FFE98A;}
	.st2{fill:#6F675C;}
	.st3{fill:#C2B3A1;}
	.st4{fill:#4D463F;}
	.st5{fill:#454545;}
	.st6{fill:#424AA8;}
	.st7{fill:#FFDC7F;}
</style>
<g>
	<g>
		<defs>
			<path id="SVGID_1_" d="M83.3,527.5v706.2c0,19.6,20.6,35.5,46,35.5h157.7c33.8-95,125.3-157.8,225.5-155
				c98.3,2.7,184.9,68,215,162.2c156.6-2.4,313.2-4.8,469.9-7.2c25.3,0,46-15.9,46-35.5V527.5c0-19.6-20.6-35.5-46-35.5H128.8
				C103.5,492,83.3,507.9,83.3,527.5z"/>
		</defs>
		<clipPath id="SVGID_00000174590325939008265510000006273436276221490095_">
			<use xlink:href="#SVGID_1_"  style="overflow:visible;"/>
		</clipPath>
		<path style="clip-path:url(#SVGID_00000174590325939008265510000006273436276221490095_);fill:#FBB810;" d="M82.3,527.5v706.2
			c0,19.6,20.6,35.5,46,35.5H286c33.8-95,125.3-157.8,225.5-155c98.3,2.7,184.9,68,215,162.2c156.6-2.4,313.2-4.8,469.9-7.2
			c25.3,0,46-15.9,46-35.5V527.5c0-19.6-20.6-35.5-46-35.5H127.8C102.5,492,82.3,507.9,82.3,527.5z"/>
		
			<rect x="511.1" y="1031.1" style="clip-path:url(#SVGID_00000174590325939008265510000006273436276221490095_);fill:#FFE98A;" width="304.4" height="168.3"/>
		
			<rect x="861.4" y="1031.1" style="clip-path:url(#SVGID_00000174590325939008265510000006273436276221490095_);fill:#FFE98A;" width="304.4" height="168.3"/>
		
			<rect x="511.1" y="800" style="clip-path:url(#SVGID_00000174590325939008265510000006273436276221490095_);fill:#FFE98A;" width="304.4" height="168.3"/>
		
			<rect x="861.4" y="800" style="clip-path:url(#SVGID_00000174590325939008265510000006273436276221490095_);fill:#FFE98A;" width="304.4" height="168.3"/>
	</g>
	<g>
		<ellipse transform="matrix(0.7071 -0.7071 0.7071 0.7071 -797.1028 757.0849)" cx="515.3" cy="1340.7" rx="147.5" ry="147.5"/>
		<ellipse class="st2" cx="515.3" cy="1340.7" rx="86.6" ry="86.6"/>
		<ellipse class="st3" cx="515.1" cy="1340.7" rx="66.7" ry="66.7"/>
		<g>
			<g>
				<path class="st4" d="M509.6,1310.7c4,4,10.5,4.3,14.5,0.4c4-4,4.3-10.5,0.4-14.5c-4-4-10.5-4.3-14.5-0.4
					C505.6,1300.2,505.6,1306.3,509.6,1310.7z"/>
			</g>
			<g>
				<path class="st4" d="M467.9,1349.5c4,4,10.5,4.3,14.5,0.4c4-4,4.3-10.5,0.4-14.5c-4-4-10.5-4.3-14.5-0.4
					C464.3,1339,464.3,1345.1,467.9,1349.5z"/>
			</g>
			<g>
				<path class="st4" d="M545.8,1349.5c4,4,10.5,4.3,14.5,0.4c4-4,4.3-10.5,0.4-14.5c-4-4-10.5-4.3-14.5-0.4
					C542.2,1339,541.8,1345.5,545.8,1349.5z"/>
			</g>
			<g>
				<path class="st4" d="M504.5,1388.2c4,4,10.5,4.3,14.5,0.4c4-4,4.3-10.5,0.4-14.5s-10.5-4.3-14.5-0.4
					C500.9,1377.7,500.5,1384.2,504.5,1388.2z"/>
			</g>
		</g>
	</g>
	<g>
		<circle cx="1581.8" cy="1349.1" r="147.5"/>
		<circle class="st2" cx="1581.8" cy="1349.1" r="86.6"/>
		<ellipse class="st3" cx="1581.8" cy="1349.1" rx="66.7" ry="66.7"/>
		<g>
			<g>
				<path class="st4" d="M1576,1318.7c4,4,10.5,4.3,14.5,0.4c4-4,4.3-10.5,0.4-14.5c-4-4-10.5-4.3-14.5-0.4
					C1572.3,1308.2,1572,1314.7,1576,1318.7z"/>
			</g>
			<g>
				<path class="st4" d="M1534.7,1357.5c4,4,10.5,4.3,14.5,0.4c4-4,4.3-10.5,0.4-14.5c-4-4-10.5-4.3-14.5-0.4
					C1530.7,1347,1530.7,1353.5,1534.7,1357.5z"/>
			</g>
			<g>
				<path class="st4" d="M1612.2,1357.8c4,4,10.5,4.3,14.5,0.4c4-4,4.3-10.5,0.4-14.5c-4-4-10.5-4.3-14.5-0.4
					C1608.6,1347,1608.6,1353.5,1612.2,1357.8z"/>
			</g>
			<g>
				<path class="st4" d="M1570.9,1396.6c4,4,10.5,4.3,14.5,0.4c4-4,4.3-10.5,0.4-14.5c-4-4-10.5-4.3-14.5-0.4
					C1567.3,1385.7,1566.9,1392.3,1570.9,1396.6z"/>
			</g>
		</g>
	</g>
	<path class="st5" d="M1844.1,947.3l-247.8-310.1c-4.7-5.8-11.6-9.1-19.2-9.1h-279c-13.4,0-24.6,10.9-24.6,24.6v647.8h105.1
		c22.1-91.3,104.3-159.4,202.5-159.4s180.4,68.1,202.5,159.4h109.1v-214.1C1892.6,1035.4,1875.6,986.5,1844.1,947.3z M1657.8,930.7
		h-272.5c-21.4,0-38.4-19.2-38.4-42.8V734.7c0-23.6,17-42.8,38.4-42.8h162.3c11.6,0,22.8,5.8,30.1,15.9l110.1,153.3
		C1707.8,889.4,1690.1,930.7,1657.8,930.7z"/>
	<path d="M1892.3,1261.7h-77.5c-4.3,0-8.3-2.5-9.8-6.5c-33.7-91.7-121.7-152.9-219.2-152.9c-22.5,0-44.2,3.3-65.2,9.4V999.4
		c0-3.3-2.5-6.2-6.2-6.2h-190.2c-3.3,0-6.2,2.5-6.2,6.2V1262c0,0,0,0,0,0.4h-75.6h-14.1H760.9h-11.2h-6l-2.9,2.9
		c-0.6,0.6-1.5-0.3-0.9-0.9l1.9-1.9h-1.2c-4.3,0-8.3-2.5-9.8-6.5c-33.7-91.7-121.7-152.9-219.2-152.9s-185.5,61.6-219.2,152.9
		c-1.4,4-5.4,6.5-9.8,6.5H128.4c-13.8,0-24.6,11.2-24.6,24.6s11.2,24.6,24.6,24.6h155.1c25,0,47.8-15.6,56.2-38.8
		c26.4-72.1,95.7-120.7,172.8-120.7c76.8,0,146.4,48.6,172.8,120.7c8.3,23.2,31.2,38.8,56.2,38.8h8.3h11.2h467.4h14.1h113
		c2.2,0,4-0.4,5.8-0.7c23.6-1.4,44.2-16.7,52.2-38.8c26.4-72.1,95.7-120.7,172.8-120.7c76.8,0,146.4,48.6,172.8,120.7
		c8.3,23.2,31.2,38.8,56.2,38.8h77.5c13.8,0,24.6-11.2,24.6-24.6S1905.7,1261.7,1892.3,1261.7z M1508.2,1115.3
		c-64.1,22.8-117,73.6-141.7,139.9c-1.4,4-5.4,6.5-9.8,6.5c-1.8,0-3.6,0.4-5.4,0.7H1330c0,0,0,0,0-0.4v-256.9h178.3V1115.3z"/>
	<path d="M1391.8,1065.5h-22.1c-3.3,0-6.2,2.5-6.2,6.2c0,3.3,2.5,6.2,6.2,6.2h22.1c3.3,0,6.2-2.5,6.2-6.2
		S1395.1,1065.5,1391.8,1065.5z"/>
	<path class="st6" d="M1383.2,914.4"/>
	<path class="st7" d="M1898.4,1261.1H1881v-145.7h17.4c8.7,0,15.9,7.2,15.9,15.9v114.1C1914.4,1254.2,1907.1,1261.1,1898.4,1261.1z"
		/>
</g>
</svg>
