<?xml version="1.0" encoding="utf-8"?>
<!-- Generator: Adobe Illustrator 26.0.1, SVG Export Plug-In . SVG Version: 6.00 Build 0)  -->
<svg version="1.1" id="Layer_1" xmlns="http://www.w3.org/2000/svg" xmlns:xlink="http://www.w3.org/1999/xlink" x="0px" y="0px"
	 viewBox="0 0 2000 2000" style="enable-background:new 0 0 2000 2000;" xml:space="preserve">
<style type="text/css">
	.st0{fill:#FFFFFF;stroke:#454545;stroke-width:27.0685;stroke-linecap:round;stroke-linejoin:round;}
	.st1{fill:#FFFFFF;stroke:#454545;stroke-width:26.3073;stroke-linecap:round;stroke-linejoin:round;}
	.st2{fill:#454545;}
	.st3{opacity:0.33;enable-background:new    ;}
	.st4{fill:#FFFFFF;}
	.st5{fill:#DEDEDE;}
	.st6{fill:none;stroke:#454545;stroke-width:26.3073;stroke-linecap:round;stroke-linejoin:round;}
	.st7{fill:#FBB810;stroke:#454545;stroke-width:96.1826;stroke-miterlimit:10;}
	.st8{fill:#FBB810;stroke:#454545;stroke-width:94.9433;stroke-miterlimit:10;}
	.st9{fill:#FBB810;}
	.st10{fill:none;stroke:#454545;stroke-width:31.9192;stroke-linecap:round;stroke-linejoin:round;}
	.st11{fill:#FFFFFF;stroke:#454545;stroke-width:17.7355;stroke-linecap:round;stroke-linejoin:round;}
	.st12{fill:#FBB810;stroke:#454545;stroke-width:8.3545;stroke-miterlimit:10;}
</style>
<g>
	<g>
		<path class="st0" d="M1547.1,1373.7l76.5-1.1c26.9-0.4,51.6-12.2,55.2-26.4l20.8-81.8c3.6-14.2-19.3-9.2-46.2-8.9l-1323.2,18.9
			c-26.8,0.4-51.6,12.2-55.1,26.4l-16.7,65.6c-3.6,14.2,15.2,25.4,42.1,25l914-1.9"/>
		<path class="st1" d="M164.7,1326c0,0,0-0.1,0-0.1c0.1-16.2,13.3-29.3,29.6-29.2l74.7-0.6c16.3-0.3,29.8,12.6,30.2,28.9l1.3,132.1
			c0,0,0,0.1,0,0.1c-0.1,16.3-13.3,29.4-29.6,29.3l-74.7,0.6c-16.3,0.3-29.7-12.6-30.1-28.9L164.7,1326z"/>
		<path class="st2" d="M163.6,1220c0.5,48.6,1,104.1,1,104.1c0.4,45.7,42,82.4,92.8,82l83.6-0.7l-0.4-1.5c0,0,18.5-88.8,138.6-94.5
			c68.2-3.2,135-1.5,146.1-1.2l-3.7-374c-0.5-45.7-42-82.4-92.8-82l-125.4,1c-90.9,0.7-136.3,69.5-161.2,109.3
			C213.5,1008.4,162.1,1071.1,163.6,1220z"/>
		<path class="st3" d="M163.7,1220c0.5,48.6,1,104.1,1,104.1c0.4,45.7,42,82.4,92.8,82l77.4-0.6c-45.5-4.8-81-39.2-81.4-81.4
			c0,0-0.5-55.4-1-104.1c-1.5-148.9,49.8-211.6,78.6-257.5c24.9-39.8,70.3-108.5,161.2-109.3l48-0.4c-3.8-0.4-7.6-0.6-11.4-0.6
			l-125.4,1c-90.9,0.7-136.3,69.5-161.2,109.3C213.5,1008.4,162.1,1071.1,163.7,1220z"/>
		<path class="st4" d="M152.5,1172l127.2-0.2l55.2-44.5l191.9-1.3l-2.3-209.7H259.3c-10.2,13-19.5,26.5-28.1,40.6
			c-2.8,4.4-5.8,8.9-8.9,13.6C197,1009.5,160.3,1066.1,152.5,1172z"/>
		<path class="st5" d="M222.4,970.5c-25.4,39-62.2,95.5-70,201.4l101.6-0.1c8.6-114.9,51.7-168.7,77.1-209.3
			c9.8-16.2,20.9-31.6,33.1-46.2H259.2c-10.2,13-19.5,26.5-28.1,40.6C228.5,961.3,225.5,965.8,222.4,970.5z"/>
		<path class="st6" d="M163.6,1220c0.5,48.6,1,104.1,1,104.1c0.4,45.7,42,82.4,92.8,82l83.6-0.7l-0.4-1.5c0,0,18.5-88.8,138.6-94.5
			c68.2-3.2,135-1.5,146.1-1.2l-3.7-374c-0.5-45.7-42-82.4-92.8-82l-125.4,1c-90.9,0.7-136.3,69.5-161.2,109.3
			C213.5,1008.4,162.1,1071.1,163.6,1220z"/>
		<path class="st7" d="M499.7,1379.1c58.6-0.5,106.5,47.2,107.1,106.5c0.6,59.3-46.4,107.7-105,108.2s-106.5-47.2-107.1-106.5
			C394.1,1428,441.1,1379.6,499.7,1379.1z"/>
		<path class="st8" d="M1391.2,1372.6c58.6-0.5,106.5,46,107.1,103.8s-46.5,105-105.1,105.5c-58.6,0.5-106.5-46-107.1-103.8
			C1285.6,1420.3,1332.7,1373,1391.2,1372.6z"/>
		<path class="st9" d="M714.3,805.9c-0.4-40.5,52.9-73.7,119.1-74.2l772.3-5.3c66.1-0.5,120.1,31.8,120.5,72.3l4.8,493l-1012,7.2
			L714.3,805.9z"/>
		<path class="st3" d="M714.3,805.9l4.9,493l141.5-1l-4.9-492c-0.4-40.5,35.7-73.5,80.7-73.9H795C750,732.4,713.9,765.5,714.3,805.9
			z"/>
		<path class="st10" d="M714.3,805.9c-0.4-40.5,52.9-73.7,119.1-74.2l772.3-5.3c66.1-0.5,120.1,31.8,120.5,72.3l4.8,493l-1012,7.2
			L714.3,805.9z"/>
		<path class="st1" d="M1680.4,1177C1680.4,1176.9,1680.4,1176.9,1680.4,1177c0-11.5,9.4-20.8,20.9-20.8l59.5-0.5
			c11.5-0.2,21,8.9,21.2,20.4l0.4,41.6c0,0,0,0,0,0c0,11.5-9.4,20.8-20.9,20.7l-59.5,0.5c-11.5,0.2-21-8.9-21.2-20.4L1680.4,1177z"
			/>
	</g>
	<circle class="st11" cx="1557.6" cy="696.2" r="290"/>
	<g>
		<polygon class="st12" points="1657.2,604.9 1435.2,604.9 1435.6,555.9 1351.3,641.2 1434,724.8 1434.5,676.4 1657.2,676.4 		"/>
		<polygon class="st12" points="1458,716.5 1680,716.5 1679.5,667.5 1763.9,752.7 1681.1,836.4 1680.7,788 1458,788 		"/>
	</g>
</g>
</svg>
