<?xml version="1.0" encoding="utf-8"?>
<!-- Generator: Adobe Illustrator 26.0.1, SVG Export Plug-In . SVG Version: 6.00 Build 0)  -->
<svg version="1.1" id="Layer_1" xmlns="http://www.w3.org/2000/svg" xmlns:xlink="http://www.w3.org/1999/xlink" x="0px" y="0px"
	 viewBox="0 0 2000 2000" style="enable-background:new 0 0 2000 2000;" xml:space="preserve">
<style type="text/css">
	.st0{fill:#454545;}
	.st1{fill:#FBB810;}
</style>
<g>
	<path class="st0" d="M999.8,1311.6c-29.3,0-53.2-23.9-53.2-53.2c0-29.4,23.9-53.3,53.2-53.3c29.4,0,53.2,23.9,53.2,53.3
		C1053,1287.7,1029.2,1311.6,999.8,1311.6z"/>
	<path class="st0" d="M999.8,620.6c-129.4,0-234.7-105.3-234.7-234.7c0-129.4,105.3-234.7,234.7-234.7s234.7,105.3,234.7,234.7
		C1234.5,515.3,1129.2,620.6,999.8,620.6z M999.8,195.8c-104.8,0-190.1,85.3-190.1,190.1C809.7,490.7,895,576,999.8,576
		c104.8,0,190.1-85.3,190.1-190.1C1189.9,281,1104.6,195.8,999.8,195.8z"/>
	<polygon class="st1" points="1093.8,444.2 905.9,444.2 905.9,524.9 952.1,524.9 952.1,698.4 1047.5,698.4 1047.5,524.9 
		1093.8,524.9 	"/>
	<path class="st0" d="M1118.7,679.8v-33.2H877.9v33.8c-267.4,56.3-468.7,294.1-468.7,577.9c0,325.7,264.9,590.6,590.6,590.6
		s590.6-264.9,590.6-590.6C1590.4,973.4,1387.5,735,1118.7,679.8z M999.8,1782.1c-288.8,0-523.7-235-523.7-523.7
		c0-288.8,234.9-523.7,523.7-523.7c288.8,0,523.7,235,523.7,523.7C1523.5,1547.2,1288.6,1782.1,999.8,1782.1z"/>
	<polygon class="st1" points="511.9,771.3 565.4,835 674.6,743.4 621.1,679.6 	"/>
	<polygon class="st1" points="1378.5,679.6 1325,743.4 1434.2,835 1487.7,771.3 	"/>
	<path class="st0" d="M971.9,772.9h69.9v106.2h-69.9V772.9z M971.9,1742.7h69.9v-106.2h-69.9V1742.7z M522,1292.8h106.2v-69.9H522
		V1292.8z M1385.6,1222.9v69.9h106.2v-69.9H1385.6z"/>
	<g>
		<g>
			<polygon class="st1" points="861.8,794.7 900.9,784.2 928.4,886.8 889.3,897.3 			"/>
			<polygon class="st1" points="1085.3,1628.9 1124.4,1618.4 1151.9,1720.9 1112.8,1731.4 			"/>
			<polygon class="st1" points="746.9,848 781.9,827.8 835,919.7 799.9,940 			"/>
			<polygon class="st1" points="1178.7,1595.9 1213.7,1575.7 1266.8,1667.6 1231.7,1687.9 			"/>
			<polygon class="st1" points="649.6,929.3 678.3,900.7 753.4,975.7 724.7,1004.4 			"/>
			<polygon class="st1" points="1260.3,1540 1288.9,1511.4 1364,1586.4 1335.4,1615 			"/>
			<polygon class="st1" points="576.8,1033 597,997.9 689,1051 668.7,1086 			"/>
			<polygon class="st1" points="1324.7,1464.8 1345,1429.7 1436.8,1482.8 1416.6,1517.8 			"/>
			<polygon class="st1" points="533.3,1151.9 543.7,1112.8 646.3,1140.3 635.8,1179.4 			"/>
			<polygon class="st1" points="1367.4,1375.5 1377.9,1336.3 1480.4,1363.8 1470,1402.9 			"/>
			<polygon class="st1" points="543.7,1402.9 533.2,1363.8 635.8,1336.3 646.3,1375.5 			"/>
			<polygon class="st1" points="1377.9,1179.4 1367.4,1140.3 1470,1112.9 1480.5,1151.9 			"/>
			<polygon class="st1" points="597.1,1517.8 576.8,1482.8 668.8,1429.7 689,1464.8 			"/>
			<polygon class="st1" points="1345,1086 1324.7,1051 1416.7,997.9 1436.9,1033 			"/>
			<polygon class="st1" points="678.3,1615.1 649.7,1586.5 724.8,1511.4 753.4,1540 			"/>
			<polygon class="st1" points="1289,1004.4 1260.4,975.7 1335.4,900.7 1364,929.3 			"/>
			<polygon class="st1" points="782,1687.9 746.9,1667.7 800,1575.7 835.1,1595.9 			"/>
			<polygon class="st1" points="1213.8,940 1178.7,919.7 1231.8,827.9 1266.9,848.1 			"/>
			<polygon class="st1" points="901,1731.5 861.8,1721.1 889.3,1618.4 928.4,1628.9 			"/>
			<polygon class="st1" points="1124.4,897.3 1085.3,886.8 1112.8,784.3 1152,794.8 			"/>
		</g>
	</g>
	<path class="st0" d="M1102,1153.2L1251.7,894l-52.1-30.1l-148.4,257c-16-6-33.3-9.3-51.4-9.3c-80.9,0-146.7,65.8-146.7,146.8
		s65.8,146.7,146.7,146.7c80.9,0,146.7-65.8,146.7-146.7C1146.6,1217.2,1129.5,1179.9,1102,1153.2z M999.8,1360.6
		c-56.3,0-102.2-45.9-102.2-102.2c0-56.4,45.8-102.2,102.2-102.2c56.3,0,102.2,45.8,102.2,102.2
		C1102,1314.7,1056.2,1360.6,999.8,1360.6z"/>
</g>
</svg>
