<?xml version="1.0" encoding="utf-8"?>
<!-- Generator: Adobe Illustrator 26.0.1, SVG Export Plug-In . SVG Version: 6.00 Build 0)  -->
<svg version="1.1" id="Layer_1" xmlns="http://www.w3.org/2000/svg" xmlns:xlink="http://www.w3.org/1999/xlink" x="0px" y="0px"
	 viewBox="0 0 2000 2000" style="enable-background:new 0 0 2000 2000;" xml:space="preserve">
<style type="text/css">
	.st0{opacity:0.28;}
	.st1{clip-path:url(#SVGID_00000119833643440680245920000005759995088796821154_);}
	.st2{fill:#FBB810;}
	.st3{fill:#FFE894;}
	.st4{fill:#454545;}
	.st5{fill:none;stroke:#FBAE17;stroke-width:30;stroke-miterlimit:10;}
	.st6{clip-path:url(#SVGID_00000008857934836575919620000001003442627100023443_);fill:#454545;}
</style>
<g>
	<g>
		
			<rect x="269.4" y="803.2" transform="matrix(-1 -4.489798e-11 4.489798e-11 -1 1135.3693 2283.7883)" class="st0" width="596.5" height="677.5"/>
		<g>
			<defs>
				
					<rect id="SVGID_1_" x="270.1" y="803.2" transform="matrix(-1 -4.489488e-11 4.489488e-11 -1 1136.6746 2283.7883)" width="596.5" height="677.5"/>
			</defs>
			<clipPath id="SVGID_00000122706344508635254230000010338636133916426166_">
				<use xlink:href="#SVGID_1_"  style="overflow:visible;"/>
			</clipPath>
			<g style="clip-path:url(#SVGID_00000122706344508635254230000010338636133916426166_);">
				<g>
					
						<rect x="706" y="1270.5" transform="matrix(-1 -4.489443e-11 4.489443e-11 -1 1701.8759 2751.0911)" class="st2" width="289.8" height="210.2"/>
					<path class="st3" d="M840.5,1368.4h31.2c15.2,0,27.5-12.3,27.5-27.5v-70.4h-58.7V1368.4z"/>
				</g>
				<g>
					
						<rect x="384.9" y="1270.5" transform="matrix(-1 -4.490687e-11 4.490687e-11 -1 1059.661 2751.0911)" class="st2" width="289.8" height="210.2"/>
					<path class="st3" d="M519.4,1368.4h31.2c15.2,0,27.5-12.3,27.5-27.5v-70.4h-58.7V1368.4z"/>
				</g>
				<g>
					
						<rect x="703.4" y="1029" transform="matrix(-1 -4.490065e-11 4.490065e-11 -1 1696.6547 2268.1245)" class="st2" width="289.8" height="210.2"/>
					<path class="st3" d="M837.9,1126.9h31.2c15.2,0,27.5-12.3,27.5-27.5V1029h-58.7V1126.9z"/>
				</g>
				<g>
					
						<rect x="382.3" y="1029" transform="matrix(-1 -4.490687e-11 4.490687e-11 -1 1054.4398 2268.1245)" class="st2" width="289.8" height="210.2"/>
					<path class="st3" d="M516.8,1126.9H548c15.2,0,27.5-12.3,27.5-27.5V1029h-58.7V1126.9z"/>
				</g>
			</g>
		</g>
		
			<rect x="251.8" y="718.3" transform="matrix(-1 -4.489665e-11 4.489665e-11 -1 1135.3693 1521.4846)" class="st4" width="631.8" height="84.8"/>
	</g>
	<g>
		<path class="st5" d="M140.3,529.3v951.1h1437.4V529.3c-239.8-94.4-479.6-188.8-719.4-283.2C618.9,340.5,379.6,434.9,140.3,529.3z"
			/>
		<g>
			<g>
				<defs>
					<path id="SVGID_00000072961121743613790510000013985056444868197039_" d="M140.3,563.1v951.1h1437.4V563.1
						c-239.8-94.4-479.6-188.8-719.4-283.2C618.9,374.3,379.6,468.7,140.3,563.1z"/>
				</defs>
				<clipPath id="SVGID_00000065059456734534772420000017859098642167209091_">
					<use xlink:href="#SVGID_00000072961121743613790510000013985056444868197039_"  style="overflow:visible;"/>
				</clipPath>
				<polygon style="clip-path:url(#SVGID_00000065059456734534772420000017859098642167209091_);fill:#454545;" points="
					1475.9,279.9 1475.9,544.5 1386.9,544.5 1386.9,279.9 1285.1,279.9 1285.1,544.5 1196.1,544.5 1196.1,279.9 1094.3,279.9 
					1094.3,544.5 1005.3,544.5 1005.3,279.9 903.5,279.9 903.5,544.5 814.5,544.5 814.5,279.9 712.7,279.9 712.7,544.5 623.7,544.5 
					623.7,279.9 521.9,279.9 521.9,544.5 432.9,544.5 432.9,279.9 331.1,279.9 331.1,544.5 242.1,544.5 242.1,279.9 140.3,279.9 
					140.3,544.5 140.3,603.2 1577.7,603.2 1577.7,544.5 1577.7,279.9 				"/>
			</g>
			<polygon class="st2" points="79.5,537 851.8,212.3 1638.4,537 1638.4,614.2 1556.9,614.2 859,328.2 158.2,614.2 79.5,614.2 			
				"/>
		</g>
	</g>
	<g>
		<g>
			<path class="st4" d="M1762.7,1459.7c-1.8-69.8-4.3-158.4-5.1-205.9c-0.8-41.4-12.9-55.5-88.6-47.3
				c-117.9,12.7-137.1,25.9-145.5,61.2c-7.3,31-38.8,166.7-58.2,251c10-0.2,20.2-0.4,29.4-1.2c1.8-0.2,3.5-0.2,5.1-0.2
				c19.6-84.5,49-212,56.1-242c3.1-13.3,5.5-23.7,116.7-35.7c12.7-1.4,22.9-2,31.4-2c11.4,0,16.9,1.2,19,2c0.4,1.8,1.2,6.1,1.4,15.1
				c0.8,48.6,3.3,141.4,5.3,212.2C1739.7,1463.6,1750.7,1461.4,1762.7,1459.7z"/>
			<path class="st4" d="M1709.5,1477.1c5.1-47.5,8.4-94.1,3.7-107.9c-11.4-34.1-33.1-36.7-35.9-17.8c-2.9,19,3.7,73.9-9.2,137.1
				c-6.3,31-14.1,86.1-31.2,82.2c-33.9-8-57.3-14.1-65.3,8c3.3,4.9,9.8,8.4,23.3,8.4c49.8,0,61-6.1,63.5-8.6
				c8.6-10.4,26.9-53.9,34.7-80C1695.6,1489.3,1701.3,1482.2,1709.5,1477.1z"/>
			<path class="st4" d="M1527.7,1503.8l-7.1,14.7c13.7,2.4,27.5,8.8,36.9,23.3l8-16.5c15.5,4.1,28.8,2.7,33.3-5.5
				c6.3-11.4-6.9-31-29.8-43.7c-22.9-12.9-46.5-14.1-52.9-2.7C1511.7,1481.4,1516.9,1492.8,1527.7,1503.8z"/>
		</g>
		<path class="st4" d="M1783.8,1624.4c30.2,0,54.7,24.5,54.7,54.7s-24.5,54.7-54.7,54.7s-54.7-24.5-54.7-54.7
			C1729.1,1648.9,1753.6,1624.4,1783.8,1624.4z"/>
		<path class="st4" d="M1356.1,1678.9c0,59.8,48.6,108.6,108.6,108.6c51.2,0,94.1-35.5,105.5-83.1c3.7,0.2,7.1,0.2,10.8,0.2
			c39.4,0,71.2-0.6,97.1-1.6c11,48.4,54.3,84.7,105.9,84.7c59.8,0,108.6-48.8,108.6-108.6c0-0.8-0.2-1.6-0.2-2.7
			c16.7-2.2,28.4-6.3,28.2-14.1c0,0-7.3-82.6-8.8-105.9c-1.4-23.1-13.3-76.9-49.2-77.3c-43.5-0.6-139.4-4.3-148.4,25.5
			c-6.9,23.1-26.5,72.6-39,87.7c-12.7,15.1-50.6,16.5-80.6,16.5c-29.8,0-44.7-14.1-48.8-36.9c-4.1-22.9-16.5-35.7-49-32.6
			c-32.4,3.1-72.8-1.2-86.7,8c-8.6,5.9-20.6,33.3-26.9,60.2C1366.3,1626.7,1356.1,1651.6,1356.1,1678.9z M1697.2,1679.1
			c0-47.8,38.8-86.5,86.5-86.5s86.5,38.8,86.5,86.5c0,47.8-38.8,86.5-86.5,86.5S1697.2,1726.9,1697.2,1679.1z M1378.1,1679.1
			c0-47.8,38.8-86.5,86.5-86.5c47.8,0,86.5,38.8,86.5,86.5c0,47.8-38.8,86.5-86.5,86.5C1416.9,1765.6,1378.1,1726.9,1378.1,1679.1z"
			/>
		<path class="st4" d="M1464.6,1622.4c31.4,0,56.7,25.3,56.7,56.7s-25.3,56.7-56.7,56.7s-56.7-25.3-56.7-56.7
			C1407.9,1647.7,1433.2,1622.4,1464.6,1622.4z"/>
		<polygon class="st4" points="1292.2,1703 1292.2,1703 1325.6,1712.6 1478.5,1183.4 1444.8,1173.9 1298.7,1680.5 1054.4,1610.1 
			1048.1,1632.4 		"/>
		
			<rect x="1068.3" y="1362.3" transform="matrix(0.2773 -0.9608 0.9608 0.2773 -594.6234 2219.3169)" class="st2" width="219.2" height="285.3"/>
		<polygon class="st2" points="1214.4,1235.7 1389.5,1286.1 1351.2,1418.7 1176.1,1368.3 		"/>
	</g>
</g>
</svg>
