<?xml version="1.0" encoding="utf-8"?>
<!-- Generator: Adobe Illustrator 26.0.1, SVG Export Plug-In . SVG Version: 6.00 Build 0)  -->
<svg version="1.1" id="Layer_1" xmlns="http://www.w3.org/2000/svg" xmlns:xlink="http://www.w3.org/1999/xlink" x="0px" y="0px"
	 viewBox="0 0 488.06 212.79" style="enable-background:new 0 0 488.06 212.79;" xml:space="preserve">
<style type="text/css">
	.st0{fill-rule:evenodd;clip-rule:evenodd;}
	.st1{fill:#FBB810;}
	.st2{fill:none;stroke:#FBB810;stroke-width:1.4166;stroke-miterlimit:2.6131;stroke-dasharray:7.0828,4.2497;}
	.st3{fill:none;}
</style>
<g>
	<g>
		<polygon class="st0" points="360.47,191.64 466.67,191.64 466.67,193.08 360.47,193.08 		"/>
		<g>
			<path d="M52.26,163.55c0,4.95,0,9.02-0.26,11.18c-0.21,1.49-0.46,2.63-1.49,2.83c-0.46,0.1-1.08,0.21-1.55,0.21
				c-0.31,0-0.41,0.15-0.41,0.31c0,0.31,0.26,0.41,0.82,0.41c0.77,0,1.96-0.1,2.99-0.1c1.08-0.05,1.96-0.05,2.06-0.05
				c0.77,0,2.01,0.05,4.02,0.15c2.01,0.05,4.84,0.15,8.71,0.15c2.01,0,2.42,0,2.78-1.34c0.26-1.08,0.67-4.59,0.67-5
				c0-0.36,0-0.77-0.31-0.77c-0.26,0-0.36,0.21-0.46,0.77c-0.36,2.11-0.98,3.14-2.32,3.71s-3.61,0.57-4.95,0.57
				c-5.05,0-5.82-0.67-5.98-4.23c-0.05-1.08,0-7.06,0-8.81v-4.53c0-0.21,0.1-0.36,0.36-0.36c0.88,0,5.98,0.1,7.37,0.26
				c2.01,0.21,2.47,1.08,2.68,1.8c0.21,0.67,0.21,1.18,0.21,1.7c0,0.26,0.1,0.46,0.36,0.46c0.36,0,0.36-0.57,0.36-0.98
				c0-0.36,0.1-2.27,0.21-3.3c0.15-1.7,0.41-2.58,0.41-2.89s-0.1-0.41-0.26-0.41c-0.21,0-0.41,0.26-0.77,0.67
				c-0.46,0.52-1.19,0.62-2.42,0.72c-1.19,0.1-7.52,0.1-8.19,0.1c-0.26,0-0.31-0.15-0.31-0.52v-14.22c0-0.36,0.1-0.52,0.31-0.52
				c0.57,0,6.18,0.05,7.06,0.15c2.78,0.31,3.3,0.93,3.66,1.75c0.26,0.62,0.31,1.49,0.31,1.85c0,0.41,0.1,0.67,0.41,0.67
				c0.21,0,0.31-0.31,0.36-0.57c0.1-0.62,0.21-2.89,0.26-3.4c0.15-1.44,0.41-2.06,0.41-2.42c0-0.26-0.05-0.46-0.21-0.46
				c-0.26,0-0.46,0.21-0.72,0.26c-0.41,0.1-1.24,0.21-2.22,0.26c-1.18,0.05-11.44,0.05-11.8,0.05l-2.11-0.1
				c-1.13-0.05-2.52-0.05-3.71-0.05c-0.57,0-0.82,0.1-0.82,0.41c0,0.21,0.21,0.31,0.41,0.31c0.46,0,1.34,0.05,1.75,0.15
				c1.7,0.36,2.11,1.19,2.22,2.94c0.1,1.65,0.1,3.09,0.1,11.13L52.26,163.55L52.26,163.55z M111.41,141.75l6.48,0.1
				c4.94,0.1,6.17,1.29,6.33,2.83l0.05,0.57c0.05,0.72,0.15,0.88,0.41,0.88c0.21,0,0.37-0.21,0.37-0.67c0-0.57,0.15-4.12,0.15-5.67
				c0-0.31,0-0.62-0.26-0.62c-0.21,0-0.68,0.15-1.45,0.26c-0.82,0.15-2.01,0.26-3.65,0.26h-19.31c-0.62,0-2.58-0.1-4.07-0.26
				c-1.39-0.1-1.91-0.62-2.27-0.62c-0.21,0-0.41,0.67-0.52,0.98c-0.1,0.41-1.13,4.84-1.13,5.36c0,0.31,0.1,0.46,0.26,0.46
				c0.21,0,0.36-0.1,0.52-0.52c0.15-0.36,0.31-0.72,0.88-1.6c0.82-1.24,2.06-1.6,5.26-1.65l7.63-0.1v21.8c0,4.95,0,9.02-0.26,11.18
				c-0.21,1.49-0.46,2.63-1.49,2.83c-0.46,0.1-1.08,0.21-1.55,0.21c-0.31,0-0.41,0.15-0.41,0.31c0,0.31,0.26,0.41,0.82,0.41
				c1.55,0,4.79-0.15,5.05-0.15s3.5,0.15,6.33,0.15c0.57,0,0.82-0.15,0.82-0.41c0-0.15-0.1-0.31-0.41-0.31
				c-0.46,0-1.6-0.1-2.32-0.21c-1.54-0.21-1.85-1.34-2-2.83c-0.26-2.16-0.26-6.23-0.26-11.18L111.41,141.75L111.41,141.75z
				 M152.78,163.55c0,4.95,0,9.02-0.26,11.18c-0.21,1.49-0.46,2.63-1.49,2.83c-0.46,0.1-1.08,0.21-1.55,0.21
				c-0.31,0-0.41,0.15-0.41,0.31c0,0.31,0.26,0.41,0.82,0.41c0.77,0,1.96-0.1,2.99-0.1c1.08-0.05,1.96-0.05,2.06-0.05
				c0.77,0,2.01,0.05,4.02,0.15c2.01,0.05,4.84,0.15,8.71,0.15c2.01,0,2.42,0,2.78-1.34c0.26-1.08,0.67-4.59,0.67-5
				c0-0.36,0-0.77-0.31-0.77c-0.26,0-0.36,0.21-0.46,0.77c-0.36,2.11-0.98,3.14-2.32,3.71c-1.34,0.57-3.61,0.57-4.95,0.57
				c-5.05,0-5.82-0.67-5.98-4.23c-0.05-1.08,0-7.06,0-8.81v-4.53c0-0.21,0.1-0.36,0.36-0.36c0.88,0,5.98,0.1,7.37,0.26
				c2.01,0.21,2.47,1.08,2.68,1.8c0.21,0.67,0.21,1.18,0.21,1.7c0,0.26,0.1,0.46,0.36,0.46c0.36,0,0.36-0.57,0.36-0.98
				c0-0.36,0.1-2.27,0.21-3.3c0.15-1.7,0.41-2.58,0.41-2.89s-0.1-0.41-0.26-0.41c-0.21,0-0.41,0.26-0.77,0.67
				c-0.46,0.52-1.19,0.62-2.42,0.72c-1.19,0.1-7.52,0.1-8.19,0.1c-0.26,0-0.31-0.15-0.31-0.52v-14.22c0-0.36,0.1-0.52,0.31-0.52
				c0.57,0,6.18,0.05,7.06,0.15c2.78,0.31,3.3,0.93,3.66,1.75c0.26,0.62,0.31,1.49,0.31,1.85c0,0.41,0.1,0.67,0.41,0.67
				c0.21,0,0.31-0.31,0.36-0.57c0.1-0.62,0.21-2.89,0.26-3.4c0.15-1.44,0.41-2.06,0.41-2.42c0-0.26-0.05-0.46-0.21-0.46
				c-0.26,0-0.46,0.21-0.72,0.26c-0.41,0.1-1.24,0.21-2.22,0.26c-1.18,0.05-11.44,0.05-11.8,0.05l-2.11-0.1
				c-1.13-0.05-2.52-0.05-3.71-0.05c-0.57,0-0.82,0.1-0.82,0.41c0,0.21,0.21,0.31,0.41,0.31c0.46,0,1.34,0.05,1.75,0.15
				c1.7,0.36,2.11,1.19,2.22,2.94c0.1,1.65,0.1,3.09,0.1,11.13V163.55L152.78,163.55z M200.96,163.55c0,4.95,0,9.02-0.26,11.18
				c-0.21,1.49-0.46,2.63-1.49,2.83c-0.46,0.1-1.08,0.21-1.55,0.21c-0.31,0-0.41,0.15-0.41,0.31c0,0.31,0.26,0.41,0.82,0.41
				c1.55,0,4.79-0.15,4.84-0.15c0.26,0,3.5,0.15,6.34,0.15c0.57,0,0.82-0.15,0.82-0.41c0-0.15-0.1-0.31-0.41-0.31
				c-0.46,0-1.6-0.1-2.32-0.21c-1.55-0.21-1.86-1.34-2.01-2.83c-0.26-2.16-0.26-6.23-0.26-11.18v-1.24c0-0.26,0.1-0.41,0.36-0.41
				l6.34,0.1c0.31,0,0.46,0.1,0.67,0.31c1.03,1.34,3.45,4.79,5.62,7.63c2.94,3.86,4.74,6.39,6.96,7.57
				c1.34,0.72,2.63,0.98,5.51,0.98h3.66c0.93,0,1.24-0.1,1.24-0.41c0-0.15-0.21-0.31-0.46-0.31c-0.31,0-1.03,0-2.01-0.15
				c-1.29-0.21-3.5-0.77-6.29-3.71c-2.99-3.19-6.49-7.78-10.72-13.19c4.64-4.28,6.23-8.09,6.23-11.9c0-3.56-2.27-6.08-3.56-7.01
				c-2.73-1.96-6.18-2.27-9.43-2.27c-1.6,0-5.51,0.15-6.08,0.15c-0.26,0-3.5-0.15-5.82-0.15c-0.57,0-0.82,0.1-0.82,0.41
				c0,0.21,0.21,0.31,0.41,0.31c0.46,0,1.34,0.05,1.75,0.15c1.7,0.36,2.11,1.19,2.22,2.94c0.1,1.65,0.1,3.09,0.1,11.13v9.07H200.96z
				 M205.08,142.12c0-0.31,0.15-0.52,0.41-0.62c0.52-0.15,1.91-0.31,3.45-0.31c5.51,0,8.91,3.86,8.91,10.3
				c0,3.92-1.34,6.7-3.14,7.94c-1.18,0.82-2.63,0.98-3.86,0.98c-2.27,0-4.64-0.36-5.41-0.82c-0.26-0.15-0.36-0.36-0.36-0.62V142.12
				L205.08,142.12z M257.29,146.8c1.65,1.85,7.46,8.35,13.43,14.79c5.45,5.87,12.86,13.45,13.43,13.96c2.73,2.73,3.36,3.3,3.77,3.3
				c0.36,0,0.46-0.26,0.46-3.66l0.1-30.19c0-3.09,0.21-4.23,1.91-4.59c0.62-0.15,0.98-0.15,1.24-0.15c0.36,0,0.57-0.15,0.57-0.36
				c0-0.31-0.36-0.36-0.93-0.36c-2.11,0-3.81,0.15-4.39,0.15c-0.57,0-3.04-0.15-5.35-0.15c-0.62,0-1.03,0.05-1.03,0.36
				c0,0.21,0.05,0.36,0.41,0.36c0.41,0,1.59,0.05,2.52,0.26c1.6,0.41,1.96,1.55,2.01,4.89l0.57,26.17
				c-1.65-1.7-7.26-7.99-12.35-13.45c-7.93-8.5-15.59-16.8-16.37-17.67c-0.52-0.52-1.4-1.65-1.81-1.65s-0.57,0.57-0.57,2.58
				l-0.05,29.52c0,4.69-0.26,6.18-1.55,6.54c-0.77,0.26-1.7,0.31-2.11,0.31c-0.26,0-0.41,0.1-0.41,0.31c0,0.36,0.31,0.41,0.82,0.41
				c2.32,0,4.48-0.15,4.95-0.15c0.46,0,2.52,0.15,5.45,0.15c0.62,0,0.93-0.1,0.93-0.41c0-0.21-0.15-0.31-0.41-0.31
				c-0.46,0-1.59-0.05-2.57-0.31c-1.39-0.41-1.91-1.75-2.01-5.98L257.29,146.8L257.29,146.8z M326.42,154.48
				c0-8.04,0-9.48,0.1-11.13c0.1-1.8,0.52-2.68,1.91-2.94c0.62-0.1,0.93-0.15,1.29-0.15c0.21,0,0.41-0.1,0.41-0.31
				c0-0.31-0.26-0.41-0.82-0.41c-1.55,0-4.79,0.15-5.05,0.15c-0.26,0-3.5-0.15-5.2-0.15c-0.57,0-0.82,0.1-0.82,0.41
				c0,0.21,0.21,0.31,0.41,0.31c0.36,0,1.03,0.05,1.6,0.21c1.13,0.26,1.65,1.13,1.75,2.89c0.1,1.65,0.1,3.09,0.1,11.13v9.07
				c0,4.95,0,9.02-0.26,11.18c-0.21,1.49-0.46,2.63-1.49,2.83c-0.46,0.1-1.08,0.21-1.55,0.21c-0.31,0-0.41,0.15-0.41,0.31
				c0,0.31,0.26,0.41,0.82,0.41c1.55,0,4.79-0.15,5.05-0.15c0.26,0,3.5,0.15,6.34,0.15c0.57,0,0.82-0.15,0.82-0.41
				c0-0.15-0.1-0.31-0.41-0.31c-0.46,0-1.6-0.1-2.32-0.21c-1.55-0.21-1.86-1.34-2.01-2.83c-0.26-2.16-0.26-6.23-0.26-11.18V154.48
				L326.42,154.48z M372.48,141.75l6.48,0.1c4.94,0.1,6.17,1.29,6.33,2.83l0.05,0.57c0.05,0.72,0.15,0.88,0.41,0.88
				c0.21,0,0.37-0.21,0.37-0.67c0-0.57,0.15-4.12,0.15-5.67c0-0.31,0-0.62-0.26-0.62c-0.21,0-0.68,0.15-1.45,0.26
				c-0.82,0.15-2.01,0.26-3.65,0.26H361.6c-0.62,0-2.58-0.1-4.07-0.26c-1.39-0.1-1.91-0.62-2.27-0.62c-0.21,0-0.41,0.67-0.52,0.98
				c-0.1,0.41-1.13,4.84-1.13,5.36c0,0.31,0.1,0.46,0.26,0.46c0.21,0,0.36-0.1,0.52-0.52c0.15-0.36,0.31-0.72,0.88-1.6
				c0.82-1.24,2.06-1.6,5.26-1.65l7.63-0.1v21.8c0,4.95,0,9.02-0.26,11.18c-0.21,1.49-0.46,2.63-1.49,2.83
				c-0.46,0.1-1.08,0.21-1.55,0.21c-0.31,0-0.41,0.15-0.41,0.31c0,0.31,0.26,0.41,0.82,0.41c1.55,0,4.79-0.15,5.05-0.15
				c0.26,0,3.5,0.15,6.33,0.15c0.57,0,0.82-0.15,0.82-0.41c0-0.15-0.1-0.31-0.41-0.31c-0.46,0-1.6-0.1-2.32-0.21
				c-1.54-0.21-1.85-1.34-2-2.83c-0.26-2.16-0.26-6.23-0.26-11.18L372.48,141.75L372.48,141.75z M419.58,169.58
				c0,0.82,0,2.99-0.15,5.15c-0.1,1.49-0.57,2.63-1.6,2.83c-0.46,0.1-1.08,0.21-1.55,0.21c-0.31,0-0.41,0.15-0.41,0.31
				c0,0.31,0.26,0.41,0.82,0.41c1.55,0,4.79-0.15,5.05-0.15c0.26,0,3.5,0.15,6.34,0.15c0.57,0,0.82-0.15,0.82-0.41
				c0-0.15-0.1-0.31-0.41-0.31c-0.46,0-1.6-0.1-2.32-0.21c-1.55-0.21-2.01-1.34-2.11-2.83c-0.15-2.16-0.15-4.33-0.15-5.15v-4.43
				c0-1.7,0-3.3,0.77-5.15c0.93-2.22,8.14-14.32,9.84-16.38c1.13-1.39,1.7-2.01,2.73-2.63c0.82-0.52,1.8-0.72,2.37-0.72
				c0.41,0,0.67-0.15,0.67-0.41c0-0.21-0.31-0.31-0.67-0.31c-0.98,0-4.69,0.15-5,0.15c-0.41,0-2.06-0.15-3.4-0.15
				c-0.52,0-0.82,0.1-0.82,0.31c0,0.26,0.31,0.36,0.77,0.52c0.62,0.15,0.82,0.72,0.82,1.44c0,0.67-0.21,1.55-0.88,2.63
				c-1.03,1.7-7.57,12.98-8.55,15.15c-0.93-1.49-8.66-14.79-9.48-16.28c-0.41-0.77-0.67-1.39-0.67-2.01c0-0.41,0.26-0.72,0.67-0.93
				c0.46-0.21,0.77-0.26,0.77-0.46c0-0.21-0.1-0.36-0.67-0.36c-2.01,0-3.97,0.15-4.33,0.15c-0.26,0-4.12-0.15-5.1-0.15
				c-0.46,0-0.67,0.15-0.67,0.36c0,0.26,0.26,0.36,0.52,0.36c0.46,0,1.44,0.31,2.22,0.82c0.93,0.62,2.22,1.91,3.5,3.81
				c1.8,2.68,8.71,14.01,9.07,14.84c0.67,1.49,1.19,2.63,1.19,5.41L419.58,169.58L419.58,169.58z"/>
		</g>
		<polygon class="st0" points="21.32,124.68 466.74,124.68 466.74,126.12 21.32,126.12 		"/>
		<polygon class="st0" points="21.32,191.64 127.51,191.64 127.51,193.08 21.32,193.08 		"/>
		<g>
			<g>
				<path class="st1" d="M139.3,190.43c0-3.43,0-4.05-0.04-4.75c-0.04-0.75-0.22-1.1-0.95-1.25c-0.18-0.04-0.55-0.07-0.75-0.07
					c-0.09,0-0.18-0.04-0.18-0.13c0-0.13,0.11-0.18,0.35-0.18c0.51,0,1.1,0,1.58,0.02l0.9,0.04c0.44,0.02,4.91,0,5.41-0.02
					c0.42-0.02,0.77-0.02,0.97-0.09c0.13-0.04,0.22-0.13,0.31-0.13s0.13,0.09,0.13,0.2c0,0.15-0.11,0.42-0.18,1.03
					c-0.02,0.22-0.07,1.19-0.11,1.45c-0.02,0.11-0.07,0.24-0.18,0.24s-0.15-0.11-0.15-0.26c0-0.18-0.07-0.55-0.2-0.84
					c-0.13-0.29-0.64-0.68-1.5-0.7l-3.39-0.07c-0.13,0-0.2,0.07-0.2,0.24v6.07c0,0.13,0.02,0.2,0.15,0.2l2.82-0.02
					c0.37,0,0.68,0,0.99-0.02c0.53-0.04,0.81-0.11,1.01-0.4c0.09-0.11,0.15-0.22,0.24-0.22s0.11,0.07,0.11,0.18
					c0,0.13-0.11,0.51-0.18,1.23c-0.04,0.44-0.09,1.32-0.09,1.47c0,0.2,0,0.42-0.15,0.42c-0.11,0-0.15-0.09-0.15-0.2
					c-0.02-0.22-0.04-0.53-0.13-0.79c-0.11-0.31-0.46-0.7-1.14-0.79c-0.55-0.07-2.95-0.07-3.32-0.07c-0.11,0-0.15,0.04-0.15,0.2
					v1.87c0,2.11,0,3.85,0.11,4.77c0.07,0.64,0.2,1.12,0.86,1.21c0.31,0.04,0.79,0.09,0.99,0.09c0.13,0,0.18,0.07,0.18,0.13
					c0,0.11-0.11,0.18-0.35,0.18c-1.21,0-2.6-0.07-2.71-0.07s-1.5,0.07-2.16,0.07c-0.24,0-0.35-0.04-0.35-0.18
					c0-0.07,0.04-0.13,0.18-0.13c0.2,0,0.46-0.04,0.66-0.09c0.44-0.09,0.55-0.57,0.64-1.21c0.11-0.92,0.11-2.66,0.11-4.77
					L139.3,190.43L139.3,190.43z"/>
				<path class="st1" d="M164.58,183.74c4.95,0,8.65,3.12,8.65,8.25c0,4.93-3.48,9-8.78,9c-6.03,0-8.54-4.69-8.54-8.65
					C155.91,188.78,158.51,183.74,164.58,183.74z M165.05,200.15c1.98,0,6.07-1.14,6.07-7.55c0-5.28-3.21-8.12-6.69-8.12
					c-3.67,0-6.42,2.42-6.42,7.24C158,196.85,161.09,200.15,165.05,200.15z"/>
			</g>
			<g>
				<path class="st1" d="M183.97,190.43c0-3.43,0-4.05-0.04-4.75c-0.04-0.75-0.22-1.1-0.95-1.25c-0.18-0.04-0.55-0.07-0.75-0.07
					c-0.09,0-0.18-0.04-0.18-0.13c0-0.13,0.11-0.18,0.35-0.18c0.99,0,2.38,0.07,2.49,0.07c0.24,0,1.91-0.07,2.6-0.07
					c1.39,0,2.86,0.13,4.03,0.97c0.55,0.4,1.52,1.47,1.52,2.99c0,1.63-0.68,3.26-2.66,5.08c1.8,2.31,3.3,4.27,4.58,5.63
					c1.19,1.25,2.13,1.5,2.68,1.58c0.42,0.07,0.73,0.07,0.86,0.07c0.11,0,0.2,0.07,0.2,0.13c0,0.13-0.13,0.18-0.53,0.18h-1.56
					c-1.23,0-1.78-0.11-2.35-0.42c-0.95-0.51-1.72-1.58-2.97-3.24c-0.92-1.21-1.96-2.68-2.4-3.26c-0.09-0.09-0.15-0.13-0.29-0.13
					l-2.71-0.04c-0.11,0-0.15,0.07-0.15,0.18v0.53c0,2.11,0,3.85,0.11,4.77c0.07,0.64,0.2,1.12,0.86,1.21
					c0.31,0.04,0.79,0.09,0.99,0.09c0.13,0,0.18,0.07,0.18,0.13c0,0.11-0.11,0.18-0.35,0.18c-1.21,0-2.6-0.07-2.71-0.07
					c-0.02,0-1.41,0.07-2.07,0.07c-0.24,0-0.35-0.04-0.35-0.18c0-0.07,0.04-0.13,0.18-0.13c0.2,0,0.46-0.04,0.66-0.09
					c0.44-0.09,0.55-0.57,0.64-1.21c0.11-0.92,0.11-2.66,0.11-4.77v-3.87H183.97z M185.73,192.34c0,0.11,0.04,0.2,0.15,0.26
					c0.33,0.2,1.34,0.35,2.31,0.35c0.53,0,1.14-0.07,1.65-0.42c0.77-0.53,1.34-1.72,1.34-3.39c0-2.75-1.45-4.4-3.81-4.4
					c-0.66,0-1.25,0.07-1.47,0.13c-0.11,0.04-0.18,0.13-0.18,0.26v7.21H185.73z"/>
				<path class="st1" d="M220.23,197.64h0.09c0.59-2.02,2.62-8.41,3.39-11.22c0.22-0.81,0.24-1.12,0.24-1.41
					c0-0.4-0.24-0.66-1.25-0.66c-0.11,0-0.2-0.07-0.2-0.15c0-0.11,0.11-0.15,0.37-0.15c1.12,0,2.05,0.07,2.24,0.07
					c0.15,0,1.1-0.07,1.78-0.07c0.2,0,0.31,0.04,0.31,0.13c0,0.11-0.07,0.18-0.2,0.18c-0.09,0-0.51,0.02-0.75,0.11
					c-0.66,0.24-1.01,1.17-1.43,2.38c-0.97,2.79-3.19,9.79-4.05,12.26c-0.57,1.63-0.68,1.89-0.92,1.89c-0.22,0-0.35-0.29-0.66-1.14
					l-4.31-12.23h-0.04c-0.79,2.11-3.81,10.17-4.6,12.21c-0.35,0.92-0.46,1.17-0.73,1.17c-0.22,0-0.33-0.24-0.77-1.74l-3.92-13.05
					c-0.35-1.17-0.64-1.5-1.21-1.72c-0.29-0.11-0.84-0.13-0.99-0.13c-0.11,0-0.2-0.02-0.2-0.15c0-0.11,0.13-0.15,0.35-0.15
					c1.14,0,2.35,0.07,2.6,0.07c0.2,0,1.17-0.07,2.27-0.07c0.31,0,0.4,0.07,0.4,0.15c0,0.13-0.11,0.15-0.22,0.15
					c-0.18,0-0.59,0-0.86,0.13c-0.13,0.07-0.29,0.24-0.29,0.53s0.2,1.06,0.42,2.02c0.33,1.41,2.62,9.48,2.95,10.65h0.04l4.66-12.54
					c0.33-0.9,0.42-1.01,0.55-1.01c0.15,0,0.29,0.29,0.55,1.03L220.23,197.64z"/>
			</g>
			<g>
				<path class="st1" d="M238.83,184.6c0.26-0.73,0.35-0.86,0.48-0.86c0.13,0,0.22,0.11,0.48,0.79c0.33,0.84,3.79,9.92,5.13,13.27
					c0.79,1.96,1.43,2.31,1.89,2.44c0.33,0.11,0.66,0.13,0.88,0.13c0.13,0,0.22,0.02,0.22,0.13c0,0.13-0.2,0.18-0.44,0.18
					c-0.33,0-1.94,0-3.46-0.04c-0.42-0.02-0.66-0.02-0.66-0.15c0-0.09,0.07-0.13,0.15-0.15c0.13-0.04,0.26-0.24,0.13-0.59
					l-2.05-5.41c-0.04-0.09-0.09-0.13-0.2-0.13h-4.73c-0.11,0-0.18,0.07-0.22,0.18l-1.32,3.89c-0.2,0.55-0.31,1.08-0.31,1.47
					c0,0.44,0.46,0.64,0.84,0.64h0.22c0.15,0,0.22,0.04,0.22,0.13c0,0.13-0.13,0.18-0.33,0.18c-0.53,0-1.47-0.07-1.72-0.07
					c-0.24,0-1.45,0.07-2.49,0.07c-0.29,0-0.42-0.04-0.42-0.18c0-0.09,0.09-0.13,0.2-0.13c0.15,0,0.46-0.02,0.64-0.04
					c1.01-0.13,1.45-0.97,1.85-2.07L238.83,184.6z M241.11,193.4c0.11,0,0.11-0.07,0.09-0.15l-2.09-5.94
					c-0.11-0.33-0.22-0.33-0.33,0l-1.94,5.94c-0.04,0.11,0,0.15,0.07,0.15H241.11z"/>
				<path class="st1" d="M257.15,190.43c0-3.43,0-4.05-0.04-4.75c-0.04-0.75-0.22-1.1-0.95-1.25c-0.18-0.04-0.55-0.07-0.75-0.07
					c-0.09,0-0.18-0.04-0.18-0.13c0-0.13,0.11-0.18,0.35-0.18c0.99,0,2.38,0.07,2.49,0.07c0.24,0,1.91-0.07,2.6-0.07
					c1.39,0,2.86,0.13,4.03,0.97c0.55,0.4,1.52,1.47,1.52,2.99c0,1.63-0.68,3.26-2.66,5.08c1.8,2.31,3.3,4.27,4.58,5.63
					c1.19,1.25,2.13,1.5,2.68,1.58c0.42,0.07,0.73,0.07,0.86,0.07c0.11,0,0.2,0.07,0.2,0.13c0,0.13-0.13,0.18-0.53,0.18h-1.56
					c-1.23,0-1.78-0.11-2.35-0.42c-0.95-0.51-1.72-1.58-2.97-3.24c-0.92-1.21-1.96-2.68-2.4-3.26c-0.09-0.09-0.15-0.13-0.29-0.13
					l-2.71-0.04c-0.11,0-0.15,0.07-0.15,0.18v0.53c0,2.11,0,3.85,0.11,4.77c0.07,0.64,0.2,1.12,0.86,1.21
					c0.31,0.04,0.79,0.09,0.99,0.09c0.13,0,0.18,0.07,0.18,0.13c0,0.11-0.11,0.18-0.35,0.18c-1.21,0-2.6-0.07-2.71-0.07
					c-0.02,0-1.41,0.07-2.07,0.07c-0.24,0-0.35-0.04-0.35-0.18c0-0.07,0.04-0.13,0.18-0.13c0.2,0,0.46-0.04,0.66-0.09
					c0.44-0.09,0.55-0.57,0.64-1.21c0.11-0.92,0.11-2.66,0.11-4.77v-3.87H257.15z M258.91,192.34c0,0.11,0.04,0.2,0.15,0.26
					c0.33,0.2,1.34,0.35,2.31,0.35c0.53,0,1.14-0.07,1.65-0.42c0.77-0.53,1.34-1.72,1.34-3.39c0-2.75-1.45-4.4-3.81-4.4
					c-0.66,0-1.25,0.07-1.47,0.13c-0.11,0.04-0.18,0.13-0.18,0.26v7.21H258.91z"/>
				<path class="st1" d="M279.83,190.43c0-3.43,0-4.05-0.04-4.75c-0.04-0.75-0.22-1.1-0.95-1.25c-0.18-0.04-0.55-0.07-0.75-0.07
					c-0.09,0-0.18-0.04-0.18-0.13c0-0.13,0.11-0.18,0.35-0.18c0.99,0,2.38,0.07,2.49,0.07c0.26,0,1.65-0.07,2.97-0.07
					c2.18,0,6.2-0.2,8.82,2.51c1.1,1.14,2.13,2.97,2.13,5.59c0,2.77-1.14,4.91-2.38,6.21c-0.95,0.99-2.93,2.53-6.67,2.53
					c-0.95,0-2.11-0.07-3.06-0.13c-0.97-0.07-1.72-0.13-1.83-0.13c-0.04,0-0.42,0-0.88,0.02c-0.44,0-0.95,0.04-1.28,0.04
					c-0.24,0-0.35-0.04-0.35-0.18c0-0.07,0.04-0.13,0.18-0.13c0.2,0,0.46-0.04,0.66-0.09c0.44-0.09,0.55-0.57,0.64-1.21
					c0.11-0.92,0.11-2.66,0.11-4.77v-3.88H279.83z M281.68,192.8c0,2.33,0.02,4.36,0.04,4.78c0.02,0.55,0.07,1.43,0.24,1.67
					c0.29,0.42,1.14,0.88,3.74,0.88c2.05,0,3.94-0.75,5.24-2.05c1.14-1.12,1.76-3.23,1.76-5.26c0-2.79-1.21-4.6-2.11-5.54
					c-2.07-2.18-4.58-2.49-7.19-2.49c-0.44,0-1.25,0.07-1.43,0.15c-0.2,0.09-0.26,0.2-0.26,0.44c-0.02,0.75-0.02,2.99-0.02,4.69
					v2.73H281.68z"/>
				<path class="st1" d="M306.1,190.43c0-3.43,0-4.05-0.04-4.75c-0.04-0.75-0.22-1.1-0.95-1.25c-0.18-0.04-0.55-0.07-0.75-0.07
					c-0.09,0-0.18-0.04-0.18-0.13c0-0.13,0.11-0.18,0.35-0.18c0.51,0,1.1,0,1.58,0.02l0.9,0.04c0.15,0,4.53,0,5.04-0.02
					c0.42-0.02,0.77-0.07,0.95-0.11c0.11-0.02,0.2-0.11,0.31-0.11c0.07,0,0.09,0.09,0.09,0.2c0,0.15-0.11,0.42-0.18,1.03
					c-0.02,0.22-0.07,1.19-0.11,1.45c-0.02,0.11-0.07,0.24-0.15,0.24c-0.13,0-0.18-0.11-0.18-0.29c0-0.15-0.02-0.53-0.13-0.79
					c-0.15-0.35-0.37-0.62-1.56-0.75c-0.37-0.04-2.77-0.07-3.01-0.07c-0.09,0-0.13,0.07-0.13,0.22v6.07c0,0.15,0.02,0.22,0.13,0.22
					c0.29,0,2.99,0,3.5-0.04c0.53-0.04,0.84-0.09,1.03-0.31c0.15-0.18,0.24-0.29,0.33-0.29c0.07,0,0.11,0.04,0.11,0.18
					s-0.11,0.51-0.18,1.23c-0.04,0.44-0.09,1.25-0.09,1.41c0,0.18,0,0.42-0.15,0.42c-0.11,0-0.15-0.09-0.15-0.2
					c0-0.22,0-0.44-0.09-0.73c-0.09-0.31-0.29-0.68-1.14-0.77c-0.59-0.07-2.77-0.11-3.15-0.11c-0.11,0-0.15,0.07-0.15,0.15v1.94
					c0,0.75-0.02,3.3,0,3.76c0.07,1.52,0.4,1.8,2.55,1.8c0.57,0,1.54,0,2.11-0.24s0.84-0.68,0.99-1.58c0.04-0.24,0.09-0.33,0.2-0.33
					c0.13,0,0.13,0.18,0.13,0.33c0,0.18-0.18,1.67-0.29,2.13c-0.15,0.57-0.33,0.57-1.19,0.57c-1.65,0-2.86-0.04-3.72-0.07
					c-0.86-0.04-1.39-0.07-1.72-0.07c-0.04,0-0.42,0-0.88,0.02c-0.44,0-0.95,0.04-1.28,0.04c-0.24,0-0.35-0.04-0.35-0.18
					c0-0.07,0.04-0.13,0.18-0.13c0.2,0,0.46-0.04,0.66-0.09c0.44-0.09,0.55-0.57,0.64-1.21c0.11-0.92,0.11-2.66,0.11-4.77v-3.83
					H306.1z"/>
				<path class="st1" d="M325.61,190.43c0-3.43,0-4.05-0.04-4.75c-0.04-0.75-0.22-1.1-0.95-1.25c-0.18-0.04-0.55-0.07-0.75-0.07
					c-0.09,0-0.18-0.04-0.18-0.13c0-0.13,0.11-0.18,0.35-0.18c0.99,0,2.38,0.07,2.49,0.07c0.24,0,1.91-0.07,2.6-0.07
					c1.39,0,2.86,0.13,4.03,0.97c0.55,0.4,1.52,1.47,1.52,2.99c0,1.63-0.68,3.26-2.66,5.08c1.8,2.31,3.3,4.27,4.58,5.63
					c1.19,1.25,2.13,1.5,2.68,1.58c0.42,0.07,0.73,0.07,0.86,0.07c0.11,0,0.2,0.07,0.2,0.13c0,0.13-0.13,0.18-0.53,0.18h-1.56
					c-1.23,0-1.78-0.11-2.35-0.42c-0.95-0.51-1.72-1.58-2.97-3.24c-0.92-1.21-1.96-2.68-2.4-3.26c-0.09-0.09-0.15-0.13-0.29-0.13
					l-2.71-0.04c-0.11,0-0.15,0.07-0.15,0.18v0.53c0,2.11,0,3.85,0.11,4.77c0.07,0.64,0.2,1.12,0.86,1.21
					c0.31,0.04,0.79,0.09,0.99,0.09c0.13,0,0.18,0.07,0.18,0.13c0,0.11-0.11,0.18-0.35,0.18c-1.21,0-2.6-0.07-2.71-0.07
					c-0.02,0-1.41,0.07-2.07,0.07c-0.24,0-0.35-0.04-0.35-0.18c0-0.07,0.04-0.13,0.18-0.13c0.2,0,0.46-0.04,0.66-0.09
					c0.44-0.09,0.55-0.57,0.64-1.21c0.11-0.92,0.11-2.66,0.11-4.77v-3.87H325.61z M327.37,192.34c0,0.11,0.04,0.2,0.15,0.26
					c0.33,0.2,1.34,0.35,2.31,0.35c0.53,0,1.14-0.07,1.65-0.42c0.77-0.53,1.34-1.72,1.34-3.39c0-2.75-1.45-4.4-3.81-4.4
					c-0.66,0-1.25,0.07-1.47,0.13c-0.11,0.04-0.18,0.13-0.18,0.26v7.21H327.37z"/>
			</g>
			<g>
				<path class="st1" d="M346.41,200.39c-0.31-0.15-0.33-0.24-0.33-0.84c0-1.1,0.09-1.98,0.11-2.33c0.02-0.24,0.07-0.35,0.18-0.35
					c0.13,0,0.15,0.07,0.15,0.24c0,0.2,0,0.51,0.07,0.81c0.33,1.63,1.78,2.24,3.26,2.24c2.11,0,3.15-1.52,3.15-2.93
					c0-1.52-0.64-2.4-2.53-3.96l-0.99-0.81c-2.33-1.91-2.86-3.28-2.86-4.77c0-2.35,1.76-3.96,4.55-3.96c0.86,0,1.5,0.09,2.05,0.22
					c0.42,0.09,0.59,0.11,0.77,0.11s0.22,0.04,0.22,0.15s-0.09,0.84-0.09,2.33c0,0.35-0.04,0.51-0.15,0.51
					c-0.13,0-0.15-0.11-0.18-0.29c-0.02-0.26-0.15-0.86-0.29-1.1c-0.13-0.24-0.73-1.17-2.75-1.17c-1.52,0-2.71,0.95-2.71,2.55
					c0,1.25,0.57,2.05,2.68,3.7l0.62,0.48c2.6,2.05,3.21,3.41,3.21,5.17c0,0.9-0.35,2.57-1.87,3.65c-0.95,0.66-2.13,0.92-3.32,0.92
					C348.33,200.99,347.31,200.83,346.41,200.39z"/>
			</g>
		</g>
	</g>
	<g>
		<path class="st2" d="M230.92,97.79l-39.95,0.15l0.22-73.01c13.73-2.57,30.29,1.95,37.88,12.09l31.26,50.39
			c9.86,9.78,22.6,12.04,36.76,10.49V24.44l-30.49-0.17"/>
		<g>
			<path class="st1" d="M188.99,22.57c35.9-3.66,41.39,12.55,54.78,34.59l17.3,27.6c8.73,10.36,16.19,11.4,33.78,11.41l-0.02-69.63
				c-9.53,0-19.07,0-28.6-0.01v10.8h18.13V85.4c-1.92,0.02-4.79-0.19-7.86-1.49c-6.68-2.82-9.82-8.87-12.49-13.8
				c0,0-1.5-2.76-13.84-23.45c-10.55-17.69-16.61-23.48-23.34-27.82c-2.38-1.54-6.44-4.11-12.31-5.58
				c-4.25-1.06-8.15-1.21-12.71-1.39c-3.53-0.14-6.47-0.08-8.52,0.01c-4.91-0.01-9.82-0.03-14.73-0.04c-0.02,33-0.04,66-0.06,99
				h47.18c3.83-4.83,3.76-6.42,5.52-10.6l-42.22-0.11L188.99,22.57z"/>
			<path class="st1" d="M266.22,11.84c0,3.42,0,6.85,0,10.27l32.87,0.07v77.25c-14.02,3.24-28.01-1.18-36.4-7.52
				c-6.3-4.76-13.04-18.06-18.38-26.51c-2.98-4.71-5.32-8.76-8.36-13.61c-2.67-4.26-6.08-10.83-8.8-14.19
				c-7.3-9.01-18.81-12.3-33.97-11.07l-0.2,69.19c13.71-0.07,27.41-0.15,41.12-0.22c2.12-3.86,3.44-7.31,4.26-9.81
				c-11.63,0-23.26,0-34.89,0V37.04c1.66,0.07,4.07,0.34,6.73,1.37c7.3,2.83,10.95,9.2,14.35,15.04
				c7.01,12.07,12.63,21.38,13.43,22.68c7.03,11.58,12.38,20.39,21.68,26.64c4.58,3.08,14.54,8.51,31.02,8.05l18.9-0.19V11.84
				H266.22z"/>
			<line class="st3" x1="265.68" y1="26.55" x2="265.68" y2="26.55"/>
		</g>
	</g>
</g>
</svg>
